<svg width="62" height="18" viewBox="0 0 62 18" fill="none" xmlns="http://www.w3.org/2000/svg">
<path fill-rule="evenodd" clip-rule="evenodd" d="M16.4431 0.307513C16.2626 0.525777 16.1598 0.730528 16.2144 0.762146C17.5314 1.52326 17.4971 1.5225 17.4111 0.789172C17.3139 -0.0367123 16.8981 -0.243502 16.4431 0.307513ZM16.3776 1.88789C15.9042 2.01232 15.8492 2.26271 16.0933 3.17835C16.2075 3.60621 16.4337 3.75206 16.9832 3.75206C17.6545 3.75206 17.7063 3.6901 17.5669 3.05086C17.2504 1.60078 17.2974 1.64642 16.3776 1.88789ZM54.5081 4.04146C54.5051 4.68121 54.4432 4.80232 54.2637 4.51751C54.0528 4.18221 53.8597 4.19496 52.6815 4.62282C51.7739 4.95225 50.7866 5.09326 49.6315 5.05833C48.2361 5.01625 47.6599 5.13227 46.481 5.69272L45.0381 6.37837L40.5744 5.82378C35.9587 5.25007 30.9983 5.27863 30.608 5.88115C30.5011 6.04638 29.142 6.14506 27.0547 6.13919C24.69 6.13282 24.0557 6.1856 24.9435 6.31488C25.8184 6.44237 25.4666 6.47016 23.8105 6.40412C21.8641 6.3266 21.1524 6.18254 20.0575 5.64427C19.3144 5.27914 18.537 4.72022 18.3299 4.40251C18.0563 3.98307 17.7806 3.85787 17.324 3.94559C16.9778 4.01214 16.6948 4.14447 16.6948 4.24009C16.6948 4.33545 17.1233 4.83063 17.6466 5.34033C20.1382 7.76648 24.7684 8.17267 32.4681 6.64023C33.2412 6.48648 33.2872 6.50968 32.9709 6.89623C32.6544 7.28278 32.7301 7.3218 33.7958 7.3218C34.441 7.3218 34.9689 7.43654 34.9689 7.57678C34.9689 7.74379 28.9501 7.8491 17.5197 7.88173L0.0705423 7.93197L18.2177 8.10076C28.1986 8.19383 36.4506 8.28588 36.5552 8.30577C36.6597 8.32566 36.7455 8.45646 36.7455 8.5967C36.7455 8.7474 35.6808 8.86928 34.144 8.89452C31.8034 8.93302 31.6953 8.95444 33.0653 9.10667L34.5882 9.27597L32.875 9.31881C30.9811 9.36624 30.4727 9.87161 32.3189 9.87161C33.1006 9.87161 33.4196 9.96315 33.3021 10.1541C33.1953 10.3278 32.757 10.3767 32.1633 10.2814C31.4788 10.1715 31.0874 10.2378 30.8174 10.5091C30.4928 10.8352 28.8357 10.9005 19.5682 10.9525L8.69995 11.0132L19.325 11.0828C28.7006 11.144 29.9133 11.1967 29.6367 11.5318C29.3785 11.8441 28.3065 11.9217 23.5801 11.9688C18.0461 12.0239 17.9966 12.0288 22.2151 12.1022C26.2258 12.1721 27.1067 12.3273 26.3075 12.8238C25.7435 13.1739 27.6849 13.6963 29.5494 13.6963C31.8004 13.6963 32.6722 13.3669 34.9892 11.6414C35.9399 10.9334 37.0889 10.2469 37.5425 10.1164C38.679 9.78874 40.0747 10.2097 41.8351 11.4107C42.6285 11.952 43.6069 12.487 44.0089 12.5994C44.5323 12.7458 43.8732 12.8472 41.6947 12.9561C39.0186 13.0897 39.1879 13.1038 43.0907 13.0719C46.7655 13.0418 47.6747 12.9594 48.3571 12.5943C48.8107 12.3518 49.182 12.0415 49.182 11.9048C49.182 11.7643 48.3003 11.6565 47.1516 11.6565C44.4308 11.6565 44.4866 11.1626 47.215 11.0937C48.8257 11.0532 48.4889 11.0065 45.7556 10.8915L42.2023 10.7421L45.7919 10.6893C49.7856 10.6307 49.6896 10.5879 49.6896 12.4219C49.6896 13.5433 49.3376 13.3988 54.0043 14.192C56.0442 14.5385 57.5104 14.961 58.8733 15.5947C61.0223 16.5934 61.4185 16.6679 61.8444 16.1526C62.0609 15.8904 62.0528 15.7385 61.8119 15.5404C61.3061 15.1245 58.4589 13.997 55.1665 12.9089C53.5023 12.359 52.1048 11.8732 52.0612 11.8291C52.0173 11.7852 52.2122 11.298 52.4939 10.7467C53.0155 9.72627 52.9949 8.31367 52.4432 7.25805C52.2338 6.85747 52.3472 6.81642 53.5513 6.85646C54.8566 6.8998 54.8632 6.90363 53.7929 6.9995C52.9315 7.07676 52.7254 7.18283 52.8422 7.48855C52.9241 7.7035 53.0597 8.15329 53.1434 8.48808L53.2954 9.09723L54.3703 8.46437C55.4926 7.80371 56.5916 7.66934 57.6297 8.06583C58.1241 8.25452 58.3721 8.17879 58.9152 7.6729C59.2853 7.32817 59.5881 6.99925 59.5881 6.94187C59.5881 6.88425 59.237 6.31487 58.8079 5.67615C57.9457 4.39257 57.4279 4.02769 56.3655 3.95477C55.9741 3.92799 55.3972 3.74339 55.083 3.54476C54.5328 3.19671 54.5117 3.21481 54.5081 4.04146ZM50.2607 4.44459C50.6444 4.50298 51.2729 4.50298 51.6566 4.44459C52.0404 4.3862 51.7264 4.33851 50.9587 4.33851C50.1909 4.33851 49.8769 4.3862 50.2607 4.44459ZM41.7582 4.70671C42.9097 4.75388 44.7945 4.75388 45.946 4.70671C47.0975 4.65954 46.1554 4.62078 43.8521 4.62078C41.5488 4.62078 40.6067 4.65954 41.7582 4.70671ZM55.0932 6.04689C54.9833 6.46914 54.747 6.55685 53.7208 6.55685C52.8198 6.55685 52.3429 6.41763 51.9739 6.04689L51.4663 5.53693H53.346C55.1008 5.53693 55.217 5.57084 55.0932 6.04689ZM6.61087 6.47857C6.85782 6.54334 7.20046 6.539 7.37229 6.46914C7.54412 6.39927 7.34209 6.34649 6.92331 6.35159C6.50453 6.35669 6.36392 6.41381 6.61087 6.47857ZM10.0324 6.48979C10.7654 6.5413 11.9644 6.5413 12.6974 6.48979C13.4304 6.43829 12.8306 6.39621 11.3649 6.39621C9.89918 6.39621 9.29944 6.43829 10.0324 6.48979ZM48.1668 8.94934C48.5158 8.99371 47.8589 9.04751 46.7074 9.06842C45.5559 9.08958 44.6133 9.02048 44.6133 8.91543C44.6127 8.73898 46.6734 8.75862 48.1668 8.94934ZM46.8478 9.55161C45.4942 9.59725 43.21 9.59751 41.7716 9.55186C40.3333 9.50648 41.4409 9.46899 44.2328 9.46874C47.0247 9.46848 48.2013 9.50571 46.8478 9.55161ZM49.182 10.1266C49.182 10.2786 48.3876 10.363 47.215 10.3357L45.248 10.2898L47.1516 10.1266C48.1985 10.0368 49.0838 9.94275 49.1186 9.91751C49.1533 9.89226 49.182 9.98635 49.182 10.1266ZM20.9461 10.572C22.5166 10.6167 25.0864 10.6167 26.6567 10.572C28.2273 10.5272 26.9423 10.4907 23.8014 10.4907C20.6606 10.4907 19.3758 10.5272 20.9461 10.572ZM36.9818 10.7266C36.6232 10.9145 35.5072 11.6488 34.5016 12.3582C32.4448 13.8093 30.7263 14.3516 29.0052 14.0923C27.6981 13.8952 27.1735 14.1181 25.6471 15.5174C25.057 16.0585 24.3631 16.5011 24.1052 16.5011C23.8471 16.5011 23.3694 16.7862 23.0438 17.1345L22.4514 17.7679L15.7027 17.8451L8.95375 17.9221L16.588 17.913L24.2225 17.9035L25.1321 17.2661C25.6326 16.9155 26.5735 16.1781 27.223 15.6276L28.4039 14.6268L30.8615 14.6076C33.1958 14.5898 33.3765 14.5482 34.4613 13.7825C35.746 12.8755 38.2536 10.3808 37.878 10.3831C37.7437 10.3841 37.3404 10.5386 36.9818 10.7266ZM0.133994 11.0716C0.447952 11.1322 0.962163 11.1322 1.27612 11.0716C1.59008 11.0106 1.33323 10.9609 0.705057 10.9609C0.0768874 10.9609 -0.179964 11.0106 0.133994 11.0716ZM48.0399 13.0275L47.2785 13.3557L49.182 13.9722L51.0856 14.5888L48.1668 14.7293L45.248 14.8695L47.9914 14.9205C49.6612 14.9513 50.6762 15.0669 50.5845 15.2153C50.5021 15.3496 50.1241 15.456 49.7447 15.4521C49.3655 15.4481 48.5983 15.5544 48.0399 15.6888C47.2363 15.8818 47.1645 15.9386 47.6955 15.9618C48.0645 15.9779 48.432 16.1633 48.5125 16.3736C48.7338 16.9532 49.6483 16.8357 51.4028 16.0019C53.5868 14.9638 53.5421 14.513 51.2125 14.0788C49.7 13.7968 49.4668 13.6861 49.3049 13.1734C49.1226 12.5968 49.0566 12.5892 48.0399 13.0275ZM14.7278 13.1219C16.5078 13.1657 19.4202 13.1657 21.1999 13.1219C22.9798 13.078 21.5235 13.0423 17.9639 13.0423C14.4042 13.0423 12.9482 13.078 14.7278 13.1219ZM24.2456 13.8832C24.4202 13.9442 24.5628 14.0989 24.5628 14.2275C24.5628 14.3562 23.2781 14.4789 21.7075 14.5005L18.8522 14.5396L22.1517 14.7277C25.3456 14.9095 25.4836 14.896 26.4664 14.3057L27.4816 13.6961L25.705 13.7343C24.7278 13.7555 24.0712 13.8223 24.2456 13.8832ZM1.65683 14.1201C1.83145 14.191 2.11698 14.191 2.29135 14.1201C2.46596 14.0495 2.32307 13.9916 1.97409 13.9916C1.6251 13.9916 1.48247 14.0495 1.65683 14.1201ZM6.08549 14.141C7.29995 14.1877 9.35578 14.1879 10.654 14.1415C11.9525 14.0951 10.9588 14.0569 8.44614 14.0566C5.93346 14.0564 4.87128 14.0944 6.08549 14.141ZM17.4014 14.1395C18.1387 14.1912 19.2809 14.1907 19.9395 14.1385C20.5979 14.0859 19.9943 14.0439 18.5984 14.0444C17.2025 14.0451 16.6639 14.088 17.4014 14.1395ZM42.1521 14.3965C43.5204 14.4424 45.6904 14.4422 46.9744 14.396C48.2584 14.3498 47.1389 14.3124 44.4866 14.3126C41.8343 14.3129 40.7838 14.3506 42.1521 14.3965ZM22.6593 15.3978C21.7745 15.5939 20.5019 16.3499 20.5019 16.6796C20.5019 16.9144 19.5601 17.0175 16.8852 17.0753L13.2685 17.1536L17.5299 17.21C22.0834 17.2699 22.5552 17.1684 24.309 15.7505L24.9435 15.2374L24.0552 15.2614C23.5666 15.2747 22.9385 15.3361 22.6593 15.3978ZM13.8481 15.6694C14.5855 15.7211 15.7276 15.7206 16.3862 15.6684C17.0446 15.6158 16.441 15.5738 15.0451 15.5743C13.6492 15.575 13.1106 15.6179 13.8481 15.6694ZM7.51036 17.9502C7.69335 18.0239 7.91239 18.0147 7.99665 17.93C8.08091 17.8454 7.93117 17.7852 7.66366 17.7962C7.36797 17.8084 7.30782 17.8688 7.51036 17.9502Z" fill="black"/>
</svg>
