<svg width="24" height="24" viewBox="0 0 24 24" fill="none" xmlns="http://www.w3.org/2000/svg">
<path d="M3.75 3H15.75C15.9489 3 16.1397 3.07902 16.2803 3.21967C16.421 3.36032 16.5 3.55109 16.5 3.75V7.5H20.25C20.4489 7.5 20.6397 7.57902 20.7803 7.71967C20.921 7.86032 21 8.05109 21 8.25V20.25C21 20.4489 20.921 20.6397 20.7803 20.7803C20.6397 20.921 20.4489 21 20.25 21H8.25C8.05109 21 7.86032 20.921 7.71967 20.7803C7.57902 20.6397 7.5 20.4489 7.5 20.25V16.5H3.75C3.55109 16.5 3.36032 16.421 3.21967 16.2803C3.07902 16.1397 3 15.9489 3 15.75V3.75C3 3.55109 3.07902 3.36032 3.21967 3.21967C3.36032 3.07902 3.55109 3 3.75 3ZM9 19.5H19.5V9H9V19.5ZM4.5 15H7.5V8.25C7.5 8.05109 7.57902 7.86032 7.71967 7.71967C7.86032 7.57902 8.05109 7.5 8.25 7.5H15V4.5H4.5V15Z" fill="#808080"/>
</svg>
