<svg width="35" height="35" viewBox="0 0 35 35" fill="none" xmlns="http://www.w3.org/2000/svg">
<g clip-path="url(#clip0_332_8606)">
<path d="M9.62095 6.93329L21.2488 6.93304L24.5928 6.92555C24.9268 6.92434 26.6956 6.88519 26.8566 7.02644C27.3149 7.42803 28.0521 8.34177 28.4748 8.81529L30.2056 10.7546C30.585 11.1764 31.051 11.6691 31.3943 12.1098C31.1595 12.4766 30.6218 13.0917 30.323 13.4508L28.3926 15.7614L22.1067 23.2857C21.409 24.1759 20.6236 25.0606 19.9058 25.939C19.5915 26.3236 18.4298 27.8442 18.0834 27.995C17.6579 27.6037 17.2321 27.0571 16.8603 26.6056L15.4347 24.8853L10.6267 19.1081L6.9065 14.6319C6.49561 14.1398 5.18547 12.6136 4.89502 12.1243C5.09616 11.7474 5.56203 11.3019 5.85536 10.9759L7.52744 9.11007C8.12882 8.43849 8.72337 7.73168 9.34317 7.07547C9.42317 6.99074 9.51006 6.96244 9.62095 6.93329ZM22.4085 21.9115L27.4347 15.8722C28.2388 14.9086 29.4991 13.3036 30.334 12.4338L25.1485 12.4476C24.5963 12.4474 23.0405 12.4786 22.5572 12.4047C21.8101 15.2589 21.0469 18.1089 20.2676 20.9545C19.8182 22.61 19.3194 24.6476 18.7843 26.244C19.1765 25.8372 19.6339 25.2284 20.0118 24.7725C20.802 23.8116 21.6009 22.8579 22.4085 21.9115ZM17.3446 25.9677C17.247 25.6983 17.1502 25.2766 17.0686 24.9841L16.4804 22.8604L14.7011 16.2956L14.0086 13.7398C13.9083 13.3634 13.7847 12.7857 13.6727 12.4412L8.82005 12.4438C7.91283 12.4432 6.88974 12.4612 5.98973 12.426C6.03576 12.591 7.6689 14.5079 7.87955 14.7619L15.6672 24.1065C15.8732 24.35 17.0964 25.8916 17.2683 26.0073C17.2883 25.9979 17.3312 25.9811 17.3446 25.9677ZM18.9818 23.1608L20.8666 16.2346C21.1348 15.2343 21.5986 13.2625 21.933 12.3932C21.264 12.4775 19.4248 12.456 18.6885 12.4449C17.314 12.4242 15.6856 12.491 14.3322 12.431C14.3927 12.7277 14.5487 13.2145 14.6337 13.5274L15.2563 15.8361L17.4781 23.9938C17.5457 24.2439 18.0534 26.2215 18.0737 26.2423L18.1396 26.2429C18.1394 26.243 18.952 23.3401 18.9818 23.1608ZM22.9599 11.8446C24.0863 11.7765 25.6458 11.8226 26.7963 11.8251C27.8647 11.8242 29.2445 11.7868 30.2854 11.853C29.9635 11.4878 26.7448 7.79913 26.5994 7.74682C25.803 8.64618 25.0114 9.54984 24.2247 10.4578C23.854 10.8816 23.3815 11.4719 22.9763 11.8304L22.9599 11.8446ZM5.93378 11.8678C6.90533 11.7613 8.56539 11.8378 9.59905 11.828C10.655 11.8274 12.2661 11.7801 13.2787 11.868C12.7475 11.3367 9.88994 7.89852 9.60759 7.74925C8.74057 8.68205 7.8972 9.74939 7.01521 10.6826C6.66277 11.0555 6.30763 11.5264 5.93378 11.8678ZM18.0742 7.70313C17.8092 8.16306 14.9349 11.5092 14.5342 11.8482C15.5995 11.7792 17.0832 11.8235 18.1727 11.8291C18.9651 11.8254 21.0221 11.773 21.6833 11.8925C21.2249 11.384 18.2051 7.76876 18.0742 7.70313ZM18.8686 7.52212C18.9533 7.89439 21.8658 10.9197 22.2805 11.6361C22.8544 11.0039 23.4197 10.3641 23.9763 9.71656C24.6168 9.00226 25.2661 8.24549 25.9217 7.55366L21.4139 7.55868C20.7528 7.55848 19.4873 7.59358 18.8686 7.52212ZM10.3923 7.53224C10.437 7.67629 10.7374 7.95123 10.8589 8.09978C11.4679 8.84412 12.1202 9.55279 12.7472 10.2817C13.0465 10.622 13.5901 11.2894 13.9024 11.5702C14.032 11.533 15.3003 10.0276 15.4752 9.80304L17.4478 7.52872C16.5341 7.61682 14.7731 7.55155 13.78 7.55609C12.9641 7.55985 11.1145 7.60467 10.3923 7.53224Z" fill="black"/>
</g>
<defs>
<clipPath id="clip0_332_8606">
<rect width="35" height="35" fill="white"/>
</clipPath>
</defs>
</svg>
