<svg width="43" height="22" viewBox="0 0 43 22" fill="none" xmlns="http://www.w3.org/2000/svg">
<path fill-rule="evenodd" clip-rule="evenodd" d="M17.5841 0.296435C17.2058 0.460934 16.8544 0.575725 16.8032 0.551503C16.7521 0.527281 16.4695 0.833953 16.1752 1.23288C15.8809 1.63202 15.6388 1.86897 15.6371 1.75944C15.6304 1.34535 15.2255 2.21377 15.2224 2.64892C15.2207 2.89978 15.1255 3.13673 15.011 3.17549C14.6802 3.28691 14.6263 6.46842 14.9447 7.08239C15.2843 7.73723 15.2885 7.84191 14.9672 7.64308C14.8287 7.55756 14.924 7.78083 15.1792 8.13931C15.5057 8.59785 15.5659 8.8169 15.383 8.87798C15.2278 8.92958 15.355 9.11725 15.6971 9.34157C16.0133 9.54861 16.2719 9.84159 16.2719 9.9924C16.2719 10.1432 16.3904 10.3064 16.535 10.3551C16.7403 10.4242 16.7346 10.5209 16.5093 10.7938C16.259 11.0973 15.6398 11.1494 11.8776 11.1829L7.53476 11.2216L12.377 11.3659C15.0402 11.4451 17.8586 11.5226 18.6404 11.5378C21.0771 11.5852 20.2629 11.9851 17.693 12.0033C16.3904 12.0123 15.4434 12.0679 15.5889 12.1265C15.7344 12.1852 15.7998 12.3198 15.7344 12.4258C15.6662 12.5361 16.3403 12.6185 17.3121 12.6185C18.3029 12.6185 19.0088 12.7061 19.0088 12.8291C19.0088 12.9582 17.8477 13.0517 16.0087 13.0707C13.3431 13.0983 13.1495 13.1232 14.2718 13.295C14.9666 13.4014 16.3641 13.5362 17.3772 13.595C18.3904 13.6535 19.2193 13.7896 19.2193 13.8972C19.2193 14.0048 18.485 14.1059 17.5877 14.1219C16.6904 14.1379 14.3929 14.2155 12.4823 14.2942L9.00848 14.4375L12.0086 14.4758C13.8427 14.4992 15.0087 14.5961 15.0087 14.7248C15.0087 14.8475 15.7104 14.9354 16.6929 14.9354C17.6755 14.9354 18.3772 15.0232 18.3772 15.146C18.3772 15.2686 17.6835 15.3566 16.7169 15.3566C15.0756 15.3566 14.1145 15.6397 14.0086 16.1541C13.972 16.332 14.3398 16.4098 15.2192 16.4098C15.914 16.4098 16.4824 16.4936 16.4824 16.596C16.4824 16.6983 14.943 16.8727 13.0612 16.9835C10.4395 17.1377 10.0513 17.1927 11.3995 17.2186C12.8684 17.2468 13.1389 17.3045 13.0377 17.5682C12.9368 17.8315 13.1764 17.8841 14.4764 17.8841C15.3346 17.8841 16.095 17.9789 16.1666 18.0948C16.251 18.2315 15.0179 18.3206 12.6526 18.3488C10.6483 18.3726 9.84683 18.4238 10.8713 18.4625C12.732 18.5329 12.7341 18.5337 12.6042 19.051C12.4823 19.5371 12.5267 19.5692 13.3204 19.5692C13.7857 19.5692 14.1665 19.6639 14.1665 19.7798C14.1665 19.8956 13.7939 19.9904 13.3385 19.9904C12.4174 19.9904 12.1482 20.3723 12.3898 21.3359L12.525 21.8749L9.29312 21.9412C7.33475 21.9812 7.88508 22.0042 10.69 21.9994C15.0693 21.9918 15.3232 21.9697 15.396 21.5905C15.4384 21.3702 15.3211 21.1048 15.1356 21.001C14.7497 20.7849 14.6973 20.1511 15.016 19.5553C15.1853 19.2391 15.4609 19.1479 16.2479 19.1479C17.4605 19.1479 18.3702 18.8543 19.629 18.0562C20.1438 17.73 20.6648 17.4644 20.7869 17.4661C20.909 17.4679 20.8667 17.5613 20.693 17.6735C20.4661 17.8203 20.6735 17.8776 21.4299 17.8778C22.2285 17.8778 22.8487 18.0653 23.999 18.6542C24.8332 19.0813 25.4671 19.5093 25.4077 19.6052C25.3483 19.7012 25.6134 19.7813 25.9966 19.7829C26.5008 19.7853 26.609 19.8396 26.3884 19.9792C26.1913 20.1039 26.4073 20.1288 26.9995 20.0492C27.7046 19.9546 27.8779 19.9875 27.7518 20.1916C27.6265 20.3942 27.749 20.4214 28.2722 20.3063C28.8 20.1903 28.9186 20.2175 28.7903 20.4249C28.6705 20.6189 28.7272 20.6543 28.9941 20.5519C29.8335 20.2297 30.4386 20.1423 30.3022 20.3632C30.2091 20.5138 30.3702 20.509 30.7961 20.3481L31.4281 20.1094L30.9555 19.8468C30.0617 19.3501 31.0176 19.5696 32.013 20.0896C32.561 20.3759 33.2461 20.653 33.5355 20.7057C33.825 20.7586 34.0619 20.8156 34.0619 20.8329C34.0619 20.8502 34.2541 20.9007 34.4888 20.9454C34.7238 20.99 35.5291 21.1731 36.2784 21.3519C38.1835 21.8069 41.9543 22.0149 42.5465 21.6977C43.0602 21.4229 43.1562 20.7956 42.7379 20.4483C42.5886 20.3245 41.9964 20.2305 41.4221 20.24C40.0183 20.263 36.8278 18.8164 36.0038 17.7833C35.4512 17.0903 35.447 17.0648 35.8621 16.933C36.0975 16.8582 36.6415 16.8531 37.0708 16.9216C37.9138 17.056 38.6207 16.7954 38.1698 16.5166C38.0079 16.4165 38.2201 16.2242 38.7584 15.983C39.7271 15.5494 40.0067 14.9562 39.5711 14.2605C39.4046 13.9945 39.2193 13.1863 39.1593 12.4647C39.0669 11.3552 38.9494 11.0516 38.3982 10.5002C38.0395 10.1415 37.7462 9.90499 37.7462 9.97492C37.7462 10.0446 37.4508 9.94901 37.09 9.7624C36.7291 9.57557 36.2611 9.46794 36.0499 9.52334C35.7813 9.59348 35.4992 9.38243 35.1095 8.81985C34.1996 7.50638 33.7029 7.5087 32.8884 8.82996C32.6075 9.28554 32.3147 9.66088 32.2378 9.66404C31.9873 9.67415 30.6165 11.1024 30.7394 11.2252C30.8051 11.2911 30.6952 11.4076 30.4952 11.4845C30.207 11.5951 30.19 11.661 30.4125 11.8021C30.6127 11.9291 30.5538 11.9811 30.2072 11.9835C29.9373 11.9851 29.779 12.0803 29.8512 12.1972C30.0342 12.4932 29.8259 12.4601 29.0807 12.0744C28.7263 11.8912 28.4998 11.8438 28.5773 11.9691C28.808 12.3428 28.3689 12.2286 27.7743 11.7606C27.4692 11.5207 27.2196 11.3985 27.2196 11.4895C27.2196 11.5805 26.7406 11.1845 26.1553 10.6095C25.57 10.0347 25.161 9.74913 25.2464 9.97492C25.3968 10.372 25.3818 10.3711 24.7843 9.95196C23.8704 9.31082 23.1418 8.95233 23.3116 9.22741C23.4935 9.52165 23.3089 9.52186 22.7601 9.22783C22.5226 9.10082 21.6682 8.98224 20.8617 8.96455C19.4989 8.93485 19.353 8.88535 18.7991 8.26506C18.4711 7.89773 18.1485 7.65171 18.082 7.71827C17.8285 7.97187 17.0527 5.73691 17.0077 4.62291C16.959 3.42466 17.1113 2.98213 18.2599 0.981392C18.8837 -0.105018 18.7709 -0.219388 17.5841 0.296435ZM36.4304 8.03547C35.4701 8.58689 35.4244 8.95675 36.2933 9.14779C37.1009 9.32514 37.3759 9.07197 37.2879 8.23136L37.2199 7.58221L36.4304 8.03547ZM34.6733 9.13368C35.0425 9.87972 35.0469 9.96376 34.7293 10.1961C34.5396 10.3351 34.4509 10.5154 34.5324 10.5969C34.6139 10.6784 34.5183 10.6828 34.32 10.6066C34.0635 10.5082 33.9071 10.6091 33.7789 10.9562L33.5983 11.4445L33.3564 10.9922C33.0319 10.3859 33.0517 9.80642 33.4273 8.90726C33.8069 7.9984 34.1414 8.05906 34.6733 9.13368ZM0.224221 11.2985C0.719394 11.3431 1.47731 11.3425 1.90848 11.2972C2.33965 11.2519 1.93459 11.2155 1.00824 11.2164C0.0819009 11.217 -0.270952 11.2541 0.224221 11.2985ZM24.1668 11.776C24.0953 11.8918 23.5687 11.9866 22.9965 11.9866C22.4243 11.9866 21.9562 11.8918 21.9562 11.776C21.9562 11.6601 22.483 11.5654 23.1266 11.5654C23.8531 11.5654 24.2477 11.6452 24.1668 11.776ZM6.22861 12.9858C7.13116 13.0254 8.55226 13.0252 9.3866 12.9854C10.2207 12.9454 9.48218 12.9132 7.74529 12.9134C6.00839 12.9136 5.32585 12.9462 6.22861 12.9858ZM38.5529 13.5385C38.5942 13.7521 38.5178 14.0354 38.3833 14.1679C38.0752 14.4714 37.5049 13.786 37.682 13.3249C37.842 12.9075 38.4607 13.0591 38.5529 13.5385ZM22.3773 13.8822C22.3773 13.9981 21.951 14.0929 21.4299 14.0929C20.9088 14.0929 20.4825 13.9981 20.4825 13.8822C20.4825 13.7664 20.9088 13.6716 21.4299 13.6716C21.951 13.6716 22.3773 13.7664 22.3773 13.8822ZM32.6934 14.9354C32.9488 15.1005 32.9185 15.1401 32.5355 15.1428C32.2749 15.1445 32.0618 15.0512 32.0618 14.9354C32.0618 14.6715 32.2852 14.6715 32.6934 14.9354ZM33.325 15.6951C33.325 15.7406 33.1829 15.7779 33.0092 15.7779C32.8355 15.7779 32.6934 15.6861 32.6934 15.5738C32.6934 15.4617 32.8355 15.4245 33.0092 15.491C33.1829 15.5578 33.325 15.6496 33.325 15.6951ZM33.7987 16.1279C33.6541 16.1865 33.4172 16.1865 33.2724 16.1279C33.1277 16.0696 33.2461 16.0218 33.5355 16.0218C33.825 16.0218 33.9435 16.0696 33.7987 16.1279ZM34.8554 16.5479C34.7128 16.6056 34.4286 16.6092 34.2238 16.5557C34.0189 16.5022 34.1356 16.455 34.4829 16.4508C34.8303 16.4466 34.9979 16.4902 34.8554 16.5479ZM20.3589 18.2869C19.4602 18.5108 19.2193 18.6898 19.2193 19.1336C19.2193 19.5698 20.7488 21.0545 21.7112 21.5522C22.523 21.9722 24.549 21.9979 24.8852 21.5924C25.2189 21.1901 24.642 20.6246 23.8887 20.6153C23.3917 20.609 22.3773 20.0016 22.3773 19.7101C22.3773 19.6511 22.6605 19.5405 23.0066 19.4645C23.9184 19.264 23.9807 18.9699 23.182 18.6363C22.2093 18.2298 21.1261 18.0958 20.3589 18.2869ZM3.5898 18.4543C3.8517 18.5047 4.23066 18.5028 4.43193 18.4501C4.63319 18.3974 4.41887 18.3562 3.9557 18.3585C3.49253 18.3608 3.32789 18.404 3.5898 18.4543ZM8.42489 20.1425C8.79858 20.189 9.46176 20.1897 9.89861 20.1442C10.3353 20.0985 10.0296 20.0605 9.21902 20.0595C8.40847 20.0587 8.05098 20.0959 8.42489 20.1425Z" fill="black"/>
</svg>
