<svg width="53" height="20" viewBox="0 0 53 20" fill="none" xmlns="http://www.w3.org/2000/svg">
<path fill-rule="evenodd" clip-rule="evenodd" d="M37.2679 0.551221C36.0163 1.09712 35.8052 1.116 32.4902 0.977935C29.7205 0.862524 28.7215 0.909727 27.5309 1.2123C26.711 1.42046 25.3994 1.59086 24.6167 1.59086C23.7284 1.59086 23.2487 1.67961 23.3406 1.82688C23.4215 1.95669 23.8296 2.06337 24.2474 2.06407L25.0071 2.06525L24.2929 2.64561C23.6336 3.18137 23.3584 3.23046 20.7218 3.28451L17.8649 3.34327L20.4242 3.41903C21.8317 3.46081 22.9835 3.54318 22.9835 3.60218C22.9835 3.66142 22.799 3.92316 22.5735 4.18443C22.1993 4.61751 21.8395 4.66354 18.4667 4.71098L14.7699 4.76314L18.1625 4.83559C21.1074 4.89837 21.555 4.95879 21.555 5.29204C21.555 5.64465 21.591 5.64418 21.9905 5.28567C22.2657 5.03856 22.9001 4.87949 23.7165 4.85259L25.0071 4.8101L23.8762 4.7216C22.6454 4.6253 22.5157 4.46647 23.1808 3.86958C23.5027 3.58094 24.1388 3.46694 25.6211 3.43272C27.6 3.38717 27.6052 3.38552 26.0189 3.30386C25.1349 3.25854 24.4119 3.14549 24.4119 3.05297C24.4119 2.68574 25.5454 2.19223 26.6736 2.06809C27.4121 1.9869 27.8426 1.83066 27.8078 1.65624C27.7185 1.20876 29.2917 1.03953 31.7663 1.23023C33.0245 1.327 34.4693 1.38978 34.9774 1.36925L35.9006 1.33219L35.3769 2.11057C34.4055 3.55356 33.463 5.72962 33.1956 7.14594C32.7521 9.49499 33.0507 11.487 34.2794 14.3746C34.4198 14.7048 34.1537 14.8322 32.6145 15.1716C30.6928 15.5955 28.9336 15.5591 26.6265 15.0479C25.4402 14.7853 25.3983 14.7494 25.6147 14.1853C25.9387 13.3408 25.8937 12.5261 25.4792 11.7317C24.8409 10.5082 24.1248 10.3234 20.0194 10.3234C17.7101 10.3234 16.3174 10.4121 16.3174 10.5594C16.3174 10.6923 16.9845 10.7954 17.8425 10.7954C19.2505 10.7954 19.3583 10.8318 19.2433 11.2675C19.1255 11.7138 18.9186 11.7395 15.4563 11.7395C13.1734 11.7395 11.794 11.8285 11.794 11.9755C11.794 12.1221 13.1082 12.2115 15.2601 12.2115C17.5102 12.2115 18.6746 12.2944 18.5791 12.4475C18.4872 12.595 18.9734 12.6835 19.8745 12.6835C20.6775 12.6835 21.317 12.7881 21.317 12.9196C21.317 13.0661 20.0075 13.1556 17.8649 13.1556C15.7222 13.1556 14.4128 13.245 14.4128 13.3916C14.4128 13.5254 15.1011 13.6276 16.0017 13.6276H17.5909L17.0316 14.2176C16.5481 14.7279 16.2445 14.8138 14.788 14.8532L13.1034 14.8985L14.5914 14.9823C15.4099 15.0286 16.0793 15.1586 16.0793 15.2717C16.0793 16.0168 15.7372 16.2254 14.4469 16.2674L13.1034 16.3111L14.3533 16.3977C15.6084 16.4848 15.7255 16.5768 15.4587 17.2665C15.3392 17.5754 14.8647 17.6399 12.7068 17.6399C11.0291 17.6399 10.1518 17.7241 10.2465 17.8759C10.3294 18.0085 11.4705 18.1119 12.8539 18.1119C15.2549 18.1119 15.6032 18.219 15.6032 18.9573C15.6032 19.0116 14.9604 19.0559 14.1747 19.0559C12.0673 19.0559 12.4389 19.4541 14.7104 19.6302C15.7905 19.7137 17.3559 19.8409 18.1887 19.9124C19.0214 19.9839 19.8016 19.9445 19.9226 19.8246C20.2392 19.5107 19.924 18.8629 19.37 18.6887C18.9017 18.5412 18.9022 18.5322 19.4071 17.9993C19.7316 17.6568 20.428 17.3599 21.3103 17.1879C22.0755 17.0387 23.0597 16.6764 23.4972 16.3831C23.9348 16.0895 24.4083 15.7794 24.5495 15.6937C24.7257 15.587 24.7728 15.9391 24.6995 16.814C24.4907 19.3113 24.9866 20.0012 26.9881 19.9974C28.9782 19.9936 30.1257 19.76 30.1257 19.3585C30.1257 19.1695 29.8043 18.8947 29.4115 18.7477C29.0186 18.6007 28.6972 18.4048 28.6972 18.3123C28.6972 18.2197 29.2415 17.6332 29.9067 17.009C30.9201 16.0578 31.412 15.7949 32.9421 15.3869C33.9465 15.119 35.139 14.7052 35.5926 14.4676C36.3794 14.0553 36.4282 14.0546 36.6639 14.4532C37.8245 16.4164 40.5419 18.7984 42.5874 19.6457C43.1176 19.8655 44.203 20 45.4441 20C47.8586 20 48.9335 19.8119 48.9335 19.3897C48.9335 18.8506 47.9936 18.1742 47.033 18.022C46.3459 17.9129 45.899 17.6271 45.2622 16.8896C44.2394 15.705 44.1932 15.4447 45.0648 15.777C45.4248 15.9144 46.3045 16.122 47.0194 16.2389C48.0338 16.4046 48.4398 16.6038 48.8671 17.1449C49.5568 18.0184 51.4035 18.7279 52.6832 18.6111C53.8424 18.5053 51.5957 14.8667 49.5789 13.5839C48.7452 13.0534 48.5119 12.7947 48.7385 12.6522C48.9238 12.5358 48.3426 12.4532 47.3218 12.4511C44.5946 12.4454 43.3278 11.4414 43.1478 9.14333C43.0724 8.17685 43.0612 8.20352 43.0233 9.43835C42.9933 10.4166 42.8898 10.7954 42.6522 10.7954C42.0718 10.7954 40.1307 6.60547 39.9736 5.01308C39.8177 3.43485 40.1417 1.91397 40.8071 1.09948L41.2449 0.563257L42.706 1.10491L44.167 1.64656L43.5745 2.34493C42.8617 3.18443 42.8203 3.94086 43.4457 4.69186L43.9097 5.24909L44.5265 4.60005C44.866 4.24296 45.3472 3.95101 45.596 3.95101C46.2116 3.95101 46.3214 3.70272 46.155 2.68644C46.0419 1.99469 45.8876 1.7936 45.3903 1.68857C45.0477 1.61635 43.7773 1.19318 42.5677 0.748057C40.0041 -0.195057 39.0589 -0.230223 37.2679 0.551221ZM48.6931 1.82924C48.3169 2.20214 47.9986 2.27956 47.2051 2.19105C46.2054 2.07965 46.2868 2.11529 48.0624 2.56773C49.1275 2.83915 50.9181 4.38669 51.5604 5.59131C51.8064 6.05201 52.012 6.30832 52.018 6.16058C52.0237 6.01283 51.6552 5.35412 51.199 4.69658C50.556 3.76975 50.4003 3.34799 50.5067 2.82074C50.6 2.35744 50.5174 2.01475 50.2479 1.74758C49.7242 1.22835 49.2754 1.25195 48.6931 1.82924ZM19.5314 1.82688C19.6123 1.95669 20.1542 2.06289 20.7358 2.06289C21.3174 2.06289 21.7931 1.95669 21.7931 1.82688C21.7931 1.69707 21.251 1.59086 20.5887 1.59086C19.8464 1.59086 19.4407 1.68149 19.5314 1.82688ZM7.93458 3.41785C8.75808 3.46411 10.0437 3.46388 10.7915 3.41715C11.5393 3.37041 10.8655 3.33265 9.29422 3.33312C7.72293 3.3336 7.11108 3.37183 7.93458 3.41785ZM11.0264 4.83205C11.5864 4.88209 12.4435 4.88138 12.931 4.83064C13.4186 4.77989 12.9606 4.73906 11.913 4.74001C10.8655 4.74072 10.4665 4.78225 11.0264 4.83205ZM12.8653 6.31116C12.9463 6.44096 13.8095 6.54717 14.784 6.54717C15.8063 6.54717 16.5555 6.44734 16.5555 6.31116C16.5555 6.17332 15.7572 6.07514 14.6368 6.07514C13.4184 6.07514 12.772 6.16129 12.8653 6.31116ZM17.8768 6.2944C18.2679 6.67391 23.6977 6.68925 23.6977 6.31116C23.6977 6.16624 22.5311 6.07514 20.6742 6.07514C18.8081 6.07514 17.7373 6.15916 17.8768 6.2944ZM25.4832 6.31116C25.5642 6.44096 26.0525 6.54717 26.5686 6.54717C27.0848 6.54717 27.5069 6.44096 27.5069 6.31116C27.5069 6.18135 27.0183 6.07514 26.4215 6.07514C25.7585 6.07514 25.3933 6.16695 25.4832 6.31116ZM51.9413 7.2132C51.8335 7.64417 51.809 8.06026 51.8868 8.13744C52.1558 8.40413 52.2999 8.00598 52.2189 7.21887L52.1378 6.42916L51.9413 7.2132ZM48.1476 7.99299C47.2977 8.95428 47.3353 9.9361 48.2262 10.039C49.4859 10.1846 50.5384 7.48226 49.2906 7.30596C48.9961 7.26442 48.56 7.52663 48.1476 7.99299ZM4.17563 7.72724C4.17563 7.85705 4.44347 7.96326 4.77082 7.96326C5.09817 7.96326 5.366 7.85705 5.366 7.72724C5.366 7.59743 5.09817 7.49123 4.77082 7.49123C4.44347 7.49123 4.17563 7.59743 4.17563 7.72724ZM7.15156 7.72724C7.23369 7.85894 8.33978 7.96326 9.65133 7.96326C10.9629 7.96326 12.069 7.85894 12.1511 7.72724C12.2459 7.57525 11.3552 7.49123 9.65133 7.49123C7.94744 7.49123 7.0568 7.57525 7.15156 7.72724ZM15.7222 7.72724C15.8032 7.85705 16.8271 7.96326 17.998 7.96326C19.5402 7.96326 20.1275 8.04445 20.1302 8.25828C20.1328 8.46172 20.2013 8.44756 20.3516 8.21225C20.5037 7.97388 20.9256 7.88986 21.7522 7.93352C22.4042 7.96774 23.0056 7.88254 23.0925 7.74353C23.2015 7.56841 22.0745 7.49123 19.4124 7.49123C16.9147 7.49123 15.6265 7.5736 15.7222 7.72724ZM49.5287 8.45181C49.5287 8.63377 49.3413 8.81857 49.1121 8.86247C48.7016 8.94083 48.5321 8.44001 48.8592 8.11572C49.1087 7.86838 49.5287 8.07914 49.5287 8.45181ZM51.9247 8.74045C52.0142 8.97316 52.1473 9.10415 52.2206 9.03146C52.2939 8.959 52.2208 8.76854 52.058 8.60828C51.8228 8.37699 51.7956 8.40413 51.9247 8.74045ZM9.41326 9.14333C9.41326 9.28399 10.3258 9.37934 11.675 9.37934C13.0241 9.37934 13.9367 9.28399 13.9367 9.14333C13.9367 9.00267 13.0241 8.90732 11.675 8.90732C10.3258 8.90732 9.41326 9.00267 9.41326 9.14333ZM16.0793 9.14333C16.0793 9.27951 16.8266 9.37934 17.8451 9.37934C19.0348 9.37934 19.65 9.47564 19.7309 9.67436C19.8268 9.91038 19.8547 9.91038 19.8697 9.67436C19.883 9.4662 20.4144 9.37934 21.6741 9.37934C22.7056 9.37934 23.4596 9.27975 23.4596 9.14333C23.4596 8.99606 22.0709 8.90732 19.7695 8.90732C17.468 8.90732 16.0793 8.99606 16.0793 9.14333ZM52.4915 9.77679C52.8877 10.5899 52.7944 10.7954 52.0285 10.7954C51.6357 10.7954 51.3143 10.8983 51.3143 11.0241C51.3143 11.1497 51.4607 11.1969 51.6395 11.1289C51.8604 11.0449 51.9559 11.1797 51.9368 11.5493C51.9118 12.0357 51.7909 12.0935 50.8005 12.0935C50.1908 12.0935 49.742 12.1733 49.803 12.2705C49.8639 12.3678 50.1817 12.4475 50.5091 12.4475C50.8453 12.4475 51.0402 12.5502 50.9571 12.6835C50.5793 13.2896 51.3495 12.8202 52.1199 11.9748C53.0617 10.9413 53.1753 10.4185 52.6106 9.71944C52.253 9.27691 52.2489 9.2788 52.4915 9.77679ZM13.3415 10.5594C13.4224 10.6892 13.7438 10.7954 14.0557 10.7954C14.3676 10.7954 14.689 10.6892 14.7699 10.5594C14.8578 10.4188 14.5692 10.3234 14.0557 10.3234C13.5422 10.3234 13.2536 10.4188 13.3415 10.5594ZM0.00934095 10.7954C-0.0837459 10.9448 0.522629 11.0314 1.66181 11.0314C2.70291 11.0314 3.46141 10.9318 3.46141 10.7954C3.46141 10.6607 2.75195 10.5594 1.80894 10.5594C0.899975 10.5594 0.0902861 10.6656 0.00934095 10.7954ZM7.98481 11.9755C7.98481 12.1053 8.47334 12.2115 9.07019 12.2115C9.73323 12.2115 10.0984 12.1197 10.0084 11.9755C9.9275 11.8457 9.43921 11.7395 8.92306 11.7395C8.40692 11.7395 7.98481 11.8457 7.98481 11.9755ZM50.0794 13.0808C50.251 13.149 50.4565 13.1405 50.5355 13.0621C50.6146 12.9838 50.4741 12.9281 50.2232 12.9382C49.9458 12.9495 49.8894 13.0055 50.0794 13.0808ZM4.88985 13.6276C4.88985 13.764 5.64384 13.8636 6.67541 13.8636C7.70698 13.8636 8.46096 13.764 8.46096 13.6276C8.46096 13.4912 7.70698 13.3916 6.67541 13.3916C5.64384 13.3916 4.88985 13.4912 4.88985 13.6276ZM10.6677 14.9712C10.8993 15.0312 11.2207 15.0272 11.3819 14.9625C11.5431 14.8978 11.3536 14.849 10.9607 14.8537C10.5679 14.8584 10.436 14.9113 10.6677 14.9712ZM9.59181 16.3944C10.0173 16.4468 10.7139 16.4468 11.1393 16.3944C11.5647 16.3422 11.2167 16.2993 10.3656 16.2993C9.51444 16.2993 9.16638 16.3422 9.59181 16.3944ZM4.88985 17.8759C4.88985 18.0057 5.37195 18.1119 5.96119 18.1119C6.55042 18.1119 7.03252 18.0057 7.03252 17.8759C7.03252 17.7461 6.55042 17.6399 5.96119 17.6399C5.37195 17.6399 4.88985 17.7461 4.88985 17.8759Z" fill="black"/>
</svg>
