<svg width="24" height="24" viewBox="0 0 24 24" fill="none" xmlns="http://www.w3.org/2000/svg">
<path d="M21.5307 17.7806L18.5307 20.7806C18.461 20.8504 18.3783 20.9057 18.2873 20.9434C18.1962 20.9812 18.0986 21.0006 18.0001 21.0006C17.9015 21.0006 17.8039 20.9812 17.7128 20.9434C17.6218 20.9057 17.5391 20.8504 17.4694 20.7806L14.4694 17.7806C14.3287 17.6399 14.2496 17.449 14.2496 17.25C14.2496 17.051 14.3287 16.8601 14.4694 16.7194C14.6102 16.5786 14.801 16.4996 15.0001 16.4996C15.1991 16.4996 15.3899 16.5786 15.5307 16.7194L17.2501 18.4397V13.0603L12.0001 7.81031L6.75005 13.0603V18.4397L8.46943 16.7194C8.61016 16.5786 8.80103 16.4996 9.00005 16.4996C9.19907 16.4996 9.38995 16.5786 9.53068 16.7194C9.67141 16.8601 9.75047 17.051 9.75047 17.25C9.75047 17.449 9.67141 17.6399 9.53068 17.7806L6.53068 20.7806C6.46102 20.8504 6.3783 20.9057 6.28726 20.9434C6.19621 20.9812 6.09861 21.0006 6.00005 21.0006C5.90149 21.0006 5.80389 20.9812 5.71285 20.9434C5.6218 20.9057 5.53908 20.8504 5.46943 20.7806L2.46943 17.7806C2.39974 17.7109 2.34447 17.6282 2.30676 17.5372C2.26904 17.4461 2.24963 17.3485 2.24963 17.25C2.24963 17.1515 2.26904 17.0539 2.30676 16.9628C2.34447 16.8718 2.39974 16.7891 2.46943 16.7194C2.61016 16.5786 2.80103 16.4996 3.00005 16.4996C3.0986 16.4996 3.19618 16.519 3.28722 16.5567C3.37827 16.5944 3.46099 16.6497 3.53068 16.7194L5.25005 18.4397V12.75C5.24997 12.6515 5.26931 12.5539 5.30695 12.4629C5.34459 12.3718 5.3998 12.2891 5.46943 12.2194L11.2501 6.43969V2.25C11.2501 2.05109 11.3291 1.86032 11.4697 1.71967C11.6104 1.57902 11.8011 1.5 12.0001 1.5C12.199 1.5 12.3897 1.57902 12.5304 1.71967C12.671 1.86032 12.7501 2.05109 12.7501 2.25V6.43969L18.5307 12.2194C18.6003 12.2891 18.6555 12.3718 18.6932 12.4629C18.7308 12.5539 18.7501 12.6515 18.7501 12.75V18.4397L20.4694 16.7194C20.6102 16.5786 20.801 16.4996 21.0001 16.4996C21.1991 16.4996 21.3899 16.5786 21.5307 16.7194C21.6714 16.8601 21.7505 17.051 21.7505 17.25C21.7505 17.449 21.6714 17.6399 21.5307 17.7806Z" fill="#808080"/>
</svg>
