<svg width="24" height="24" viewBox="0 0 24 24" fill="none" xmlns="http://www.w3.org/2000/svg">
<path fill-rule="evenodd" clip-rule="evenodd" d="M12 9.24999C9.92893 9.24999 8.25 10.9289 8.25 13C8.25 15.0711 9.92893 16.75 12 16.75C14.0711 16.75 15.75 15.0711 15.75 13C15.75 10.9289 14.0711 9.24999 12 9.24999ZM9.75 13C9.75 11.7573 10.7574 10.75 12 10.75C13.2426 10.75 14.25 11.7573 14.25 13C14.25 14.2426 13.2426 15.25 12 15.25C10.7574 15.25 9.75 14.2426 9.75 13Z" fill="#4C4E64" fill-opacity="0.87"/>
<path d="M10 18.25C9.58579 18.25 9.25 18.5858 9.25 19C9.25 19.4142 9.58579 19.75 10 19.75H14C14.4142 19.75 14.75 19.4142 14.75 19C14.75 18.5858 14.4142 18.25 14 18.25H10Z" fill="#4C4E64" fill-opacity="0.87"/>
<path fill-rule="evenodd" clip-rule="evenodd" d="M15.6111 1.58367C17.2678 1.347 18.75 2.63252 18.75 4.30603V5.68251C19.9395 6.31126 20.75 7.56097 20.75 8.99999V19C20.75 21.0711 19.0711 22.75 17 22.75H7C4.92893 22.75 3.25 21.0711 3.25 19V4.99999H3.25136C3.25046 4.97642 3.25 4.95273 3.25 4.92894C3.25 4.02269 3.91638 3.25434 4.81353 3.12618L15.6111 1.58367ZM5.07107 6.75001L5.06244 6.74999H4.75V19C4.75 20.2426 5.75736 21.25 7 21.25H17C18.2426 21.25 19.25 20.2426 19.25 19V8.99999C19.25 7.76055 18.2478 6.75518 17.0096 6.75001H5.07107ZM17.25 5.25001H17.0125L17 5.24999H5.0674C4.89177 5.24802 4.75 5.10504 4.75 4.92894C4.75 4.76916 4.86749 4.6337 5.02566 4.6111L15.8232 3.06859C16.5763 2.96101 17.25 3.54534 17.25 4.30603V5.25001Z" fill="#4C4E64" fill-opacity="0.87"/>
</svg>
