<svg width="24" height="24" viewBox="0 0 24 24" fill="none" xmlns="http://www.w3.org/2000/svg">
<path d="M19.9896 3.99114C18.4369 2.46995 16.3082 2.41192 15.2249 3.47329L11.5248 7.09826C11.2289 7.38814 10.7541 7.38327 10.4642 7.08739C10.1743 6.79151 10.1792 6.31666 10.4751 6.02678L14.1752 2.40181C16.0111 0.603142 19.0889 1.00882 21.0393 2.91966C22.9924 4.83318 23.4177 7.87521 21.5679 9.68751L18.6607 12.5357C18.3648 12.8256 17.8899 12.8207 17.6001 12.5249C17.3102 12.229 17.3151 11.7541 17.6109 11.4643L20.5181 8.61604C21.5875 7.56831 21.5395 5.50965 19.9896 3.99114Z" fill="#4C4E64" fill-opacity="0.86"/>
<path d="M6.624 3.58398C6.39423 3.23933 5.92858 3.1462 5.58393 3.37596C5.23929 3.60573 5.14616 4.07138 5.37592 4.41603L7.37592 7.41603C7.60569 7.76067 8.07134 7.8538 8.41598 7.62404C8.76063 7.39427 8.85376 6.92862 8.624 6.58398L6.624 3.58398Z" fill="#4C4E64" fill-opacity="0.86"/>
<path d="M2.23713 7.28849C1.84417 7.1575 1.41943 7.36987 1.28845 7.76283C1.15746 8.15579 1.36983 8.58053 1.76279 8.71151L7.76279 10.7115C8.15575 10.8425 8.58049 10.6301 8.71147 10.2372C8.84246 9.84421 8.63009 9.41947 8.23713 9.28849L2.23713 7.28849Z" fill="#4C4E64" fill-opacity="0.86"/>
<path d="M6.72751 12.506C7.00696 12.2002 6.98565 11.7259 6.67991 11.4464C6.37416 11.1669 5.89977 11.1883 5.62031 11.494L4.35946 12.8735C2.63262 14.7628 3.00979 17.9268 4.8638 19.9552C6.72896 21.9958 9.73425 22.4594 11.5188 20.507L15.5536 16.0926C15.833 15.7869 15.8117 15.3125 15.5059 15.033C15.2002 14.7536 14.7258 14.7749 14.4464 15.0806L10.4116 19.495C9.41075 20.59 7.44834 20.5596 5.97099 18.9432C4.48249 17.3147 4.40806 15.0437 5.46665 13.8855L6.72751 12.506Z" fill="#4C4E64" fill-opacity="0.86"/>
</svg>
