<svg width="17" height="17" viewBox="0 0 17 17" fill="none" xmlns="http://www.w3.org/2000/svg">
<path d="M5.60884 5.59559V5.49559V2.58718C5.60884 2.25176 5.67473 1.92605 5.80471 1.61875C5.93008 1.32244 6.10915 1.05666 6.33731 0.828515L6.26661 0.757801L6.33732 0.828511C6.56544 0.600385 6.8312 0.421273 7.12754 0.295929L7.12755 0.295924C7.43485 0.1659 7.76053 0.1 8.09599 0.1L5.60884 5.59559ZM5.60884 5.59559H5.50884H2.60044C2.26501 5.59559 1.93933 5.66149 1.63202 5.79146C1.33567 5.91681 1.06986 6.0959 0.841748 6.32404C0.613619 6.5522 0.434482 6.818 0.309193 7.11429L0.309185 7.11431C0.179164 7.42163 0.113314 7.74731 0.113314 8.08272C0.113314 8.41817 0.179214 8.74383 0.309191 9.05116L0.309195 9.05117C0.434483 9.34751 0.613617 9.61328 0.84174 9.84141C1.06992 10.0696 1.33567 10.2486 1.63202 10.374L1.63203 10.374C1.9393 10.504 2.26498 10.5699 2.60044 10.5699H5.50884H5.60884V10.6699V13.5783C5.60884 13.9137 5.67479 14.2394 5.80477 14.5468L5.80477 14.5468C5.93006 14.8431 6.10919 15.1088 6.33731 15.337M5.60884 5.59559L5.71266 14.5857M6.26661 15.4077C6.0294 15.1705 5.84299 14.8939 5.71266 14.5857M6.26661 15.4077L6.33731 15.337M6.26661 15.4077L6.33732 15.337M6.26661 15.4077L6.33732 15.337M5.71266 14.5857C5.57745 14.266 5.50884 13.9271 5.50884 13.5783V10.7699L5.71266 14.5857ZM6.33731 15.337C6.33731 15.337 6.33732 15.337 6.33732 15.337M6.33731 15.337L6.33732 15.337M6.33732 15.337C6.5655 15.5651 6.83125 15.7442 7.1276 15.8696L6.33732 15.337ZM9.11123 14.5936L9.18195 14.6643C9.45974 14.3865 9.63176 14.0024 9.63176 13.5784V9.92973C9.63176 9.75785 9.77109 9.61852 9.94297 9.61852H13.5915C14.0156 9.61852 14.3997 9.4465 14.6775 9.1687L14.6775 9.1687C14.9553 8.89088 15.1273 8.50681 15.1273 8.08274C15.1273 7.23456 14.4398 6.54694 13.5915 6.54694H9.94297C9.77109 6.54694 9.63176 6.40761 9.63176 6.23573V2.58718C9.63176 1.739 8.94417 1.05138 8.09599 1.05138L9.11123 14.5936ZM9.11123 14.5936L9.18194 14.6643C8.90414 14.9421 8.52004 15.1141 8.09599 15.1141C7.2478 15.1141 6.56021 14.4265 6.56021 13.5783V9.92975C6.56021 9.75788 6.42088 9.61855 6.24898 9.61855H2.60044C1.75225 9.61855 1.06466 8.93095 1.06463 8.08275C1.06463 7.23456 1.75223 6.54696 2.60046 6.54696H6.249C6.42091 6.54696 6.56024 6.40763 6.56024 6.23576V2.58718C6.56024 1.73901 7.24787 1.05139 8.09596 1.05138L9.11123 14.5936ZM9.85467 0.828453C9.62653 0.600308 9.36075 0.421222 9.06443 0.295876L15.8828 9.05118C16.0128 8.74388 16.0787 8.4182 16.0787 8.08277C16.0787 7.74731 16.0128 7.42163 15.8828 7.11432C15.7575 6.818 15.5784 6.55222 15.3502 6.32404C15.1221 6.0959 14.8563 5.91681 14.56 5.79146L14.5989 5.69936L14.56 5.79146C14.2527 5.66146 13.927 5.59556 13.5915 5.59556H10.6832H10.5832V5.49556V2.58715C10.5832 2.25173 10.5172 1.92605 10.3873 1.61871C10.2619 1.32239 10.0828 1.05661 9.85467 0.828453ZM9.85471 15.337C10.0828 15.1088 10.262 14.8431 10.3873 14.5467L10.3873 14.5467C10.5173 14.2394 10.5832 13.9138 10.5832 13.5783V10.6699V10.5699H10.6832H13.5916C13.927 10.5699 14.2527 10.504 14.56 10.374C14.8563 10.2487 15.1221 10.0696 15.3503 9.84144C15.5784 9.61329 15.7575 9.34751 15.8828 9.05118L15.9749 9.09014L9.85471 15.337Z" fill="#7C7C7C" stroke="white" stroke-width="0.2"/>
<mask id="path-2-inside-1_110_20650" fill="white">
<path d="M8.09622 16.2392C8.44679 16.2392 8.78747 16.1703 9.10883 16.0344C9.41863 15.9034 9.69664 15.716 9.93511 15.4775C10.1736 15.239 10.361 14.961 10.492 14.6512C10.6279 14.3299 10.6968 13.9892 10.6968 13.6386V10.7436H13.5918C13.9423 10.7436 14.283 10.6747 14.6044 10.5388C14.9142 10.4078 15.1922 10.2204 15.4307 9.98195C15.6691 9.74347 15.8565 9.46549 15.9875 9.15567C16.1235 8.83436 16.1924 8.49368 16.1924 8.14308C16.1924 7.79251 16.1235 7.4518 15.9875 7.13044C15.8565 6.82064 15.6692 6.5426 15.4307 6.30416C15.1922 6.06571 14.9142 5.87836 14.6044 5.74731C14.2831 5.61137 13.9424 5.54243 13.5918 5.54243H10.6968V2.64749C10.6968 2.29695 10.6279 1.95624 10.492 1.63485C10.361 1.32505 10.1736 1.04704 9.93514 0.808573C9.69669 0.5701 9.41869 0.382773 9.10886 0.251725C8.7875 0.115786 8.44682 0.046875 8.09622 0.046875C7.74562 0.046875 7.40491 0.115786 7.08361 0.251725C6.77381 0.382747 6.49583 0.570127 6.25735 0.808573C6.01894 1.04694 5.83158 1.32494 5.70045 1.63483C5.56454 1.95618 5.49563 2.29689 5.49563 2.64747V5.54243H2.60067C2.25007 5.54243 1.90939 5.61134 1.58806 5.74728C1.27818 5.87836 1.00017 6.06571 0.761753 6.30413C0.523308 6.5426 0.335954 6.82058 0.204852 7.13041C0.0689392 7.45166 2.86102e-05 7.79235 2.86102e-05 8.14303C2.86102e-05 8.4936 0.0689392 8.83428 0.204852 9.15564C0.335847 9.46541 0.5232 9.74342 0.761699 9.98192C1.0002 10.2204 1.2782 10.4078 1.58801 10.5388C1.90931 10.6747 2.24999 10.7436 2.60062 10.7436H5.49558V13.6386C5.49558 13.9891 5.56449 14.3298 5.70045 14.6513C5.83145 14.961 6.0188 15.239 6.2573 15.4775C6.4958 15.716 6.77381 15.9034 7.08361 16.0344C7.40491 16.1703 7.74562 16.2392 8.09622 16.2392ZM13.5918 5.56934C13.9388 5.56934 14.276 5.63755 14.594 5.77206C14.9006 5.90174 15.1757 6.08716 15.4117 6.32316C15.6477 6.55916 15.8331 6.83429 15.9628 7.14092C16.0973 7.45895 16.1655 7.79611 16.1655 8.14308C16.1655 8.49005 16.0973 8.82724 15.9628 9.14524C15.8331 9.45184 15.6477 9.72697 15.4117 9.96297C15.1757 10.199 14.9006 10.3844 14.594 10.5141C14.2759 10.6486 13.9388 10.7168 13.5918 10.7168H10.6699V13.6386C10.6699 13.9856 10.6017 14.3228 10.4672 14.6408C10.3376 14.9474 10.1522 15.2225 9.91614 15.4586C9.68011 15.6946 9.40498 15.88 9.09838 16.0097C8.78035 16.1442 8.44319 16.2124 8.09622 16.2124C7.74922 16.2124 7.41203 16.1442 7.09404 16.0097C6.78746 15.88 6.51233 15.6945 6.27628 15.4586C6.04025 15.2225 5.85483 14.9474 5.72521 14.6408C5.59064 14.3227 5.52243 13.9855 5.52243 13.6386V10.7168H2.60059C2.25359 10.7168 1.91643 10.6486 1.59846 10.514C1.29186 10.3844 1.01673 10.1989 0.780673 9.96292C0.544647 9.72689 0.359228 9.45176 0.229604 9.14518C0.095089 8.82713 0.0268784 8.48997 0.0268784 8.143C0.0268784 7.79592 0.095089 7.45879 0.229578 7.14087C0.359309 6.83424 0.544755 6.55911 0.780727 6.32311C1.01667 6.08713 1.29183 5.90171 1.59849 5.77201C1.91651 5.63749 2.25367 5.56931 2.60064 5.56931H5.52251V2.64749C5.52251 2.30052 5.59072 1.96333 5.72523 1.64531C5.85497 1.33862 6.04041 1.06352 6.27636 0.827601C6.51236 0.591601 6.78749 0.406182 7.09406 0.276505C7.41206 0.141963 7.74925 0.0737512 8.09622 0.0737512C8.44319 0.0737512 8.78038 0.141963 9.0984 0.276451C9.40503 0.406156 9.68016 0.591574 9.91614 0.827547C10.1521 1.06357 10.3376 1.3387 10.4672 1.64528C10.6017 1.96333 10.67 2.3005 10.67 2.64744V5.56928H13.5918V5.56934ZM8.09622 15.0879C8.48332 15.0879 8.84727 14.9371 9.12098 14.6634C9.39469 14.3897 9.54543 14.0257 9.54543 13.6386V9.99004C9.54543 9.77073 9.72386 9.59227 9.9432 9.59227H13.5918C13.9788 9.59227 14.3428 9.44152 14.6165 9.16779C14.8903 8.89408 15.041 8.53012 15.041 8.14305C15.041 7.34394 14.3909 6.69381 13.5918 6.69381H9.9432C9.72386 6.69381 9.54543 6.51538 9.54543 6.29604V2.64749C9.54543 1.84838 8.89533 1.19825 8.09622 1.19825C7.29714 1.19825 6.64701 1.84838 6.64701 2.64749V6.29607C6.64701 6.5154 6.46855 6.69384 6.24921 6.69384H2.60067C1.80156 6.69384 1.1514 7.34394 1.1514 8.14305C1.15146 8.94216 1.80159 9.59227 2.60067 9.59227H6.24921C6.46855 9.59227 6.64701 9.77073 6.64701 9.99004V13.6386C6.64701 14.4377 7.29711 15.0879 8.09622 15.0879ZM13.5918 6.72069C14.3761 6.72069 15.0141 7.35875 15.0141 8.14305C15.0141 8.52297 14.8662 8.88016 14.5976 9.14881C14.3289 9.41747 13.9717 9.56542 13.5918 9.56542H9.94325C9.70911 9.56542 9.51861 9.75592 9.51861 9.99006V13.6386C9.51861 14.0186 9.37066 14.3758 9.10203 14.6444C8.83338 14.9131 8.47619 15.061 8.09627 15.061C7.31197 15.061 6.67391 14.4229 6.67391 13.6386V9.99004C6.67391 9.75589 6.48341 9.56539 6.24924 9.56539H2.6007C1.81642 9.56539 1.17836 8.92733 1.1783 8.14305C1.1783 7.35875 1.81637 6.72071 2.6007 6.72071H6.24921C6.48338 6.72071 6.67388 6.53021 6.67388 6.29607V2.64749C6.67388 1.86319 7.31192 1.22513 8.09619 1.22513C8.88049 1.22513 9.51856 1.86319 9.51856 2.64749V6.29604C9.51856 6.53019 9.70906 6.72069 9.9432 6.72069H13.5918Z"/>
</mask>
<path d="M8.09622 16.2392C8.44679 16.2392 8.78747 16.1703 9.10883 16.0344C9.41863 15.9034 9.69664 15.716 9.93511 15.4775C10.1736 15.239 10.361 14.961 10.492 14.6512C10.6279 14.3299 10.6968 13.9892 10.6968 13.6386V10.7436H13.5918C13.9423 10.7436 14.283 10.6747 14.6044 10.5388C14.9142 10.4078 15.1922 10.2204 15.4307 9.98195C15.6691 9.74347 15.8565 9.46549 15.9875 9.15567C16.1235 8.83436 16.1924 8.49368 16.1924 8.14308C16.1924 7.79251 16.1235 7.4518 15.9875 7.13044C15.8565 6.82064 15.6692 6.5426 15.4307 6.30416C15.1922 6.06571 14.9142 5.87836 14.6044 5.74731C14.2831 5.61137 13.9424 5.54243 13.5918 5.54243H10.6968V2.64749C10.6968 2.29695 10.6279 1.95624 10.492 1.63485C10.361 1.32505 10.1736 1.04704 9.93514 0.808573C9.69669 0.5701 9.41869 0.382773 9.10886 0.251725C8.7875 0.115786 8.44682 0.046875 8.09622 0.046875C7.74562 0.046875 7.40491 0.115786 7.08361 0.251725C6.77381 0.382747 6.49583 0.570127 6.25735 0.808573C6.01894 1.04694 5.83158 1.32494 5.70045 1.63483C5.56454 1.95618 5.49563 2.29689 5.49563 2.64747V5.54243H2.60067C2.25007 5.54243 1.90939 5.61134 1.58806 5.74728C1.27818 5.87836 1.00017 6.06571 0.761753 6.30413C0.523308 6.5426 0.335954 6.82058 0.204852 7.13041C0.0689392 7.45166 2.86102e-05 7.79235 2.86102e-05 8.14303C2.86102e-05 8.4936 0.0689392 8.83428 0.204852 9.15564C0.335847 9.46541 0.5232 9.74342 0.761699 9.98192C1.0002 10.2204 1.2782 10.4078 1.58801 10.5388C1.90931 10.6747 2.24999 10.7436 2.60062 10.7436H5.49558V13.6386C5.49558 13.9891 5.56449 14.3298 5.70045 14.6513C5.83145 14.961 6.0188 15.239 6.2573 15.4775C6.4958 15.716 6.77381 15.9034 7.08361 16.0344C7.40491 16.1703 7.74562 16.2392 8.09622 16.2392ZM13.5918 5.56934C13.9388 5.56934 14.276 5.63755 14.594 5.77206C14.9006 5.90174 15.1757 6.08716 15.4117 6.32316C15.6477 6.55916 15.8331 6.83429 15.9628 7.14092C16.0973 7.45895 16.1655 7.79611 16.1655 8.14308C16.1655 8.49005 16.0973 8.82724 15.9628 9.14524C15.8331 9.45184 15.6477 9.72697 15.4117 9.96297C15.1757 10.199 14.9006 10.3844 14.594 10.5141C14.2759 10.6486 13.9388 10.7168 13.5918 10.7168H10.6699V13.6386C10.6699 13.9856 10.6017 14.3228 10.4672 14.6408C10.3376 14.9474 10.1522 15.2225 9.91614 15.4586C9.68011 15.6946 9.40498 15.88 9.09838 16.0097C8.78035 16.1442 8.44319 16.2124 8.09622 16.2124C7.74922 16.2124 7.41203 16.1442 7.09404 16.0097C6.78746 15.88 6.51233 15.6945 6.27628 15.4586C6.04025 15.2225 5.85483 14.9474 5.72521 14.6408C5.59064 14.3227 5.52243 13.9855 5.52243 13.6386V10.7168H2.60059C2.25359 10.7168 1.91643 10.6486 1.59846 10.514C1.29186 10.3844 1.01673 10.1989 0.780673 9.96292C0.544647 9.72689 0.359228 9.45176 0.229604 9.14518C0.095089 8.82713 0.0268784 8.48997 0.0268784 8.143C0.0268784 7.79592 0.095089 7.45879 0.229578 7.14087C0.359309 6.83424 0.544755 6.55911 0.780727 6.32311C1.01667 6.08713 1.29183 5.90171 1.59849 5.77201C1.91651 5.63749 2.25367 5.56931 2.60064 5.56931H5.52251V2.64749C5.52251 2.30052 5.59072 1.96333 5.72523 1.64531C5.85497 1.33862 6.04041 1.06352 6.27636 0.827601C6.51236 0.591601 6.78749 0.406182 7.09406 0.276505C7.41206 0.141963 7.74925 0.0737512 8.09622 0.0737512C8.44319 0.0737512 8.78038 0.141963 9.0984 0.276451C9.40503 0.406156 9.68016 0.591574 9.91614 0.827547C10.1521 1.06357 10.3376 1.3387 10.4672 1.64528C10.6017 1.96333 10.67 2.3005 10.67 2.64744V5.56928H13.5918V5.56934ZM8.09622 15.0879C8.48332 15.0879 8.84727 14.9371 9.12098 14.6634C9.39469 14.3897 9.54543 14.0257 9.54543 13.6386V9.99004C9.54543 9.77073 9.72386 9.59227 9.9432 9.59227H13.5918C13.9788 9.59227 14.3428 9.44152 14.6165 9.16779C14.8903 8.89408 15.041 8.53012 15.041 8.14305C15.041 7.34394 14.3909 6.69381 13.5918 6.69381H9.9432C9.72386 6.69381 9.54543 6.51538 9.54543 6.29604V2.64749C9.54543 1.84838 8.89533 1.19825 8.09622 1.19825C7.29714 1.19825 6.64701 1.84838 6.64701 2.64749V6.29607C6.64701 6.5154 6.46855 6.69384 6.24921 6.69384H2.60067C1.80156 6.69384 1.1514 7.34394 1.1514 8.14305C1.15146 8.94216 1.80159 9.59227 2.60067 9.59227H6.24921C6.46855 9.59227 6.64701 9.77073 6.64701 9.99004V13.6386C6.64701 14.4377 7.29711 15.0879 8.09622 15.0879ZM13.5918 6.72069C14.3761 6.72069 15.0141 7.35875 15.0141 8.14305C15.0141 8.52297 14.8662 8.88016 14.5976 9.14881C14.3289 9.41747 13.9717 9.56542 13.5918 9.56542H9.94325C9.70911 9.56542 9.51861 9.75592 9.51861 9.99006V13.6386C9.51861 14.0186 9.37066 14.3758 9.10203 14.6444C8.83338 14.9131 8.47619 15.061 8.09627 15.061C7.31197 15.061 6.67391 14.4229 6.67391 13.6386V9.99004C6.67391 9.75589 6.48341 9.56539 6.24924 9.56539H2.6007C1.81642 9.56539 1.17836 8.92733 1.1783 8.14305C1.1783 7.35875 1.81637 6.72071 2.6007 6.72071H6.24921C6.48338 6.72071 6.67388 6.53021 6.67388 6.29607V2.64749C6.67388 1.86319 7.31192 1.22513 8.09619 1.22513C8.88049 1.22513 9.51856 1.86319 9.51856 2.64749V6.29604C9.51856 6.53019 9.70906 6.72069 9.9432 6.72069H13.5918Z" fill="#7C7C7C" stroke="white" stroke-width="0.4" mask="url(#path-2-inside-1_110_20650)"/>
</svg>
