<svg width="31" height="30" viewBox="0 0 31 30" fill="none" xmlns="http://www.w3.org/2000/svg">
<path d="M29.014 22.322L28.4047 21.8534C29.5796 19.5679 30.1474 17.0189 30.0539 14.4509C29.9603 11.8828 29.2084 9.38191 27.8703 7.18801C26.5323 4.99412 24.6529 3.18086 22.4125 1.92217C20.1721 0.663481 17.6459 0.00159385 15.0762 0C14.9519 0 14.8327 0.049376 14.7448 0.137266C14.6569 0.225156 14.6075 0.34436 14.6075 0.468655C14.6075 0.59295 14.6569 0.712154 14.7448 0.800044C14.8327 0.887934 14.9519 0.93731 15.0762 0.93731C17.4727 0.938589 19.8291 1.55244 21.9217 2.72056C24.0142 3.88869 25.7735 5.57232 27.0324 7.61159C28.2912 9.65085 29.0079 11.9781 29.1144 14.3722C29.2209 16.7664 28.7136 19.148 27.6408 21.291L23.8447 18.4416C23.5269 18.2058 23.1351 18.0918 22.7405 18.1202C22.3458 18.1486 21.9744 18.3175 21.6936 18.5962L19.1488 21.1363C19.0538 21.2345 18.932 21.3024 18.7986 21.3315C18.6652 21.3607 18.5262 21.3499 18.3989 21.3004C16.1999 20.4284 14.2006 19.1195 12.522 17.4527C10.8537 15.7753 9.54451 13.7757 8.67434 11.5758C8.62484 11.4485 8.61399 11.3095 8.64317 11.1761C8.67235 11.0427 8.74025 10.9209 8.83837 10.8259L11.3785 8.28113C11.6572 8.00032 11.8261 7.6289 11.8545 7.23424C11.8829 6.83957 11.7689 6.44781 11.5331 6.13001L7.65267 0.974802C7.4265 0.672548 7.10326 0.45728 6.73718 0.36512C6.3711 0.27296 5.98446 0.309517 5.64214 0.468655L0.955591 2.66665C0.632808 2.81276 0.366577 3.0603 0.197387 3.37161C0.0281971 3.68292 -0.0346931 4.04097 0.0182811 4.3913C0.486936 7.47036 2.19753 15.1704 8.45407 21.4503C11.5538 24.5309 15.2906 26.8951 19.4018 28.3771C17.2921 29.0592 15.051 29.2328 12.8614 28.8835C10.6718 28.5342 8.59584 27.672 6.80306 26.3673C5.01028 25.0626 3.5515 23.3524 2.54584 21.3763C1.54017 19.4002 1.01613 17.2142 1.01652 14.997C1.01652 14.8727 0.96714 14.7535 0.87925 14.6656C0.79136 14.5777 0.672156 14.5283 0.547861 14.5283C0.423566 14.5283 0.304362 14.5777 0.216472 14.6656C0.128582 14.7535 0.0792062 14.8727 0.0792062 14.997C0.0792612 17.4625 0.687198 19.89 1.8492 22.0646C3.0112 24.2391 4.69141 26.0937 6.74109 27.464C8.79078 28.8343 11.1467 29.6781 13.6003 29.9208C16.0539 30.1634 18.5294 29.7974 20.8078 28.8551C22.3715 29.3617 23.9731 29.7425 25.5975 29.9939C25.6832 30.002 25.7695 30.002 25.8552 29.9939C26.1664 29.9952 26.4714 29.9076 26.7346 29.7416C26.9977 29.5756 27.208 29.338 27.3409 29.0566L29.5389 24.3701C29.7041 24.0211 29.7421 23.6253 29.6462 23.2513C29.5504 22.8772 29.3267 22.5485 29.014 22.322ZM28.6672 23.9389L26.4692 28.6254C26.4072 28.7646 26.301 28.8795 26.1672 28.9524C26.0333 29.0252 25.8792 29.052 25.7287 29.0285C22.8043 28.5973 15.5823 26.9898 9.58353 21.2488L9.55541 21.2254C9.39607 21.0707 9.23672 20.9161 9.08675 20.7567L8.73058 20.3959L8.70714 20.3724C2.96612 14.3924 1.35863 7.16573 0.927472 4.24133C0.903986 4.09077 0.930734 3.93667 1.00358 3.80283C1.07643 3.66899 1.19133 3.56287 1.33051 3.50085L6.01706 1.30286C6.165 1.23501 6.33171 1.21986 6.48946 1.25993C6.6472 1.30001 6.78647 1.39289 6.88408 1.52313L10.7645 6.67833C10.8692 6.81593 10.9202 6.98689 10.9082 7.15934C10.8961 7.33179 10.8217 7.49397 10.6989 7.61564L8.15413 10.1558C7.92769 10.3806 7.77199 10.6668 7.70621 10.9791C7.64042 11.2914 7.66743 11.6161 7.78389 11.9132C8.69974 14.2338 10.0809 16.3422 11.8424 18.1088C13.6102 19.8689 15.7184 21.2499 18.0381 22.1674C18.3344 22.2841 18.6584 22.3112 18.97 22.2454C19.2816 22.1796 19.567 22.0237 19.7908 21.7971L22.3356 19.2523C22.4573 19.1295 22.6195 19.0552 22.7919 19.0431C22.9644 19.031 23.1353 19.0821 23.2729 19.1867L28.4281 23.0672C28.5627 23.1624 28.66 23.3013 28.7036 23.4603C28.7472 23.6192 28.7343 23.7884 28.6672 23.9389Z" fill="#232323"/>
</svg>
