<svg width="28" height="32" viewBox="0 0 28 32" fill="none" xmlns="http://www.w3.org/2000/svg">
<path d="M25.0087 29.2174C24.4174 29.2174 23.8609 29.3913 23.3739 29.7391C22.887 28.6261 21.7739 27.8261 20.487 27.8261C20.1044 27.8261 19.687 27.8957 19.3391 28.0348C18.9913 26.6783 17.7391 25.7391 16.313 25.7391C16.2087 25.7391 16.0696 25.7391 15.9652 25.7739V24.3478H16.6609C16.8696 24.3478 17.0087 24.2087 17.0087 24V22.2609H18.6087L21.9826 25.9826C22.0522 26.0522 22.1565 26.087 22.2261 26.087C22.2609 26.087 22.2957 26.087 22.3652 26.0522C22.5044 26.0174 22.5739 25.8783 22.5739 25.7391V17.0435C22.5739 16.9739 22.5391 16.8696 22.4696 16.8L19.0957 13.0783V12.6957C19.0957 8 17.3217 3.54783 14.1217 0.104348C13.9826 -0.0347826 13.7391 -0.0347826 13.6 0.104348C10.4348 3.54783 8.66087 8 8.66087 12.6957V13.0783L5.28696 16.8C5.21739 16.8696 5.18261 16.9739 5.18261 17.0435V25.7391C5.18261 25.8783 5.28696 26.0174 5.3913 26.0522C5.42609 26.0522 5.46087 26.087 5.53044 26.087C5.63478 26.087 5.70435 26.0522 5.77391 25.9826L9.14783 22.2609H10.7478V24C10.7478 24.2087 10.887 24.3478 11.0957 24.3478H11.7913V25.7739C11.687 25.7739 11.5478 25.7391 11.4435 25.7391C10.0174 25.7391 8.8 26.713 8.41739 28.0348C8.06957 27.8957 7.65217 27.8261 7.26957 27.8261C5.98261 27.8261 4.86957 28.6261 4.38261 29.7391C3.89565 29.3913 3.33913 29.2174 2.74783 29.2174C1.35652 29.2174 0.173913 30.2261 0 31.6174C0 31.7217 -6.73792e-08 31.8261 0.0695652 31.8957C0.13913 31.9652 0.243478 32 0.347826 32H27.4087C27.513 32 27.6174 31.9652 27.687 31.8957C27.7565 31.8261 27.7913 31.7217 27.7565 31.6174C27.5826 30.2261 26.4 29.2174 25.0087 29.2174ZM21.8783 17.1826V24.8348L19.0957 21.7739V14.1217L21.8783 17.1826ZM5.87826 17.1826L8.66087 14.1217V21.7739L5.87826 24.8348V17.1826ZM9.35652 13.2174V12.6957C9.35652 8.31304 10.9565 4.10435 13.8783 0.869565C16.8 4.13913 18.4 8.31304 18.4 12.6957V13.2174V21.5652H16.6609H11.0957H9.35652V13.2174ZM11.4435 22.2609H16.313V23.6522H11.4435V22.2609ZM12.487 24.3478H15.2696V25.913C14.713 26.1217 14.2609 26.4348 13.8783 26.887C13.4957 26.4348 13.0435 26.087 12.487 25.913V24.3478ZM0.765217 31.3043C1.04348 30.5043 1.84348 29.913 2.74783 29.913C3.33913 29.913 3.89565 30.1565 4.27826 30.6087C4.38261 30.713 4.48696 30.7478 4.62609 30.713C4.76522 30.6783 4.83478 30.5739 4.86957 30.4348C5.11304 29.3217 6.12174 28.5217 7.23478 28.5217C7.65217 28.5217 8.10435 28.6261 8.45218 28.8696C8.55652 28.9391 8.69565 28.9391 8.8 28.8696C8.90435 28.8 8.97391 28.7304 8.97391 28.5913C9.11304 27.3739 10.1565 26.4348 11.4087 26.4348C12.2783 26.4348 13.113 26.9217 13.5304 27.687C13.6696 27.8957 14.0174 27.8957 14.1565 27.687C14.5739 26.9217 15.4087 26.4348 16.2783 26.4348C17.5304 26.4348 18.5739 27.3739 18.713 28.5913C18.713 28.6957 18.7826 28.8 18.887 28.8696C18.9913 28.9391 19.1304 28.9043 19.2348 28.8696C19.6174 28.6609 20.0348 28.5217 20.4522 28.5217C21.6 28.5217 22.6087 29.3217 22.8174 30.4348C22.8522 30.5739 22.9565 30.6783 23.0609 30.713C23.2 30.7478 23.3044 30.713 23.4087 30.6087C23.8261 30.1565 24.3478 29.913 24.9391 29.913C25.8435 29.913 26.6087 30.5043 26.9217 31.3043H0.765217Z" fill="#232323"/>
<path d="M13.8782 16.3481C15.7912 16.3481 17.3564 14.7829 17.3564 12.8699C17.3564 10.9568 15.7912 9.3916 13.8782 9.3916C11.9651 9.3916 10.3999 10.9568 10.3999 12.8699C10.3999 14.7829 11.9651 16.3481 13.8782 16.3481ZM13.8782 10.0873C15.4086 10.0873 16.6608 11.3394 16.6608 12.8699C16.6608 14.4003 15.4086 15.6525 13.8782 15.6525C12.3477 15.6525 11.0956 14.4003 11.0956 12.8699C11.0956 11.3394 12.3477 10.0873 13.8782 10.0873Z" fill="#232323"/>
</svg>
