<svg width="15" height="15" viewBox="0 0 15 15" fill="none" xmlns="http://www.w3.org/2000/svg">
<g clip-path="url(#clip0_110_20653)">
<mask id="path-1-inside-1_110_20653" fill="white">
<path d="M13.1625 11.3846C12.59 11.9951 11.9188 12.4887 11.1675 12.8514C10.3928 13.2253 9.56347 13.4449 8.70261 13.5039C8.67037 13.5062 8.63773 13.5073 8.60555 13.5073C8.46121 13.5073 8.32187 13.4855 8.19062 13.445C8.05354 14.0823 7.48593 14.5615 6.80838 14.5615C6.77598 14.5615 6.74315 14.5604 6.7108 14.5581C5.0875 14.4464 3.55829 13.7496 2.40481 12.5961C1.25133 11.4426 0.554544 9.91344 0.442816 8.29014C0.415965 7.9005 0.553498 7.51326 0.81998 7.22779C1.01793 7.01579 1.27675 6.87101 1.55677 6.81054C1.50609 6.64619 1.48505 6.47246 1.49702 6.29826C1.55607 5.43753 1.77561 4.60824 2.14964 3.83353C2.51235 3.0822 3.0059 2.41097 3.61646 1.83854C4.87241 0.661131 6.51254 0.0126953 8.23464 0.0126953H8.23468C9.1471 0.0126953 10.0322 0.191063 10.8654 0.542836C11.6703 0.882643 12.3926 1.36913 13.0122 1.98879C13.6318 2.60846 14.1183 3.33073 14.4581 4.13557C14.8099 4.96879 14.9883 5.85392 14.9883 6.76635C14.9883 8.48862 14.3398 10.1287 13.1625 11.3846ZM1.48225 8.21866C1.67757 11.0559 3.94501 13.3234 6.78235 13.5187C6.79109 13.5193 6.79974 13.5196 6.80838 13.5196C7.01206 13.5196 7.18036 13.3543 7.18036 13.1474V8.19273C7.18036 7.98725 7.01377 7.8206 6.80823 7.8206H1.85356C1.63786 7.8206 1.46747 8.00344 1.48225 8.21866ZM8.23464 1.05461C8.23444 1.05461 8.23481 1.05461 8.23464 1.05461C5.21375 1.05461 2.74017 3.40038 2.53648 6.36964C2.52172 6.58431 2.69267 6.76635 2.90786 6.76635H7.35331C7.84006 6.76635 8.23464 7.16096 8.23464 7.64771V12.0931C8.23464 12.2996 8.40228 12.4654 8.60555 12.4654C8.61409 12.4654 8.6227 12.4651 8.63133 12.4645C11.6008 12.2608 13.9464 9.78756 13.9464 6.7664C13.9464 3.6065 11.3945 1.05461 8.23464 1.05461Z"/>
</mask>
<path d="M13.1625 11.3846C12.59 11.9951 11.9188 12.4887 11.1675 12.8514C10.3928 13.2253 9.56347 13.4449 8.70261 13.5039C8.67037 13.5062 8.63773 13.5073 8.60555 13.5073C8.46121 13.5073 8.32187 13.4855 8.19062 13.445C8.05354 14.0823 7.48593 14.5615 6.80838 14.5615C6.77598 14.5615 6.74315 14.5604 6.7108 14.5581C5.0875 14.4464 3.55829 13.7496 2.40481 12.5961C1.25133 11.4426 0.554544 9.91344 0.442816 8.29014C0.415965 7.9005 0.553498 7.51326 0.81998 7.22779C1.01793 7.01579 1.27675 6.87101 1.55677 6.81054C1.50609 6.64619 1.48505 6.47246 1.49702 6.29826C1.55607 5.43753 1.77561 4.60824 2.14964 3.83353C2.51235 3.0822 3.0059 2.41097 3.61646 1.83854C4.87241 0.661131 6.51254 0.0126953 8.23464 0.0126953H8.23468C9.1471 0.0126953 10.0322 0.191063 10.8654 0.542836C11.6703 0.882643 12.3926 1.36913 13.0122 1.98879C13.6318 2.60846 14.1183 3.33073 14.4581 4.13557C14.8099 4.96879 14.9883 5.85392 14.9883 6.76635C14.9883 8.48862 14.3398 10.1287 13.1625 11.3846ZM1.48225 8.21866C1.67757 11.0559 3.94501 13.3234 6.78235 13.5187C6.79109 13.5193 6.79974 13.5196 6.80838 13.5196C7.01206 13.5196 7.18036 13.3543 7.18036 13.1474V8.19273C7.18036 7.98725 7.01377 7.8206 6.80823 7.8206H1.85356C1.63786 7.8206 1.46747 8.00344 1.48225 8.21866ZM8.23464 1.05461C8.23444 1.05461 8.23481 1.05461 8.23464 1.05461C5.21375 1.05461 2.74017 3.40038 2.53648 6.36964C2.52172 6.58431 2.69267 6.76635 2.90786 6.76635H7.35331C7.84006 6.76635 8.23464 7.16096 8.23464 7.64771V12.0931C8.23464 12.2996 8.40228 12.4654 8.60555 12.4654C8.61409 12.4654 8.6227 12.4651 8.63133 12.4645C11.6008 12.2608 13.9464 9.78756 13.9464 6.7664C13.9464 3.6065 11.3945 1.05461 8.23464 1.05461Z" fill="#7C7C7C"/>
<path d="M13.1625 11.3846L13.3084 11.5214L13.3084 11.5214L13.1625 11.3846ZM11.1675 12.8514L11.0805 12.6713L11.0805 12.6713L11.1675 12.8514ZM8.70261 13.5039L8.68877 13.3044L8.68893 13.3044L8.70261 13.5039ZM8.19062 13.445L7.99509 13.403L8.04097 13.1896L8.24951 13.2539L8.19062 13.445ZM6.7108 14.5581L6.72454 14.3586L6.7246 14.3586L6.7108 14.5581ZM0.442816 8.29014L0.642343 8.27639L0.642344 8.2764L0.442816 8.29014ZM0.81998 7.22779L0.673779 7.09131L0.673795 7.0913L0.81998 7.22779ZM1.55677 6.81054L1.74789 6.75161L1.81216 6.96001L1.59898 7.00604L1.55677 6.81054ZM1.49702 6.29826L1.69655 6.31194L1.69655 6.31196L1.49702 6.29826ZM2.14964 3.83353L2.32975 3.92048L2.32974 3.92049L2.14964 3.83353ZM3.61646 1.83854L3.47967 1.69263L3.47968 1.69263L3.61646 1.83854ZM10.8654 0.542836L10.9432 0.358583L10.9432 0.358584L10.8654 0.542836ZM14.4581 4.13557L14.6424 4.05778L14.6424 4.05778L14.4581 4.13557ZM14.9883 6.76635H15.1883V6.76636L14.9883 6.76635ZM1.48225 8.21866L1.28273 8.23239L1.28273 8.23237L1.48225 8.21866ZM6.78235 13.5187L6.79609 13.3192L6.79625 13.3192L6.78235 13.5187ZM2.53648 6.36964L2.73601 6.38332L2.73601 6.38336L2.53648 6.36964ZM8.63133 12.4645L8.64502 12.6641L8.64426 12.6641L8.63133 12.4645ZM13.9464 6.7664H14.1464V6.7664L13.9464 6.7664ZM13.3084 11.5214C12.7192 12.1498 12.028 12.6581 11.2544 13.0315L11.0805 12.6713C11.8097 12.3193 12.4609 11.8405 13.0166 11.2478L13.3084 11.5214ZM11.2544 13.0315C10.4567 13.4166 9.60251 13.6427 8.7163 13.7035L8.68893 13.3044C9.52443 13.2471 10.3288 13.0341 11.0805 12.6713L11.2544 13.0315ZM8.71646 13.7035C8.67967 13.706 8.64241 13.7073 8.60555 13.7073V13.3073C8.63304 13.3073 8.66107 13.3063 8.68877 13.3044L8.71646 13.7035ZM8.60555 13.7073C8.44093 13.7073 8.28175 13.6824 8.13172 13.6362L8.24951 13.2539C8.362 13.2886 8.48149 13.3073 8.60555 13.3073V13.7073ZM8.38614 13.4871C8.22971 14.2144 7.58235 14.7615 6.80838 14.7615V14.3615C7.3895 14.3615 7.87738 13.9502 7.99509 13.403L8.38614 13.4871ZM6.80838 14.7615C6.77134 14.7615 6.73391 14.7602 6.697 14.7576L6.7246 14.3586C6.75239 14.3605 6.78062 14.3615 6.80838 14.3615V14.7615ZM6.69707 14.7576C5.02545 14.6426 3.45092 13.9251 2.26339 12.7375L2.54623 12.4547C3.66566 13.5741 5.14955 14.2502 6.72454 14.3586L6.69707 14.7576ZM2.26339 12.7375C1.07586 11.55 0.358342 9.97549 0.243287 8.30387L0.642344 8.2764C0.750747 9.85139 1.42681 11.3353 2.54623 12.4547L2.26339 12.7375ZM0.243288 8.30389C0.212626 7.85892 0.369489 7.41729 0.673779 7.09131L0.966181 7.36426C0.737509 7.60923 0.619305 7.94207 0.642343 8.27639L0.243288 8.30389ZM0.673795 7.0913C0.900001 6.84903 1.19529 6.68398 1.51456 6.61505L1.59898 7.00604C1.3582 7.05803 1.13585 7.18254 0.966165 7.36428L0.673795 7.0913ZM1.36565 6.86948C1.30788 6.68214 1.2838 6.48381 1.29749 6.28455L1.69655 6.31196C1.6863 6.46112 1.7043 6.61023 1.74789 6.75161L1.36565 6.86948ZM1.29749 6.28457C1.35828 5.39848 1.58438 4.54432 1.96953 3.74658L2.32974 3.92049C1.96684 4.67216 1.75386 5.47657 1.69655 6.31194L1.29749 6.28457ZM1.96953 3.74658C2.34297 2.97302 2.85122 2.28183 3.47967 1.69263L3.75326 1.98444C3.16057 2.54011 2.68174 3.19137 2.32975 3.92048L1.96953 3.74658ZM3.47968 1.69263C4.7727 0.480457 6.46175 -0.187305 8.23464 -0.187305V0.212695C6.56333 0.212695 4.97211 0.841805 3.75325 1.98445L3.47968 1.69263ZM8.23464 -0.187305H8.23468V0.212695H8.23464V-0.187305ZM8.23468 -0.187305C9.17358 -0.187305 10.0851 -0.00367638 10.9432 0.358583L10.7876 0.727088C9.97925 0.385801 9.12062 0.212695 8.23468 0.212695V-0.187305ZM10.9432 0.358584C11.7719 0.70846 12.5158 1.20952 13.1536 1.84737L12.8708 2.13021C12.2693 1.52874 11.5686 1.05683 10.7876 0.727087L10.9432 0.358584ZM13.1536 1.84737C13.7915 2.48523 14.2925 3.22909 14.6424 4.05778L14.2739 4.21336C13.9442 3.43237 13.4722 2.73169 12.8708 2.13021L13.1536 1.84737ZM14.6424 4.05778C15.0047 4.91585 15.1883 5.82744 15.1883 6.76635H14.7883C14.7883 5.8804 14.6152 5.02174 14.2739 4.21336L14.6424 4.05778ZM15.1883 6.76636C15.1883 8.5394 14.5205 10.2284 13.3084 11.5214L13.0166 11.2478C14.1592 10.029 14.7883 8.43783 14.7883 6.76635L15.1883 6.76636ZM1.68178 8.20492C1.87024 10.9426 4.05838 13.1308 6.79609 13.3192L6.76862 13.7182C3.83164 13.5161 1.48491 11.1693 1.28273 8.23239L1.68178 8.20492ZM6.79625 13.3192C6.80026 13.3195 6.80429 13.3196 6.80838 13.3196V13.7196C6.7952 13.7196 6.78191 13.7192 6.76846 13.7182L6.79625 13.3192ZM6.80838 13.3196C6.90257 13.3196 6.98036 13.2429 6.98036 13.1474H7.38036C7.38036 13.4657 7.12156 13.7196 6.80838 13.7196V13.3196ZM6.98036 13.1474V8.19273H7.38036V13.1474H6.98036ZM6.98036 8.19273C6.98036 8.09769 6.90329 8.0206 6.80823 8.0206V7.6206C7.12424 7.6206 7.38036 7.87681 7.38036 8.19273H6.98036ZM6.80823 8.0206H1.85356V7.6206H6.80823V8.0206ZM1.85356 8.0206C1.75395 8.0206 1.67492 8.10508 1.68178 8.20495L1.28273 8.23237C1.26001 7.90181 1.52177 7.6206 1.85356 7.6206V8.0206ZM8.23464 1.25461C8.23464 1.25461 8.23464 1.25461 8.23464 1.25461C8.23463 1.25461 8.23463 1.25461 8.23463 1.25461C8.23463 1.25461 8.23463 1.25461 8.23463 1.25461C8.23463 1.25461 8.23463 1.25461 8.23463 1.25461C8.23463 1.25461 8.23463 1.25461 8.23463 1.25461C8.23463 1.25461 8.23463 1.25461 8.23463 1.25461C8.23463 1.25461 8.23463 1.25461 8.23463 1.25461C8.23463 1.25461 8.23463 1.25461 8.23463 1.25461C8.23463 1.25461 8.23463 1.25461 8.23463 1.25461C8.23463 1.25461 8.23463 1.25461 8.23463 1.25461C8.23463 1.25461 8.23463 1.25461 8.23462 1.25461C8.23462 1.25461 8.23462 1.25461 8.23462 1.25461C8.23462 1.25461 8.23462 1.25461 8.23462 1.25461C8.23462 1.25461 8.23462 1.25461 8.23462 1.25461C8.23462 1.25461 8.23462 1.25461 8.23462 1.25461C8.23462 1.25461 8.23462 1.25461 8.23462 1.25461C8.23462 1.25461 8.23462 1.25461 8.23462 1.25461C8.23462 1.25461 8.23462 1.25461 8.23462 1.25461C8.23462 1.25461 8.23462 1.25461 8.23462 1.25461C8.23462 1.25461 8.23462 1.25461 8.23462 1.25461C8.23462 1.25461 8.23462 1.25461 8.23462 1.25461C8.23462 1.25461 8.23461 1.25461 8.23461 1.25461C8.23461 1.25461 8.23461 1.25461 8.23461 1.25461H8.23461C8.23461 1.25461 8.23461 1.25461 8.23461 1.25461C8.23461 1.25461 8.23461 1.25461 8.23461 1.25461C8.23461 1.25461 8.23461 1.25461 8.23461 1.25461H8.23461C8.23461 1.25461 8.23461 1.25461 8.23461 1.25461C8.23461 1.25461 8.23461 1.25461 8.23461 1.25461H8.23461C8.23461 1.25461 8.23461 1.25461 8.23461 1.25461H8.23461C8.23461 1.25461 8.23461 1.25461 8.2346 1.25461H8.2346C8.2346 1.25461 8.2346 1.25461 8.2346 1.25461H8.2346C8.2346 1.25461 8.2346 1.25461 8.2346 1.25461H8.2346C8.2346 1.25461 8.2346 1.25461 8.2346 1.25461H8.2346C8.2346 1.25461 8.2346 1.25461 8.2346 1.25461C8.2346 1.25461 8.2346 1.25461 8.2346 1.25461H8.2346C8.2346 1.25461 8.2346 1.25461 8.2346 1.25461C8.2346 1.25461 8.2346 1.25461 8.2346 1.25461C8.2346 1.25461 8.2346 1.25461 8.2346 1.25461H8.2346C8.2346 1.25461 8.2346 1.25461 8.2346 1.25461C8.23459 1.25461 8.23459 1.25461 8.23459 1.25461C8.23459 1.25461 8.23459 1.25461 8.23459 1.25461C8.23459 1.25461 8.23459 1.25461 8.23459 1.25461H8.23459H8.23459H8.23459H8.23459C8.23459 1.25461 8.23459 1.25461 8.23459 1.25461C8.23459 1.25461 8.23459 1.25461 8.23459 1.25461C8.23459 1.25461 8.23459 1.25461 8.23459 1.25461C8.23459 1.25461 8.23459 1.25461 8.23459 1.25461C8.23459 1.25461 8.23459 1.25461 8.23459 1.25461H8.23459H8.23459H8.23459H8.23459C8.23459 1.25461 8.23459 1.25461 8.23459 1.25461C8.23459 1.25461 8.23459 1.25461 8.23459 1.25461C8.23459 1.25461 8.23459 1.25461 8.23459 1.25461H8.23459C8.23459 1.25461 8.23459 1.25461 8.23458 1.25461C8.23458 1.25461 8.23458 1.25461 8.23458 1.25461H8.23458C8.23458 1.25461 8.23458 1.25461 8.23458 1.25461H8.23458C8.23458 1.25461 8.23458 1.25461 8.23458 1.25461C8.23458 1.25461 8.23458 1.25461 8.23458 1.25461C8.23458 1.25461 8.23458 1.25461 8.23458 1.25461C8.23458 1.25461 8.23458 1.25461 8.23458 1.25461C8.23458 1.25461 8.23458 1.25461 8.23458 1.25461C8.23458 1.25461 8.23458 1.25461 8.23458 1.25461H8.23458C8.23458 1.25461 8.23458 1.25461 8.23458 1.25461H8.23458C8.23458 1.25461 8.23458 1.25461 8.23458 1.25461C8.23458 1.25461 8.23458 1.25461 8.23458 1.25461C8.23458 1.25461 8.23458 1.05461 8.23458 0.854614H8.23458C8.23458 0.854614 8.23458 0.854614 8.23458 0.854614C8.23458 0.854614 8.23458 0.854614 8.23458 0.854614C8.23458 0.854614 8.23458 0.854614 8.23458 0.854614H8.23458C8.23458 0.854614 8.23458 0.854614 8.23458 0.854614C8.23458 0.854614 8.23458 0.854614 8.23458 0.854614C8.23458 0.854614 8.23458 0.854614 8.23458 0.854614C8.23458 0.854614 8.23458 0.854614 8.23458 0.854614H8.23458H8.23458C8.23458 0.854614 8.23458 0.854614 8.23458 0.854614C8.23458 0.854614 8.23458 0.854614 8.23458 0.854614C8.23458 0.854614 8.23458 0.854614 8.23458 0.854614C8.23458 0.854614 8.23458 0.854614 8.23458 0.854614H8.23459C8.23459 0.854614 8.23459 0.854614 8.23459 0.854614H8.23459C8.23459 0.854614 8.23459 0.854614 8.23459 0.854614H8.23459C8.23459 0.854614 8.23459 0.854614 8.23459 0.854614H8.23459C8.23459 0.854614 8.23459 0.854614 8.23459 0.854614H8.23459C8.23459 0.854614 8.23459 0.854614 8.23459 0.854614C8.23459 0.854614 8.23459 0.854614 8.23459 0.854614H8.23459C8.23459 0.854614 8.23459 0.854614 8.23459 0.854614C8.23459 0.854614 8.23459 0.854614 8.23459 0.854614C8.23459 0.854614 8.23459 0.854614 8.23459 0.854614H8.23459C8.23459 0.854614 8.23459 0.854614 8.23459 0.854614C8.23459 0.854614 8.23459 0.854614 8.23459 0.854614C8.23459 0.854614 8.23459 0.854614 8.23459 0.854614H8.23459H8.23459C8.23459 0.854614 8.23459 0.854614 8.2346 0.854614C8.2346 0.854614 8.2346 0.854614 8.2346 0.854614C8.2346 0.854614 8.2346 0.854614 8.2346 0.854614C8.2346 0.854614 8.2346 0.854614 8.2346 0.854614H8.2346H8.2346H8.2346C8.2346 0.854614 8.2346 0.854614 8.2346 0.854614C8.2346 0.854614 8.2346 0.854614 8.2346 0.854614C8.2346 0.854614 8.2346 0.854614 8.2346 0.854614C8.2346 0.854614 8.2346 0.854614 8.2346 0.854614C8.2346 0.854614 8.2346 0.854614 8.2346 0.854614C8.2346 0.854614 8.2346 0.854614 8.2346 0.854614C8.2346 0.854614 8.2346 0.854614 8.2346 0.854614C8.2346 0.854614 8.2346 0.854614 8.2346 0.854614C8.2346 0.854614 8.2346 0.854614 8.2346 0.854614C8.2346 0.854614 8.2346 0.854614 8.2346 0.854614C8.2346 0.854614 8.2346 0.854614 8.2346 0.854614C8.2346 0.854614 8.2346 0.854614 8.2346 0.854614C8.2346 0.854614 8.2346 0.854614 8.2346 0.854614C8.2346 0.854614 8.2346 0.854614 8.2346 0.854614C8.23461 0.854614 8.23461 0.854614 8.23461 0.854614C8.23461 0.854614 8.23461 0.854614 8.23461 0.854614C8.23461 0.854614 8.23461 0.854614 8.23461 0.854614C8.23461 0.854614 8.23461 0.854614 8.23461 0.854614C8.23461 0.854614 8.23461 0.854614 8.23461 0.854614C8.23461 0.854614 8.23461 0.854614 8.23461 0.854614C8.23461 0.854614 8.23461 0.854614 8.23461 0.854614C8.23461 0.854614 8.23461 0.854614 8.23461 0.854614C8.23461 0.854614 8.23461 0.854614 8.23461 0.854614C8.23461 0.854614 8.23461 0.854614 8.23461 0.854614C8.23461 0.854614 8.23461 0.854614 8.23461 0.854614C8.23461 0.854614 8.23461 0.854614 8.23461 0.854614C8.23461 0.854614 8.23461 0.854614 8.23461 0.854614C8.23461 0.854614 8.23461 0.854614 8.23461 0.854614C8.23461 0.854614 8.23461 0.854614 8.23461 0.854614C8.23461 0.854614 8.23461 0.854614 8.23461 0.854614C8.23461 0.854614 8.23461 0.854614 8.23461 0.854614C8.23461 0.854614 8.23461 0.854614 8.23461 0.854614H8.23461H8.23461H8.23462H8.23462H8.23462C8.23462 0.854614 8.23462 0.854614 8.23462 0.854614C8.23462 0.854614 8.23462 0.854614 8.23462 0.854614C8.23462 0.854614 8.23462 0.854614 8.23462 0.854614C8.23462 0.854614 8.23462 0.854614 8.23462 0.854614C8.23462 0.854614 8.23462 0.854614 8.23462 0.854614C8.23462 0.854614 8.23462 0.854614 8.23462 0.854614H8.23462H8.23462H8.23462H8.23462C8.23462 0.854614 8.23462 0.854614 8.23462 0.854614C8.23462 0.854614 8.23462 0.854614 8.23462 0.854614C8.23462 0.854614 8.23462 0.854614 8.23462 0.854614C8.23462 0.854614 8.23462 0.854614 8.23462 0.854614C8.23462 0.854614 8.23462 0.854614 8.23462 0.854614C8.23462 0.854614 8.23462 0.854614 8.23462 0.854614H8.23463H8.23463H8.23463C8.23463 0.854614 8.23463 0.854614 8.23463 0.854614C8.23463 0.854614 8.23463 0.854614 8.23463 0.854614C8.23463 0.854614 8.23463 0.854614 8.23463 0.854614C8.23463 0.854614 8.23463 0.854614 8.23463 0.854614C8.23463 0.854614 8.23463 0.854614 8.23463 0.854614H8.23463H8.23463H8.23463C8.23463 0.854614 8.23463 0.854614 8.23463 0.854614C8.23463 0.854614 8.23463 0.854614 8.23463 0.854614C8.23463 0.854614 8.23463 0.854614 8.23463 0.854614C8.23463 0.854614 8.23463 0.854614 8.23463 0.854614C8.23463 0.854614 8.23463 0.854614 8.23463 0.854614H8.23463H8.23463H8.23463C8.23464 0.854614 8.23464 0.854614 8.23464 0.854614C8.23464 0.854614 8.23464 0.854614 8.23464 0.854614C8.23464 0.854614 8.23464 0.854614 8.23464 0.854614C8.23464 0.854614 8.23464 0.854614 8.23464 0.854614C8.23464 0.854614 8.23464 0.854614 8.23464 0.854614C8.23464 0.854614 8.23464 0.854614 8.23464 0.854614H8.23464H8.23464H8.23464C8.23464 0.854614 8.23464 0.854614 8.23464 0.854614C8.23464 0.854614 8.23464 0.854614 8.23464 0.854614C8.23464 0.854614 8.23464 0.854614 8.23464 0.854614C8.23464 0.854614 8.23464 0.854614 8.23464 0.854614C8.23464 0.854614 8.23464 0.854614 8.23464 0.854614C8.23464 0.854614 8.23464 0.854614 8.23464 0.854614H8.23464H8.23464H8.23464H8.23464C8.23465 0.854614 8.23465 0.854614 8.23465 0.854614C8.23465 0.854614 8.23465 0.854614 8.23465 0.854614C8.23465 0.854614 8.23465 0.854614 8.23465 0.854614C8.23465 0.854614 8.23465 0.854614 8.23465 0.854614C8.23465 0.854614 8.23465 0.854614 8.23465 0.854614C8.23465 0.854614 8.23465 0.854614 8.23465 0.854614C8.23465 0.854614 8.23465 0.854614 8.23465 0.854614C8.23465 0.854614 8.23465 0.854614 8.23465 0.854614C8.23465 0.854614 8.23465 0.854614 8.23465 0.854614C8.23465 0.854614 8.23465 0.854614 8.23465 0.854614H8.23465H8.23465H8.23465H8.23465H8.23465H8.23465H8.23465H8.23465H8.23465H8.23465H8.23466H8.23466H8.23466H8.23466H8.23466H8.23466H8.23466H8.23466H8.23466H8.23466H8.23466H8.23466C8.23466 0.854614 8.23466 0.854614 8.23466 0.854614C8.23466 0.854614 8.23466 0.854614 8.23466 0.854614C8.23466 0.854614 8.23466 0.854614 8.23466 0.854614C8.23466 0.854614 8.23466 0.854614 8.23466 0.854614C8.23466 0.854614 8.23466 0.854614 8.23466 0.854614C8.23466 0.854614 8.23466 0.854614 8.23466 0.854614C8.23466 0.854614 8.23466 0.854614 8.23466 0.854614H8.23466H8.23466H8.23467C8.23467 0.854614 8.23467 0.854614 8.23467 0.854614C8.23467 0.854614 8.23467 0.854614 8.23467 0.854614C8.23467 0.854614 8.23467 0.854614 8.23467 0.854614C8.23467 0.854614 8.23467 0.854614 8.23467 0.854614H8.23467C8.23467 0.854614 8.23467 0.854614 8.23467 0.854614C8.23467 0.854614 8.23467 0.854614 8.23467 0.854614C8.23467 0.854614 8.23467 0.854614 8.23467 0.854614H8.23467C8.23467 0.854614 8.23467 0.854614 8.23467 0.854614C8.23467 0.854614 8.23467 0.854614 8.23467 0.854614H8.23467C8.23467 0.854614 8.23467 0.854614 8.23467 0.854614C8.23467 0.854614 8.23467 0.854614 8.23467 0.854614H8.23467C8.23467 0.854614 8.23467 0.854614 8.23467 0.854614C8.23467 0.854614 8.23467 0.854614 8.23467 0.854614C8.23467 0.854614 8.23467 0.854614 8.23467 0.854614C8.23467 0.854614 8.23467 0.854614 8.23467 0.854614C8.23467 0.854614 8.23467 0.854614 8.23467 0.854614C8.23468 0.854614 8.23468 0.854614 8.23468 0.854614C8.23468 0.854614 8.23468 0.854614 8.23468 0.854614H8.23468C8.23468 0.854614 8.23468 0.854614 8.23468 0.854614C8.23468 0.854614 8.23468 0.854614 8.23468 0.854614C8.23468 0.854614 8.23468 0.854614 8.23468 0.854614H8.23468H8.23468H8.23468C8.23468 0.854614 8.23468 0.854614 8.23468 0.854614C8.23468 0.854614 8.23468 0.854614 8.23468 0.854614H8.23468C8.23468 0.854614 8.23468 0.854614 8.23468 0.854614C8.23468 0.854614 8.23468 0.854614 8.23468 0.854614C8.23468 0.854614 8.23468 0.854614 8.23468 0.854614C8.23468 0.854614 8.23468 0.854614 8.23468 0.854614C8.23468 0.854614 8.23468 0.854614 8.23468 0.854614C8.23468 0.854614 8.23468 0.854614 8.23468 0.854614C8.23468 0.854614 8.23468 1.05461 8.23468 1.25461C8.23468 1.25461 8.23468 1.25461 8.23468 1.25461C8.23468 1.25461 8.23468 1.25461 8.23468 1.25461H8.23468C8.23468 1.25461 8.23468 1.25461 8.23468 1.25461C8.23468 1.25461 8.23468 1.25461 8.23468 1.25461H8.23468C8.23468 1.25461 8.23468 1.25461 8.23468 1.25461C8.23468 1.25461 8.23468 1.25461 8.23468 1.25461C8.23468 1.25461 8.23468 1.25461 8.23468 1.25461C8.23468 1.25461 8.23468 1.25461 8.23468 1.25461H8.23468C8.23468 1.25461 8.23468 1.25461 8.23468 1.25461C8.23468 1.25461 8.23468 1.25461 8.23468 1.25461C8.23468 1.25461 8.23468 1.25461 8.23468 1.25461C8.23468 1.25461 8.23468 1.25461 8.23468 1.25461C8.23468 1.25461 8.23468 1.25461 8.23468 1.25461H8.23468C8.23468 1.25461 8.23468 1.25461 8.23467 1.25461C8.23467 1.25461 8.23467 1.25461 8.23467 1.25461C8.23467 1.25461 8.23467 1.25461 8.23467 1.25461H8.23467H8.23467H8.23467C8.23467 1.25461 8.23467 1.25461 8.23467 1.25461C8.23467 1.25461 8.23467 1.25461 8.23467 1.25461C8.23467 1.25461 8.23467 1.25461 8.23467 1.25461C8.23467 1.25461 8.23467 1.25461 8.23467 1.25461C8.23467 1.25461 8.23467 1.25461 8.23467 1.25461C8.23467 1.25461 8.23467 1.25461 8.23467 1.25461C8.23467 1.25461 8.23467 1.25461 8.23467 1.25461C8.23467 1.25461 8.23467 1.25461 8.23467 1.25461H8.23467H8.23467H8.23467C8.23467 1.25461 8.23467 1.25461 8.23467 1.25461C8.23467 1.25461 8.23467 1.25461 8.23467 1.25461C8.23467 1.25461 8.23467 1.25461 8.23467 1.25461H8.23466H8.23466C8.23466 1.25461 8.23466 1.25461 8.23466 1.25461C8.23466 1.25461 8.23466 1.25461 8.23466 1.25461H8.23466C8.23466 1.25461 8.23466 1.25461 8.23466 1.25461C8.23466 1.25461 8.23466 1.25461 8.23466 1.25461H8.23466C8.23466 1.25461 8.23466 1.25461 8.23466 1.25461C8.23466 1.25461 8.23466 1.25461 8.23466 1.25461H8.23466C8.23466 1.25461 8.23466 1.25461 8.23466 1.25461H8.23466C8.23466 1.25461 8.23466 1.25461 8.23466 1.25461H8.23466C8.23466 1.25461 8.23466 1.25461 8.23465 1.25461C8.23465 1.25461 8.23465 1.25461 8.23465 1.25461H8.23465C8.23465 1.25461 8.23465 1.25461 8.23465 1.25461H8.23465C8.23465 1.25461 8.23465 1.25461 8.23465 1.25461C8.23465 1.25461 8.23465 1.25461 8.23465 1.25461C8.23465 1.25461 8.23465 1.25461 8.23465 1.25461H8.23465C8.23465 1.25461 8.23465 1.25461 8.23465 1.25461C8.23465 1.25461 8.23465 1.25461 8.23465 1.25461C8.23465 1.25461 8.23465 1.25461 8.23465 1.25461C8.23465 1.25461 8.23465 1.25461 8.23464 1.25461H8.23464C8.23464 1.25461 8.23464 1.25461 8.23464 1.25461C8.23464 1.25461 8.23464 1.25461 8.23464 1.25461C8.23464 1.25461 8.23464 1.25461 8.23464 1.25461C8.23464 1.25461 8.23464 1.25461 8.23464 1.25461C8.23464 1.25461 8.23464 1.25461 8.23464 1.25461C8.23464 1.25461 8.23464 1.25461 8.23464 1.25461C8.23464 1.25461 8.23464 1.25461 8.23464 1.25461C8.23464 1.25461 8.23464 1.25461 8.23464 1.25461V0.854614C8.23464 0.854614 8.23464 0.854614 8.23464 0.854614C8.23464 0.854614 8.23464 0.854614 8.23464 0.854614C8.23464 0.854614 8.23464 0.854614 8.23464 0.854614C8.23464 0.854614 8.23464 0.854614 8.23464 0.854614C8.23464 0.854614 8.23464 0.854614 8.23464 0.854614C8.23464 0.854614 8.23464 0.854614 8.23464 0.854614C8.23464 0.854614 8.23464 0.854614 8.23464 0.854614C8.23464 0.854614 8.23464 0.854614 8.23464 0.854614H8.23464C8.23465 0.854614 8.23465 0.854614 8.23465 0.854614C8.23465 0.854614 8.23465 0.854614 8.23465 0.854614C8.23465 0.854614 8.23465 0.854614 8.23465 0.854614C8.23465 0.854614 8.23465 0.854614 8.23465 0.854614H8.23465C8.23465 0.854614 8.23465 0.854614 8.23465 0.854614C8.23465 0.854614 8.23465 0.854614 8.23465 0.854614C8.23465 0.854614 8.23465 0.854614 8.23465 0.854614H8.23465C8.23465 0.854614 8.23465 0.854614 8.23465 0.854614H8.23465C8.23465 0.854614 8.23465 0.854614 8.23465 0.854614C8.23466 0.854614 8.23466 0.854614 8.23466 0.854614H8.23466C8.23466 0.854614 8.23466 0.854614 8.23466 0.854614H8.23466C8.23466 0.854614 8.23466 0.854614 8.23466 0.854614H8.23466C8.23466 0.854614 8.23466 0.854614 8.23466 0.854614C8.23466 0.854614 8.23466 0.854614 8.23466 0.854614H8.23466C8.23466 0.854614 8.23466 0.854614 8.23466 0.854614C8.23466 0.854614 8.23466 0.854614 8.23466 0.854614H8.23466C8.23466 0.854614 8.23466 0.854614 8.23466 0.854614C8.23466 0.854614 8.23466 0.854614 8.23466 0.854614H8.23466H8.23467C8.23467 0.854614 8.23467 0.854614 8.23467 0.854614C8.23467 0.854614 8.23467 0.854614 8.23467 0.854614C8.23467 0.854614 8.23467 0.854614 8.23467 0.854614H8.23467H8.23467H8.23467C8.23467 0.854614 8.23467 0.854614 8.23467 0.854614C8.23467 0.854614 8.23467 0.854614 8.23467 0.854614C8.23467 0.854614 8.23467 0.854614 8.23467 0.854614C8.23467 0.854614 8.23467 0.854614 8.23467 0.854614C8.23467 0.854614 8.23467 0.854614 8.23467 0.854614C8.23467 0.854614 8.23467 0.854614 8.23467 0.854614C8.23467 0.854614 8.23467 0.854614 8.23467 0.854614C8.23467 0.854614 8.23467 0.854614 8.23467 0.854614H8.23467H8.23467H8.23467C8.23467 0.854614 8.23467 0.854614 8.23467 0.854614C8.23467 0.854614 8.23467 0.854614 8.23467 0.854614C8.23468 0.854614 8.23468 0.854614 8.23468 0.854614H8.23468C8.23468 0.854614 8.23468 0.854614 8.23468 0.854614C8.23468 0.854614 8.23468 0.854614 8.23468 0.854614C8.23468 0.854614 8.23468 0.854614 8.23468 0.854614C8.23468 0.854614 8.23468 0.854614 8.23468 0.854614C8.23468 0.854614 8.23468 0.854614 8.23468 0.854614H8.23468C8.23468 0.854614 8.23468 0.854614 8.23468 0.854614C8.23468 0.854614 8.23468 0.854614 8.23468 0.854614C8.23468 0.854614 8.23468 0.854614 8.23468 0.854614C8.23468 0.854614 8.23468 0.854614 8.23468 0.854614H8.23468C8.23468 0.854614 8.23468 0.854614 8.23468 0.854614C8.23468 0.854614 8.23468 0.854614 8.23468 0.854614H8.23468C8.23468 0.854614 8.23468 0.854614 8.23468 0.854614C8.23468 0.854614 8.23468 0.854614 8.23468 0.854614C8.23468 1.05461 8.23468 1.25461 8.23468 1.25461C8.23468 1.25461 8.23468 1.25461 8.23468 1.25461C8.23468 1.25461 8.23468 1.25461 8.23468 1.25461C8.23468 1.25461 8.23468 1.25461 8.23468 1.25461C8.23468 1.25461 8.23468 1.25461 8.23468 1.25461C8.23468 1.25461 8.23468 1.25461 8.23468 1.25461C8.23468 1.25461 8.23468 1.25461 8.23468 1.25461H8.23468C8.23468 1.25461 8.23468 1.25461 8.23468 1.25461C8.23468 1.25461 8.23468 1.25461 8.23468 1.25461H8.23468H8.23468H8.23468C8.23468 1.25461 8.23468 1.25461 8.23468 1.25461C8.23468 1.25461 8.23468 1.25461 8.23468 1.25461C8.23468 1.25461 8.23468 1.25461 8.23468 1.25461H8.23468C8.23468 1.25461 8.23468 1.25461 8.23468 1.25461C8.23468 1.25461 8.23468 1.25461 8.23467 1.25461C8.23467 1.25461 8.23467 1.25461 8.23467 1.25461C8.23467 1.25461 8.23467 1.25461 8.23467 1.25461C8.23467 1.25461 8.23467 1.25461 8.23467 1.25461C8.23467 1.25461 8.23467 1.25461 8.23467 1.25461C8.23467 1.25461 8.23467 1.25461 8.23467 1.25461H8.23467C8.23467 1.25461 8.23467 1.25461 8.23467 1.25461C8.23467 1.25461 8.23467 1.25461 8.23467 1.25461H8.23467C8.23467 1.25461 8.23467 1.25461 8.23467 1.25461C8.23467 1.25461 8.23467 1.25461 8.23467 1.25461H8.23467C8.23467 1.25461 8.23467 1.25461 8.23467 1.25461C8.23467 1.25461 8.23467 1.25461 8.23467 1.25461C8.23467 1.25461 8.23467 1.25461 8.23467 1.25461H8.23467C8.23467 1.25461 8.23467 1.25461 8.23467 1.25461C8.23467 1.25461 8.23467 1.25461 8.23467 1.25461C8.23467 1.25461 8.23467 1.25461 8.23467 1.25461C8.23467 1.25461 8.23467 1.25461 8.23467 1.25461H8.23466H8.23466H8.23466C8.23466 1.25461 8.23466 1.25461 8.23466 1.25461C8.23466 1.25461 8.23466 1.25461 8.23466 1.25461C8.23466 1.25461 8.23466 1.25461 8.23466 1.25461C8.23466 1.25461 8.23466 1.25461 8.23466 1.25461C8.23466 1.25461 8.23466 1.25461 8.23466 1.25461C8.23466 1.25461 8.23466 1.25461 8.23466 1.25461C8.23466 1.25461 8.23466 1.25461 8.23466 1.25461H8.23466H8.23466H8.23466H8.23466H8.23466H8.23466H8.23466H8.23466H8.23466H8.23466H8.23466H8.23465H8.23465H8.23465H8.23465H8.23465H8.23465H8.23465H8.23465H8.23465H8.23465H8.23465C8.23465 1.25461 8.23465 1.25461 8.23465 1.25461C8.23465 1.25461 8.23465 1.25461 8.23465 1.25461C8.23465 1.25461 8.23465 1.25461 8.23465 1.25461C8.23465 1.25461 8.23465 1.25461 8.23465 1.25461C8.23465 1.25461 8.23465 1.25461 8.23465 1.25461C8.23465 1.25461 8.23465 1.25461 8.23465 1.25461C8.23465 1.25461 8.23465 1.25461 8.23465 1.25461C8.23465 1.25461 8.23465 1.25461 8.23465 1.25461C8.23465 1.25461 8.23465 1.25461 8.23465 1.25461C8.23465 1.25461 8.23465 1.25461 8.23464 1.25461H8.23464H8.23464H8.23464H8.23464C8.23464 1.25461 8.23464 1.25461 8.23464 1.25461C8.23464 1.25461 8.23464 1.25461 8.23464 1.25461C8.23464 1.25461 8.23464 1.25461 8.23464 1.25461C8.23464 1.25461 8.23464 1.25461 8.23464 1.25461C8.23464 1.25461 8.23464 1.25461 8.23464 1.25461C8.23464 1.25461 8.23464 1.25461 8.23464 1.25461H8.23464H8.23464H8.23464C8.23464 1.25461 8.23464 1.25461 8.23464 1.25461C8.23464 1.25461 8.23464 1.25461 8.23464 1.25461C8.23464 1.25461 8.23464 1.25461 8.23464 1.25461C8.23464 1.25461 8.23464 1.25461 8.23464 1.25461C8.23464 1.25461 8.23464 1.25461 8.23464 1.25461C8.23464 1.25461 8.23464 1.25461 8.23463 1.25461H8.23463H8.23463H8.23463C8.23463 1.25461 8.23463 1.25461 8.23463 1.25461C8.23463 1.25461 8.23463 1.25461 8.23463 1.25461C8.23463 1.25461 8.23463 1.25461 8.23463 1.25461C8.23463 1.25461 8.23463 1.25461 8.23463 1.25461C8.23463 1.25461 8.23463 1.25461 8.23463 1.25461H8.23463H8.23463H8.23463C8.23463 1.25461 8.23463 1.25461 8.23463 1.25461C8.23463 1.25461 8.23463 1.25461 8.23463 1.25461C8.23463 1.25461 8.23463 1.25461 8.23463 1.25461C8.23463 1.25461 8.23463 1.25461 8.23463 1.25461C8.23463 1.25461 8.23463 1.25461 8.23463 1.25461H8.23463H8.23463H8.23462C8.23462 1.25461 8.23462 1.25461 8.23462 1.25461C8.23462 1.25461 8.23462 1.25461 8.23462 1.25461C8.23462 1.25461 8.23462 1.25461 8.23462 1.25461C8.23462 1.25461 8.23462 1.25461 8.23462 1.25461C8.23462 1.25461 8.23462 1.25461 8.23462 1.25461C8.23462 1.25461 8.23462 1.25461 8.23462 1.25461H8.23462H8.23462H8.23462H8.23462C8.23462 1.25461 8.23462 1.25461 8.23462 1.25461C8.23462 1.25461 8.23462 1.25461 8.23462 1.25461C8.23462 1.25461 8.23462 1.25461 8.23462 1.25461C8.23462 1.25461 8.23462 1.25461 8.23462 1.25461C8.23462 1.25461 8.23462 1.25461 8.23462 1.25461C8.23462 1.25461 8.23462 1.25461 8.23462 1.25461H8.23462H8.23462H8.23461H8.23461H8.23461C8.23461 1.25461 8.23461 1.25461 8.23461 1.25461C8.23461 1.25461 8.23461 1.25461 8.23461 1.25461C8.23461 1.25461 8.23461 1.25461 8.23461 1.25461C8.23461 1.25461 8.23461 1.25461 8.23461 1.25461C8.23461 1.25461 8.23461 1.25461 8.23461 1.25461C8.23461 1.25461 8.23461 1.25461 8.23461 1.25461C8.23461 1.25461 8.23461 1.25461 8.23461 1.25461C8.23461 1.25461 8.23461 1.25461 8.23461 1.25461C8.23461 1.25461 8.23461 1.25461 8.23461 1.25461C8.23461 1.25461 8.23461 1.25461 8.23461 1.25461C8.23461 1.25461 8.23461 1.25461 8.23461 1.25461C8.23461 1.25461 8.23461 1.25461 8.23461 1.25461C8.23461 1.25461 8.23461 1.25461 8.23461 1.25461C8.23461 1.25461 8.23461 1.25461 8.23461 1.25461C8.23461 1.25461 8.23461 1.25461 8.23461 1.25461C8.23461 1.25461 8.23461 1.25461 8.23461 1.25461C8.23461 1.25461 8.23461 1.25461 8.23461 1.25461C8.23461 1.25461 8.23461 1.25461 8.2346 1.25461C8.2346 1.25461 8.2346 1.25461 8.2346 1.25461C8.2346 1.25461 8.2346 1.25461 8.2346 1.25461C8.2346 1.25461 8.2346 1.25461 8.2346 1.25461C8.2346 1.25461 8.2346 1.25461 8.2346 1.25461C8.2346 1.25461 8.2346 1.25461 8.2346 1.25461C8.2346 1.25461 8.2346 1.25461 8.2346 1.25461C8.2346 1.25461 8.2346 1.25461 8.2346 1.25461C8.2346 1.25461 8.2346 1.25461 8.2346 1.25461C8.2346 1.25461 8.2346 1.25461 8.2346 1.25461C8.2346 1.25461 8.2346 1.25461 8.2346 1.25461C8.2346 1.25461 8.2346 1.25461 8.2346 1.25461C8.2346 1.25461 8.2346 1.25461 8.2346 1.25461C8.2346 1.25461 8.2346 1.25461 8.2346 1.25461C8.2346 1.25461 8.2346 1.25461 8.2346 1.25461H8.2346H8.2346H8.2346C8.2346 1.25461 8.2346 1.25461 8.2346 1.25461C8.2346 1.25461 8.2346 1.25461 8.2346 1.25461C8.2346 1.25461 8.2346 1.25461 8.2346 1.25461C8.23459 1.25461 8.23459 1.25461 8.23459 1.25461H8.23459H8.23459C8.23459 1.25461 8.23459 1.25461 8.23459 1.25461C8.23459 1.25461 8.23459 1.25461 8.23459 1.25461C8.23459 1.25461 8.23459 1.25461 8.23459 1.25461H8.23459C8.23459 1.25461 8.23459 1.25461 8.23459 1.25461C8.23459 1.25461 8.23459 1.25461 8.23459 1.25461C8.23459 1.25461 8.23459 1.25461 8.23459 1.25461H8.23459C8.23459 1.25461 8.23459 1.25461 8.23459 1.25461C8.23459 1.25461 8.23459 1.25461 8.23459 1.25461H8.23459C8.23459 1.25461 8.23459 1.25461 8.23459 1.25461H8.23459C8.23459 1.25461 8.23459 1.25461 8.23459 1.25461H8.23459C8.23459 1.25461 8.23459 1.25461 8.23459 1.25461H8.23459C8.23459 1.25461 8.23459 1.25461 8.23459 1.25461H8.23458C8.23458 1.25461 8.23458 1.25461 8.23458 1.25461C8.23458 1.25461 8.23458 1.25461 8.23458 1.25461C8.23458 1.25461 8.23458 1.25461 8.23458 1.25461C8.23458 1.25461 8.23458 1.25461 8.23458 1.25461H8.23458H8.23458C8.23458 1.25461 8.23458 1.25461 8.23458 1.25461C8.23458 1.25461 8.23458 1.25461 8.23458 1.25461C8.23458 1.25461 8.23458 1.25461 8.23458 1.25461C8.23458 1.25461 8.23458 1.25461 8.23458 1.25461H8.23458C8.23458 1.25461 8.23458 1.25461 8.23458 1.25461C8.23458 1.25461 8.23458 1.25461 8.23458 1.25461C8.23458 1.25461 8.23458 1.25461 8.23458 1.25461H8.23458C8.23458 1.05461 8.23458 0.854614 8.23458 0.854614C8.23458 0.854614 8.23458 0.854614 8.23458 0.854614C8.23458 0.854614 8.23458 0.854614 8.23458 0.854614H8.23458C8.23458 0.854614 8.23458 0.854614 8.23458 0.854614H8.23458C8.23458 0.854614 8.23458 0.854614 8.23458 0.854614C8.23458 0.854614 8.23458 0.854614 8.23458 0.854614C8.23458 0.854614 8.23458 0.854614 8.23458 0.854614C8.23458 0.854614 8.23458 0.854614 8.23458 0.854614C8.23458 0.854614 8.23458 0.854614 8.23458 0.854614C8.23458 0.854614 8.23458 0.854614 8.23458 0.854614H8.23458C8.23458 0.854614 8.23458 0.854614 8.23458 0.854614H8.23458C8.23458 0.854614 8.23458 0.854614 8.23458 0.854614C8.23459 0.854614 8.23459 0.854614 8.23459 0.854614H8.23459C8.23459 0.854614 8.23459 0.854614 8.23459 0.854614C8.23459 0.854614 8.23459 0.854614 8.23459 0.854614C8.23459 0.854614 8.23459 0.854614 8.23459 0.854614H8.23459H8.23459H8.23459H8.23459C8.23459 0.854614 8.23459 0.854614 8.23459 0.854614C8.23459 0.854614 8.23459 0.854614 8.23459 0.854614C8.23459 0.854614 8.23459 0.854614 8.23459 0.854614C8.23459 0.854614 8.23459 0.854614 8.23459 0.854614C8.23459 0.854614 8.23459 0.854614 8.23459 0.854614H8.23459H8.23459H8.23459H8.23459C8.23459 0.854614 8.23459 0.854614 8.23459 0.854614C8.23459 0.854614 8.23459 0.854614 8.23459 0.854614C8.23459 0.854614 8.23459 0.854614 8.2346 0.854614C8.2346 0.854614 8.2346 0.854614 8.2346 0.854614H8.2346C8.2346 0.854614 8.2346 0.854614 8.2346 0.854614C8.2346 0.854614 8.2346 0.854614 8.2346 0.854614C8.2346 0.854614 8.2346 0.854614 8.2346 0.854614H8.2346C8.2346 0.854614 8.2346 0.854614 8.2346 0.854614C8.2346 0.854614 8.2346 0.854614 8.2346 0.854614H8.2346C8.2346 0.854614 8.2346 0.854614 8.2346 0.854614H8.2346C8.2346 0.854614 8.2346 0.854614 8.2346 0.854614H8.2346C8.2346 0.854614 8.2346 0.854614 8.2346 0.854614H8.2346C8.23461 0.854614 8.23461 0.854614 8.23461 0.854614H8.23461C8.23461 0.854614 8.23461 0.854614 8.23461 0.854614H8.23461C8.23461 0.854614 8.23461 0.854614 8.23461 0.854614C8.23461 0.854614 8.23461 0.854614 8.23461 0.854614H8.23461C8.23461 0.854614 8.23461 0.854614 8.23461 0.854614C8.23461 0.854614 8.23461 0.854614 8.23461 0.854614C8.23461 0.854614 8.23461 0.854614 8.23461 0.854614H8.23461C8.23461 0.854614 8.23461 0.854614 8.23461 0.854614C8.23461 0.854614 8.23462 0.854614 8.23462 0.854614C8.23462 0.854614 8.23462 0.854614 8.23462 0.854614C8.23462 0.854614 8.23462 0.854614 8.23462 0.854614C8.23462 0.854614 8.23462 0.854614 8.23462 0.854614C8.23462 0.854614 8.23462 0.854614 8.23462 0.854614C8.23462 0.854614 8.23462 0.854614 8.23462 0.854614C8.23462 0.854614 8.23462 0.854614 8.23462 0.854614C8.23462 0.854614 8.23462 0.854614 8.23462 0.854614C8.23462 0.854614 8.23462 0.854614 8.23462 0.854614C8.23462 0.854614 8.23462 0.854614 8.23462 0.854614C8.23462 0.854614 8.23462 0.854614 8.23462 0.854614C8.23463 0.854614 8.23463 0.854614 8.23463 0.854614C8.23463 0.854614 8.23463 0.854614 8.23463 0.854614C8.23463 0.854614 8.23463 0.854614 8.23463 0.854614C8.23463 0.854614 8.23463 0.854614 8.23463 0.854614C8.23463 0.854614 8.23463 0.854614 8.23463 0.854614C8.23463 0.854614 8.23463 0.854614 8.23463 0.854614C8.23463 0.854614 8.23463 0.854614 8.23463 0.854614C8.23463 0.854614 8.23463 0.854614 8.23463 0.854614C8.23463 0.854614 8.23463 0.854614 8.23463 0.854614C8.23463 0.854614 8.23463 0.854614 8.23464 0.854614C8.23464 0.854614 8.23464 0.854614 8.23464 0.854614V1.25461ZM8.23464 1.25461C5.31961 1.25461 2.93255 3.51825 2.73601 6.38332L2.33695 6.35595C2.54778 3.28252 5.10788 0.854614 8.23464 0.854614V1.25461ZM2.73601 6.38336C2.72925 6.48173 2.80781 6.56635 2.90786 6.56635V6.96635C2.57753 6.96635 2.31419 6.6869 2.33695 6.35592L2.73601 6.38336ZM2.90786 6.56635H7.35331V6.96635H2.90786V6.56635ZM7.35331 6.56635C7.95052 6.56635 8.43464 7.05051 8.43464 7.64771H8.03464C8.03464 7.27141 7.72959 6.96635 7.35331 6.96635V6.56635ZM8.43464 7.64771V12.0931H8.03464V7.64771H8.43464ZM8.43464 12.0931C8.43464 12.189 8.51256 12.2654 8.60555 12.2654V12.6654C8.29199 12.6654 8.03464 12.4103 8.03464 12.0931H8.43464ZM8.60555 12.2654C8.60885 12.2654 8.61303 12.2653 8.6184 12.2649L8.64426 12.6641C8.63236 12.6649 8.61933 12.6654 8.60555 12.6654V12.2654ZM8.61764 12.265C11.4829 12.0684 13.7464 9.68168 13.7464 6.7664L14.1464 6.7664C14.1464 9.89343 11.7186 12.4532 8.64502 12.6641L8.61764 12.265ZM13.7464 6.7664C13.7464 3.71696 11.2841 1.25461 8.23464 1.25461V0.854614C11.505 0.854614 14.1464 3.49605 14.1464 6.7664H13.7464Z" fill="white" mask="url(#path-1-inside-1_110_20653)"/>
<mask id="path-3-inside-2_110_20653" fill="white">
<path d="M6.80793 14.5731C7.47104 14.5731 8.054 14.1058 8.19925 13.4599C8.36154 13.5083 8.53139 13.5274 8.70302 13.5155C9.56543 13.4564 10.3962 13.2364 11.1723 12.8618C11.925 12.4985 12.5974 12.0041 13.1709 11.3924C14.3504 10.1342 15 8.49115 15 6.76584C15 5.85175 14.8213 4.96505 14.4689 4.13032C14.1285 3.32404 13.6411 2.60046 13.0204 1.97967C12.3996 1.35889 11.6761 0.871529 10.8697 0.531113C10.0349 0.178683 9.14826 0 8.23424 0C6.50899 0 4.86591 0.649603 3.60773 1.82913C2.99602 2.40263 2.50163 3.07505 2.13825 3.82772C1.76359 4.60379 1.54361 5.43453 1.48444 6.29689C1.47277 6.46687 1.49176 6.63638 1.54086 6.80096C1.25913 6.86446 1.00686 7.00881 0.81066 7.21896C0.54182 7.50694 0.403193 7.89746 0.430238 8.29045C0.542186 9.91665 1.24021 11.4486 2.39576 12.6042C3.5513 13.7598 5.08331 14.4578 6.70951 14.5697C6.7422 14.572 6.77534 14.5731 6.80793 14.5731ZM8.18108 13.429L8.17828 13.4419C8.04033 14.0833 7.46401 14.5488 6.80791 14.5488C6.77588 14.5488 6.74334 14.5477 6.71116 14.5454C5.09083 14.4339 3.56434 13.7384 2.41295 12.587C1.26157 11.4356 0.566019 9.90913 0.454509 8.2888C0.427902 7.90251 0.564196 7.51864 0.828415 7.23557C1.02422 7.02586 1.27681 6.8828 1.55888 6.8219L1.57185 6.81911L1.56793 6.80643C1.51683 6.64076 1.49691 6.46991 1.50869 6.29857C1.56764 5.4393 1.78682 4.61155 2.16012 3.8383C2.52218 3.08835 3.01482 2.41832 3.62432 1.84688C4.87802 0.671589 6.51516 0.0243206 8.23419 0.0243206C9.14498 0.0243206 10.0285 0.202372 10.8603 0.553512C11.6637 0.892712 12.3847 1.37832 13.0032 1.99687C13.6217 2.61541 14.1073 3.3364 14.4465 4.13975C14.7976 4.97147 14.9757 5.85501 14.9757 6.76582C14.9757 8.48494 14.3284 10.1221 13.1532 11.3757C12.5817 11.9852 11.9117 12.4779 11.1617 12.8399C10.3884 13.2132 9.56064 13.4323 8.70135 13.4912C8.52826 13.5033 8.35701 13.4831 8.19375 13.4329L8.18108 13.429ZM6.80793 13.5312C7.01974 13.5312 7.19208 13.3588 7.19208 13.1468V8.1922C7.19208 7.98029 7.0197 7.80791 6.80779 7.80791H1.85312C1.7455 7.80791 1.64578 7.85122 1.57231 7.92992C1.49874 8.00872 1.46228 8.11138 1.46965 8.21898C1.56433 9.59416 2.15486 10.8899 3.13248 11.8675C4.1101 12.8452 5.40588 13.4357 6.78106 13.5303C6.79006 13.5309 6.79898 13.5312 6.80793 13.5312ZM6.80779 7.83223C7.00627 7.83223 7.16776 7.99372 7.16776 8.1922V13.1469C7.16776 13.3538 6.99182 13.5209 6.78276 13.5061C5.41341 13.4118 4.12318 12.8238 3.1497 11.8503C2.17622 10.8769 1.58822 9.58664 1.49395 8.21732C1.48702 8.11651 1.52116 8.02035 1.59009 7.94654C1.65889 7.87284 1.75233 7.83225 1.85312 7.83225H6.80779V7.83223ZM8.60511 12.477C8.61389 12.477 8.62279 12.4767 8.63169 12.4761C10.0756 12.377 11.4177 11.7391 12.4108 10.6798C13.4086 9.61546 13.9581 8.22547 13.9581 6.76584C13.9581 5.23433 13.3634 3.79623 12.2836 2.71642C11.2038 1.63661 9.76569 1.04192 8.23419 1.04192H8.23415C6.77469 1.04192 5.38472 1.59144 4.32037 2.58924C3.26094 3.58242 2.62296 4.92451 2.52393 6.36827C2.51656 6.47519 2.55287 6.57726 2.62615 6.65577C2.69865 6.73345 2.80118 6.77798 2.90742 6.77798H7.35286C7.83213 6.77798 8.22203 7.16789 8.22203 7.64717V12.0926C8.22203 12.3046 8.39388 12.477 8.60511 12.477ZM8.23419 1.06624C9.75922 1.06624 11.1912 1.6584 12.2664 2.73361C13.3416 3.80882 13.9338 5.24082 13.9338 6.76584C13.9338 8.21927 13.3866 9.60335 12.393 10.6631C11.4041 11.718 10.0678 12.3532 8.63004 12.4519C8.6217 12.4524 8.61335 12.4527 8.60508 12.4527C8.40726 12.4527 8.24633 12.2912 8.24633 12.0926V7.64717C8.24633 7.15449 7.84553 6.75366 7.35284 6.75366H2.90739C2.80641 6.75366 2.71283 6.71299 2.64388 6.63916C2.57527 6.56566 2.54127 6.47003 2.54815 6.36993C2.64677 4.93231 3.28205 3.59595 4.33696 2.60697C5.39683 1.6134 6.78087 1.06624 8.23419 1.06624Z"/>
</mask>
<path d="M6.80793 14.5731C7.47104 14.5731 8.054 14.1058 8.19925 13.4599C8.36154 13.5083 8.53139 13.5274 8.70302 13.5155C9.56543 13.4564 10.3962 13.2364 11.1723 12.8618C11.925 12.4985 12.5974 12.0041 13.1709 11.3924C14.3504 10.1342 15 8.49115 15 6.76584C15 5.85175 14.8213 4.96505 14.4689 4.13032C14.1285 3.32404 13.6411 2.60046 13.0204 1.97967C12.3996 1.35889 11.6761 0.871529 10.8697 0.531113C10.0349 0.178683 9.14826 0 8.23424 0C6.50899 0 4.86591 0.649603 3.60773 1.82913C2.99602 2.40263 2.50163 3.07505 2.13825 3.82772C1.76359 4.60379 1.54361 5.43453 1.48444 6.29689C1.47277 6.46687 1.49176 6.63638 1.54086 6.80096C1.25913 6.86446 1.00686 7.00881 0.81066 7.21896C0.54182 7.50694 0.403193 7.89746 0.430238 8.29045C0.542186 9.91665 1.24021 11.4486 2.39576 12.6042C3.5513 13.7598 5.08331 14.4578 6.70951 14.5697C6.7422 14.572 6.77534 14.5731 6.80793 14.5731ZM8.18108 13.429L8.17828 13.4419C8.04033 14.0833 7.46401 14.5488 6.80791 14.5488C6.77588 14.5488 6.74334 14.5477 6.71116 14.5454C5.09083 14.4339 3.56434 13.7384 2.41295 12.587C1.26157 11.4356 0.566019 9.90913 0.454509 8.2888C0.427902 7.90251 0.564196 7.51864 0.828415 7.23557C1.02422 7.02586 1.27681 6.8828 1.55888 6.8219L1.57185 6.81911L1.56793 6.80643C1.51683 6.64076 1.49691 6.46991 1.50869 6.29857C1.56764 5.4393 1.78682 4.61155 2.16012 3.8383C2.52218 3.08835 3.01482 2.41832 3.62432 1.84688C4.87802 0.671589 6.51516 0.0243206 8.23419 0.0243206C9.14498 0.0243206 10.0285 0.202372 10.8603 0.553512C11.6637 0.892712 12.3847 1.37832 13.0032 1.99687C13.6217 2.61541 14.1073 3.3364 14.4465 4.13975C14.7976 4.97147 14.9757 5.85501 14.9757 6.76582C14.9757 8.48494 14.3284 10.1221 13.1532 11.3757C12.5817 11.9852 11.9117 12.4779 11.1617 12.8399C10.3884 13.2132 9.56064 13.4323 8.70135 13.4912C8.52826 13.5033 8.35701 13.4831 8.19375 13.4329L8.18108 13.429ZM6.80793 13.5312C7.01974 13.5312 7.19208 13.3588 7.19208 13.1468V8.1922C7.19208 7.98029 7.0197 7.80791 6.80779 7.80791H1.85312C1.7455 7.80791 1.64578 7.85122 1.57231 7.92992C1.49874 8.00872 1.46228 8.11138 1.46965 8.21898C1.56433 9.59416 2.15486 10.8899 3.13248 11.8675C4.1101 12.8452 5.40588 13.4357 6.78106 13.5303C6.79006 13.5309 6.79898 13.5312 6.80793 13.5312ZM6.80779 7.83223C7.00627 7.83223 7.16776 7.99372 7.16776 8.1922V13.1469C7.16776 13.3538 6.99182 13.5209 6.78276 13.5061C5.41341 13.4118 4.12318 12.8238 3.1497 11.8503C2.17622 10.8769 1.58822 9.58664 1.49395 8.21732C1.48702 8.11651 1.52116 8.02035 1.59009 7.94654C1.65889 7.87284 1.75233 7.83225 1.85312 7.83225H6.80779V7.83223ZM8.60511 12.477C8.61389 12.477 8.62279 12.4767 8.63169 12.4761C10.0756 12.377 11.4177 11.7391 12.4108 10.6798C13.4086 9.61546 13.9581 8.22547 13.9581 6.76584C13.9581 5.23433 13.3634 3.79623 12.2836 2.71642C11.2038 1.63661 9.76569 1.04192 8.23419 1.04192H8.23415C6.77469 1.04192 5.38472 1.59144 4.32037 2.58924C3.26094 3.58242 2.62296 4.92451 2.52393 6.36827C2.51656 6.47519 2.55287 6.57726 2.62615 6.65577C2.69865 6.73345 2.80118 6.77798 2.90742 6.77798H7.35286C7.83213 6.77798 8.22203 7.16789 8.22203 7.64717V12.0926C8.22203 12.3046 8.39388 12.477 8.60511 12.477ZM8.23419 1.06624C9.75922 1.06624 11.1912 1.6584 12.2664 2.73361C13.3416 3.80882 13.9338 5.24082 13.9338 6.76584C13.9338 8.21927 13.3866 9.60335 12.393 10.6631C11.4041 11.718 10.0678 12.3532 8.63004 12.4519C8.6217 12.4524 8.61335 12.4527 8.60508 12.4527C8.40726 12.4527 8.24633 12.2912 8.24633 12.0926V7.64717C8.24633 7.15449 7.84553 6.75366 7.35284 6.75366H2.90739C2.80641 6.75366 2.71283 6.71299 2.64388 6.63916C2.57527 6.56566 2.54127 6.47003 2.54815 6.36993C2.64677 4.93231 3.28205 3.59595 4.33696 2.60697C5.39683 1.6134 6.78087 1.06624 8.23419 1.06624Z" fill="#7C7C7C"/>
<path d="M8.19925 13.4599L8.00412 13.4161L8.05111 13.2071L8.25635 13.2683L8.19925 13.4599ZM8.70302 13.5155L8.68923 13.316L8.68933 13.316L8.70302 13.5155ZM11.1723 12.8618L11.0854 12.6817L11.0854 12.6817L11.1723 12.8618ZM13.1709 11.3924L13.025 11.2556L13.1709 11.3924ZM14.4689 4.13032L14.6532 4.05253L14.6532 4.05253L14.4689 4.13032ZM10.8697 0.531113L10.7919 0.715366L10.7919 0.715366L10.8697 0.531113ZM3.60773 1.82913L3.47094 1.68322L3.47094 1.68322L3.60773 1.82913ZM2.13825 3.82772L1.95814 3.74077L1.95814 3.74077L2.13825 3.82772ZM1.48444 6.29689L1.68397 6.31058L1.68397 6.3106L1.48444 6.29689ZM1.54086 6.80096L1.73251 6.74378L1.79374 6.94898L1.58484 6.99607L1.54086 6.80096ZM0.81066 7.21896L0.664464 7.08248L0.664467 7.08248L0.81066 7.21896ZM0.430238 8.29045L0.23071 8.30419L0.230709 8.30418L0.430238 8.29045ZM6.70951 14.5697L6.72324 14.3702L6.72332 14.3702L6.70951 14.5697ZM8.18108 13.429L7.98558 13.3868L8.0316 13.1734L8.24013 13.2379L8.18108 13.429ZM8.17828 13.4419L7.98275 13.3999L7.98278 13.3997L8.17828 13.4419ZM6.71116 14.5454L6.72489 14.3459L6.72504 14.3459L6.71116 14.5454ZM0.454509 8.2888L0.654037 8.27506L0.654037 8.27507L0.454509 8.2888ZM0.828415 7.23557L0.68221 7.0991L0.682228 7.09908L0.828415 7.23557ZM1.55888 6.8219L1.51668 6.62641L1.51671 6.6264L1.55888 6.8219ZM1.57185 6.81911L1.76293 6.76005L1.82738 6.96858L1.61402 7.01461L1.57185 6.81911ZM1.56793 6.80643L1.37685 6.86549L1.37682 6.86538L1.56793 6.80643ZM1.50869 6.29857L1.70822 6.31226L1.70822 6.31228L1.50869 6.29857ZM2.16012 3.8383L1.98001 3.75135L1.98001 3.75135L2.16012 3.8383ZM3.62432 1.84688L3.48752 1.70098L3.48753 1.70097L3.62432 1.84688ZM10.8603 0.553512L10.938 0.369259L10.9381 0.369261L10.8603 0.553512ZM13.0032 1.99687L12.8618 2.13829L12.8618 2.13829L13.0032 1.99687ZM14.4465 4.13975L14.6308 4.06196L14.6308 4.06197L14.4465 4.13975ZM13.1532 11.3757L13.2991 11.5125L13.2991 11.5125L13.1532 11.3757ZM11.1617 12.8399L11.0748 12.6598L11.0748 12.6598L11.1617 12.8399ZM8.70135 13.4912L8.68744 13.2917L8.68766 13.2917L8.70135 13.4912ZM8.19375 13.4329L8.13492 13.624L8.1347 13.624L8.19375 13.4329ZM1.57231 7.92992L1.7185 8.06641L1.7185 8.06641L1.57231 7.92992ZM1.46965 8.21898L1.27012 8.23271L1.27012 8.23264L1.46965 8.21898ZM6.78106 13.5303L6.76758 13.7299L6.76733 13.7299L6.78106 13.5303ZM6.80779 7.83223H6.60779V7.63223H6.80779V7.83223ZM6.78276 13.5061L6.7965 13.3065L6.79694 13.3066L6.78276 13.5061ZM1.49395 8.21732L1.29442 8.23106L1.29442 8.23104L1.49395 8.21732ZM1.59009 7.94654L1.73628 8.08302L1.73627 8.08303L1.59009 7.94654ZM6.80779 7.83225H7.00779V8.03225H6.80779V7.83225ZM8.63169 12.4761L8.64538 12.6756L8.64478 12.6757L8.63169 12.4761ZM12.4108 10.6798L12.5567 10.8165H12.5567L12.4108 10.6798ZM12.2836 2.71642L12.1422 2.85784L12.1422 2.85784L12.2836 2.71642ZM4.32037 2.58924L4.45716 2.73515L4.45716 2.73515L4.32037 2.58924ZM2.52393 6.36827L2.72346 6.38196L2.72345 6.38203L2.52393 6.36827ZM2.62615 6.65577L2.77235 6.5193L2.77236 6.51931L2.62615 6.65577ZM12.393 10.6631L12.539 10.7999L12.539 10.7999L12.393 10.6631ZM8.63004 12.4519L8.64373 12.6514L8.64284 12.6514L8.63004 12.4519ZM2.64388 6.63916L2.4977 6.77566L2.49768 6.77563L2.64388 6.63916ZM2.54815 6.36993L2.74768 6.38362L2.74768 6.38365L2.54815 6.36993ZM4.33696 2.60697L4.20017 2.46107L4.20017 2.46106L4.33696 2.60697ZM6.80793 14.3731C7.37739 14.3731 7.87938 13.9707 8.00412 13.4161L8.39437 13.5038C8.22862 14.2408 7.56468 14.7731 6.80793 14.7731V14.3731ZM8.25635 13.2683C8.39572 13.3098 8.54156 13.3262 8.68923 13.316L8.71682 13.7151C8.52122 13.7286 8.32735 13.7068 8.14214 13.6516L8.25635 13.2683ZM8.68933 13.316C9.52639 13.2586 10.3323 13.0452 11.0854 12.6817L11.2593 13.0419C10.4601 13.4276 9.60447 13.6542 8.71671 13.7151L8.68933 13.316ZM11.0854 12.6817C11.8158 12.3291 12.4683 11.8494 13.025 11.2556L13.3168 11.5291C12.7266 12.1588 12.0342 12.6679 11.2593 13.0419L11.0854 12.6817ZM13.025 11.2556C14.1697 10.0345 14.8 8.44036 14.8 6.76584H15.2C15.2 8.54193 14.5311 10.2339 13.3168 11.5291L13.025 11.2556ZM14.8 6.76584C14.8 5.87823 14.6266 5.018 14.2847 4.20811L14.6532 4.05253C15.0161 4.9121 15.2 5.82528 15.2 6.76584H14.8ZM14.2847 4.20811C13.9543 3.42568 13.4815 2.72368 12.8789 2.12109L13.1618 1.83825C13.8007 2.47723 14.3027 3.2224 14.6532 4.05253L14.2847 4.20811ZM12.8789 2.12109C12.2764 1.5185 11.5744 1.04571 10.7919 0.715366L10.9475 0.34686C11.7777 0.697346 12.5228 1.19928 13.1618 1.83825L12.8789 2.12109ZM10.7919 0.715366C9.98199 0.373422 9.12178 0.2 8.23424 0.2V-0.2C9.17474 -0.2 10.0879 -0.0160551 10.9475 0.346861L10.7919 0.715366ZM8.23424 0.2C6.55978 0.2 4.96561 0.830278 3.74452 1.97504L3.47094 1.68322C4.76621 0.468928 6.4582 -0.2 8.23424 -0.2V0.2ZM3.74452 1.97503C3.15069 2.53177 2.67101 3.18422 2.31836 3.91467L1.95814 3.74077C2.33224 2.96588 2.84134 2.27349 3.47094 1.68322L3.74452 1.97503ZM2.31836 3.91467C1.95482 4.66771 1.7414 5.47358 1.68397 6.31058L1.28491 6.2832C1.34582 5.39549 1.57236 4.53987 1.95814 3.74077L2.31836 3.91467ZM1.68397 6.3106C1.67395 6.45645 1.6902 6.60196 1.73251 6.74378L1.34921 6.85814C1.29332 6.67081 1.27158 6.47729 1.28491 6.28319L1.68397 6.3106ZM1.58484 6.99607C1.34206 7.05079 1.12547 7.17483 0.956854 7.35544L0.664467 7.08248C0.888237 6.84279 1.1762 6.67814 1.49689 6.60586L1.58484 6.99607ZM0.956857 7.35544C0.725844 7.6029 0.606526 7.93902 0.629766 8.27672L0.230709 8.30418C0.19986 7.8559 0.357796 7.41098 0.664464 7.08248L0.956857 7.35544ZM0.629766 8.27672C0.738387 9.8546 1.41569 11.3413 2.53718 12.4628L2.25433 12.7456C1.06473 11.556 0.345984 9.9787 0.23071 8.30419L0.629766 8.27672ZM2.53718 12.4628C3.65867 13.5843 5.14536 14.2616 6.72324 14.3702L6.69578 14.7692C5.02126 14.654 3.44394 13.9352 2.25433 12.7456L2.53718 12.4628ZM6.72332 14.3702C6.75141 14.3721 6.77995 14.3731 6.80793 14.3731V14.7731C6.77074 14.7731 6.73298 14.7718 6.6957 14.7692L6.72332 14.3702ZM8.37658 13.4711L8.37378 13.4841L7.98278 13.3997L7.98558 13.3868L8.37658 13.4711ZM8.37381 13.484C8.21604 14.2175 7.55825 14.7488 6.80791 14.7488V14.3488C7.36977 14.3488 7.86463 13.9491 7.98275 13.3999L8.37381 13.484ZM6.80791 14.7488C6.77128 14.7488 6.73411 14.7475 6.69729 14.745L6.72504 14.3459C6.75257 14.3478 6.78048 14.3488 6.80791 14.3488V14.7488ZM6.69743 14.745C5.02877 14.6301 3.45697 13.9139 2.27153 12.7284L2.55437 12.4456C3.67171 13.5629 5.15288 14.2377 6.72489 14.3459L6.69743 14.745ZM2.27153 12.7284C1.08609 11.543 0.369817 9.97119 0.254981 8.30253L0.654037 8.27507C0.762222 9.84708 1.43704 11.3282 2.55437 12.4456L2.27153 12.7284ZM0.254982 8.30254C0.224566 7.86095 0.380177 7.42268 0.68221 7.0991L0.97462 7.37204C0.748215 7.6146 0.631239 7.94408 0.654037 8.27506L0.254982 8.30254ZM0.682228 7.09908C0.906034 6.85938 1.19498 6.69586 1.51668 6.62641L1.60109 7.0174C1.35865 7.06974 1.14241 7.19233 0.974602 7.37206L0.682228 7.09908ZM1.51671 6.6264L1.52967 6.6236L1.61402 7.01461L1.60106 7.0174L1.51671 6.6264ZM1.38076 6.87816L1.37685 6.86549L1.75902 6.74738L1.76293 6.76005L1.38076 6.87816ZM1.37682 6.86538C1.31854 6.67643 1.29568 6.48095 1.30916 6.28486L1.70822 6.31228C1.69815 6.45887 1.71513 6.6051 1.75905 6.74749L1.37682 6.86538ZM1.30916 6.28488C1.36985 5.40026 1.59559 4.54763 1.98001 3.75135L2.34023 3.92525C1.97805 4.67547 1.76543 5.47835 1.70822 6.31226L1.30916 6.28488ZM1.98001 3.75135C2.35279 2.97918 2.86014 2.28918 3.48752 1.70098L3.76111 1.99279C3.16949 2.54746 2.69156 3.19752 2.34022 3.92525L1.98001 3.75135ZM3.48753 1.70097C4.77832 0.490916 6.46437 -0.175679 8.23419 -0.175679V0.224321C6.56596 0.224321 4.97772 0.852262 3.7611 1.99279L3.48753 1.70097ZM8.23419 -0.175679C9.17146 -0.175679 10.0814 0.00763305 10.938 0.369259L10.7825 0.737766C9.97555 0.39711 9.1185 0.224321 8.23419 0.224321V-0.175679ZM10.9381 0.369261C11.7653 0.718529 12.5079 1.21871 13.1446 1.85545L12.8618 2.13829C12.2614 1.53793 11.562 1.06689 10.7825 0.737764L10.9381 0.369261ZM13.1446 1.85545C13.7813 2.49218 14.2815 3.23476 14.6308 4.06196L14.2623 4.21755C13.9331 3.43804 13.4621 2.73864 12.8618 2.13829L13.1446 1.85545ZM14.6308 4.06197C14.9924 4.91852 15.1757 5.82853 15.1757 6.76582H14.7757C14.7757 5.88149 14.6029 5.02442 14.2623 4.21754L14.6308 4.06197ZM15.1757 6.76582C15.1757 8.53573 14.5091 10.2218 13.2991 11.5125L13.0073 11.2389C14.1478 10.0224 14.7757 8.43416 14.7757 6.76582H15.1757ZM13.2991 11.5125C12.7108 12.1399 12.0209 12.6472 11.2487 13.02L11.0748 12.6598C11.8025 12.3085 12.4526 11.8306 13.0073 11.2389L13.2991 11.5125ZM11.2487 13.02C10.4524 13.4044 9.59968 13.6301 8.71503 13.6908L8.68766 13.2917C9.5216 13.2345 10.3245 13.0219 11.0748 12.6598L11.2487 13.02ZM8.71525 13.6908C8.51741 13.7045 8.32152 13.6815 8.13492 13.624L8.25258 13.2417C8.39251 13.2848 8.5391 13.3021 8.68744 13.2917L8.71525 13.6908ZM8.1347 13.624L8.12203 13.62L8.24013 13.2379L8.2528 13.2418L8.1347 13.624ZM6.80793 13.3312C6.90917 13.3312 6.99208 13.2485 6.99208 13.1468H7.39208C7.39208 13.4691 7.13031 13.7312 6.80793 13.7312V13.3312ZM6.99208 13.1468V8.1922H7.39208V13.1468H6.99208ZM6.99208 8.1922C6.99208 8.09075 6.90924 8.00791 6.80779 8.00791V7.60791C7.13015 7.60791 7.39208 7.86984 7.39208 8.1922H6.99208ZM6.80779 8.00791H1.85312V7.60791H6.80779V8.00791ZM1.85312 8.00791C1.80093 8.00791 1.75415 8.02822 1.7185 8.06641L1.42612 7.79344C1.53741 7.67423 1.69007 7.60791 1.85312 7.60791V8.00791ZM1.7185 8.06641C1.68276 8.10469 1.6656 8.15296 1.66918 8.20531L1.27012 8.23264C1.25897 8.0698 1.31472 7.91276 1.42612 7.79344L1.7185 8.06641ZM1.66918 8.20524C1.76053 9.53208 2.33032 10.7825 3.2739 11.7261L2.99106 12.0089C1.9794 10.9973 1.36813 9.65624 1.27012 8.23271L1.66918 8.20524ZM3.2739 11.7261C4.21748 12.6697 5.46795 13.2395 6.79479 13.3308L6.76733 13.7299C5.3438 13.6319 4.00271 13.0206 2.99106 12.0089L3.2739 11.7261ZM6.79454 13.3308C6.79895 13.3311 6.80338 13.3312 6.80793 13.3312V13.7312C6.79459 13.7312 6.78117 13.7308 6.76758 13.7299L6.79454 13.3308ZM6.80779 7.63223C7.11673 7.63223 7.36776 7.88326 7.36776 8.1922H6.96776C6.96776 8.10417 6.89581 8.03223 6.80779 8.03223V7.63223ZM7.36776 8.1922V13.1469H6.96776V8.1922H7.36776ZM7.36776 13.1469C7.36776 13.4684 7.09482 13.7287 6.76858 13.7055L6.79694 13.3066C6.88883 13.3131 6.96776 13.2392 6.96776 13.1469H7.36776ZM6.76903 13.7056C5.35134 13.608 4.0158 12.9992 3.00828 11.9918L3.29112 11.7089C4.23056 12.6483 5.47549 13.2156 6.7965 13.3065L6.76903 13.7056ZM3.00828 11.9918C2.00076 10.9843 1.39202 9.64872 1.29442 8.23106L1.69348 8.20359C1.78442 9.52457 2.35168 10.7695 3.29112 11.7089L3.00828 11.9918ZM1.29442 8.23104C1.28369 8.07495 1.33714 7.92439 1.44391 7.81004L1.73627 8.08303C1.70519 8.11631 1.69035 8.15807 1.69348 8.2036L1.29442 8.23104ZM1.4439 7.81005C1.55053 7.69585 1.6969 7.63225 1.85312 7.63225V8.03225C1.80776 8.03225 1.76726 8.04984 1.73628 8.08302L1.4439 7.81005ZM1.85312 7.63225H6.80779V8.03225H1.85312V7.63225ZM6.60779 7.83225V7.83223H7.00779V7.83225H6.60779ZM8.60511 12.277C8.60878 12.277 8.61325 12.2769 8.6186 12.2765L8.64478 12.6757C8.63233 12.6765 8.619 12.677 8.60511 12.677V12.277ZM8.618 12.2766C10.0113 12.181 11.3062 11.5655 12.2649 10.543L12.5567 10.8165C11.5292 11.9126 10.1399 12.5731 8.64538 12.6756L8.618 12.2766ZM12.2649 10.543C13.2279 9.51577 13.7581 8.17469 13.7581 6.76584H14.1581C14.1581 8.27625 13.5893 9.71516 12.5567 10.8165L12.2649 10.543ZM13.7581 6.76584C13.7581 5.2872 13.1844 3.90002 12.1422 2.85784L12.425 2.57499C13.5425 3.69243 14.1581 5.18146 14.1581 6.76584H13.7581ZM12.1422 2.85784C11.1 1.81566 9.71282 1.24192 8.23419 1.24192V0.841919C9.81856 0.841919 11.3076 1.45756 12.425 2.575L12.1422 2.85784ZM8.23419 1.24192H8.23415V0.841919H8.23419V1.24192ZM8.23415 1.24192C6.82548 1.24192 5.48442 1.77212 4.45716 2.73515L4.18359 2.44333C5.28502 1.41077 6.7239 0.841919 8.23415 0.841919V1.24192ZM4.45716 2.73515C3.43445 3.6939 2.81902 4.98881 2.72346 6.38196L2.3244 6.35459C2.4269 4.86021 3.08743 3.47095 4.18359 2.44333L4.45716 2.73515ZM2.72345 6.38203C2.71991 6.43347 2.73678 6.48119 2.77235 6.5193L2.47994 6.79224C2.36896 6.67333 2.31321 6.5169 2.3244 6.35452L2.72345 6.38203ZM2.77236 6.51931C2.80702 6.55644 2.85659 6.57798 2.90742 6.57798V6.97798C2.74577 6.97798 2.59028 6.91046 2.47994 6.79223L2.77236 6.51931ZM2.90742 6.57798H7.35286V6.97798H2.90742V6.57798ZM7.35286 6.57798C7.94259 6.57798 8.42203 7.05743 8.42203 7.64717H8.02203C8.02203 7.27834 7.72167 6.97798 7.35286 6.97798V6.57798ZM8.42203 7.64717V12.0926H8.02203V7.64717H8.42203ZM8.42203 12.0926C8.42203 12.1948 8.50499 12.277 8.60511 12.277V12.677C8.28278 12.677 8.02203 12.4144 8.02203 12.0926H8.42203ZM8.23419 0.866239C9.81209 0.866239 11.295 1.47935 12.4078 2.59219L12.125 2.87503C11.0874 1.83745 9.70635 1.26624 8.23419 1.26624V0.866239ZM12.4078 2.59219C13.5207 3.70503 14.1338 5.18795 14.1338 6.76584H13.7338C13.7338 5.29369 13.1626 3.91261 12.125 2.87503L12.4078 2.59219ZM14.1338 6.76584C14.1338 8.27005 13.5673 9.70305 12.539 10.7999L12.2471 10.5264C13.2059 9.50365 13.7338 8.16848 13.7338 6.76584H14.1338ZM12.539 10.7999C11.5156 11.8915 10.132 12.5493 8.64373 12.6514L8.61635 12.2523C10.0035 12.1571 11.2927 11.5444 12.2471 10.5264L12.539 10.7999ZM8.64284 12.6514C8.6315 12.6522 8.61873 12.6527 8.60508 12.6527V12.2527C8.60798 12.2527 8.61189 12.2526 8.61724 12.2523L8.64284 12.6514ZM8.60508 12.6527C8.29608 12.6527 8.04633 12.4009 8.04633 12.0926H8.44633C8.44633 12.1814 8.51844 12.2527 8.60508 12.2527V12.6527ZM8.04633 12.0926V7.64717H8.44633V12.0926H8.04633ZM8.04633 7.64717C8.04633 7.26494 7.73506 6.95366 7.35284 6.95366V6.55366C7.95599 6.55366 8.44633 7.04404 8.44633 7.64717H8.04633ZM7.35284 6.95366H2.90739V6.55366H7.35284V6.95366ZM2.90739 6.95366C2.75097 6.95366 2.60445 6.88998 2.4977 6.77566L2.79006 6.50266C2.8212 6.53601 2.86186 6.55366 2.90739 6.55366V6.95366ZM2.49768 6.77563C2.39134 6.66172 2.33793 6.51173 2.34862 6.35621L2.74768 6.38365C2.74461 6.42833 2.7592 6.46961 2.79008 6.50268L2.49768 6.77563ZM2.34862 6.35624C2.45071 4.86801 3.10854 3.48447 4.20017 2.46107L4.47375 2.75288C3.45556 3.70742 2.84283 4.99661 2.74768 6.38362L2.34862 6.35624ZM4.20017 2.46106C5.29713 1.43273 6.73008 0.866239 8.23419 0.866239V1.26624C6.83165 1.26624 5.49653 1.79408 4.47374 2.75288L4.20017 2.46106Z" fill="white" mask="url(#path-3-inside-2_110_20653)"/>
</g>
<defs>
<clipPath id="clip0_110_20653">
<rect width="14.5731" height="14.5731" fill="white" transform="matrix(-1 0 0 1 15 0)"/>
</clipPath>
</defs>
</svg>
