<svg width="15" height="15" viewBox="0 0 15 15" fill="none" xmlns="http://www.w3.org/2000/svg">
<path d="M15 7.5C15 11.6421 11.6421 15 7.5 15C3.35786 15 4.67253e-10 11.6421 4.67253e-10 7.5C4.67253e-10 3.35786 3.35786 0 7.5 0C11.6421 0 15 3.35786 15 7.5Z" fill="#232323"/>
<path d="M7.5 0C6.01664 0 4.56659 0.439867 3.33323 1.26398C2.09986 2.08809 1.13856 3.25943 0.570907 4.62987C0.00324965 6.00032 -0.145275 7.50832 0.144114 8.96317C0.433503 10.418 1.14781 11.7544 2.1967 12.8033C3.2456 13.8522 4.58197 14.5665 6.03683 14.8559C7.49168 15.1453 8.99968 14.9967 10.3701 14.4291C11.7406 13.8614 12.9119 12.9001 13.736 11.6668C14.5601 10.4334 15 8.98336 15 7.5C14.9962 5.51205 14.2048 3.60661 12.7991 2.20091C11.3934 0.795212 9.48795 0.003812 7.5 0ZM11.0697 6.1875L6.84375 10.226C6.7345 10.3287 6.5899 10.3855 6.43991 10.3846C6.36659 10.3857 6.2938 10.3722 6.22572 10.345C6.15765 10.3177 6.09564 10.2773 6.04327 10.226L3.93029 8.20673C3.87168 8.1556 3.82402 8.09314 3.79017 8.02312C3.75631 7.9531 3.73697 7.87695 3.73329 7.79926C3.72962 7.72158 3.74169 7.64395 3.76878 7.57104C3.79587 7.49813 3.83742 7.43146 3.89094 7.37502C3.94446 7.31859 4.00883 7.27356 4.0802 7.24263C4.15156 7.21171 4.22844 7.19554 4.30622 7.19509C4.38399 7.19463 4.46106 7.20991 4.53278 7.24C4.6045 7.2701 4.66939 7.31438 4.72356 7.37019L6.43991 9.00721L10.2764 5.35096C10.3886 5.25309 10.5343 5.20237 10.683 5.20941C10.8317 5.21644 10.9719 5.28069 11.0744 5.38871C11.1768 5.49673 11.2335 5.64017 11.2326 5.78904C11.2318 5.9379 11.1734 6.08067 11.0697 6.1875Z" fill="#FFDA30"/>
</svg>
