<svg width="53" height="28" viewBox="0 0 53 28" fill="none" xmlns="http://www.w3.org/2000/svg">
<path d="M26.5372 14.3714C30.2599 14.3714 33.238 11.4 33.238 7.68572C33.238 3.97143 30.2599 1 26.5372 1C22.8146 1 19.8365 3.97143 19.8365 7.68572C19.8365 11.4 22.8146 14.3714 26.5372 14.3714ZM26.5372 14.3714C33.5358 14.3714 39.1942 20.0171 39.1942 27M26.5372 14.3714C19.5387 14.3714 13.8803 20.0171 13.8803 27H39.1942M39.1942 27H52C52 21.28 47.3839 16.6 41.5766 16.6C39.4175 16.6 37.4073 17.2686 35.7693 18.3829M17.2307 18.3829C15.5927 17.2686 13.5825 16.6 11.4234 16.6C5.69051 16.6 1 21.2057 1 27H13.8058M41.6511 5.68C38.5985 5.68 36.1416 8.13143 36.1416 11.1771C36.1416 14.2229 38.5985 16.6743 41.6511 16.6743C44.7037 16.6743 47.1606 14.2229 47.1606 11.1771C47.1606 8.13143 44.7037 5.68 41.6511 5.68ZM5.91387 11.1771C5.91387 14.2229 8.3708 16.6743 11.4234 16.6743C14.4759 16.6743 16.9328 14.2229 16.9328 11.1771C16.9328 8.13143 14.4759 5.68 11.4234 5.68C8.3708 5.68 5.91387 8.13143 5.91387 11.1771Z" stroke="#232323" stroke-width="1.2" stroke-miterlimit="10" stroke-linecap="round" stroke-linejoin="round"/>
</svg>
