<svg width="17" height="17" viewBox="0 0 17 17" fill="none" xmlns="http://www.w3.org/2000/svg">
<path d="M14.5001 6.25018H7.75021C6.9218 6.25018 6.25024 6.92174 6.25024 7.75015V14.5C6.25024 15.3284 6.9218 16 7.75021 16H14.5001C15.3285 16 16 15.3284 16 14.5V7.75015C16 6.92174 15.3285 6.25018 14.5001 6.25018Z" stroke="#232323" stroke-linecap="round" stroke-linejoin="round"/>
<path d="M3.24995 10.7498H2.49997C2.10215 10.7498 1.72063 10.5918 1.43933 10.3105C1.15803 10.0292 1 9.64765 1 9.24983V2.49997C1 2.10215 1.15803 1.72063 1.43933 1.43933C1.72063 1.15803 2.10215 1 2.49997 1H9.24983C9.64765 1 10.0292 1.15803 10.3105 1.43933C10.5918 1.72063 10.7498 2.10215 10.7498 2.49997V3.24995" stroke="#232323" stroke-linecap="round" stroke-linejoin="round"/>
</svg>
