<svg width="19" height="12" viewBox="0 0 19 12" fill="none" xmlns="http://www.w3.org/2000/svg">
<path d="M17.3929 1H1.60714C1.27183 1 1 1.27183 1 1.60714V10.1071C1 10.4425 1.27183 10.7143 1.60714 10.7143H17.3929C17.7282 10.7143 18 10.4425 18 10.1071V1.60714C18 1.27183 17.7282 1 17.3929 1Z" stroke="#232323" stroke-linecap="round" stroke-linejoin="round"/>
<path d="M9.49986 8.28585C10.8411 8.28585 11.9284 7.19855 11.9284 5.85728C11.9284 4.51602 10.8411 3.42871 9.49986 3.42871C8.1586 3.42871 7.07129 4.51602 7.07129 5.85728C7.07129 7.19855 8.1586 8.28585 9.49986 8.28585Z" stroke="#232323" stroke-linecap="round" stroke-linejoin="round"/>
<path d="M13.1426 1L17.9997 5.25" stroke="#232323" stroke-linecap="round" stroke-linejoin="round"/>
<path d="M13.1426 10.7139L17.9997 6.46387" stroke="#232323" stroke-linecap="round" stroke-linejoin="round"/>
<path d="M5.85714 1L1 5.25" stroke="#232323" stroke-linecap="round" stroke-linejoin="round"/>
<path d="M5.85714 10.7139L1 6.46387" stroke="#232323" stroke-linecap="round" stroke-linejoin="round"/>
</svg>
