<svg width="27" height="32" viewBox="0 0 27 32" fill="none" xmlns="http://www.w3.org/2000/svg">
<path d="M3.12204 23.6267C3.12204 23.5221 3.16356 23.4217 3.23747 23.3477C3.31138 23.2737 3.41164 23.2321 3.51621 23.232H20.0679C20.1705 23.2351 20.2678 23.278 20.3392 23.3516C20.4107 23.4253 20.4506 23.5239 20.4506 23.6265C20.4506 23.7291 20.4107 23.8277 20.3392 23.9013C20.2678 23.975 20.1705 24.0179 20.0679 24.021H3.51621C3.4117 24.0209 3.3115 23.9793 3.2376 23.9054C3.1637 23.8315 3.12214 23.7312 3.12204 23.6267ZM3.51621 26.3289H14.8212C14.9257 26.3289 15.026 26.2873 15.0999 26.2134C15.1738 26.1395 15.2153 26.0392 15.2153 25.9346C15.2153 25.83 15.1738 25.7297 15.0999 25.6558C15.026 25.5818 14.9257 25.5403 14.8212 25.5403H3.51621C3.41167 25.5403 3.31141 25.5818 3.23749 25.6558C3.16357 25.7297 3.12204 25.83 3.12204 25.9346C3.12204 26.0392 3.16357 26.1395 3.23749 26.2134C3.31141 26.2873 3.41167 26.3289 3.51621 26.3289ZM20.0679 25.5403H16.2681C16.1636 25.5403 16.0633 25.5818 15.9894 25.6558C15.9155 25.7297 15.8739 25.83 15.8739 25.9346C15.8739 26.0392 15.9155 26.1395 15.9894 26.2134C16.0633 26.2873 16.1636 26.3289 16.2681 26.3289H20.0679C20.1725 26.3289 20.2727 26.2873 20.3467 26.2134C20.4206 26.1395 20.4621 26.0392 20.4621 25.9346C20.4621 25.83 20.4206 25.7297 20.3467 25.6558C20.2727 25.5818 20.1725 25.5403 20.0679 25.5403ZM3.51621 19.4069H13.3639C13.4685 19.4069 13.5687 19.3654 13.6427 19.2914C13.7166 19.2175 13.7581 19.1172 13.7581 19.0126C13.7581 18.908 13.7166 18.8078 13.6427 18.7338C13.5687 18.6599 13.4685 18.6183 13.3639 18.6183H3.51621C3.41167 18.6183 3.31141 18.6599 3.23749 18.7338C3.16357 18.8078 3.12204 18.908 3.12204 19.0126C3.12204 19.1172 3.16357 19.2175 3.23749 19.2914C3.31141 19.3654 3.41167 19.4069 3.51621 19.4069ZM6.80033 21.3195C6.80033 21.3713 6.81053 21.4226 6.83036 21.4704C6.8502 21.5183 6.87926 21.5618 6.9159 21.5984C6.95254 21.635 6.99603 21.6641 7.0439 21.6839C7.09176 21.7037 7.14305 21.7138 7.19485 21.7138H20.0679C20.1725 21.7138 20.2727 21.6722 20.3467 21.5983C20.4206 21.5243 20.4621 21.424 20.4621 21.3195C20.4621 21.2149 20.4206 21.1146 20.3467 21.0406C20.2727 20.9667 20.1725 20.9252 20.0679 20.9252H7.19485C7.09027 20.9252 6.98998 20.9667 6.916 21.0406C6.84203 21.1146 6.80042 21.2149 6.80033 21.3195ZM3.51621 21.7138H5.74792C5.85246 21.7138 5.95271 21.6722 6.02663 21.5983C6.10055 21.5243 6.14208 21.424 6.14208 21.3195C6.14208 21.2149 6.10055 21.1146 6.02663 21.0406C5.95271 20.9667 5.85246 20.9252 5.74792 20.9252H3.51621C3.41167 20.9252 3.31141 20.9667 3.23749 21.0406C3.16357 21.1146 3.12204 21.2149 3.12204 21.3195C3.12204 21.424 3.16357 21.5243 3.23749 21.5983C3.31141 21.6722 3.41167 21.7138 3.51621 21.7138ZM26.3014 3.61778V30.7445C26.3009 31.0774 26.1685 31.3964 25.9333 31.6318C25.698 31.8671 25.3791 31.9995 25.0464 32H3.97222C3.63942 31.9997 3.32034 31.8674 3.08498 31.632C2.84963 31.3966 2.71724 31.0775 2.71686 30.7445V29.638H1.255C0.922238 29.6376 0.603242 29.5051 0.367976 29.2697C0.132709 29.0343 0.000376098 28.7151 0 28.3822V4.53262C9.81982e-05 4.51164 0.00200073 4.4907 0.00568671 4.47005V4.46151C0.00943295 4.44171 0.0146608 4.42222 0.0213256 4.4032L0.0241688 4.39502C0.0312403 4.3759 0.0397967 4.35735 0.0497595 4.33956L0.0529582 4.33422C0.0633329 4.31573 0.0752208 4.29813 0.0885004 4.2816L3.50412 0.142223C3.54129 0.0976233 3.58781 0.0617592 3.6404 0.0371787C3.69298 0.0125983 3.75033 -9.51442e-05 3.80837 5.36921e-07H22.3292C22.662 0.000283001 22.9811 0.132683 23.2165 0.368134C23.4519 0.603585 23.5842 0.922845 23.5845 1.25582V2.36196H25.0464C25.3791 2.36243 25.6981 2.4949 25.9334 2.73032C26.1687 2.96574 26.301 3.28489 26.3014 3.61778ZM1.23048 4.13831H3.0506C3.11199 4.13845 3.17281 4.12648 3.22957 4.10309C3.28633 4.0797 3.33793 4.04534 3.38141 4.00198C3.42488 3.95862 3.45938 3.90711 3.48294 3.85039C3.5065 3.79368 3.51865 3.73288 3.5187 3.67147V1.36676L1.23048 4.13831ZM1.255 28.8494H22.3292C22.4529 28.8493 22.5715 28.8001 22.659 28.7126C22.7465 28.6251 22.7957 28.5064 22.7958 28.3826V1.25582C22.7957 1.13204 22.7465 1.01335 22.659 0.925818C22.5715 0.838288 22.4529 0.789072 22.3292 0.788978H4.30596V3.67147C4.30558 4.00442 4.1732 4.32362 3.93786 4.55905C3.70252 4.79448 3.38343 4.92691 3.0506 4.92729H0.78833V28.3822C0.788425 28.506 0.837622 28.6247 0.925119 28.7122C1.01262 28.7998 1.13126 28.8493 1.255 28.8494ZM25.513 3.61778C25.5129 3.49399 25.4637 3.3753 25.3763 3.28777C25.2888 3.20024 25.1701 3.15103 25.0464 3.15093H23.5845V28.3822C23.5842 28.7152 23.4519 29.0345 23.2165 29.2699C22.9811 29.5054 22.662 29.6378 22.3292 29.638H3.50555V30.7445C3.50573 30.8683 3.55497 30.9869 3.64246 31.0743C3.72995 31.1618 3.84854 31.2109 3.97222 31.211H25.0464C25.17 31.2109 25.2886 31.1618 25.3761 31.0743C25.4636 30.9869 25.5129 30.8683 25.513 30.7445V3.61778ZM5.53502 11.0489V8.05582C5.5406 7.85438 5.62577 7.66336 5.77186 7.5246C5.91796 7.38585 6.11307 7.31068 6.31446 7.31556H8.31692V7.11645C8.3173 6.72024 8.4746 6.34033 8.75439 6.05991C9.03417 5.77948 9.41364 5.6214 9.8097 5.62027H13.5861C13.9826 5.62074 14.3627 5.77852 14.6431 6.05901C14.9235 6.33949 15.0812 6.71978 15.0817 7.11645V7.31556H17.2697C17.4711 7.31068 17.6662 7.38585 17.8123 7.5246C17.9584 7.66336 18.0436 7.85438 18.0491 8.05582V11.0475C18.0402 11.1996 17.9918 11.3467 17.9087 11.4744C17.8256 11.602 17.7107 11.7059 17.5754 11.7756V15.3856C17.5751 15.6945 17.4523 15.9906 17.234 16.2091C17.0157 16.4275 16.7197 16.5504 16.411 16.5508H7.17317C6.86441 16.5504 6.56841 16.4275 6.35012 16.2091C6.13183 15.9906 6.00908 15.6945 6.0088 15.3856V11.7568C5.87482 11.6902 5.7606 11.5897 5.67748 11.4652C5.59437 11.3408 5.54525 11.1968 5.53502 11.0475V11.0489ZM16.7867 12.1511C16.2647 12.3292 15.7321 12.4742 15.1919 12.5852C13.9006 12.8672 12.4551 13.0613 11.8708 13.125C11.8567 13.1264 11.8426 13.1271 11.8285 13.1271C11.8143 13.1271 11.8001 13.1264 11.7859 13.125C11.3298 13.0752 9.83707 12.8793 8.42781 12.5707C7.87569 12.4557 7.33121 12.3067 6.79748 12.1244V15.3845C6.79748 15.4842 6.83705 15.5799 6.9075 15.6504C6.97794 15.7209 7.0735 15.7606 7.17317 15.7607H16.411C16.5107 15.7606 16.6062 15.7209 16.6767 15.6504C16.7471 15.5799 16.7867 15.4842 16.7867 15.3845V12.1511ZM9.10383 7.31556H14.293V7.11645C14.2928 6.92891 14.2183 6.7491 14.0858 6.61646C13.9532 6.48382 13.7735 6.40917 13.5861 6.40889H9.8097C9.62223 6.40917 9.44253 6.48382 9.31001 6.61646C9.17748 6.7491 9.10295 6.92891 9.10276 7.11645L9.10383 7.31556ZM6.3237 11.0062C6.39194 11.0823 6.79606 11.4222 8.82162 11.8457C10.0948 12.112 11.3807 12.283 11.8285 12.3335C12.3734 12.2727 13.6373 12.102 14.8141 11.8571C16.84 11.4347 17.2057 11.0859 17.2612 11.0162V8.10453H14.7146C14.7064 8.10453 14.6978 8.10453 14.689 8.10453C14.6801 8.10453 14.6719 8.10453 14.6634 8.10453H8.73525C8.72672 8.10453 8.71819 8.10453 8.70966 8.10453C8.70113 8.10453 8.6926 8.10453 8.68407 8.10453H6.3237V11.0062ZM11.7517 11.84H11.8324C11.937 11.84 12.0372 11.7985 12.1111 11.7245C12.1851 11.6506 12.2266 11.5503 12.2266 11.4457C12.2266 11.3411 12.1851 11.2408 12.1111 11.1669C12.0372 11.0929 11.937 11.0514 11.8324 11.0514H11.7517C11.6472 11.0514 11.5469 11.0929 11.473 11.1669C11.3991 11.2408 11.3576 11.3411 11.3576 11.4457C11.3576 11.5503 11.3991 11.6506 11.473 11.7245C11.5469 11.7985 11.6472 11.84 11.7517 11.84Z" fill="#232323"/>
</svg>
