<svg width="20" height="20" viewBox="0 0 20 20" fill="none" xmlns="http://www.w3.org/2000/svg">
<g clip-path="url(#clip0_110_20668)">
<path d="M15.1938 5.91743H17.4655C18.4379 5.91743 19.2291 5.12621 19.2291 4.15382V1.88217C19.2291 0.909811 18.4379 0.118555 17.4655 0.118555H15.1938C14.2215 0.118555 13.4302 0.909781 13.4302 1.88217V4.15382C13.4302 5.12618 14.2215 5.91743 15.1938 5.91743ZM17.4655 1.29174C17.7916 1.29174 18.0559 1.55608 18.0559 1.88217V4.15382C18.0559 4.47991 17.7916 4.74425 17.4655 4.74425H15.1938C14.8677 4.74425 14.6034 4.47991 14.6034 4.15382V1.88217C14.6034 1.55608 14.8677 1.29174 15.1938 1.29174H17.4655Z" fill="#232323" stroke="white" stroke-width="0.2"/>
<mask id="path-2-inside-1_110_20668" fill="white">
<path d="M15.1934 6.03289H17.4651C18.5015 6.03289 19.3447 5.18968 19.3447 4.15325V1.88159C19.3447 0.845162 18.5015 0.00195312 17.4651 0.00195312H15.1934C14.157 0.00195312 13.3138 0.845162 13.3138 1.88159V4.15325C13.3138 5.18971 14.157 6.03289 15.1934 6.03289ZM17.4651 0.034007C18.4839 0.034007 19.3127 0.862824 19.3127 1.88159V4.15325C19.3127 5.17202 18.4839 6.00083 17.4651 6.00083H15.1934C14.1747 6.00083 13.3458 5.17202 13.3458 4.15325V1.88159C13.3458 0.862824 14.1747 0.034007 15.1934 0.034007H17.4651ZM15.1934 4.65973H17.4651C17.7443 4.65973 17.9715 4.43253 17.9715 4.15328V1.88159C17.9715 1.60234 17.7443 1.37514 17.4651 1.37514H15.1934C14.9142 1.37514 14.687 1.60234 14.687 1.88159V4.15325C14.687 4.43253 14.9142 4.65973 15.1934 4.65973ZM17.4651 1.40719C17.7267 1.40719 17.9395 1.62 17.9395 1.88159V4.15325C17.9395 4.41484 17.7267 4.62765 17.4651 4.62765H15.1934C14.9318 4.62765 14.719 4.41484 14.719 4.15325V1.88159C14.719 1.62 14.9318 1.40719 15.1934 1.40719H17.4651Z"/>
</mask>
<path d="M15.1934 6.03289H17.4651C18.5015 6.03289 19.3447 5.18968 19.3447 4.15325V1.88159C19.3447 0.845162 18.5015 0.00195312 17.4651 0.00195312H15.1934C14.157 0.00195312 13.3138 0.845162 13.3138 1.88159V4.15325C13.3138 5.18971 14.157 6.03289 15.1934 6.03289ZM17.4651 0.034007C18.4839 0.034007 19.3127 0.862824 19.3127 1.88159V4.15325C19.3127 5.17202 18.4839 6.00083 17.4651 6.00083H15.1934C14.1747 6.00083 13.3458 5.17202 13.3458 4.15325V1.88159C13.3458 0.862824 14.1747 0.034007 15.1934 0.034007H17.4651ZM15.1934 4.65973H17.4651C17.7443 4.65973 17.9715 4.43253 17.9715 4.15328V1.88159C17.9715 1.60234 17.7443 1.37514 17.4651 1.37514H15.1934C14.9142 1.37514 14.687 1.60234 14.687 1.88159V4.15325C14.687 4.43253 14.9142 4.65973 15.1934 4.65973ZM17.4651 1.40719C17.7267 1.40719 17.9395 1.62 17.9395 1.88159V4.15325C17.9395 4.41484 17.7267 4.62765 17.4651 4.62765H15.1934C14.9318 4.62765 14.719 4.41484 14.719 4.15325V1.88159C14.719 1.62 14.9318 1.40719 15.1934 1.40719H17.4651Z" fill="#232323"/>
<path d="M19.3447 1.88159H19.5447H19.3447ZM13.3138 4.15325H13.5138H13.3138ZM15.1934 5.83289H17.4651V6.23289H15.1934V5.83289ZM17.4651 5.83289C18.3911 5.83289 19.1447 5.07922 19.1447 4.15325H19.5447C19.5447 5.30013 18.612 6.23289 17.4651 6.23289V5.83289ZM19.1447 4.15325V1.88159H19.5447V4.15325H19.1447ZM19.1447 1.88159C19.1447 0.955617 18.3911 0.201953 17.4651 0.201953V-0.198047C18.612 -0.198047 19.5447 0.734707 19.5447 1.88159H19.1447ZM17.4651 0.201953H15.1934V-0.198047H17.4651V0.201953ZM15.1934 0.201953C14.2675 0.201953 13.5138 0.955619 13.5138 1.88159H13.1138C13.1138 0.734705 14.0465 -0.198047 15.1934 -0.198047V0.201953ZM13.5138 1.88159V4.15325H13.1138V1.88159H13.5138ZM13.5138 4.15325C13.5138 5.07925 14.2675 5.83289 15.1934 5.83289V6.23289C14.0465 6.23289 13.1138 5.30017 13.1138 4.15325H13.5138ZM17.4651 -0.165993C18.5943 -0.165993 19.5127 0.752367 19.5127 1.88159H19.1127C19.1127 0.97328 18.3734 0.234007 17.4651 0.234007V-0.165993ZM19.5127 1.88159V4.15325H19.1127V1.88159H19.5127ZM19.5127 4.15325C19.5127 5.28247 18.5943 6.20083 17.4651 6.20083V5.80083C18.3734 5.80083 19.1127 5.06156 19.1127 4.15325H19.5127ZM17.4651 6.20083H15.1934V5.80083H17.4651V6.20083ZM15.1934 6.20083C14.0642 6.20083 13.1458 5.28247 13.1458 4.15325H13.5458C13.5458 5.06156 14.2851 5.80083 15.1934 5.80083V6.20083ZM13.1458 4.15325V1.88159H13.5458V4.15325H13.1458ZM13.1458 1.88159C13.1458 0.752367 14.0642 -0.165993 15.1934 -0.165993V0.234007C14.2851 0.234007 13.5458 0.97328 13.5458 1.88159H13.1458ZM15.1934 -0.165993H17.4651V0.234007H15.1934V-0.165993ZM15.1934 4.45973H17.4651V4.85973H15.1934V4.45973ZM17.4651 4.45973C17.6339 4.45973 17.7715 4.32208 17.7715 4.15328H18.1715C18.1715 4.54299 17.8548 4.85973 17.4651 4.85973V4.45973ZM17.7715 4.15328V1.88159H18.1715V4.15328H17.7715ZM17.7715 1.88159C17.7715 1.7128 17.6339 1.57514 17.4651 1.57514V1.17514C17.8548 1.17514 18.1715 1.49188 18.1715 1.88159H17.7715ZM17.4651 1.57514H15.1934V1.17514H17.4651V1.57514ZM15.1934 1.57514C15.0246 1.57514 14.887 1.7128 14.887 1.88159H14.487C14.487 1.49188 14.8037 1.17514 15.1934 1.17514V1.57514ZM14.887 1.88159V4.15325H14.487V1.88159H14.887ZM14.887 4.15325C14.887 4.32208 15.0246 4.45973 15.1934 4.45973V4.85973C14.8037 4.85973 14.487 4.54298 14.487 4.15325H14.887ZM17.4651 1.20719C17.8371 1.20719 18.1395 1.50954 18.1395 1.88159H17.7395C17.7395 1.73046 17.6162 1.60719 17.4651 1.60719V1.20719ZM18.1395 1.88159V4.15325H17.7395V1.88159H18.1395ZM18.1395 4.15325C18.1395 4.5253 17.8371 4.82765 17.4651 4.82765V4.42765C17.6162 4.42765 17.7395 4.30438 17.7395 4.15325H18.1395ZM17.4651 4.82765H15.1934V4.42765H17.4651V4.82765ZM15.1934 4.82765C14.8214 4.82765 14.519 4.5253 14.519 4.15325H14.919C14.919 4.30438 15.0423 4.42765 15.1934 4.42765V4.82765ZM14.519 4.15325V1.88159H14.919V4.15325H14.519ZM14.519 1.88159C14.519 1.50954 14.8214 1.20719 15.1934 1.20719V1.60719C15.0423 1.60719 14.919 1.73046 14.919 1.88159H14.519ZM15.1934 1.20719H17.4651V1.60719H15.1934V1.20719Z" fill="white" mask="url(#path-2-inside-1_110_20668)"/>
<path d="M8.57958 5.91841H10.8512C11.8236 5.91841 12.6149 5.12718 12.6148 4.1548V1.88314C12.6148 0.910787 11.8236 0.119531 10.8512 0.119531H8.57958C7.60719 0.119531 6.81593 0.910759 6.81593 1.88314V4.1548C6.81593 5.12715 7.60719 5.91841 8.57958 5.91841ZM10.8513 1.29272C11.1773 1.29272 11.4417 1.55706 11.4417 1.88314V4.1548C11.4417 4.48088 11.1773 4.74522 10.8513 4.74522H8.57961C8.2535 4.74522 7.98915 4.48089 7.98915 4.1548V1.88314C7.98915 1.55705 8.2535 1.29272 8.57961 1.29272H10.8513Z" fill="#232323" stroke="white" stroke-width="0.2"/>
<mask id="path-5-inside-2_110_20668" fill="white">
<path d="M8.57917 6.03289H10.8508C11.8873 6.03289 12.7305 5.18968 12.7305 4.15325V1.88159C12.7305 0.845162 11.8873 0.00195312 10.8508 0.00195312H8.57917C7.54271 0.00195312 6.6995 0.845162 6.6995 1.88159V4.15325C6.6995 5.18971 7.54271 6.03289 8.57917 6.03289ZM10.8508 0.034007C11.8696 0.034007 12.6984 0.862824 12.6984 1.88159V4.15325C12.6984 5.17202 11.8696 6.00083 10.8508 6.00083H8.57914C7.56037 6.00083 6.73152 5.17202 6.73152 4.15325V1.88159C6.73152 0.862824 7.56034 0.034007 8.57914 0.034007H10.8508ZM8.57917 4.65973H10.8508C11.1301 4.65973 11.3573 4.43253 11.3573 4.15328V1.88159C11.3573 1.60234 11.1301 1.37514 10.8508 1.37514H8.57917C8.29989 1.37514 8.07269 1.60234 8.07269 1.88159V4.15325C8.07269 4.43253 8.29989 4.65973 8.57917 4.65973ZM10.8508 1.40719C11.1124 1.40719 11.3252 1.62 11.3252 1.88159V4.15325C11.3252 4.41484 11.1124 4.62765 10.8508 4.62765H8.57914C8.31755 4.62765 8.10471 4.41484 8.10471 4.15325V1.88159C8.10471 1.62 8.31755 1.40719 8.57914 1.40719H10.8508Z"/>
</mask>
<path d="M8.57917 6.03289H10.8508C11.8873 6.03289 12.7305 5.18968 12.7305 4.15325V1.88159C12.7305 0.845162 11.8873 0.00195312 10.8508 0.00195312H8.57917C7.54271 0.00195312 6.6995 0.845162 6.6995 1.88159V4.15325C6.6995 5.18971 7.54271 6.03289 8.57917 6.03289ZM10.8508 0.034007C11.8696 0.034007 12.6984 0.862824 12.6984 1.88159V4.15325C12.6984 5.17202 11.8696 6.00083 10.8508 6.00083H8.57914C7.56037 6.00083 6.73152 5.17202 6.73152 4.15325V1.88159C6.73152 0.862824 7.56034 0.034007 8.57914 0.034007H10.8508ZM8.57917 4.65973H10.8508C11.1301 4.65973 11.3573 4.43253 11.3573 4.15328V1.88159C11.3573 1.60234 11.1301 1.37514 10.8508 1.37514H8.57917C8.29989 1.37514 8.07269 1.60234 8.07269 1.88159V4.15325C8.07269 4.43253 8.29989 4.65973 8.57917 4.65973ZM10.8508 1.40719C11.1124 1.40719 11.3252 1.62 11.3252 1.88159V4.15325C11.3252 4.41484 11.1124 4.62765 10.8508 4.62765H8.57914C8.31755 4.62765 8.10471 4.41484 8.10471 4.15325V1.88159C8.10471 1.62 8.31755 1.40719 8.57914 1.40719H10.8508Z" fill="#232323"/>
<path d="M8.57917 5.83289H10.8508V6.23289H8.57917V5.83289ZM10.8508 5.83289C11.7768 5.83289 12.5305 5.07922 12.5305 4.15325H12.9305C12.9305 5.30013 11.9977 6.23289 10.8508 6.23289V5.83289ZM12.5305 4.15325V1.88159H12.9305V4.15325H12.5305ZM12.5305 1.88159C12.5305 0.955619 11.7768 0.201953 10.8508 0.201953V-0.198047C11.9977 -0.198047 12.9305 0.734705 12.9305 1.88159H12.5305ZM10.8508 0.201953H8.57917V-0.198047H10.8508V0.201953ZM8.57917 0.201953C7.65317 0.201953 6.8995 0.955621 6.8995 1.88159H6.4995C6.4995 0.734703 7.43226 -0.198047 8.57917 -0.198047V0.201953ZM6.8995 1.88159V4.15325H6.4995V1.88159H6.8995ZM6.8995 4.15325C6.8995 5.07925 7.65316 5.83289 8.57917 5.83289V6.23289C7.43226 6.23289 6.4995 5.30017 6.4995 4.15325H6.8995ZM10.8508 -0.165993C11.98 -0.165993 12.8984 0.752367 12.8984 1.88159H12.4984C12.4984 0.97328 11.7591 0.234007 10.8508 0.234007V-0.165993ZM12.8984 1.88159V4.15325H12.4984V1.88159H12.8984ZM12.8984 4.15325C12.8984 5.28247 11.98 6.20083 10.8508 6.20083V5.80083C11.7591 5.80083 12.4984 5.06156 12.4984 4.15325H12.8984ZM10.8508 6.20083H8.57914V5.80083H10.8508V6.20083ZM8.57914 6.20083C7.44992 6.20083 6.53152 5.28248 6.53152 4.15325H6.93152C6.93152 5.06155 7.67083 5.80083 8.57914 5.80083V6.20083ZM6.53152 4.15325V1.88159H6.93152V4.15325H6.53152ZM6.53152 1.88159C6.53152 0.752364 7.44989 -0.165993 8.57914 -0.165993V0.234007C7.6708 0.234007 6.93152 0.973283 6.93152 1.88159H6.53152ZM8.57914 -0.165993H10.8508V0.234007H8.57914V-0.165993ZM8.57917 4.45973H10.8508V4.85973H8.57917V4.45973ZM10.8508 4.45973C11.0196 4.45973 11.1573 4.32208 11.1573 4.15328H11.5573C11.5573 4.54299 11.2405 4.85973 10.8508 4.85973V4.45973ZM11.1573 4.15328V1.88159H11.5573V4.15328H11.1573ZM11.1573 1.88159C11.1573 1.7128 11.0196 1.57514 10.8508 1.57514V1.17514C11.2405 1.17514 11.5573 1.49188 11.5573 1.88159H11.1573ZM10.8508 1.57514H8.57917V1.17514H10.8508V1.57514ZM8.57917 1.57514C8.41034 1.57514 8.27269 1.7128 8.27269 1.88159H7.87269C7.87269 1.49187 8.18944 1.17514 8.57917 1.17514V1.57514ZM8.27269 1.88159V4.15325H7.87269V1.88159H8.27269ZM8.27269 4.15325C8.27269 4.32208 8.41035 4.45973 8.57917 4.45973V4.85973C8.18943 4.85973 7.87269 4.54299 7.87269 4.15325H8.27269ZM10.8508 1.20719C11.2228 1.20719 11.5252 1.50954 11.5252 1.88159H11.1252C11.1252 1.73046 11.0019 1.60719 10.8508 1.60719V1.20719ZM11.5252 1.88159V4.15325H11.1252V1.88159H11.5252ZM11.5252 4.15325C11.5252 4.5253 11.2228 4.82765 10.8508 4.82765V4.42765C11.0019 4.42765 11.1252 4.30438 11.1252 4.15325H11.5252ZM10.8508 4.82765H8.57914V4.42765H10.8508V4.82765ZM8.57914 4.82765C8.20711 4.82765 7.90471 4.52531 7.90471 4.15325H8.30471C8.30471 4.30437 8.42799 4.42765 8.57914 4.42765V4.82765ZM7.90471 4.15325V1.88159H8.30471V4.15325H7.90471ZM7.90471 1.88159C7.90471 1.50953 8.20711 1.20719 8.57914 1.20719V1.60719C8.42799 1.60719 8.30471 1.73047 8.30471 1.88159H7.90471ZM8.57914 1.20719H10.8508V1.60719H8.57914V1.20719Z" fill="white" mask="url(#path-5-inside-2_110_20668)"/>
<path d="M4.23694 0.119531H1.96532C0.99293 0.119531 0.201674 0.91079 0.201674 1.88314V4.1548C0.201674 5.12715 0.99293 5.91841 1.96532 5.91841H4.23694C5.20933 5.91841 6.00059 5.12718 6.00059 4.1548V1.88314C6.00059 0.91079 5.20933 0.119531 4.23694 0.119531ZM1.96532 4.74522C1.63921 4.74522 1.37486 4.48089 1.37486 4.1548V1.88314C1.37486 1.55705 1.63921 1.29272 1.96532 1.29272H4.23694C4.56305 1.29272 4.8274 1.55705 4.8274 1.88314V4.1548C4.8274 4.48089 4.56305 4.74522 4.23694 4.74522H1.96532Z" fill="#232323" stroke="white" stroke-width="0.2"/>
<mask id="path-8-inside-3_110_20668" fill="white">
<path d="M1.96492 6.03289H4.23654C5.273 6.03289 6.11621 5.18968 6.11621 4.15325V1.88159C6.11621 0.845162 5.273 0.00195312 4.23654 0.00195312H1.96492C0.928454 0.00195312 0.0852456 0.845162 0.0852456 1.88159V4.15325C0.0852456 5.18971 0.928454 6.03289 1.96492 6.03289ZM4.23654 0.034007C5.25531 0.034007 6.08416 0.862824 6.08416 1.88159V4.15325C6.08416 5.17202 5.25534 6.00083 4.23654 6.00083H1.96492C0.946147 6.00083 0.1173 5.17202 0.1173 4.15325V1.88159C0.1173 0.862824 0.946115 0.034007 1.96492 0.034007H4.23654ZM1.96492 4.65973H4.23654C4.51583 4.65973 4.74302 4.43253 4.74302 4.15328V1.88159C4.74302 1.60234 4.51583 1.37514 4.23654 1.37514H1.96492C1.68563 1.37514 1.45843 1.60234 1.45843 1.88159V4.15325C1.45843 4.43253 1.68563 4.65973 1.96492 4.65973ZM4.23654 1.40719C4.49813 1.40719 4.71097 1.62 4.71097 1.88159V4.15325C4.71097 4.41484 4.49813 4.62765 4.23654 4.62765H1.96492C1.70332 4.62765 1.49049 4.41484 1.49049 4.15325V1.88159C1.49049 1.62 1.70332 1.40719 1.96492 1.40719H4.23654Z"/>
</mask>
<path d="M1.96492 6.03289H4.23654C5.273 6.03289 6.11621 5.18968 6.11621 4.15325V1.88159C6.11621 0.845162 5.273 0.00195312 4.23654 0.00195312H1.96492C0.928454 0.00195312 0.0852456 0.845162 0.0852456 1.88159V4.15325C0.0852456 5.18971 0.928454 6.03289 1.96492 6.03289ZM4.23654 0.034007C5.25531 0.034007 6.08416 0.862824 6.08416 1.88159V4.15325C6.08416 5.17202 5.25534 6.00083 4.23654 6.00083H1.96492C0.946147 6.00083 0.1173 5.17202 0.1173 4.15325V1.88159C0.1173 0.862824 0.946115 0.034007 1.96492 0.034007H4.23654ZM1.96492 4.65973H4.23654C4.51583 4.65973 4.74302 4.43253 4.74302 4.15328V1.88159C4.74302 1.60234 4.51583 1.37514 4.23654 1.37514H1.96492C1.68563 1.37514 1.45843 1.60234 1.45843 1.88159V4.15325C1.45843 4.43253 1.68563 4.65973 1.96492 4.65973ZM4.23654 1.40719C4.49813 1.40719 4.71097 1.62 4.71097 1.88159V4.15325C4.71097 4.41484 4.49813 4.62765 4.23654 4.62765H1.96492C1.70332 4.62765 1.49049 4.41484 1.49049 4.15325V1.88159C1.49049 1.62 1.70332 1.40719 1.96492 1.40719H4.23654Z" fill="#232323"/>
<path d="M1.96492 5.83289H4.23654V6.23289H1.96492V5.83289ZM4.23654 5.83289C5.16255 5.83289 5.91621 5.07922 5.91621 4.15325H6.31621C6.31621 5.30014 5.38346 6.23289 4.23654 6.23289V5.83289ZM5.91621 4.15325V1.88159H6.31621V4.15325H5.91621ZM5.91621 1.88159C5.91621 0.955621 5.16255 0.201953 4.23654 0.201953V-0.198047C5.38346 -0.198047 6.31621 0.734703 6.31621 1.88159H5.91621ZM4.23654 0.201953H1.96492V-0.198047H4.23654V0.201953ZM1.96492 0.201953C1.03891 0.201953 0.285245 0.955621 0.285245 1.88159H-0.114755C-0.114755 0.734703 0.817999 -0.198047 1.96492 -0.198047V0.201953ZM0.285245 1.88159V4.15325H-0.114755V1.88159H0.285245ZM0.285245 4.15325C0.285245 5.07925 1.03891 5.83289 1.96492 5.83289V6.23289C0.818001 6.23289 -0.114755 5.30017 -0.114755 4.15325H0.285245ZM4.23654 -0.165993C5.36576 -0.165993 6.28416 0.752362 6.28416 1.88159H5.88416C5.88416 0.973285 5.14486 0.234007 4.23654 0.234007V-0.165993ZM6.28416 1.88159V4.15325H5.88416V1.88159H6.28416ZM6.28416 4.15325C6.28416 5.28247 5.36579 6.20083 4.23654 6.20083V5.80083C5.14489 5.80083 5.88416 5.06156 5.88416 4.15325H6.28416ZM4.23654 6.20083H1.96492V5.80083H4.23654V6.20083ZM1.96492 6.20083C0.835695 6.20083 -0.0827007 5.28248 -0.0827007 4.15325H0.317299C0.317299 5.06155 1.0566 5.80083 1.96492 5.80083V6.20083ZM-0.0827007 4.15325V1.88159H0.317299V4.15325H-0.0827007ZM-0.0827007 1.88159C-0.0827007 0.752364 0.835661 -0.165993 1.96492 -0.165993V0.234007C1.05657 0.234007 0.317299 0.973283 0.317299 1.88159H-0.0827007ZM1.96492 -0.165993H4.23654V0.234007H1.96492V-0.165993ZM1.96492 4.45973H4.23654V4.85973H1.96492V4.45973ZM4.23654 4.45973C4.40538 4.45973 4.54302 4.32207 4.54302 4.15328H4.94302C4.94302 4.543 4.62627 4.85973 4.23654 4.85973V4.45973ZM4.54302 4.15328V1.88159H4.94302V4.15328H4.54302ZM4.54302 1.88159C4.54302 1.7128 4.40538 1.57514 4.23654 1.57514V1.17514C4.62627 1.17514 4.94302 1.49187 4.94302 1.88159H4.54302ZM4.23654 1.57514H1.96492V1.17514H4.23654V1.57514ZM1.96492 1.57514C1.79608 1.57514 1.65843 1.7128 1.65843 1.88159H1.25843C1.25843 1.49187 1.57518 1.17514 1.96492 1.17514V1.57514ZM1.65843 1.88159V4.15325H1.25843V1.88159H1.65843ZM1.65843 4.15325C1.65843 4.32208 1.79609 4.45973 1.96492 4.45973V4.85973C1.57517 4.85973 1.25843 4.54299 1.25843 4.15325H1.65843ZM4.23654 1.20719C4.60857 1.20719 4.91097 1.50952 4.91097 1.88159H4.51097C4.51097 1.73047 4.38769 1.60719 4.23654 1.60719V1.20719ZM4.91097 1.88159V4.15325H4.51097V1.88159H4.91097ZM4.91097 4.15325C4.91097 4.52531 4.60857 4.82765 4.23654 4.82765V4.42765C4.38769 4.42765 4.51097 4.30436 4.51097 4.15325H4.91097ZM4.23654 4.82765H1.96492V4.42765H4.23654V4.82765ZM1.96492 4.82765C1.59289 4.82765 1.29049 4.52531 1.29049 4.15325H1.69049C1.69049 4.30436 1.81376 4.42765 1.96492 4.42765V4.82765ZM1.29049 4.15325V1.88159H1.69049V4.15325H1.29049ZM1.29049 1.88159C1.29049 1.50952 1.59289 1.20719 1.96492 1.20719V1.60719C1.81376 1.60719 1.69049 1.73047 1.69049 1.88159H1.29049ZM1.96492 1.20719H4.23654V1.60719H1.96492V1.20719Z" fill="white" mask="url(#path-8-inside-3_110_20668)"/>
<path d="M17.4645 12.6167C18.4369 12.6167 19.2281 11.8255 19.2281 10.8531V8.58138C19.2281 7.60903 18.4369 6.81777 17.4645 6.81777H15.1929C14.2205 6.81777 13.4292 7.60903 13.4292 8.58138V10.8531C13.4292 11.8255 14.2205 12.6167 15.1929 12.6167H17.4645ZM17.4645 7.99099C17.7906 7.99099 18.0549 8.25533 18.0549 8.58142V10.8531C18.0549 11.1792 17.7906 11.4435 17.4645 11.4435H15.1929C14.8668 11.4435 14.6024 11.1792 14.6024 10.8531V8.58142C14.6024 8.25533 14.8668 7.99099 15.1929 7.99099H17.4645Z" fill="#232323" stroke="white" stroke-width="0.2"/>
<mask id="path-11-inside-4_110_20668" fill="white">
<path d="M15.1934 12.7312H17.4651C18.5015 12.7312 19.3447 11.888 19.3447 10.8515V8.57983C19.3447 7.5434 18.5015 6.7002 17.4651 6.7002H15.1934C14.157 6.7002 13.3138 7.5434 13.3138 8.57983V10.8515C13.3138 11.888 14.157 12.7312 15.1934 12.7312ZM17.4651 6.73228C18.4839 6.73228 19.3127 7.5611 19.3127 8.57987V10.8516C19.3127 11.8703 18.4839 12.6992 17.4651 12.6992H15.1934C14.1747 12.6992 13.3458 11.8704 13.3458 10.8516V8.57987C13.3458 7.5611 14.1747 6.73228 15.1934 6.73228H17.4651ZM15.1934 11.3579H17.4651C17.7443 11.3579 17.9715 11.1308 17.9715 10.8515V8.57983C17.9715 8.30058 17.7443 8.07338 17.4651 8.07338H15.1934C14.9142 8.07338 14.687 8.30058 14.687 8.57983V10.8515C14.687 11.1308 14.9142 11.3579 15.1934 11.3579ZM17.4651 8.10547C17.7267 8.10547 17.9395 8.31827 17.9395 8.57987V10.8516C17.9395 11.1131 17.7267 11.3259 17.4651 11.3259H15.1934C14.9318 11.3259 14.719 11.1131 14.719 10.8516V8.57987C14.719 8.31827 14.9318 8.10547 15.1934 8.10547H17.4651Z"/>
</mask>
<path d="M15.1934 12.7312H17.4651C18.5015 12.7312 19.3447 11.888 19.3447 10.8515V8.57983C19.3447 7.5434 18.5015 6.7002 17.4651 6.7002H15.1934C14.157 6.7002 13.3138 7.5434 13.3138 8.57983V10.8515C13.3138 11.888 14.157 12.7312 15.1934 12.7312ZM17.4651 6.73228C18.4839 6.73228 19.3127 7.5611 19.3127 8.57987V10.8516C19.3127 11.8703 18.4839 12.6992 17.4651 12.6992H15.1934C14.1747 12.6992 13.3458 11.8704 13.3458 10.8516V8.57987C13.3458 7.5611 14.1747 6.73228 15.1934 6.73228H17.4651ZM15.1934 11.3579H17.4651C17.7443 11.3579 17.9715 11.1308 17.9715 10.8515V8.57983C17.9715 8.30058 17.7443 8.07338 17.4651 8.07338H15.1934C14.9142 8.07338 14.687 8.30058 14.687 8.57983V10.8515C14.687 11.1308 14.9142 11.3579 15.1934 11.3579ZM17.4651 8.10547C17.7267 8.10547 17.9395 8.31827 17.9395 8.57987V10.8516C17.9395 11.1131 17.7267 11.3259 17.4651 11.3259H15.1934C14.9318 11.3259 14.719 11.1131 14.719 10.8516V8.57987C14.719 8.31827 14.9318 8.10547 15.1934 8.10547H17.4651Z" fill="#232323"/>
<path d="M13.3138 10.8515H13.5138H13.3138ZM15.1934 12.5312H17.4651V12.9312H15.1934V12.5312ZM17.4651 12.5312C18.3911 12.5312 19.1447 11.7775 19.1447 10.8515H19.5447C19.5447 11.9984 18.612 12.9312 17.4651 12.9312V12.5312ZM19.1447 10.8515V8.57983H19.5447V10.8515H19.1447ZM19.1447 8.57983C19.1447 7.65386 18.3911 6.9002 17.4651 6.9002V6.5002C18.612 6.5002 19.5447 7.43295 19.5447 8.57983H19.1447ZM17.4651 6.9002H15.1934V6.5002H17.4651V6.9002ZM15.1934 6.9002C14.2675 6.9002 13.5138 7.65386 13.5138 8.57983H13.1138C13.1138 7.43295 14.0465 6.5002 15.1934 6.5002V6.9002ZM13.5138 8.57983V10.8515H13.1138V8.57983H13.5138ZM13.5138 10.8515C13.5138 11.7775 14.2675 12.5312 15.1934 12.5312V12.9312C14.0465 12.9312 13.1138 11.9984 13.1138 10.8515H13.5138ZM17.4651 6.53228C18.5943 6.53228 19.5127 7.45064 19.5127 8.57987H19.1127C19.1127 7.67155 18.3734 6.93228 17.4651 6.93228V6.53228ZM19.5127 8.57987V10.8516H19.1127V8.57987H19.5127ZM19.5127 10.8516C19.5127 11.9808 18.5943 12.8992 17.4651 12.8992V12.4992C18.3734 12.4992 19.1127 11.7599 19.1127 10.8516H19.5127ZM17.4651 12.8992H15.1934V12.4992H17.4651V12.8992ZM15.1934 12.8992C14.0642 12.8992 13.1458 11.9808 13.1458 10.8516H13.5458C13.5458 11.7599 14.2851 12.4992 15.1934 12.4992V12.8992ZM13.1458 10.8516V8.57987H13.5458V10.8516H13.1458ZM13.1458 8.57987C13.1458 7.45064 14.0642 6.53228 15.1934 6.53228V6.93228C14.2851 6.93228 13.5458 7.67155 13.5458 8.57987H13.1458ZM15.1934 6.53228H17.4651V6.93228H15.1934V6.53228ZM15.1934 11.1579H17.4651V11.5579H15.1934V11.1579ZM17.4651 11.1579C17.6339 11.1579 17.7715 11.0203 17.7715 10.8515H18.1715C18.1715 11.2412 17.8548 11.5579 17.4651 11.5579V11.1579ZM17.7715 10.8515V8.57983H18.1715V10.8515H17.7715ZM17.7715 8.57983C17.7715 8.41104 17.6339 8.27338 17.4651 8.27338V7.87338C17.8548 7.87338 18.1715 8.19012 18.1715 8.57983H17.7715ZM17.4651 8.27338H15.1934V7.87338H17.4651V8.27338ZM15.1934 8.27338C15.0246 8.27338 14.887 8.41104 14.887 8.57983H14.487C14.487 8.19012 14.8037 7.87338 15.1934 7.87338V8.27338ZM14.887 8.57983V10.8515H14.487V8.57983H14.887ZM14.887 10.8515C14.887 11.0203 15.0246 11.1579 15.1934 11.1579V11.5579C14.8037 11.5579 14.487 11.2412 14.487 10.8515H14.887ZM17.4651 7.90547C17.8371 7.90547 18.1395 8.20782 18.1395 8.57987H17.7395C17.7395 8.42873 17.6162 8.30547 17.4651 8.30547V7.90547ZM18.1395 8.57987V10.8516H17.7395V8.57987H18.1395ZM18.1395 10.8516C18.1395 11.2236 17.8371 11.5259 17.4651 11.5259V11.1259C17.6162 11.1259 17.7395 11.0026 17.7395 10.8516H18.1395ZM17.4651 11.5259H15.1934V11.1259H17.4651V11.5259ZM15.1934 11.5259C14.8214 11.5259 14.519 11.2236 14.519 10.8516H14.919C14.919 11.0026 15.0423 11.1259 15.1934 11.1259V11.5259ZM14.519 10.8516V8.57987H14.919V10.8516H14.519ZM14.519 8.57987C14.519 8.20782 14.8214 7.90547 15.1934 7.90547V8.30547C15.0423 8.30547 14.919 8.42873 14.919 8.57987H14.519ZM15.1934 7.90547H17.4651V8.30547H15.1934V7.90547Z" fill="white" mask="url(#path-11-inside-4_110_20668)"/>
<path d="M10.8503 12.6167C11.8226 12.6167 12.6139 11.8255 12.6139 10.8531V8.58138C12.6139 7.60903 11.8226 6.81777 10.8503 6.81777H8.5786C7.60621 6.81777 6.81496 7.60903 6.81496 8.58138V10.8531C6.81496 11.8255 7.60621 12.6167 8.5786 12.6167H10.8503ZM10.8503 7.99099C11.1763 7.99099 11.4407 8.25533 11.4407 8.58142V10.8531C11.4407 11.1792 11.1763 11.4435 10.8503 11.4435H8.5786C8.25249 11.4435 7.98814 11.1792 7.98814 10.8531V8.58142C7.98814 8.25533 8.25249 7.99099 8.5786 7.99099H10.8503Z" fill="#232323" stroke="white" stroke-width="0.2"/>
<mask id="path-14-inside-5_110_20668" fill="white">
<path d="M8.57917 12.7312H10.8508C11.8873 12.7312 12.7305 11.888 12.7305 10.8515V8.57983C12.7305 7.5434 11.8873 6.7002 10.8508 6.7002H8.57917C7.54271 6.7002 6.6995 7.5434 6.6995 8.57983V10.8515C6.6995 11.888 7.54271 12.7312 8.57917 12.7312ZM10.8508 6.73228C11.8696 6.73228 12.6984 7.5611 12.6984 8.57987V10.8516C12.6984 11.8703 11.8696 12.6992 10.8508 12.6992H8.57914C7.56037 12.6992 6.73152 11.8704 6.73152 10.8516V8.57987C6.73152 7.5611 7.56034 6.73228 8.57914 6.73228H10.8508ZM8.57917 11.3579H10.8508C11.1301 11.3579 11.3573 11.1308 11.3573 10.8515V8.57983C11.3573 8.30058 11.1301 8.07338 10.8508 8.07338H8.57917C8.29989 8.07338 8.07269 8.30058 8.07269 8.57983V10.8515C8.07269 11.1308 8.29989 11.3579 8.57917 11.3579ZM10.8508 8.10547C11.1124 8.10547 11.3252 8.31827 11.3252 8.57987V10.8516C11.3252 11.1131 11.1124 11.3259 10.8508 11.3259H8.57914C8.31755 11.3259 8.10471 11.1131 8.10471 10.8516V8.57987C8.10471 8.31827 8.31755 8.10547 8.57914 8.10547H10.8508Z"/>
</mask>
<path d="M8.57917 12.7312H10.8508C11.8873 12.7312 12.7305 11.888 12.7305 10.8515V8.57983C12.7305 7.5434 11.8873 6.7002 10.8508 6.7002H8.57917C7.54271 6.7002 6.6995 7.5434 6.6995 8.57983V10.8515C6.6995 11.888 7.54271 12.7312 8.57917 12.7312ZM10.8508 6.73228C11.8696 6.73228 12.6984 7.5611 12.6984 8.57987V10.8516C12.6984 11.8703 11.8696 12.6992 10.8508 12.6992H8.57914C7.56037 12.6992 6.73152 11.8704 6.73152 10.8516V8.57987C6.73152 7.5611 7.56034 6.73228 8.57914 6.73228H10.8508ZM8.57917 11.3579H10.8508C11.1301 11.3579 11.3573 11.1308 11.3573 10.8515V8.57983C11.3573 8.30058 11.1301 8.07338 10.8508 8.07338H8.57917C8.29989 8.07338 8.07269 8.30058 8.07269 8.57983V10.8515C8.07269 11.1308 8.29989 11.3579 8.57917 11.3579ZM10.8508 8.10547C11.1124 8.10547 11.3252 8.31827 11.3252 8.57987V10.8516C11.3252 11.1131 11.1124 11.3259 10.8508 11.3259H8.57914C8.31755 11.3259 8.10471 11.1131 8.10471 10.8516V8.57987C8.10471 8.31827 8.31755 8.10547 8.57914 8.10547H10.8508Z" fill="#232323"/>
<path d="M8.57917 12.5312H10.8508V12.9312H8.57917V12.5312ZM10.8508 12.5312C11.7768 12.5312 12.5305 11.7775 12.5305 10.8515H12.9305C12.9305 11.9984 11.9977 12.9312 10.8508 12.9312V12.5312ZM12.5305 10.8515V8.57983H12.9305V10.8515H12.5305ZM12.5305 8.57983C12.5305 7.65386 11.7768 6.9002 10.8508 6.9002V6.5002C11.9977 6.5002 12.9305 7.43295 12.9305 8.57983H12.5305ZM10.8508 6.9002H8.57917V6.5002H10.8508V6.9002ZM8.57917 6.9002C7.65317 6.9002 6.8995 7.65386 6.8995 8.57983H6.4995C6.4995 7.43294 7.43226 6.5002 8.57917 6.5002V6.9002ZM6.8995 8.57983V10.8515H6.4995V8.57983H6.8995ZM6.8995 10.8515C6.8995 11.7775 7.65317 12.5312 8.57917 12.5312V12.9312C7.43225 12.9312 6.4995 11.9984 6.4995 10.8515H6.8995ZM10.8508 6.53228C11.98 6.53228 12.8984 7.45064 12.8984 8.57987H12.4984C12.4984 7.67155 11.7591 6.93228 10.8508 6.93228V6.53228ZM12.8984 8.57987V10.8516H12.4984V8.57987H12.8984ZM12.8984 10.8516C12.8984 11.9808 11.98 12.8992 10.8508 12.8992V12.4992C11.7591 12.4992 12.4984 11.7599 12.4984 10.8516H12.8984ZM10.8508 12.8992H8.57914V12.4992H10.8508V12.8992ZM8.57914 12.8992C7.44992 12.8992 6.53152 11.9808 6.53152 10.8516H6.93152C6.93152 11.7599 7.67083 12.4992 8.57914 12.4992V12.8992ZM6.53152 10.8516V8.57987H6.93152V10.8516H6.53152ZM6.53152 8.57987C6.53152 7.45064 7.44989 6.53228 8.57914 6.53228V6.93228C7.6708 6.93228 6.93152 7.67156 6.93152 8.57987H6.53152ZM8.57914 6.53228H10.8508V6.93228H8.57914V6.53228ZM8.57917 11.1579H10.8508V11.5579H8.57917V11.1579ZM10.8508 11.1579C11.0196 11.1579 11.1573 11.0203 11.1573 10.8515H11.5573C11.5573 11.2413 11.2405 11.5579 10.8508 11.5579V11.1579ZM11.1573 10.8515V8.57983H11.5573V10.8515H11.1573ZM11.1573 8.57983C11.1573 8.41104 11.0196 8.27338 10.8508 8.27338V7.87338C11.2405 7.87338 11.5573 8.19012 11.5573 8.57983H11.1573ZM10.8508 8.27338H8.57917V7.87338H10.8508V8.27338ZM8.57917 8.27338C8.41034 8.27338 8.27269 8.41105 8.27269 8.57983H7.87269C7.87269 8.19012 8.18944 7.87338 8.57917 7.87338V8.27338ZM8.27269 8.57983V10.8515H7.87269V8.57983H8.27269ZM8.27269 10.8515C8.27269 11.0203 8.41032 11.1579 8.57917 11.1579V11.5579C8.18946 11.5579 7.87269 11.2413 7.87269 10.8515H8.27269ZM10.8508 7.90547C11.2228 7.90547 11.5252 8.20782 11.5252 8.57987H11.1252C11.1252 8.42873 11.0019 8.30547 10.8508 8.30547V7.90547ZM11.5252 8.57987V10.8516H11.1252V8.57987H11.5252ZM11.5252 10.8516C11.5252 11.2236 11.2228 11.5259 10.8508 11.5259V11.1259C11.0019 11.1259 11.1252 11.0026 11.1252 10.8516H11.5252ZM10.8508 11.5259H8.57914V11.1259H10.8508V11.5259ZM8.57914 11.5259C8.20712 11.5259 7.90471 11.2236 7.90471 10.8516H8.30471C8.30471 11.0026 8.42798 11.1259 8.57914 11.1259V11.5259ZM7.90471 10.8516V8.57987H8.30471V10.8516H7.90471ZM7.90471 8.57987C7.90471 8.2078 8.20711 7.90547 8.57914 7.90547V8.30547C8.42799 8.30547 8.30471 8.42875 8.30471 8.57987H7.90471ZM8.57914 7.90547H10.8508V8.30547H8.57914V7.90547Z" fill="white" mask="url(#path-14-inside-5_110_20668)"/>
<path d="M4.23694 6.81777H1.96532C0.99293 6.81777 0.201674 7.60903 0.201674 8.58139V10.8531C0.201674 11.8255 0.992931 12.6167 1.96532 12.6167H4.23694C5.20933 12.6167 6.00059 11.8255 6.00059 10.8531V8.58139C6.00059 7.60903 5.20933 6.81777 4.23694 6.81777ZM1.96532 11.4435C1.6392 11.4435 1.37486 11.1792 1.37486 10.853V8.58135C1.37486 8.25526 1.63921 7.99093 1.96532 7.99093H4.23694C4.56305 7.99093 4.8274 8.25526 4.8274 8.58135V10.853C4.8274 11.1792 4.56306 11.4435 4.23694 11.4435H1.96532Z" fill="#232323" stroke="white" stroke-width="0.2"/>
<mask id="path-17-inside-6_110_20668" fill="white">
<path d="M1.96492 12.7312H4.23654C5.273 12.7312 6.11621 11.888 6.11621 10.8515V8.57983C6.11621 7.5434 5.273 6.7002 4.23654 6.7002H1.96492C0.928454 6.7002 0.0852456 7.5434 0.0852456 8.57983V10.8515C0.0852456 11.888 0.928454 12.7312 1.96492 12.7312ZM4.23654 6.73228C5.25531 6.73228 6.08416 7.5611 6.08416 8.57987V10.8516C6.08416 11.8703 5.25534 12.6992 4.23654 12.6992H1.96492C0.946147 12.6992 0.1173 11.8704 0.1173 10.8516V8.57987C0.1173 7.5611 0.946115 6.73228 1.96492 6.73228H4.23654ZM1.96492 11.358H4.23654C4.51583 11.358 4.74302 11.1308 4.74302 10.8515V8.57983C4.74302 8.30058 4.51583 8.07338 4.23654 8.07338H1.96492C1.68563 8.07338 1.45843 8.30058 1.45843 8.57983V10.8515C1.45843 11.1308 1.68563 11.358 1.96492 11.358ZM4.23654 8.10547C4.49813 8.10547 4.71097 8.31827 4.71097 8.57987V10.8516C4.71097 11.1131 4.49813 11.326 4.23654 11.326H1.96492C1.70332 11.326 1.49049 11.1131 1.49049 10.8516V8.57987C1.49049 8.31827 1.70332 8.10547 1.96492 8.10547H4.23654Z"/>
</mask>
<path d="M1.96492 12.7312H4.23654C5.273 12.7312 6.11621 11.888 6.11621 10.8515V8.57983C6.11621 7.5434 5.273 6.7002 4.23654 6.7002H1.96492C0.928454 6.7002 0.0852456 7.5434 0.0852456 8.57983V10.8515C0.0852456 11.888 0.928454 12.7312 1.96492 12.7312ZM4.23654 6.73228C5.25531 6.73228 6.08416 7.5611 6.08416 8.57987V10.8516C6.08416 11.8703 5.25534 12.6992 4.23654 12.6992H1.96492C0.946147 12.6992 0.1173 11.8704 0.1173 10.8516V8.57987C0.1173 7.5611 0.946115 6.73228 1.96492 6.73228H4.23654ZM1.96492 11.358H4.23654C4.51583 11.358 4.74302 11.1308 4.74302 10.8515V8.57983C4.74302 8.30058 4.51583 8.07338 4.23654 8.07338H1.96492C1.68563 8.07338 1.45843 8.30058 1.45843 8.57983V10.8515C1.45843 11.1308 1.68563 11.358 1.96492 11.358ZM4.23654 8.10547C4.49813 8.10547 4.71097 8.31827 4.71097 8.57987V10.8516C4.71097 11.1131 4.49813 11.326 4.23654 11.326H1.96492C1.70332 11.326 1.49049 11.1131 1.49049 10.8516V8.57987C1.49049 8.31827 1.70332 8.10547 1.96492 8.10547H4.23654Z" fill="#232323"/>
<path d="M1.96492 12.5312H4.23654V12.9312H1.96492V12.5312ZM4.23654 12.5312C5.16254 12.5312 5.91621 11.7775 5.91621 10.8515H6.31621C6.31621 11.9984 5.38346 12.9312 4.23654 12.9312V12.5312ZM5.91621 10.8515V8.57983H6.31621V10.8515H5.91621ZM5.91621 8.57983C5.91621 7.65386 5.16255 6.9002 4.23654 6.9002V6.5002C5.38346 6.5002 6.31621 7.43294 6.31621 8.57983H5.91621ZM4.23654 6.9002H1.96492V6.5002H4.23654V6.9002ZM1.96492 6.9002C1.03891 6.9002 0.285245 7.65386 0.285245 8.57983H-0.114755C-0.114755 7.43294 0.817999 6.5002 1.96492 6.5002V6.9002ZM0.285245 8.57983V10.8515H-0.114755V8.57983H0.285245ZM0.285245 10.8515C0.285245 11.7775 1.03891 12.5312 1.96492 12.5312V12.9312C0.817997 12.9312 -0.114755 11.9984 -0.114755 10.8515H0.285245ZM4.23654 6.53228C5.36576 6.53228 6.28416 7.45064 6.28416 8.57987H5.88416C5.88416 7.67156 5.14486 6.93228 4.23654 6.93228V6.53228ZM6.28416 8.57987V10.8516H5.88416V8.57987H6.28416ZM6.28416 10.8516C6.28416 11.9808 5.3658 12.8992 4.23654 12.8992V12.4992C5.14488 12.4992 5.88416 11.7599 5.88416 10.8516H6.28416ZM4.23654 12.8992H1.96492V12.4992H4.23654V12.8992ZM1.96492 12.8992C0.835693 12.8992 -0.0827007 11.9808 -0.0827007 10.8516H0.317299C0.317299 11.7599 1.0566 12.4992 1.96492 12.4992V12.8992ZM-0.0827007 10.8516V8.57987H0.317299V10.8516H-0.0827007ZM-0.0827007 8.57987C-0.0827007 7.45064 0.835661 6.53228 1.96492 6.53228V6.93228C1.05657 6.93228 0.317299 7.67156 0.317299 8.57987H-0.0827007ZM1.96492 6.53228H4.23654V6.93228H1.96492V6.53228ZM1.96492 11.158H4.23654V11.558H1.96492V11.158ZM4.23654 11.158C4.40537 11.158 4.54302 11.0204 4.54302 10.8515H4.94302C4.94302 11.2413 4.62628 11.558 4.23654 11.558V11.158ZM4.54302 10.8515V8.57983H4.94302V10.8515H4.54302ZM4.54302 8.57983C4.54302 8.41105 4.40538 8.27338 4.23654 8.27338V7.87338C4.62627 7.87338 4.94302 8.19011 4.94302 8.57983H4.54302ZM4.23654 8.27338H1.96492V7.87338H4.23654V8.27338ZM1.96492 8.27338C1.79608 8.27338 1.65843 8.41105 1.65843 8.57983H1.25843C1.25843 8.19011 1.57518 7.87338 1.96492 7.87338V8.27338ZM1.65843 8.57983V10.8515H1.25843V8.57983H1.65843ZM1.65843 10.8515C1.65843 11.0204 1.79609 11.158 1.96492 11.158V11.558C1.57517 11.558 1.25843 11.2413 1.25843 10.8515H1.65843ZM4.23654 7.90547C4.60857 7.90547 4.91097 8.2078 4.91097 8.57987H4.51097C4.51097 8.42875 4.38769 8.30547 4.23654 8.30547V7.90547ZM4.91097 8.57987V10.8516H4.51097V8.57987H4.91097ZM4.91097 10.8516C4.91097 11.2236 4.60859 11.526 4.23654 11.526V11.126C4.38768 11.126 4.51097 11.0027 4.51097 10.8516H4.91097ZM4.23654 11.526H1.96492V11.126H4.23654V11.526ZM1.96492 11.526C1.59287 11.526 1.29049 11.2236 1.29049 10.8516H1.69049C1.69049 11.0027 1.81378 11.126 1.96492 11.126V11.526ZM1.29049 10.8516V8.57987H1.69049V10.8516H1.29049ZM1.29049 8.57987C1.29049 8.2078 1.59288 7.90547 1.96492 7.90547V8.30547C1.81376 8.30547 1.69049 8.42875 1.69049 8.57987H1.29049ZM1.96492 7.90547H4.23654V8.30547H1.96492V7.90547Z" fill="white" mask="url(#path-17-inside-6_110_20668)"/>
<path d="M15.1929 19.3158H17.4645C18.4369 19.3158 19.2281 18.5246 19.2281 17.5523V15.2806C19.2281 14.3082 18.4369 13.517 17.4645 13.517H15.1929C14.2205 13.517 13.4292 14.3082 13.4292 15.2806V17.5523C13.4292 18.5246 14.2205 19.3158 15.1929 19.3158ZM17.4645 14.6902C17.7906 14.6902 18.0549 14.9546 18.0549 15.2807V17.5523C18.0549 17.8783 17.7906 18.1427 17.4645 18.1427H15.1929C14.8668 18.1427 14.6024 17.8783 14.6024 17.5523V15.2807C14.6024 14.9546 14.8668 14.6902 15.1929 14.6902H17.4645Z" fill="#232323" stroke="white" stroke-width="0.2"/>
<mask id="path-20-inside-7_110_20668" fill="white">
<path d="M15.1934 19.4313H17.4651C18.5015 19.4313 19.3447 18.5881 19.3447 17.5517V15.2801C19.3447 14.2436 18.5015 13.4004 17.4651 13.4004H15.1934C14.157 13.4004 13.3138 14.2436 13.3138 15.2801V17.5517C13.3138 18.5881 14.157 19.4313 15.1934 19.4313ZM17.4651 13.4325C18.4839 13.4325 19.3127 14.2613 19.3127 15.2801V17.5517C19.3127 18.5705 18.4839 19.3993 17.4651 19.3993H15.1934C14.1747 19.3993 13.3458 18.5705 13.3458 17.5517V15.2801C13.3458 14.2613 14.1747 13.4325 15.1934 13.4325H17.4651ZM15.1934 18.0582H17.4651C17.7443 18.0582 17.9715 17.831 17.9715 17.5517V15.2801C17.9715 15.0008 17.7443 14.7736 17.4651 14.7736H15.1934C14.9142 14.7736 14.687 15.0008 14.687 15.2801V17.5517C14.687 17.831 14.9142 18.0582 15.1934 18.0582ZM17.4651 14.8057C17.7267 14.8057 17.9395 15.0185 17.9395 15.2801V17.5517C17.9395 17.8133 17.7267 18.0261 17.4651 18.0261H15.1934C14.9318 18.0261 14.719 17.8133 14.719 17.5517V15.2801C14.719 15.0185 14.9318 14.8057 15.1934 14.8057H17.4651Z"/>
</mask>
<path d="M15.1934 19.4313H17.4651C18.5015 19.4313 19.3447 18.5881 19.3447 17.5517V15.2801C19.3447 14.2436 18.5015 13.4004 17.4651 13.4004H15.1934C14.157 13.4004 13.3138 14.2436 13.3138 15.2801V17.5517C13.3138 18.5881 14.157 19.4313 15.1934 19.4313ZM17.4651 13.4325C18.4839 13.4325 19.3127 14.2613 19.3127 15.2801V17.5517C19.3127 18.5705 18.4839 19.3993 17.4651 19.3993H15.1934C14.1747 19.3993 13.3458 18.5705 13.3458 17.5517V15.2801C13.3458 14.2613 14.1747 13.4325 15.1934 13.4325H17.4651ZM15.1934 18.0582H17.4651C17.7443 18.0582 17.9715 17.831 17.9715 17.5517V15.2801C17.9715 15.0008 17.7443 14.7736 17.4651 14.7736H15.1934C14.9142 14.7736 14.687 15.0008 14.687 15.2801V17.5517C14.687 17.831 14.9142 18.0582 15.1934 18.0582ZM17.4651 14.8057C17.7267 14.8057 17.9395 15.0185 17.9395 15.2801V17.5517C17.9395 17.8133 17.7267 18.0261 17.4651 18.0261H15.1934C14.9318 18.0261 14.719 17.8133 14.719 17.5517V15.2801C14.719 15.0185 14.9318 14.8057 15.1934 14.8057H17.4651Z" fill="#232323"/>
<path d="M13.3138 17.5517H13.5138H13.3138ZM15.1934 19.2313H17.4651V19.6313H15.1934V19.2313ZM17.4651 19.2313C18.3911 19.2313 19.1447 18.4776 19.1447 17.5517H19.5447C19.5447 18.6985 18.612 19.6313 17.4651 19.6313V19.2313ZM19.1447 17.5517V15.2801H19.5447V17.5517H19.1447ZM19.1447 15.2801C19.1447 14.3541 18.3911 13.6004 17.4651 13.6004V13.2004C18.612 13.2004 19.5447 14.1331 19.5447 15.2801H19.1447ZM17.4651 13.6004H15.1934V13.2004H17.4651V13.6004ZM15.1934 13.6004C14.2675 13.6004 13.5138 14.3541 13.5138 15.2801H13.1138C13.1138 14.1331 14.0465 13.2004 15.1934 13.2004V13.6004ZM13.5138 15.2801V17.5517H13.1138V15.2801H13.5138ZM13.5138 17.5517C13.5138 18.4777 14.2675 19.2313 15.1934 19.2313V19.6313C14.0465 19.6313 13.1138 18.6986 13.1138 17.5517H13.5138ZM17.4651 13.2325C18.5943 13.2325 19.5127 14.1508 19.5127 15.2801H19.1127C19.1127 14.3717 18.3734 13.6325 17.4651 13.6325V13.2325ZM19.5127 15.2801V17.5517H19.1127V15.2801H19.5127ZM19.5127 17.5517C19.5127 18.6809 18.5943 19.5993 17.4651 19.5993V19.1993C18.3734 19.1993 19.1127 18.46 19.1127 17.5517H19.5127ZM17.4651 19.5993H15.1934V19.1993H17.4651V19.5993ZM15.1934 19.5993C14.0642 19.5993 13.1458 18.6809 13.1458 17.5517H13.5458C13.5458 18.46 14.2851 19.1993 15.1934 19.1993V19.5993ZM13.1458 17.5517V15.2801H13.5458V17.5517H13.1458ZM13.1458 15.2801C13.1458 14.1509 14.0642 13.2325 15.1934 13.2325V13.6325C14.2851 13.6325 13.5458 14.3718 13.5458 15.2801H13.1458ZM15.1934 13.2325H17.4651V13.6325H15.1934V13.2325ZM15.1934 17.8582H17.4651V18.2582H15.1934V17.8582ZM17.4651 17.8582C17.6339 17.8582 17.7715 17.7206 17.7715 17.5517H18.1715C18.1715 17.9415 17.8548 18.2582 17.4651 18.2582V17.8582ZM17.7715 17.5517V15.2801H18.1715V17.5517H17.7715ZM17.7715 15.2801C17.7715 15.1113 17.6339 14.9736 17.4651 14.9736V14.5736C17.8548 14.5736 18.1715 14.8904 18.1715 15.2801H17.7715ZM17.4651 14.9736H15.1934V14.5736H17.4651V14.9736ZM15.1934 14.9736C15.0246 14.9736 14.887 15.1113 14.887 15.2801H14.487C14.487 14.8904 14.8037 14.5736 15.1934 14.5736V14.9736ZM14.887 15.2801V17.5517H14.487V15.2801H14.887ZM14.887 17.5517C14.887 17.7206 15.0246 17.8582 15.1934 17.8582V18.2582C14.8037 18.2582 14.487 17.9415 14.487 17.5517H14.887ZM17.4651 14.6057C17.8372 14.6057 18.1395 14.9081 18.1395 15.2801H17.7395C17.7395 15.1289 17.6162 15.0057 17.4651 15.0057V14.6057ZM18.1395 15.2801V17.5517H17.7395V15.2801H18.1395ZM18.1395 17.5517C18.1395 17.9237 17.8372 18.2261 17.4651 18.2261V17.8261C17.6162 17.8261 17.7395 17.7029 17.7395 17.5517H18.1395ZM17.4651 18.2261H15.1934V17.8261H17.4651V18.2261ZM15.1934 18.2261C14.8214 18.2261 14.519 17.9237 14.519 17.5517H14.919C14.919 17.7029 15.0423 17.8261 15.1934 17.8261V18.2261ZM14.519 17.5517V15.2801H14.919V17.5517H14.519ZM14.519 15.2801C14.519 14.9081 14.8214 14.6057 15.1934 14.6057V15.0057C15.0423 15.0057 14.919 15.1289 14.919 15.2801H14.519ZM15.1934 14.6057H17.4651V15.0057H15.1934V14.6057Z" fill="white" mask="url(#path-20-inside-7_110_20668)"/>
<path d="M10.8512 19.3158C11.8236 19.3158 12.6148 18.5246 12.6148 17.5523V15.2806C12.6148 14.3082 11.8236 13.517 10.8512 13.517H8.57958C7.60719 13.517 6.81593 14.3082 6.81593 15.2806V17.5523C6.81593 18.5246 7.60718 19.3158 8.57958 19.3158H10.8512ZM10.8512 14.6902C11.1773 14.6902 11.4417 14.9545 11.4417 15.2806V17.5523C11.4417 17.8783 11.1773 18.1427 10.8512 18.1427H8.57958C8.25345 18.1427 7.98912 17.8783 7.98912 17.5523V15.2806C7.98912 14.9545 8.25346 14.6902 8.57958 14.6902H10.8512Z" fill="#232323" stroke="white" stroke-width="0.2"/>
<mask id="path-23-inside-8_110_20668" fill="white">
<path d="M8.57917 19.4313H10.8508C11.8873 19.4313 12.7305 18.5881 12.7305 17.5517V15.2801C12.7305 14.2436 11.8873 13.4004 10.8508 13.4004H8.57917C7.54271 13.4004 6.6995 14.2436 6.6995 15.2801V17.5517C6.6995 18.5881 7.54271 19.4313 8.57917 19.4313ZM10.8508 13.4325C11.8696 13.4325 12.6984 14.2613 12.6984 15.2801V17.5517C12.6984 18.5705 11.8696 19.3993 10.8508 19.3993H8.57914C7.56037 19.3993 6.73152 18.5705 6.73152 17.5517V15.2801C6.73152 14.2613 7.56034 13.4325 8.57914 13.4325H10.8508ZM8.57917 18.0582H10.8508C11.1301 18.0582 11.3573 17.831 11.3573 17.5517V15.2801C11.3573 15.0008 11.1301 14.7736 10.8508 14.7736H8.57917C8.29989 14.7736 8.07269 15.0008 8.07269 15.2801V17.5517C8.07269 17.831 8.29989 18.0582 8.57917 18.0582ZM10.8508 14.8057C11.1124 14.8057 11.3252 15.0185 11.3252 15.2801V17.5517C11.3252 17.8133 11.1124 18.0261 10.8508 18.0261H8.57914C8.31755 18.0261 8.10471 17.8133 8.10471 17.5517V15.2801C8.10471 15.0185 8.31755 14.8057 8.57914 14.8057H10.8508Z"/>
</mask>
<path d="M8.57917 19.4313H10.8508C11.8873 19.4313 12.7305 18.5881 12.7305 17.5517V15.2801C12.7305 14.2436 11.8873 13.4004 10.8508 13.4004H8.57917C7.54271 13.4004 6.6995 14.2436 6.6995 15.2801V17.5517C6.6995 18.5881 7.54271 19.4313 8.57917 19.4313ZM10.8508 13.4325C11.8696 13.4325 12.6984 14.2613 12.6984 15.2801V17.5517C12.6984 18.5705 11.8696 19.3993 10.8508 19.3993H8.57914C7.56037 19.3993 6.73152 18.5705 6.73152 17.5517V15.2801C6.73152 14.2613 7.56034 13.4325 8.57914 13.4325H10.8508ZM8.57917 18.0582H10.8508C11.1301 18.0582 11.3573 17.831 11.3573 17.5517V15.2801C11.3573 15.0008 11.1301 14.7736 10.8508 14.7736H8.57917C8.29989 14.7736 8.07269 15.0008 8.07269 15.2801V17.5517C8.07269 17.831 8.29989 18.0582 8.57917 18.0582ZM10.8508 14.8057C11.1124 14.8057 11.3252 15.0185 11.3252 15.2801V17.5517C11.3252 17.8133 11.1124 18.0261 10.8508 18.0261H8.57914C8.31755 18.0261 8.10471 17.8133 8.10471 17.5517V15.2801C8.10471 15.0185 8.31755 14.8057 8.57914 14.8057H10.8508Z" fill="#232323"/>
<path d="M8.57917 19.2313H10.8508V19.6313H8.57917V19.2313ZM10.8508 19.2313C11.7768 19.2313 12.5305 18.4776 12.5305 17.5517H12.9305C12.9305 18.6985 11.9977 19.6313 10.8508 19.6313V19.2313ZM12.5305 17.5517V15.2801H12.9305V17.5517H12.5305ZM12.5305 15.2801C12.5305 14.3541 11.7768 13.6004 10.8508 13.6004V13.2004C11.9977 13.2004 12.9305 14.1331 12.9305 15.2801H12.5305ZM10.8508 13.6004H8.57917V13.2004H10.8508V13.6004ZM8.57917 13.6004C7.65317 13.6004 6.8995 14.3541 6.8995 15.2801H6.4995C6.4995 14.1331 7.43225 13.2004 8.57917 13.2004V13.6004ZM6.8995 15.2801V17.5517H6.4995V15.2801H6.8995ZM6.8995 17.5517C6.8995 18.4777 7.65316 19.2313 8.57917 19.2313V19.6313C7.43226 19.6313 6.4995 18.6986 6.4995 17.5517H6.8995ZM10.8508 13.2325C11.98 13.2325 12.8984 14.1508 12.8984 15.2801H12.4984C12.4984 14.3717 11.7591 13.6325 10.8508 13.6325V13.2325ZM12.8984 15.2801V17.5517H12.4984V15.2801H12.8984ZM12.8984 17.5517C12.8984 18.6809 11.98 19.5993 10.8508 19.5993V19.1993C11.7591 19.1993 12.4984 18.46 12.4984 17.5517H12.8984ZM10.8508 19.5993H8.57914V19.1993H10.8508V19.5993ZM8.57914 19.5993C7.44992 19.5993 6.53152 18.681 6.53152 17.5517H6.93152C6.93152 18.46 7.67082 19.1993 8.57914 19.1993V19.5993ZM6.53152 17.5517V15.2801H6.93152V17.5517H6.53152ZM6.53152 15.2801C6.53152 14.1509 7.44988 13.2325 8.57914 13.2325V13.6325C7.6708 13.6325 6.93152 14.3718 6.93152 15.2801H6.53152ZM8.57914 13.2325H10.8508V13.6325H8.57914V13.2325ZM8.57917 17.8582H10.8508V18.2582H8.57917V17.8582ZM10.8508 17.8582C11.0196 17.8582 11.1573 17.7206 11.1573 17.5517H11.5573C11.5573 17.9415 11.2405 18.2582 10.8508 18.2582V17.8582ZM11.1573 17.5517V15.2801H11.5573V17.5517H11.1573ZM11.1573 15.2801C11.1573 15.1113 11.0196 14.9736 10.8508 14.9736V14.5736C11.2405 14.5736 11.5573 14.8904 11.5573 15.2801H11.1573ZM10.8508 14.9736H8.57917V14.5736H10.8508V14.9736ZM8.57917 14.9736C8.41035 14.9736 8.27269 15.1113 8.27269 15.2801H7.87269C7.87269 14.8904 8.18943 14.5736 8.57917 14.5736V14.9736ZM8.27269 15.2801V17.5517H7.87269V15.2801H8.27269ZM8.27269 17.5517C8.27269 17.7205 8.41035 17.8582 8.57917 17.8582V18.2582C8.18943 18.2582 7.87269 17.9415 7.87269 17.5517H8.27269ZM10.8508 14.6057C11.2229 14.6057 11.5252 14.9081 11.5252 15.2801H11.1252C11.1252 15.1289 11.0019 15.0057 10.8508 15.0057V14.6057ZM11.5252 15.2801V17.5517H11.1252V15.2801H11.5252ZM11.5252 17.5517C11.5252 17.9237 11.2229 18.2261 10.8508 18.2261V17.8261C11.0019 17.8261 11.1252 17.7029 11.1252 17.5517H11.5252ZM10.8508 18.2261H8.57914V17.8261H10.8508V18.2261ZM8.57914 18.2261C8.20709 18.2261 7.90471 17.9238 7.90471 17.5517H8.30471C8.30471 17.7029 8.42801 17.8261 8.57914 17.8261V18.2261ZM7.90471 17.5517V15.2801H8.30471V17.5517H7.90471ZM7.90471 15.2801C7.90471 14.908 8.20709 14.6057 8.57914 14.6057V15.0057C8.42801 15.0057 8.30471 15.129 8.30471 15.2801H7.90471ZM8.57914 14.6057H10.8508V15.0057H8.57914V14.6057Z" fill="white" mask="url(#path-23-inside-8_110_20668)"/>
<path d="M4.23792 13.517H1.96629C0.993906 13.517 0.202651 14.3082 0.202651 15.2806V17.5523C0.202651 18.5246 0.993908 19.3159 1.96629 19.3159H4.23792C5.2103 19.3159 6.00156 18.5246 6.00156 17.5523V15.2806C6.00156 14.3082 5.2103 13.517 4.23792 13.517ZM1.96629 18.1427C1.64019 18.1427 1.37584 17.8783 1.37584 17.5523V15.2806C1.37584 14.9545 1.64018 14.6902 1.96629 14.6902H4.23792C4.56403 14.6902 4.82838 14.9545 4.82838 15.2806V17.5523C4.82838 17.8783 4.56403 18.1427 4.23792 18.1427H1.96629Z" fill="#232323" stroke="white" stroke-width="0.2"/>
<mask id="path-26-inside-9_110_20668" fill="white">
<path d="M1.96589 19.4314H4.23752C5.27398 19.4314 6.11719 18.5881 6.11719 17.5517V15.2801C6.11719 14.2436 5.27398 13.4004 4.23752 13.4004H1.96589C0.92943 13.4004 0.0862222 14.2436 0.0862222 15.2801V17.5517C0.0862222 18.5882 0.92943 19.4314 1.96589 19.4314ZM4.23752 13.4325C5.25628 13.4325 6.08513 14.2613 6.08513 15.2801V17.5517C6.08513 18.5705 5.25632 19.3993 4.23752 19.3993H1.96589C0.947124 19.3993 0.118276 18.5705 0.118276 17.5517V15.2801C0.118276 14.2613 0.947092 13.4325 1.96589 13.4325H4.23752ZM1.96589 18.0581H4.23752C4.5168 18.0581 4.744 17.831 4.744 17.5517V15.2801C4.744 15.0008 4.5168 14.7736 4.23752 14.7736H1.96589C1.68661 14.7736 1.45941 15.0008 1.45941 15.2801V17.5517C1.45941 17.831 1.68661 18.0581 1.96589 18.0581ZM4.23752 14.8057C4.49911 14.8057 4.71195 15.0185 4.71195 15.2801V17.5517C4.71195 17.8133 4.49911 18.0261 4.23752 18.0261H1.96589C1.7043 18.0261 1.49146 17.8133 1.49146 17.5517V15.2801C1.49146 15.0185 1.7043 14.8057 1.96589 14.8057H4.23752Z"/>
</mask>
<path d="M1.96589 19.4314H4.23752C5.27398 19.4314 6.11719 18.5881 6.11719 17.5517V15.2801C6.11719 14.2436 5.27398 13.4004 4.23752 13.4004H1.96589C0.92943 13.4004 0.0862222 14.2436 0.0862222 15.2801V17.5517C0.0862222 18.5882 0.92943 19.4314 1.96589 19.4314ZM4.23752 13.4325C5.25628 13.4325 6.08513 14.2613 6.08513 15.2801V17.5517C6.08513 18.5705 5.25632 19.3993 4.23752 19.3993H1.96589C0.947124 19.3993 0.118276 18.5705 0.118276 17.5517V15.2801C0.118276 14.2613 0.947092 13.4325 1.96589 13.4325H4.23752ZM1.96589 18.0581H4.23752C4.5168 18.0581 4.744 17.831 4.744 17.5517V15.2801C4.744 15.0008 4.5168 14.7736 4.23752 14.7736H1.96589C1.68661 14.7736 1.45941 15.0008 1.45941 15.2801V17.5517C1.45941 17.831 1.68661 18.0581 1.96589 18.0581ZM4.23752 14.8057C4.49911 14.8057 4.71195 15.0185 4.71195 15.2801V17.5517C4.71195 17.8133 4.49911 18.0261 4.23752 18.0261H1.96589C1.7043 18.0261 1.49146 17.8133 1.49146 17.5517V15.2801C1.49146 15.0185 1.7043 14.8057 1.96589 14.8057H4.23752Z" fill="#232323"/>
<path d="M1.96589 19.2314H4.23752V19.6314H1.96589V19.2314ZM4.23752 19.2314C5.16352 19.2314 5.91719 18.4777 5.91719 17.5517H6.31719C6.31719 18.6986 5.38443 19.6314 4.23752 19.6314V19.2314ZM5.91719 17.5517V15.2801H6.31719V17.5517H5.91719ZM5.91719 15.2801C5.91719 14.3541 5.16352 13.6004 4.23752 13.6004V13.2004C5.38443 13.2004 6.31719 14.1331 6.31719 15.2801H5.91719ZM4.23752 13.6004H1.96589V13.2004H4.23752V13.6004ZM1.96589 13.6004C1.03989 13.6004 0.286222 14.3541 0.286222 15.2801H-0.113778C-0.113778 14.1331 0.818974 13.2004 1.96589 13.2004V13.6004ZM0.286222 15.2801V17.5517H-0.113778V15.2801H0.286222ZM0.286222 17.5517C0.286222 18.4777 1.03989 19.2314 1.96589 19.2314V19.6314C0.818976 19.6314 -0.113778 18.6986 -0.113778 17.5517H0.286222ZM4.23752 13.2325C5.36674 13.2325 6.28513 14.1508 6.28513 15.2801H5.88513C5.88513 14.3718 5.14583 13.6325 4.23752 13.6325V13.2325ZM6.28513 15.2801V17.5517H5.88513V15.2801H6.28513ZM6.28513 17.5517C6.28513 18.6809 5.36678 19.5993 4.23752 19.5993V19.1993C5.14586 19.1993 5.88513 18.46 5.88513 17.5517H6.28513ZM4.23752 19.5993H1.96589V19.1993H4.23752V19.5993ZM1.96589 19.5993C0.836669 19.5993 -0.0817242 18.681 -0.0817242 17.5517H0.318276C0.318276 18.4601 1.05758 19.1993 1.96589 19.1993V19.5993ZM-0.0817242 17.5517V15.2801H0.318276V17.5517H-0.0817242ZM-0.0817242 15.2801C-0.0817242 14.1509 0.836633 13.2325 1.96589 13.2325V13.6325C1.05755 13.6325 0.318276 14.3718 0.318276 15.2801H-0.0817242ZM1.96589 13.2325H4.23752V13.6325H1.96589V13.2325ZM1.96589 17.8581H4.23752V18.2581H1.96589V17.8581ZM4.23752 17.8581C4.40637 17.8581 4.544 17.7205 4.544 17.5517H4.944C4.944 17.9415 4.62723 18.2581 4.23752 18.2581V17.8581ZM4.544 17.5517V15.2801H4.944V17.5517H4.544ZM4.544 15.2801C4.544 15.1113 4.40635 14.9736 4.23752 14.9736V14.5736C4.62726 14.5736 4.944 14.8904 4.944 15.2801H4.544ZM4.23752 14.9736H1.96589V14.5736H4.23752V14.9736ZM1.96589 14.9736C1.79706 14.9736 1.65941 15.1113 1.65941 15.2801H1.25941C1.25941 14.8904 1.57615 14.5736 1.96589 14.5736V14.9736ZM1.65941 15.2801V17.5517H1.25941V15.2801H1.65941ZM1.65941 17.5517C1.65941 17.7205 1.79704 17.8581 1.96589 17.8581V18.2581C1.57617 18.2581 1.25941 17.9415 1.25941 17.5517H1.65941ZM4.23752 14.6057C4.60956 14.6057 4.91195 14.908 4.91195 15.2801H4.51195C4.51195 15.129 4.38865 15.0057 4.23752 15.0057V14.6057ZM4.91195 15.2801V17.5517H4.51195V15.2801H4.91195ZM4.91195 17.5517C4.91195 17.9238 4.60954 18.2261 4.23752 18.2261V17.8261C4.38868 17.8261 4.51195 17.7028 4.51195 17.5517H4.91195ZM4.23752 18.2261H1.96589V17.8261H4.23752V18.2261ZM1.96589 18.2261C1.59387 18.2261 1.29146 17.9238 1.29146 17.5517H1.69146C1.69146 17.7028 1.81473 17.8261 1.96589 17.8261V18.2261ZM1.29146 17.5517V15.2801H1.69146V17.5517H1.29146ZM1.29146 15.2801C1.29146 14.908 1.59384 14.6057 1.96589 14.6057V15.0057C1.81476 15.0057 1.69146 15.129 1.69146 15.2801H1.29146ZM1.96589 14.6057H4.23752V15.0057H1.96589V14.6057Z" fill="white" mask="url(#path-26-inside-9_110_20668)"/>
</g>
<defs>
<clipPath id="clip0_110_20668">
<rect width="19.4308" height="19.4308" fill="white" transform="matrix(-1 0 0 1 19.4307 0)"/>
</clipPath>
</defs>
</svg>
