<svg width="31" height="23" viewBox="0 0 31 23" fill="none" xmlns="http://www.w3.org/2000/svg">
<path d="M29.9881 13.9203L28.7566 2.73845C28.7163 2.39041 28.5241 2.07753 28.2309 1.88312C27.9378 1.68893 27.5736 1.63264 27.235 1.72974L22.888 2.98824L20.5745 1.77315V1.77291C19.4741 1.19291 18.2322 0.930732 16.9895 1.01563C15.7469 1.1003 14.5529 1.52902 13.5423 2.25323C13.268 2.46126 13.0171 2.69814 12.7935 2.95943L8.98267 3.23805L3.76169 1.72978C3.4235 1.62893 3.05797 1.68546 2.76673 1.8834C2.47334 2.07759 2.28067 2.39022 2.2401 2.73849L1.00859 13.9204C0.972033 14.2524 1.05293 14.5869 1.23688 14.8665C1.42106 15.146 1.69723 15.3531 2.018 15.4526L3.6941 15.976C3.83419 16.0222 3.98112 16.045 4.12875 16.0433C4.44383 16.044 4.75042 15.9427 5.0023 15.7546C5.25418 15.5665 5.43742 15.302 5.52468 15.0011L5.62137 14.6697L13.953 21.5191C14.2959 21.8153 14.7308 21.9848 15.1848 21.9994C15.6017 22.0106 16.0086 21.8706 16.3295 21.6056C16.6573 21.3244 16.8649 20.9292 16.909 20.501C17.2292 20.7599 17.6321 20.8964 18.0445 20.8861C18.4573 20.8755 18.8523 20.7186 19.1586 20.4435C19.4652 20.1686 19.6626 19.7936 19.7152 19.3865C20.0579 19.6274 20.4762 19.7371 20.8937 19.6961C21.3111 19.6548 21.6996 19.4653 21.988 19.1625C22.2762 18.8595 22.445 18.4632 22.4634 18.0464C22.6599 18.1189 22.8674 18.1561 23.0768 18.1569C23.5516 18.1578 24.0065 17.9671 24.3374 17.6287C24.5808 17.3787 24.7421 17.0614 24.8008 16.7185C24.8595 16.3756 24.8124 16.0231 24.6659 15.7074L25.4677 15.035V15.0348C25.5555 15.3343 25.7385 15.5972 25.9894 15.7841C26.2401 15.9712 26.5453 16.0723 26.8587 16.0723C27.0063 16.0735 27.153 16.0507 27.2933 16.005L28.9694 15.4815C29.2975 15.3833 29.5798 15.1724 29.7663 14.8865C29.9529 14.6009 30.0316 14.2584 29.9885 13.9205L29.9881 13.9203ZM13.9624 2.87294C14.863 2.22307 15.929 1.83773 17.0391 1.76034C18.149 1.68318 19.2586 1.91724 20.2413 2.43579L22.0863 3.39643L25.2595 14.2565L24.2407 15.0828L17.5367 8.20456C18.0296 8.1539 18.4784 7.89944 18.773 7.50329C18.8987 7.34592 18.8751 7.11796 18.7199 6.9892C18.6438 6.92869 18.5466 6.90055 18.4494 6.91133C18.3525 6.92212 18.2638 6.97091 18.2032 7.04689C18.0782 7.22232 17.907 7.35976 17.7084 7.44466C17.5099 7.52933 17.2917 7.55794 17.0778 7.52721C16.6861 7.53706 16.3015 7.42074 15.9814 7.19582L15.7013 6.99412L14.2523 8.74255C13.8073 9.22194 13.2259 9.55519 12.5857 9.69755C11.9454 9.84014 11.2765 9.78503 10.6685 9.53971L10.374 9.41494C10.2622 9.37249 10.1754 9.28267 10.1372 9.16986C10.1013 9.0547 10.119 8.9297 10.1855 8.82885L12.5715 4.52986V4.53009C12.9328 3.89991 13.4038 3.3389 13.9625 2.87287L13.9624 2.87294ZM4.82899 14.7993C4.77639 14.9855 4.64881 15.142 4.47641 15.2315C4.3059 15.3228 4.10568 15.3418 3.92078 15.2843L2.24492 14.7608C1.92371 14.6504 1.72278 14.3328 1.76193 13.9972L2.96941 2.82013C2.98592 2.68434 3.0595 2.56214 3.17223 2.48381C3.28708 2.41134 3.42741 2.39046 3.55853 2.42611L8.06962 3.7327L4.82899 14.7993ZM23.8106 17.0904C23.6238 17.2874 23.3654 17.4017 23.0932 17.408C22.821 17.4143 22.5576 17.3121 22.3616 17.124L18.2706 13.2814H18.2708C18.121 13.1946 17.9307 13.2237 17.8142 13.3513C17.6977 13.4786 17.6866 13.6698 17.7878 13.8098L21.4392 17.249H21.439C21.6928 17.5062 21.789 17.8787 21.6918 18.2258C21.5944 18.5732 21.3183 18.8422 20.9673 18.932C20.6162 19.0218 20.2438 18.9184 19.99 18.6611L16.1791 14.8186H16.1793C16.0362 14.6774 15.8055 14.6774 15.6624 14.8186C15.5202 14.9623 15.5202 15.1933 15.6624 15.3373L18.7004 18.3778V18.3776C18.699 18.3889 18.699 18.4001 18.7004 18.4114C18.9169 18.6166 19.0304 18.9072 19.0096 19.2038C18.9997 19.4698 18.8846 19.721 18.6893 19.903C18.4938 20.0848 18.2342 20.1826 17.9667 20.1748C17.6993 20.1671 17.4455 20.0547 17.2611 19.862L13.5325 16.3219C13.4643 16.253 13.3712 16.2141 13.274 16.2141C13.1768 16.2141 13.0837 16.253 13.0155 16.3219C12.8738 16.4643 12.8738 16.6937 13.0155 16.8358L15.8797 19.516C15.8771 19.5271 15.8771 19.5386 15.8797 19.5498C16.0724 19.7492 16.1752 20.0179 16.1646 20.2942C16.151 20.5707 16.0234 20.8296 15.8121 21.0098C15.6312 21.1735 15.3949 21.2626 15.1503 21.2595C14.8711 21.2412 14.6067 21.1275 14.4018 20.9377L5.83832 13.9203L8.73627 4.01126L12.1606 3.76148C12.0543 3.9151 11.9625 4.05933 11.8854 4.19372L9.5042 8.48778C9.34053 8.77321 9.31058 9.11538 9.42212 9.42453C9.54004 9.72707 9.78272 9.96489 10.0886 10.0777L10.3832 10.2025H10.3834C11.1308 10.5008 11.9517 10.5655 12.737 10.388C13.5224 10.2102 14.2344 9.79884 14.7784 9.20832L15.8411 7.94513C16.0486 8.04903 16.2696 8.12338 16.4979 8.16606C16.4993 8.17568 16.4993 8.18529 16.4979 8.19491L23.8153 15.6927C23.8516 15.7309 23.8839 15.7729 23.9117 15.8177C24.0459 16.0086 24.1093 16.2399 24.0907 16.472C24.0723 16.7045 23.973 16.923 23.8103 17.0905L23.8106 17.0904ZM28.7516 14.7608L27.0901 15.2843C26.9038 15.342 26.702 15.323 26.5298 15.2315C26.36 15.1401 26.2345 14.9841 26.1822 14.7993L22.9413 3.75191L27.4524 2.44532C27.5833 2.40568 27.7252 2.42679 27.8387 2.50301C27.9514 2.58135 28.0252 2.70354 28.0417 2.83934L29.2685 14.0164H29.2683C29.2957 14.3551 29.0799 14.666 28.7516 14.7608L28.7516 14.7608Z" fill="#232323" stroke="#232323" stroke-width="0.4"/>
</svg>
