<svg width="18" height="18" viewBox="0 0 18 18" fill="none" xmlns="http://www.w3.org/2000/svg">
<circle cx="9" cy="9" r="9" fill="#BABABA" fill-opacity="0.2"/>
<path d="M4.83447 6.20459H5.78389H13.3792" fill="#BABABA" fill-opacity="0.2"/>
<path d="M4.83447 6.20459H5.78389H13.3792" stroke="#232323" stroke-width="0.5" stroke-linecap="round" stroke-linejoin="round"/>
<path d="M12.4296 6.20499V12.8509C12.4296 13.1027 12.3296 13.3442 12.1515 13.5222C11.9735 13.7003 11.732 13.8003 11.4802 13.8003H6.73311C6.48131 13.8003 6.23982 13.7003 6.06177 13.5222C5.88372 13.3442 5.78369 13.1027 5.78369 12.8509V6.20499H12.4296ZM7.20782 6.20499V5.25557C7.20782 5.00377 7.30784 4.76228 7.4859 4.58423C7.66395 4.40618 7.90543 4.30615 8.15723 4.30615H10.0561C10.3079 4.30615 10.5494 4.40618 10.7274 4.58423C10.9055 4.76228 11.0055 5.00377 11.0055 5.25557V6.20499" fill="#BABABA" fill-opacity="0.2"/>
<path d="M7.20782 6.20499V5.25557C7.20782 5.00377 7.30784 4.76228 7.4859 4.58423C7.66395 4.40618 7.90543 4.30615 8.15723 4.30615H10.0561C10.3079 4.30615 10.5494 4.40618 10.7274 4.58423C10.9055 4.76228 11.0055 5.00377 11.0055 5.25557V6.20499M12.4296 6.20499V12.8509C12.4296 13.1027 12.3296 13.3442 12.1515 13.5222C11.9735 13.7003 11.732 13.8003 11.4802 13.8003H6.73311C6.48131 13.8003 6.23982 13.7003 6.06177 13.5222C5.88372 13.3442 5.78369 13.1027 5.78369 12.8509V6.20499H12.4296Z" stroke="#232323" stroke-width="0.5" stroke-linecap="round" stroke-linejoin="round"/>
<path d="M10.0562 8.57886V11.4271" stroke="#232323" stroke-width="0.5" stroke-linecap="round" stroke-linejoin="round"/>
<path d="M8.15771 8.57886V11.4271" stroke="#232323" stroke-width="0.5" stroke-linecap="round" stroke-linejoin="round"/>
</svg>
