<svg width="27" height="27" viewBox="0 0 27 27" fill="none" xmlns="http://www.w3.org/2000/svg">
<circle cx="13.3906" cy="13.3906" r="13.3906" fill="#FFDA30"/>
<path d="M7.19409 9.23047H8.60668H19.9074" stroke="#232323" stroke-linecap="round" stroke-linejoin="round"/>
<path d="M10.7256 9.23143V7.81884C10.7256 7.4442 10.8744 7.0849 11.1393 6.81999C11.4042 6.55508 11.7635 6.40625 12.1382 6.40625H14.9633C15.338 6.40625 15.6973 6.55508 15.9622 6.81999C16.2271 7.0849 16.3759 7.4442 16.3759 7.81884V9.23143M18.4948 9.23143V19.1195C18.4948 19.4942 18.346 19.8535 18.0811 20.1184C17.8162 20.3833 17.4569 20.5321 17.0822 20.5321H10.0193C9.64464 20.5321 9.28534 20.3833 9.02043 20.1184C8.75552 19.8535 8.60669 19.4942 8.60669 19.1195V9.23143H18.4948Z" stroke="#232323" stroke-linecap="round" stroke-linejoin="round"/>
<path d="M14.9632 12.7637V17.0014" stroke="#232323" stroke-linecap="round" stroke-linejoin="round"/>
<path d="M12.1381 12.7637V17.0014" stroke="#232323" stroke-linecap="round" stroke-linejoin="round"/>
</svg>
