<svg viewBox="0 0 24 25" fill="none" xmlns="http://www.w3.org/2000/svg">
<path d="M3 6.63574H5H21" stroke="#232323" stroke-linecap="round" stroke-linejoin="round"/>
<path d="M8 6.63565V4.68111C8 4.16273 8.21071 3.66558 8.58579 3.29904C8.96086 2.93249 9.46957 2.72656 10 2.72656H14C14.5304 2.72656 15.0391 2.93249 15.4142 3.29904C15.7893 3.66558 16 4.16273 16 4.68111V6.63565M19 6.63565V20.3175C19 20.8358 18.7893 21.333 18.4142 21.6995C18.0391 22.0661 17.5304 22.272 17 22.272H7C6.46957 22.272 5.96086 22.0661 5.58579 21.6995C5.21071 21.333 5 20.8358 5 20.3175V6.63565H19Z" stroke="#232323" stroke-linecap="round" stroke-linejoin="round"/>
<path d="M14 11.5225V17.3861" stroke="#232323" stroke-linecap="round" stroke-linejoin="round"/>
<path d="M10 11.5225V17.3861" stroke="#232323" stroke-linecap="round" stroke-linejoin="round"/>
</svg>
