<svg width="24" height="34" viewBox="0 0 24 34" fill="none" xmlns="http://www.w3.org/2000/svg">
<path d="M12.1243 25.6193H9.56367C9.3808 25.6193 9.22833 25.4669 9.22833 25.284C9.22833 25.1011 9.3808 24.9487 9.56367 24.9487H12.1243C12.3072 24.9487 12.4596 25.1011 12.4596 25.284C12.4596 25.4669 12.3072 25.6193 12.1243 25.6193Z" fill="#232323" stroke="#232323" stroke-width="0.5"/>
<path d="M12.1243 15.651H3.58873C2.88764 15.651 2.24737 15.3156 1.85101 14.7364L1.27176 13.8828C0.93642 13.3646 0.906012 12.7854 1.21073 12.2368C1.48504 11.7186 2.00327 11.4137 2.61312 11.4137H9.56354C9.74641 11.4137 9.89888 11.5661 9.89888 11.749C9.89888 11.9319 9.74641 12.0843 9.56354 12.0843H2.58263C2.24729 12.0843 1.94235 12.2672 1.7595 12.5721C1.60704 12.8771 1.60704 13.2428 1.78991 13.5171L2.36917 14.3706C2.64348 14.767 3.07025 14.9803 3.55805 14.9803H12.0937C12.2765 14.9803 12.429 15.1327 12.429 15.3156C12.4596 15.4987 12.3072 15.651 12.1243 15.651L12.1243 15.651Z" fill="#232323" stroke="#232323" stroke-width="0.5"/>
<path d="M10.5391 33.4843C10.4781 33.4843 10.4173 33.4539 10.3563 33.4233C10.2648 33.3622 10.2038 33.2708 10.2038 33.1794L9.25883 25.4059L3.34488 16.8703C3.22303 16.718 3.28406 16.5045 3.43632 16.4131C3.58878 16.3216 3.80206 16.352 3.89349 16.5045L9.83793 25.1316C9.86834 25.162 9.89896 25.223 9.89896 25.284L10.8135 32.6917L13.6485 31.5333L14.3498 25.2535C14.3498 25.1925 14.3802 25.1316 14.4108 25.101L22.4587 13.517C22.6415 13.2427 22.6722 12.8767 22.4891 12.572C22.3366 12.2671 22.0319 12.0842 21.6659 12.0842H14.7155C14.5326 12.0842 14.3802 11.9318 14.3802 11.7489C14.3802 11.566 14.5326 11.4136 14.7155 11.4136H21.6659C22.2452 11.4136 22.7938 11.7185 23.0683 12.2367C23.3426 12.7549 23.3122 13.3646 23.0073 13.8524L14.9899 25.4059L14.2888 31.7771C14.2888 31.899 14.1974 31.9906 14.0753 32.0514L10.6612 33.4232C10.6305 33.4842 10.5697 33.4842 10.5391 33.4842L10.5391 33.4843Z" fill="#232323" stroke="#232323" stroke-width="0.5"/>
<path d="M12.1244 13.0903C12.0329 13.0903 11.9415 13.0599 11.8805 12.9684L7.06395 7.29836C6.97251 7.20693 6.97251 7.05446 7.00292 6.93262C7.03332 6.81077 7.18579 6.74974 7.30785 6.74974H9.9295V1.33534C9.9295 1.15247 10.082 1 10.2648 1C10.4477 1 10.6002 1.15247 10.6002 1.33534V7.08485C10.6002 7.26773 10.4477 7.42019 10.2648 7.42019H8.03954L12.1244 12.2367L16.2092 7.42019H13.9839C13.801 7.42019 13.6486 7.26773 13.6486 7.08485V1.33534C13.6486 1.15247 13.801 1 13.9839 1C14.1668 1 14.3193 1.15247 14.3193 1.33534V6.74953H16.9409C17.0628 6.74953 17.1848 6.81055 17.2458 6.9324C17.3069 7.05424 17.2762 7.1763 17.1848 7.29815L12.3683 12.9682C12.3073 13.029 12.2158 13.0903 12.1244 13.0903Z" fill="#232323" stroke="#232323" stroke-width="0.5"/>
</svg>
