<svg width="24" height="24" viewBox="0 0 24 24" fill="none" xmlns="http://www.w3.org/2000/svg">
<path d="M23.8702 12.1226C23.943 5.56234 18.9156 0.189755 12.6412 0.1226C6.36679 0.0554442 1.22132 5.31915 1.14849 11.8794C1.07565 18.4397 6.10303 23.8123 12.3775 23.8794C18.6519 23.9466 23.7974 18.6829 23.8702 12.1226Z" fill="#B27E09"/>
<path d="M20.8573 12.1256C20.9187 6.64071 16.7159 2.14843 11.4701 2.09177C6.22419 2.03511 1.92175 6.43552 1.8603 11.9204C1.79884 17.4052 6.00164 21.8975 11.2475 21.9542C16.4934 22.0108 20.7958 17.6104 20.8573 12.1256Z" fill="#E9B522"/>
<path d="M7.42596 23.1701C1.54897 20.909 -1.46631 14.0678 0.704427 7.9201C2.87516 1.77237 9.4224 -1.38961 15.2994 0.871471C21.1764 3.13256 24.1917 9.97366 22.021 16.1214C19.8503 22.2691 13.3029 25.4312 7.42596 23.1701ZM14.6541 2.69915C9.74053 0.808735 4.26655 3.45239 2.45166 8.59232C0.636781 13.7322 3.15775 19.452 8.07137 21.3424C12.9849 23.2328 18.459 20.5891 20.2739 15.4492C22.0886 10.3092 19.5677 4.58957 14.6541 2.69915Z" fill="#F7DE61"/>
<path d="M1.35435 8.17018C3.48491 2.1362 9.83149 -1.0209 15.6224 1.00218C15.5156 0.957209 15.4081 0.913333 15.2994 0.871471C9.42245 -1.38961 2.87516 1.77237 0.704427 7.9201C-1.46631 14.0678 1.54897 20.909 7.42596 23.1701C7.53472 23.2119 7.64377 23.2513 7.75294 23.2895C2.08943 20.9057 -0.776153 14.2042 1.35435 8.17018Z" fill="#FFF2BD"/>
<path d="M14.6554 2.6999C14.5602 2.66327 14.4647 2.62894 14.3691 2.5957C19.0957 4.59342 21.4858 10.1907 19.7061 15.231C17.9264 20.2713 12.6281 22.9107 7.79004 21.2285C7.88345 21.2679 7.97745 21.3065 8.07268 21.3432C12.9862 23.2336 18.4603 20.5899 20.2752 15.45C22.0899 10.3099 19.569 4.59031 14.6554 2.6999Z" fill="#CE9811"/>
<path d="M14.3688 16.4957C13.871 16.986 13.2018 17.2811 12.361 17.3804L12.3693 18.9019L11.014 18.8562L11.0058 17.3621C10.412 17.2964 9.85985 17.1592 9.34955 16.95C8.8389 16.741 8.39239 16.4655 8.00977 16.1238L8.58736 14.8552C9.36144 15.5025 10.196 15.8733 11.0911 15.9673L11.0754 13.1165C10.481 12.9413 9.97944 12.753 9.57105 12.5521C9.16249 12.3511 8.81981 12.0606 8.54331 11.6815C8.2667 11.3021 8.12678 10.8155 8.1235 10.2216C8.12081 9.72813 8.23783 9.2822 8.47479 8.88358C8.71175 8.4852 9.04418 8.15841 9.47248 7.90332C9.90061 7.64847 10.3936 7.49367 10.9512 7.43927L10.9429 5.91797L12.2982 5.96368L12.3065 7.47124C12.8205 7.55267 13.3042 7.69689 13.757 7.9039C14.2099 8.11114 14.592 8.36617 14.9038 8.66887L14.3262 9.93744C13.6764 9.36747 12.9747 9.01498 12.2213 8.87973L12.2377 11.8539C12.8319 12.0295 13.3245 12.2125 13.7153 12.4039C14.1061 12.5951 14.4353 12.8735 14.7031 13.2388C14.9707 13.6041 15.1062 14.0746 15.1094 14.6502C15.1134 15.3905 14.8664 16.0056 14.3688 16.4957ZM10.1601 10.9686C10.3738 11.1724 10.6758 11.3491 11.0664 11.4994L11.0519 8.85414C10.6714 8.92366 10.3732 9.07357 10.1576 9.30358C9.94166 9.53406 9.83501 9.82727 9.837 10.1836C9.83876 10.5035 9.94647 10.765 10.1601 10.9686ZM13.1079 15.5079C13.3014 15.2906 13.3974 15.0037 13.3955 14.6474C13.3939 14.3643 13.2951 14.1325 13.0994 13.9523C12.9035 13.7722 12.6192 13.6164 12.2466 13.4848L12.2601 15.9383C12.6316 15.8685 12.9142 15.7251 13.1079 15.5079Z" fill="#CE9811"/>
<path d="M9.90817 10.6404C10.1218 10.8442 10.4239 11.021 10.8145 11.1712L10.7999 8.52596C10.4193 8.59548 10.1212 8.74539 9.90565 8.97541C9.68971 9.20588 9.58306 9.49903 9.58505 9.85538C9.58681 10.1753 9.69451 10.4368 9.90817 10.6404ZM12.856 15.1797C13.0495 14.9625 13.1455 14.6755 13.1435 14.3192C13.142 14.0361 13.0431 13.8044 12.8474 13.6241C12.6515 13.444 12.3672 13.2882 11.9946 13.1566L12.0081 15.6101C12.3796 15.5403 12.6622 15.397 12.856 15.1797ZM14.1169 16.1676C13.619 16.6578 12.9498 16.9529 12.109 17.0522L12.1174 18.5737L10.7621 18.528L10.7539 17.0339C10.1601 16.9681 9.60789 16.8309 9.0976 16.6217C8.58695 16.4128 8.14043 16.1373 7.75781 15.7955L8.3354 14.5269C9.10949 15.1743 9.94401 15.545 10.8392 15.6391L10.8235 12.7883C10.2291 12.6131 9.72749 12.4247 9.3191 12.2238C8.91053 12.0228 8.56786 11.7323 8.29136 11.3533C8.01475 10.9739 7.87483 10.4873 7.87155 9.89339C7.86886 9.39995 7.98581 8.95401 8.22284 8.5554C8.4598 8.15702 8.79223 7.83023 9.22053 7.57514C9.64866 7.32029 10.1416 7.16549 10.6993 7.11109L10.6909 5.58984L12.0462 5.63556L12.0545 7.14312C12.5686 7.22455 13.0522 7.36876 13.5051 7.57583C13.9579 7.78307 14.34 8.0381 14.6518 8.3408L14.0742 9.60938C13.4245 9.0394 12.7227 8.68691 11.9693 8.55166L11.9857 11.5258C12.5799 11.7015 13.0726 11.8844 13.4634 12.0759C13.8541 12.2671 14.1833 12.5454 14.4511 12.9108C14.7188 13.2761 14.8543 13.7465 14.8575 14.3221C14.8614 15.0623 14.6145 15.6775 14.1169 16.1676Z" fill="#F7DE61"/>
</svg>
