<svg width="17" height="17" viewBox="0 0 17 17" fill="none" xmlns="http://www.w3.org/2000/svg">
<path d="M5.09284 11.9063H4.99284V11.8063V11.1604C4.99284 10.3487 4.32685 9.68691 3.50675 9.68691H2.40734C1.5873 9.68691 0.921286 10.3487 0.92131 11.1603V12.6038V14.6054C0.92131 15.4171 1.5873 16.0789 2.40737 16.0789H4.60868H13.1869H15.3896C15.786 16.0789 16.1584 15.9262 16.4389 15.6488C16.7195 15.3714 16.8744 15.0029 16.8757 14.6104L16.8824 12.6073L16.886 11.5444H16.8743V11.4444V11.1604C16.8743 10.3487 16.2083 9.68691 15.3882 9.68691H14.2721C13.452 9.68691 12.786 10.3487 12.786 11.1604V11.8063V11.9063H12.686H5.09284ZM15.9056 12.5038H15.9141L15.9138 12.6041L15.907 14.6072C15.906 14.8912 15.6739 15.1195 15.3896 15.1195H13.1869H4.60865H2.40734C2.12237 15.1195 1.88996 14.8901 1.88996 14.6054V12.6038V11.1604C1.88996 10.8757 2.12238 10.6463 2.40734 10.6463H3.50678C3.79178 10.6463 4.02417 10.8757 4.02417 11.1604V12.5517C4.02417 12.7244 4.16553 12.8657 4.34155 12.8657H13.4374C13.6134 12.8657 13.7547 12.7244 13.7547 12.5517V11.1604C13.7547 10.8757 13.9871 10.6463 14.2721 10.6463H15.3882C15.6732 10.6463 15.9056 10.8757 15.9056 11.1604V12.5038Z" fill="#7C7C7C" stroke="white" stroke-width="0.2"/>
<mask id="path-2-inside-1_110_20699" fill="white">
<path d="M2.40734 16.1923H15.3896C15.8159 16.1923 16.2169 16.0279 16.5189 15.7294C16.8208 15.4308 16.9879 15.0335 16.9893 14.6106L17 11.4307H16.9879V11.1602C16.9879 10.2852 16.2703 9.57324 15.3882 9.57324H14.2721C13.39 9.57324 12.6724 10.2852 12.6724 11.1602V11.7927H5.10649V11.1602C5.10649 10.2852 4.38886 9.57324 3.50676 9.57324H2.40734C1.52527 9.57324 0.807644 10.2852 0.807644 11.1602V14.6053C0.807644 15.4804 1.52527 16.1923 2.40734 16.1923ZM16.9726 11.4578L16.962 14.6105C16.9606 15.0262 16.7964 15.4167 16.4996 15.7102C16.2028 16.0036 15.8086 16.1652 15.3896 16.1652H2.40734C1.54033 16.1652 0.834925 15.4655 0.834925 14.6053V11.1602C0.834925 10.3001 1.5403 9.60031 2.40734 9.60031H3.50676C4.3738 9.60031 5.0792 10.3001 5.0792 11.1602V11.8197H12.6997V11.1602C12.6997 10.3001 13.4051 9.60031 14.2721 9.60031H15.3882C16.2553 9.60031 16.9606 10.3001 16.9606 11.1602V11.4578H16.9726ZM2.40734 15.0329H15.3896C15.6265 15.0329 15.8198 14.8418 15.8206 14.6068L15.8274 12.5901H15.8192V11.1602C15.8192 10.9245 15.6259 10.7326 15.3882 10.7326H14.2721C14.0344 10.7326 13.8411 10.9245 13.8411 11.1602V12.5515C13.8411 12.7724 13.66 12.9521 13.4373 12.9521H4.34153C4.11892 12.9521 3.93778 12.7724 3.93778 12.5515V11.1602C3.93778 10.9245 3.74442 10.7326 3.50676 10.7326H2.40732C2.16965 10.7326 1.97629 10.9245 1.97629 11.1602V14.6053C1.97632 14.8411 2.16968 15.0329 2.40734 15.0329ZM15.8001 12.6172L15.7934 14.6067C15.7926 14.8268 15.6115 15.0059 15.3896 15.0059H2.40734C2.18471 15.0059 2.0036 14.8262 2.0036 14.6053V11.1602C2.0036 10.9394 2.18471 10.7597 2.40734 10.7597H3.50679C3.72942 10.7597 3.91053 10.9394 3.91053 11.1602V12.5515C3.91053 12.7873 4.10389 12.9791 4.34155 12.9791H13.4374C13.675 12.9791 13.8684 12.7873 13.8684 12.5515V11.1602C13.8684 10.9394 14.0495 10.7597 14.2721 10.7597H15.3882C15.6109 10.7597 15.792 10.9394 15.792 11.1602V12.6172H15.8001Z"/>
</mask>
<path d="M2.40734 16.1923H15.3896C15.8159 16.1923 16.2169 16.0279 16.5189 15.7294C16.8208 15.4308 16.9879 15.0335 16.9893 14.6106L17 11.4307H16.9879V11.1602C16.9879 10.2852 16.2703 9.57324 15.3882 9.57324H14.2721C13.39 9.57324 12.6724 10.2852 12.6724 11.1602V11.7927H5.10649V11.1602C5.10649 10.2852 4.38886 9.57324 3.50676 9.57324H2.40734C1.52527 9.57324 0.807644 10.2852 0.807644 11.1602V14.6053C0.807644 15.4804 1.52527 16.1923 2.40734 16.1923ZM16.9726 11.4578L16.962 14.6105C16.9606 15.0262 16.7964 15.4167 16.4996 15.7102C16.2028 16.0036 15.8086 16.1652 15.3896 16.1652H2.40734C1.54033 16.1652 0.834925 15.4655 0.834925 14.6053V11.1602C0.834925 10.3001 1.5403 9.60031 2.40734 9.60031H3.50676C4.3738 9.60031 5.0792 10.3001 5.0792 11.1602V11.8197H12.6997V11.1602C12.6997 10.3001 13.4051 9.60031 14.2721 9.60031H15.3882C16.2553 9.60031 16.9606 10.3001 16.9606 11.1602V11.4578H16.9726ZM2.40734 15.0329H15.3896C15.6265 15.0329 15.8198 14.8418 15.8206 14.6068L15.8274 12.5901H15.8192V11.1602C15.8192 10.9245 15.6259 10.7326 15.3882 10.7326H14.2721C14.0344 10.7326 13.8411 10.9245 13.8411 11.1602V12.5515C13.8411 12.7724 13.66 12.9521 13.4373 12.9521H4.34153C4.11892 12.9521 3.93778 12.7724 3.93778 12.5515V11.1602C3.93778 10.9245 3.74442 10.7326 3.50676 10.7326H2.40732C2.16965 10.7326 1.97629 10.9245 1.97629 11.1602V14.6053C1.97632 14.8411 2.16968 15.0329 2.40734 15.0329ZM15.8001 12.6172L15.7934 14.6067C15.7926 14.8268 15.6115 15.0059 15.3896 15.0059H2.40734C2.18471 15.0059 2.0036 14.8262 2.0036 14.6053V11.1602C2.0036 10.9394 2.18471 10.7597 2.40734 10.7597H3.50679C3.72942 10.7597 3.91053 10.9394 3.91053 11.1602V12.5515C3.91053 12.7873 4.10389 12.9791 4.34155 12.9791H13.4374C13.675 12.9791 13.8684 12.7873 13.8684 12.5515V11.1602C13.8684 10.9394 14.0495 10.7597 14.2721 10.7597H15.3882C15.6109 10.7597 15.792 10.9394 15.792 11.1602V12.6172H15.8001Z" fill="#7C7C7C"/>
<path d="M16.5189 15.7294L16.6595 15.8716L16.6595 15.8716L16.5189 15.7294ZM16.9893 14.6106L16.7893 14.6099V14.6099L16.9893 14.6106ZM17 11.4307V11.2307H17.2007L17.2 11.4314L17 11.4307ZM16.9879 11.4307V11.6307H16.7879V11.4307H16.9879ZM12.6724 11.7927H12.8724V11.9927H12.6724V11.7927ZM5.10649 11.7927V11.9927H4.90648V11.7927H5.10649ZM16.9726 11.4578V11.2578H17.1733L17.1726 11.4585L16.9726 11.4578ZM16.962 14.6105L17.162 14.6112L17.162 14.6112L16.962 14.6105ZM5.0792 11.8197V12.0197H4.8792V11.8197H5.0792ZM12.6997 11.8197H12.8997V12.0197H12.6997V11.8197ZM16.9606 11.4578V11.6578H16.7606V11.4578H16.9606ZM15.8206 14.6068L15.6206 14.6061V14.6061L15.8206 14.6068ZM15.8274 12.5901V12.3901H16.0281L16.0274 12.5908L15.8274 12.5901ZM15.8192 12.5901V12.7901H15.6192V12.5901H15.8192ZM1.97629 14.6053L1.77629 14.6053V14.6053H1.97629ZM15.7934 14.6067L15.5934 14.606V14.606L15.7934 14.6067ZM15.792 12.6172V12.8172H15.592V12.6172H15.792ZM2.40734 15.9923H15.3896V16.3923H2.40734V15.9923ZM15.3896 15.9923C15.7635 15.9923 16.1139 15.8485 16.3783 15.5871L16.6595 15.8716C16.3199 16.2073 15.8683 16.3923 15.3896 16.3923V15.9923ZM16.3783 15.5872C16.6425 15.3259 16.7881 14.9794 16.7893 14.6099L17.1893 14.6113C17.1877 15.0876 16.9991 15.5358 16.6595 15.8716L16.3783 15.5872ZM16.7893 14.6099L16.8 11.4301L17.2 11.4314L17.1893 14.6113L16.7893 14.6099ZM17 11.6307H16.9879V11.2307H17V11.6307ZM16.7879 11.4307V11.1602H17.1879V11.4307H16.7879ZM16.7879 11.1602C16.7879 10.3971 16.1613 9.77324 15.3882 9.77324V9.37324C16.3792 9.37324 17.1879 10.1732 17.1879 11.1602H16.7879ZM15.3882 9.77324H14.2721V9.37324H15.3882V9.77324ZM14.2721 9.77324C13.499 9.77324 12.8724 10.3971 12.8724 11.1602H12.4724C12.4724 10.1732 13.2811 9.37324 14.2721 9.37324V9.77324ZM12.8724 11.1602V11.7927H12.4724V11.1602H12.8724ZM12.6724 11.9927H5.10649V11.5927H12.6724V11.9927ZM4.90648 11.7927V11.1602H5.30649V11.7927H4.90648ZM4.90648 11.1602C4.90648 10.3971 4.27991 9.77324 3.50676 9.77324V9.37324C4.49781 9.37324 5.30649 10.1732 5.30649 11.1602H4.90648ZM3.50676 9.77324H2.40734V9.37324H3.50676V9.77324ZM2.40734 9.77324C1.63422 9.77324 1.00764 10.3971 1.00764 11.1602H0.607645C0.607645 10.1732 1.41632 9.37324 2.40734 9.37324V9.77324ZM1.00764 11.1602V14.6053H0.607645V11.1602H1.00764ZM1.00764 14.6053C1.00764 15.3684 1.63422 15.9923 2.40734 15.9923V16.3923C1.41632 16.3923 0.607645 15.5924 0.607645 14.6053H1.00764ZM17.1726 11.4585L17.162 14.6112L16.762 14.6098L16.7726 11.4571L17.1726 11.4585ZM17.162 14.6112C17.1604 15.0803 16.9747 15.5217 16.6402 15.8524L16.359 15.568C16.6181 15.3118 16.7608 14.9721 16.762 14.6098L17.162 14.6112ZM16.6402 15.8524C16.3058 16.183 15.861 16.3652 15.3896 16.3652V15.9652C15.7562 15.9652 16.0998 15.8242 16.359 15.568L16.6402 15.8524ZM15.3896 16.3652H2.40734V15.9652H15.3896V16.3652ZM2.40734 16.3652C1.43138 16.3652 0.634924 15.5774 0.634924 14.6053H1.03492C1.03492 15.3535 1.64928 15.9652 2.40734 15.9652V16.3652ZM0.634924 14.6053V11.1602H1.03492V14.6053H0.634924ZM0.634924 11.1602C0.634924 10.1882 1.43135 9.40031 2.40734 9.40031V9.80031C1.64926 9.80031 1.03492 10.4121 1.03492 11.1602H0.634924ZM2.40734 9.40031H3.50676V9.80031H2.40734V9.40031ZM3.50676 9.40031C4.48275 9.40031 5.27921 10.1881 5.27921 11.1602H4.8792C4.8792 10.412 4.26485 9.80031 3.50676 9.80031V9.40031ZM5.27921 11.1602V11.8197H4.8792V11.1602H5.27921ZM5.0792 11.6197H12.6997V12.0197H5.0792V11.6197ZM12.4997 11.8197V11.1602H12.8997V11.8197H12.4997ZM12.4997 11.1602C12.4997 10.1882 13.2961 9.40031 14.2721 9.40031V9.80031C13.514 9.80031 12.8997 10.4121 12.8997 11.1602H12.4997ZM14.2721 9.40031H15.3882V9.80031H14.2721V9.40031ZM15.3882 9.40031C16.3642 9.40031 17.1606 10.1881 17.1606 11.1602H16.7606C16.7606 10.412 16.1463 9.80031 15.3882 9.80031V9.40031ZM17.1606 11.1602V11.4578H16.7606V11.1602H17.1606ZM16.9606 11.2578H16.9726V11.6578H16.9606V11.2578ZM2.40734 14.8329H15.3896V15.2329H2.40734V14.8329ZM15.3896 14.8329C15.5178 14.8329 15.6202 14.7294 15.6206 14.6061L16.0206 14.6074C16.0195 14.9541 15.7352 15.2329 15.3896 15.2329V14.8329ZM15.6206 14.6061L15.6274 12.5895L16.0274 12.5908L16.0206 14.6074L15.6206 14.6061ZM15.8274 12.7901H15.8192V12.3901H15.8274V12.7901ZM15.6192 12.5901V11.1602H16.0192V12.5901H15.6192ZM15.6192 11.1602C15.6192 11.0364 15.5169 10.9326 15.3882 10.9326V10.5326C15.7348 10.5326 16.0192 10.8125 16.0192 11.1602H15.6192ZM15.3882 10.9326H14.2721V10.5326H15.3882V10.9326ZM14.2721 10.9326C14.1434 10.9326 14.0411 11.0364 14.0411 11.1602H13.6411C13.6411 10.8125 13.9255 10.5326 14.2721 10.5326V10.9326ZM14.0411 11.1602V12.5515H13.6411V11.1602H14.0411ZM14.0411 12.5515C14.0411 12.8843 13.7689 13.1521 13.4373 13.1521V12.7521C13.551 12.7521 13.6411 12.6604 13.6411 12.5515H14.0411ZM13.4373 13.1521H4.34153V12.7521H13.4373V13.1521ZM4.34153 13.1521C4.00997 13.1521 3.73778 12.8843 3.73778 12.5515H4.13778C4.13778 12.6604 4.22787 12.7521 4.34153 12.7521V13.1521ZM3.73778 12.5515V11.1602H4.13778V12.5515H3.73778ZM3.73778 11.1602C3.73778 11.0364 3.63547 10.9326 3.50676 10.9326V10.5326C3.85337 10.5326 4.13778 10.8125 4.13778 11.1602H3.73778ZM3.50676 10.9326H2.40732V10.5326H3.50676V10.9326ZM2.40732 10.9326C2.27861 10.9326 2.17629 11.0364 2.17629 11.1602H1.77629C1.77629 10.8125 2.06071 10.5326 2.40732 10.5326V10.9326ZM2.17629 11.1602V14.6053H1.77629V11.1602H2.17629ZM2.17629 14.6053C2.17631 14.7292 2.27865 14.8329 2.40734 14.8329V15.2329C2.06072 15.2329 1.77633 14.9531 1.77629 14.6053L2.17629 14.6053ZM16.0001 12.6179L15.9933 14.6073L15.5934 14.606L15.6001 12.6165L16.0001 12.6179ZM15.9933 14.6073C15.9922 14.9391 15.7202 15.2059 15.3896 15.2059V14.8059C15.5028 14.8059 15.593 14.7144 15.5934 14.606L15.9933 14.6073ZM15.3896 15.2059H2.40734V14.8059H15.3896V15.2059ZM2.40734 15.2059C2.07574 15.2059 1.8036 14.9381 1.8036 14.6053H2.2036C2.2036 14.7142 2.29368 14.8059 2.40734 14.8059V15.2059ZM1.8036 14.6053V11.1602H2.2036V14.6053H1.8036ZM1.8036 11.1602C1.8036 10.8275 2.07575 10.5597 2.40734 10.5597V10.9597C2.29367 10.9597 2.2036 11.0514 2.2036 11.1602H1.8036ZM2.40734 10.5597H3.50679V10.9597H2.40734V10.5597ZM3.50679 10.5597C3.83838 10.5597 4.11053 10.8275 4.11053 11.1602H3.71053C3.71053 11.0514 3.62046 10.9597 3.50679 10.9597V10.5597ZM4.11053 11.1602V12.5515H3.71053V11.1602H4.11053ZM4.11053 12.5515C4.11053 12.6753 4.21284 12.7791 4.34155 12.7791V13.1791C3.99494 13.1791 3.71053 12.8992 3.71053 12.5515H4.11053ZM4.34155 12.7791H13.4374V13.1791H4.34155V12.7791ZM13.4374 12.7791C13.5661 12.7791 13.6684 12.6753 13.6684 12.5515H14.0684C14.0684 12.8992 13.784 13.1791 13.4374 13.1791V12.7791ZM13.6684 12.5515V11.1602H14.0684V12.5515H13.6684ZM13.6684 11.1602C13.6684 10.8275 13.9405 10.5597 14.2721 10.5597V10.9597C14.1585 10.9597 14.0684 11.0514 14.0684 11.1602H13.6684ZM14.2721 10.5597H15.3882V10.9597H14.2721V10.5597ZM15.3882 10.5597C15.7198 10.5597 15.992 10.8275 15.992 11.1602H15.592C15.592 11.0514 15.5019 10.9597 15.3882 10.9597V10.5597ZM15.992 11.1602V12.6172H15.592V11.1602H15.992ZM15.792 12.4172H15.8001V12.8172H15.792V12.4172Z" fill="white" mask="url(#path-2-inside-1_110_20699)"/>
<path d="M11.9877 4.00463H12.0877H12.4717C12.7747 4.00463 13.065 4.09352 13.3118 4.26136L11.9877 4.00463ZM11.9877 4.00463V3.90463M11.9877 4.00463V3.90463M11.9877 3.90463V1.58714C11.9877 0.775517 11.3217 0.113672 10.5016 0.113672H7.30322C6.48316 0.113672 5.81719 0.775516 5.81716 1.58714V3.90463V4.00463H5.71716H5.33317C5.03015 4.00463 4.73984 4.0935 4.49301 4.26136C4.26531 4.41626 4.08569 4.63132 3.97354 4.8834L3.97353 4.88341C3.86136 5.13549 3.82233 5.4119 3.8604 5.68285C3.90168 5.97653 4.03094 6.24891 4.23499 6.47077L4.235 6.47078L7.80426 10.3526L7.73064 10.4203L7.80426 10.3526C8.08504 10.658 8.48539 10.8334 8.90243 10.8334C9.3195 10.8334 9.71985 10.658 10.0006 10.3526L10.0727 10.4188L10.0006 10.3526L13.5699 6.47078C13.7739 6.24891 13.9032 5.97652 13.9444 5.68286L13.9444 5.68285C13.9825 5.4119 13.9435 5.13548 13.8313 4.8834L13.8313 4.8834M11.9877 3.90463L13.8313 4.8834M13.8313 4.8834C13.7192 4.6313 13.5395 4.41624 13.3118 4.26137L13.8313 4.8834ZM9.28442 9.70667L9.2844 9.70668C9.18176 9.81828 9.04178 9.87398 8.90243 9.87398C8.7631 9.87398 8.62311 9.81832 8.52045 9.70667L8.59406 9.63898L8.52044 9.70667L4.95121 5.82483C4.64673 5.4937 4.88507 4.96403 5.3332 4.96403H6.46845C6.6445 4.96403 6.78587 4.82265 6.78587 4.64996V1.58714C6.78587 1.30247 7.01826 1.07307 7.30325 1.07307H10.5016C10.7866 1.07307 11.019 1.30247 11.019 1.58714V4.64998C11.019 4.82269 11.1603 4.96405 11.3364 4.96405H12.4716C12.9198 4.96405 13.1581 5.49373 12.8536 5.82486C12.8536 5.82486 12.8536 5.82486 12.8536 5.82486L9.28442 9.70667Z" fill="#7C7C7C" stroke="white" stroke-width="0.2"/>
<mask id="path-5-inside-2_110_20699" fill="white">
<path d="M8.90244 10.9468C9.35114 10.9468 9.78192 10.7582 10.0843 10.4293L13.6536 6.54745C13.873 6.3088 14.0125 6.01525 14.057 5.6985C14.0981 5.4064 14.0559 5.10854 13.9352 4.83715C13.8145 4.56578 13.621 4.33418 13.3758 4.16736C13.1099 3.98652 12.7973 3.89093 12.4717 3.89093H12.1013V1.587C12.1013 0.71193 11.3837 0 10.5016 0H7.30326C6.42118 0 5.70356 0.71193 5.70356 1.587V3.89096H5.3332C5.00764 3.89096 4.69501 3.98655 4.42909 4.16738C4.18387 4.3342 3.99043 4.56578 3.86971 4.83718C3.74894 5.10854 3.70682 5.4064 3.74788 5.69852C3.7924 6.01535 3.93191 6.30891 4.15132 6.54747L7.72059 10.4293C8.02298 10.7582 8.45376 10.9468 8.90244 10.9468ZM12.4717 3.91802C12.7917 3.91802 13.099 4.01196 13.3603 4.18971C13.6014 4.35366 13.7915 4.58132 13.9102 4.84808C14.0289 5.11485 14.0703 5.40765 14.03 5.69479C13.9862 6.0061 13.8491 6.29465 13.6334 6.52923L10.0642 10.411C9.76691 10.7343 9.3435 10.9197 8.90244 10.9197C8.4614 10.9197 8.03799 10.7343 7.74072 10.411L4.17151 6.52921C3.95586 6.29468 3.8187 6.00613 3.77494 5.69476C3.73459 5.40762 3.776 5.11485 3.8947 4.84808C4.0134 4.58132 4.20351 4.35363 4.44456 4.18971C4.7059 4.01196 5.01321 3.91802 5.33323 3.91802H5.73086V1.587C5.73086 0.726842 6.43624 0.0270634 7.30328 0.0270634H10.5016C11.3687 0.0270634 12.0741 0.726842 12.0741 1.587V3.91802H12.4717ZM8.90244 9.78737C9.02334 9.78737 9.13942 9.73654 9.22088 9.64797L12.7901 5.76615C12.9069 5.63917 12.936 5.46258 12.866 5.30532C12.7961 5.14805 12.645 5.05038 12.4717 5.05038H11.3364C11.1138 5.05038 10.9326 4.87071 10.9326 4.64984V1.587C10.9326 1.35122 10.7393 1.1594 10.5016 1.1594H7.30328C7.06562 1.1594 6.87226 1.35122 6.87226 1.587V4.64982C6.87226 4.87068 6.69112 5.05035 6.46849 5.05035H5.3332C5.15992 5.05035 5.00882 5.14805 4.93887 5.30532C4.86892 5.46258 4.898 5.63915 5.01476 5.76613L8.58403 9.64797C8.66548 9.73657 8.78156 9.78737 8.90244 9.78737ZM12.4717 5.07742C12.634 5.07742 12.7755 5.16892 12.841 5.31623C12.9066 5.46353 12.8793 5.62894 12.77 5.74789L9.20072 9.62972C9.12442 9.7127 9.01568 9.76031 8.90244 9.76031C8.7892 9.76031 8.68046 9.7127 8.60413 9.62972L5.03492 5.74789C4.92556 5.62894 4.8983 5.46356 4.96386 5.31625C5.02938 5.16895 5.17094 5.07742 5.33323 5.07742H6.46851C6.70621 5.07742 6.89957 4.88559 6.89957 4.64982V1.587C6.89957 1.36613 7.08071 1.18646 7.30331 1.18646H10.5016C10.7243 1.18646 10.9054 1.36613 10.9054 1.587V4.64982C10.9054 4.88559 11.0988 5.07742 11.3364 5.07742H12.4717Z"/>
</mask>
<path d="M8.90244 10.9468C9.35114 10.9468 9.78192 10.7582 10.0843 10.4293L13.6536 6.54745C13.873 6.3088 14.0125 6.01525 14.057 5.6985C14.0981 5.4064 14.0559 5.10854 13.9352 4.83715C13.8145 4.56578 13.621 4.33418 13.3758 4.16736C13.1099 3.98652 12.7973 3.89093 12.4717 3.89093H12.1013V1.587C12.1013 0.71193 11.3837 0 10.5016 0H7.30326C6.42118 0 5.70356 0.71193 5.70356 1.587V3.89096H5.3332C5.00764 3.89096 4.69501 3.98655 4.42909 4.16738C4.18387 4.3342 3.99043 4.56578 3.86971 4.83718C3.74894 5.10854 3.70682 5.4064 3.74788 5.69852C3.7924 6.01535 3.93191 6.30891 4.15132 6.54747L7.72059 10.4293C8.02298 10.7582 8.45376 10.9468 8.90244 10.9468ZM12.4717 3.91802C12.7917 3.91802 13.099 4.01196 13.3603 4.18971C13.6014 4.35366 13.7915 4.58132 13.9102 4.84808C14.0289 5.11485 14.0703 5.40765 14.03 5.69479C13.9862 6.0061 13.8491 6.29465 13.6334 6.52923L10.0642 10.411C9.76691 10.7343 9.3435 10.9197 8.90244 10.9197C8.4614 10.9197 8.03799 10.7343 7.74072 10.411L4.17151 6.52921C3.95586 6.29468 3.8187 6.00613 3.77494 5.69476C3.73459 5.40762 3.776 5.11485 3.8947 4.84808C4.0134 4.58132 4.20351 4.35363 4.44456 4.18971C4.7059 4.01196 5.01321 3.91802 5.33323 3.91802H5.73086V1.587C5.73086 0.726842 6.43624 0.0270634 7.30328 0.0270634H10.5016C11.3687 0.0270634 12.0741 0.726842 12.0741 1.587V3.91802H12.4717ZM8.90244 9.78737C9.02334 9.78737 9.13942 9.73654 9.22088 9.64797L12.7901 5.76615C12.9069 5.63917 12.936 5.46258 12.866 5.30532C12.7961 5.14805 12.645 5.05038 12.4717 5.05038H11.3364C11.1138 5.05038 10.9326 4.87071 10.9326 4.64984V1.587C10.9326 1.35122 10.7393 1.1594 10.5016 1.1594H7.30328C7.06562 1.1594 6.87226 1.35122 6.87226 1.587V4.64982C6.87226 4.87068 6.69112 5.05035 6.46849 5.05035H5.3332C5.15992 5.05035 5.00882 5.14805 4.93887 5.30532C4.86892 5.46258 4.898 5.63915 5.01476 5.76613L8.58403 9.64797C8.66548 9.73657 8.78156 9.78737 8.90244 9.78737ZM12.4717 5.07742C12.634 5.07742 12.7755 5.16892 12.841 5.31623C12.9066 5.46353 12.8793 5.62894 12.77 5.74789L9.20072 9.62972C9.12442 9.7127 9.01568 9.76031 8.90244 9.76031C8.7892 9.76031 8.68046 9.7127 8.60413 9.62972L5.03492 5.74789C4.92556 5.62894 4.8983 5.46356 4.96386 5.31625C5.02938 5.16895 5.17094 5.07742 5.33323 5.07742H6.46851C6.70621 5.07742 6.89957 4.88559 6.89957 4.64982V1.587C6.89957 1.36613 7.08071 1.18646 7.30331 1.18646H10.5016C10.7243 1.18646 10.9054 1.36613 10.9054 1.587V4.64982C10.9054 4.88559 11.0988 5.07742 11.3364 5.07742H12.4717Z" fill="#7C7C7C"/>
<path d="M10.0843 10.4293L9.93709 10.2939L9.93709 10.2939L10.0843 10.4293ZM13.6536 6.54745L13.8008 6.68281L13.8008 6.68282L13.6536 6.54745ZM14.057 5.6985L13.8589 5.67068L13.8589 5.67066L14.057 5.6985ZM13.9352 4.83715L13.7525 4.91845L13.7525 4.91844L13.9352 4.83715ZM13.3758 4.16736L13.4883 4.00197L13.4883 4.00199L13.3758 4.16736ZM12.1013 3.89093V4.09093H11.9013V3.89093H12.1013ZM5.70356 3.89096H5.90356V4.09096H5.70356V3.89096ZM4.42909 4.16738L4.31659 4.00202L4.31662 4.002L4.42909 4.16738ZM3.86971 4.83718L4.05245 4.91846L4.05243 4.91849L3.86971 4.83718ZM3.74788 5.69852L3.94593 5.67069V5.67069L3.74788 5.69852ZM4.15132 6.54747L4.29853 6.41209L4.29855 6.4121L4.15132 6.54747ZM7.72059 10.4293L7.86781 10.2939L7.86782 10.2939L7.72059 10.4293ZM13.3603 4.18971L13.4728 4.02434L13.4728 4.02434L13.3603 4.18971ZM13.9102 4.84808L13.7275 4.92939L13.7275 4.92937L13.9102 4.84808ZM14.03 5.69479L13.8319 5.66697L13.8319 5.66696L14.03 5.69479ZM13.6334 6.52923L13.4862 6.39386L13.4862 6.39386L13.6334 6.52923ZM10.0642 10.411L9.91693 10.2756L10.0642 10.411ZM7.74072 10.411L7.5935 10.5464L7.59349 10.5464L7.74072 10.411ZM4.17151 6.52921L4.31873 6.39384L4.31874 6.39384L4.17151 6.52921ZM3.77494 5.69476L3.57689 5.72259V5.72259L3.77494 5.69476ZM4.44456 4.18971L4.55704 4.35509L4.55702 4.35509L4.44456 4.18971ZM5.73086 3.91802H5.93086V4.11802H5.73086V3.91802ZM12.0741 3.91802V4.11802H11.8741V3.91802H12.0741ZM9.22088 9.64797L9.3681 9.78333L9.36809 9.78335L9.22088 9.64797ZM12.7901 5.76615L12.6429 5.63078L12.6429 5.63077L12.7901 5.76615ZM12.866 5.30532L12.6833 5.38662L12.6833 5.3866L12.866 5.30532ZM5.01476 5.76613L5.16199 5.63076L5.16199 5.63076L5.01476 5.76613ZM8.58403 9.64797L8.73125 9.5126L8.73126 9.51261L8.58403 9.64797ZM12.77 5.74789L12.6227 5.61252L12.6227 5.6125L12.77 5.74789ZM9.20072 9.62972L9.34794 9.76509L9.34794 9.7651L9.20072 9.62972ZM8.60413 9.62972L8.45694 9.76513L8.45691 9.76509L8.60413 9.62972ZM5.03492 5.74789L5.18215 5.61252V5.61252L5.03492 5.74789ZM4.96386 5.31625L5.14659 5.39754L5.14658 5.39757L4.96386 5.31625ZM8.90244 10.7468C9.29546 10.7468 9.67275 10.5814 9.93709 10.2939L10.2315 10.5646C9.89109 10.9349 9.40682 11.1468 8.90244 11.1468V10.7468ZM9.93709 10.2939L13.5064 6.41208L13.8008 6.68282L10.2315 10.5646L9.93709 10.2939ZM13.5064 6.41208C13.6987 6.20286 13.8202 5.94667 13.8589 5.67068L14.2551 5.72632C14.2048 6.08382 14.0473 6.41474 13.8008 6.68281L13.5064 6.41208ZM13.8589 5.67066C13.8947 5.41593 13.8581 5.15587 13.7525 4.91845L14.1179 4.75585C14.2538 5.06121 14.3014 5.39687 14.2551 5.72633L13.8589 5.67066ZM13.7525 4.91844C13.6469 4.68105 13.4777 4.47857 13.2633 4.33272L13.4883 4.00199C13.7644 4.18978 13.9821 4.45052 14.1179 4.75586L13.7525 4.91844ZM13.2633 4.33274C13.031 4.17475 12.7577 4.09093 12.4717 4.09093V3.69093C12.8368 3.69093 13.1888 3.79829 13.4883 4.00197L13.2633 4.33274ZM12.4717 4.09093H12.1013V3.69093H12.4717V4.09093ZM11.9013 3.89093V1.587H12.3013V3.89093H11.9013ZM11.9013 1.587C11.9013 0.823887 11.2748 0.2 10.5016 0.2V-0.2C11.4927 -0.2 12.3013 0.599972 12.3013 1.587H11.9013ZM10.5016 0.2H7.30326V-0.2H10.5016V0.2ZM7.30326 0.2C6.53014 0.2 5.90356 0.823887 5.90356 1.587H5.50356C5.50356 0.599972 6.31223 -0.2 7.30326 -0.2V0.2ZM5.90356 1.587V3.89096H5.50356V1.587H5.90356ZM5.70356 4.09096H5.3332V3.69096H5.70356V4.09096ZM5.3332 4.09096C5.04723 4.09096 4.77388 4.17478 4.54155 4.33277L4.31662 4.002C4.61615 3.79831 4.96806 3.69096 5.3332 3.69096V4.09096ZM4.54158 4.33275C4.32718 4.4786 4.15805 4.68105 4.05245 4.91846L3.68697 4.75589C3.8228 4.45052 4.04056 4.1898 4.31659 4.00202L4.54158 4.33275ZM4.05243 4.91849C3.94679 5.15587 3.91013 5.41593 3.94593 5.67069L3.54983 5.72636C3.50352 5.39687 3.5511 5.06121 3.68699 4.75586L4.05243 4.91849ZM3.94593 5.67069C3.98473 5.94678 4.1062 6.20297 4.29853 6.41209L4.00412 6.68286C3.75762 6.41485 3.60007 6.08392 3.54982 5.72635L3.94593 5.67069ZM4.29855 6.4121L7.86781 10.2939L7.57336 10.5646L4.0041 6.68285L4.29855 6.4121ZM7.86782 10.2939C8.13215 10.5814 8.50944 10.7468 8.90244 10.7468V11.1468C8.39809 11.1468 7.91382 10.9349 7.57335 10.5646L7.86782 10.2939ZM12.4717 3.71802C12.8313 3.71802 13.1779 3.82372 13.4728 4.02434L13.2479 4.35509C13.0201 4.2002 12.7521 4.11802 12.4717 4.11802V3.71802ZM13.4728 4.02434C13.7447 4.20926 13.9592 4.46606 14.0929 4.76679L13.7275 4.92937C13.6239 4.69658 13.4581 4.49806 13.2479 4.35508L13.4728 4.02434ZM14.0929 4.76678C14.2267 5.06752 14.2736 5.39811 14.228 5.72262L13.8319 5.66696C13.867 5.41718 13.8311 5.16218 13.7275 4.92939L14.0929 4.76678ZM14.228 5.72261C14.1786 6.07468 14.0234 6.4006 13.7806 6.66461L13.4862 6.39386C13.6748 6.1887 13.7939 5.93751 13.8319 5.66697L14.228 5.72261ZM13.7806 6.6646L10.2114 10.5464L9.91693 10.2756L13.4862 6.39386L13.7806 6.6646ZM10.2114 10.5464C9.87609 10.911 9.39919 11.1197 8.90244 11.1197V10.7197C9.28781 10.7197 9.65774 10.5575 9.91693 10.2756L10.2114 10.5464ZM8.90244 11.1197C8.40571 11.1197 7.92882 10.911 7.5935 10.5464L7.88794 10.2756C8.14716 10.5575 8.5171 10.7197 8.90244 10.7197V11.1197ZM7.59349 10.5464L4.02429 6.66458L4.31874 6.39384L7.88794 10.2756L7.59349 10.5464ZM4.02429 6.66458C3.78158 6.40062 3.62637 6.07472 3.57689 5.72259L3.97299 5.66693C4.01102 5.93753 4.13014 6.18873 4.31873 6.39384L4.02429 6.66458ZM3.57689 5.72259C3.53129 5.39808 3.57816 5.06751 3.71197 4.76678L4.07743 4.92939C3.97385 5.16218 3.9379 5.41716 3.97299 5.66693L3.57689 5.72259ZM3.71197 4.76678C3.84577 4.46607 4.06018 4.20924 4.33209 4.02433L4.55702 4.35509C4.34684 4.49803 4.18102 4.69656 4.07743 4.92939L3.71197 4.76678ZM4.33208 4.02434C4.62704 3.82372 4.97364 3.71802 5.33323 3.71802V4.11802C5.05278 4.11802 4.78476 4.2002 4.55704 4.35509L4.33208 4.02434ZM5.33323 3.71802H5.73086V4.11802H5.33323V3.71802ZM5.53086 3.91802V1.587H5.93086V3.91802H5.53086ZM5.53086 1.587C5.53086 0.614884 6.32729 -0.172937 7.30328 -0.172937V0.227063C6.54519 0.227063 5.93086 0.838799 5.93086 1.587H5.53086ZM7.30328 -0.172937H10.5016V0.227063H7.30328V-0.172937ZM10.5016 -0.172937C11.4776 -0.172937 12.2741 0.614884 12.2741 1.587H11.8741C11.8741 0.838799 11.2597 0.227063 10.5016 0.227063V-0.172937ZM12.2741 1.587V3.91802H11.8741V1.587H12.2741ZM12.0741 3.71802H12.4717V4.11802H12.0741V3.71802ZM8.90244 9.58737C8.96768 9.58737 9.03027 9.55977 9.07366 9.51258L9.36809 9.78335C9.24857 9.91331 9.07901 9.98737 8.90244 9.98737V9.58737ZM9.07365 9.5126L12.6429 5.63078L12.9373 5.90152L9.3681 9.78333L9.07365 9.5126ZM12.6429 5.63077C12.7059 5.5623 12.7207 5.47082 12.6833 5.38662L13.0487 5.22402C13.1512 5.45435 13.1079 5.71604 12.9373 5.90154L12.6429 5.63077ZM12.6833 5.3866C12.6457 5.30219 12.5667 5.25038 12.4717 5.25038V4.85038C12.7233 4.85038 12.9464 4.99392 13.0487 5.22404L12.6833 5.3866ZM12.4717 5.25038H11.3364V4.85038H12.4717V5.25038ZM11.3364 5.25038C11.0048 5.25038 10.7326 4.98267 10.7326 4.64984H11.1326C11.1326 4.75875 11.2227 4.85038 11.3364 4.85038V5.25038ZM10.7326 4.64984V1.587H11.1326V4.64984H10.7326ZM10.7326 1.587C10.7326 1.46318 10.6303 1.3594 10.5016 1.3594V0.959396C10.8482 0.959396 11.1326 1.23926 11.1326 1.587H10.7326ZM10.5016 1.3594H7.30328V0.959396H10.5016V1.3594ZM7.30328 1.3594C7.17457 1.3594 7.07226 1.46318 7.07226 1.587H6.67226C6.67226 1.23926 6.95667 0.959396 7.30328 0.959396V1.3594ZM7.07226 1.587V4.64982H6.67226V1.587H7.07226ZM7.07226 4.64982C7.07226 4.98266 6.80005 5.25035 6.46849 5.25035V4.85035C6.58219 4.85035 6.67226 4.75871 6.67226 4.64982H7.07226ZM6.46849 5.25035H5.3332V4.85035H6.46849V5.25035ZM5.3332 5.25035C5.23824 5.25035 5.15916 5.30217 5.12161 5.3866L4.75613 5.22404C4.85847 4.99394 5.0816 4.85035 5.3332 4.85035V5.25035ZM5.12161 5.3866C5.08416 5.47081 5.09903 5.56228 5.16199 5.63076L4.86754 5.9015C4.69698 5.71601 4.65369 5.45436 4.75613 5.22404L5.12161 5.3866ZM5.16199 5.63076L8.73125 9.5126L8.4368 9.78333L4.86754 5.9015L5.16199 5.63076ZM8.73126 9.51261C8.77463 9.55979 8.83721 9.58737 8.90244 9.58737V9.98737C8.72591 9.98737 8.55633 9.91335 8.43679 9.78332L8.73126 9.51261ZM12.4717 4.87742C12.7123 4.87742 12.9259 5.01479 13.0238 5.23494L12.6583 5.39751C12.6252 5.32304 12.5557 5.27742 12.4717 5.27742V4.87742ZM13.0238 5.23494C13.1218 5.45529 13.0804 5.7058 12.9172 5.88327L12.6227 5.6125C12.6783 5.55208 12.6913 5.47177 12.6583 5.39751L13.0238 5.23494ZM12.9172 5.88326L9.34794 9.76509L9.05349 9.49436L12.6227 5.61252L12.9172 5.88326ZM9.34794 9.7651C9.23357 9.88948 9.07134 9.96031 8.90244 9.96031V9.56031C8.96001 9.56031 9.01527 9.53593 9.0535 9.49435L9.34794 9.7651ZM8.90244 9.96031C8.73353 9.96031 8.57132 9.88947 8.45694 9.76513L8.75133 9.49432C8.7896 9.53593 8.84487 9.56031 8.90244 9.56031V9.96031ZM8.45691 9.76509L4.8877 5.88326L5.18215 5.61252L8.75136 9.49436L8.45691 9.76509ZM4.8877 5.88326C4.72454 5.70581 4.68305 5.45533 4.78113 5.23494L5.14658 5.39757C5.11355 5.47178 5.12657 5.55207 5.18215 5.61252L4.8877 5.88326ZM4.78112 5.23497C4.87904 5.01484 5.09261 4.87742 5.33323 4.87742V5.27742C5.24927 5.27742 5.17973 5.32305 5.14659 5.39754L4.78112 5.23497ZM5.33323 4.87742H6.46851V5.27742H5.33323V4.87742ZM6.46851 4.87742C6.59726 4.87742 6.69957 4.77363 6.69957 4.64982H7.09957C7.09957 4.99756 6.81515 5.27742 6.46851 5.27742V4.87742ZM6.69957 4.64982V1.587H7.09957V4.64982H6.69957ZM6.69957 1.587C6.69957 1.25417 6.97177 0.986459 7.30331 0.986459V1.38646C7.18965 1.38646 7.09957 1.4781 7.09957 1.587H6.69957ZM7.30331 0.986459H10.5016V1.38646H7.30331V0.986459ZM10.5016 0.986459C10.8332 0.986459 11.1054 1.25418 11.1054 1.587H10.7054C10.7054 1.47809 10.6153 1.38646 10.5016 1.38646V0.986459ZM11.1054 1.587V4.64982H10.7054V1.587H11.1054ZM11.1054 4.64982C11.1054 4.77364 11.2077 4.87742 11.3364 4.87742V5.27742C10.9898 5.27742 10.7054 4.99755 10.7054 4.64982H11.1054ZM11.3364 4.87742H12.4717V5.27742H11.3364V4.87742Z" fill="white" mask="url(#path-5-inside-2_110_20699)"/>
</svg>
