<svg width="32" height="32" viewBox="0 0 32 32" fill="none" xmlns="http://www.w3.org/2000/svg">
<path d="M0.247768 7.90351C0.295035 7.92285 0.826301 8.13204 1.77711 8.13204C2.74545 8.13204 4.14945 7.91423 5.92006 7.05957L2.36392 20.3761H1.15658C0.93568 20.3761 0.756573 20.5552 0.756573 20.7761V21.9995C0.756573 23.1661 1.70582 24.1154 2.87246 24.1154H10.6487C11.8153 24.1154 12.7646 23.1661 12.7646 21.9995V20.7761C12.7646 20.5552 12.5855 20.3761 12.3645 20.3761H10.6978L6.98902 6.48717C7.04312 6.45553 7.09605 6.42625 7.15072 6.39344C10.4743 4.39939 13.5264 4.11019 15.0063 4.10875C14.867 4.32942 14.7699 4.61303 14.7486 4.96892L13.4504 26.5728H12.3089C11.2573 26.5728 10.4018 27.4284 10.4018 28.48V28.8173H9.8006C9.5797 28.8173 9.40059 28.9965 9.40059 29.2174V31.6C9.40059 31.8209 9.5797 32 9.8006 32H22.2006C22.4215 32 22.6006 31.8209 22.6006 31.6V29.2174C22.6006 28.9965 22.4215 28.8173 22.2006 28.8173H21.5994V28.48C21.5994 27.4284 20.7439 26.5728 19.6923 26.5728H18.5508L17.2526 4.96892C17.2313 4.61291 17.1341 4.32922 16.9947 4.1085C18.4303 4.10972 21.3459 4.38396 24.5529 6.22079L20.8436 20.3761H19.6366C19.4157 20.3761 19.2366 20.5552 19.2366 20.7761V21.9995C19.2366 23.1661 20.1859 24.1154 21.3525 24.1154H29.1287C30.2954 24.1154 31.2446 23.1661 31.2446 21.9995V20.7761C31.2446 20.5552 31.0655 20.3761 30.8446 20.3761H29.1787L25.629 6.83085C27.6138 7.87577 29.1748 8.13204 30.2241 8.13204C31.1747 8.13185 31.7062 7.92285 31.7534 7.90351C31.9568 7.81971 32.0529 7.58825 31.9706 7.38433C31.8884 7.1808 31.6564 7.08118 31.4513 7.16263C31.4292 7.1722 29.1373 8.03281 25.2622 5.70745C22.0305 3.76851 19.0844 3.3565 17.4026 3.30769C17.7423 2.95608 17.9538 2.47962 17.9538 1.95327C17.9538 0.876236 17.0776 0 16.0006 0C14.9236 0 14.0474 0.876236 14.0474 1.95327C14.0474 2.4797 14.2589 2.9562 14.5987 3.30781C12.9168 3.35667 9.97043 3.76864 6.73898 5.70745C2.86406 8.03242 0.572387 7.17162 0.552465 7.16361C0.348552 7.08001 0.114561 7.1767 0.030183 7.3812C-0.053804 7.58552 0.0434646 7.81932 0.247768 7.90351ZM11.9645 21.9995C11.9645 22.7251 11.3743 23.3154 10.6487 23.3154H2.87246C2.14685 23.3154 1.5566 22.7251 1.5566 21.9995V21.1762H11.9645V21.9995ZM3.19207 20.3761L6.53097 7.87304L9.86967 20.3761H3.19207ZM21.8006 31.1999H10.2006V29.6174H21.8006V31.1999ZM20.7994 28.48V28.8173H11.2018V28.48C11.2018 27.8696 11.6985 27.3729 12.3089 27.3729H19.6923C20.3027 27.3729 20.7994 27.8696 20.7994 28.48ZM17.7495 26.5728H14.2517L15.5471 5.01697C15.5756 4.5435 15.8022 4.32786 16.0006 4.32786C16.199 4.32786 16.4256 4.5435 16.4541 5.01697L17.7495 26.5728ZM30.4446 21.9995C30.4446 22.7251 29.8543 23.3154 29.1287 23.3154H21.3525C20.6269 23.3154 20.0367 22.7251 20.0367 21.9995V21.1762H30.4446V21.9995ZM21.6706 20.3761L25.011 7.62849L28.3517 20.3761H21.6706ZM16.0006 0.800059C16.6364 0.800059 17.1538 1.31748 17.1538 1.95327C17.1538 2.58906 16.6364 3.10648 16.0006 3.10648C15.3648 3.10648 14.8474 2.58906 14.8474 1.95327C14.8474 1.31748 15.3648 0.800059 16.0006 0.800059Z" fill="#232323"/>
</svg>
