<svg width="31" height="31" viewBox="0 0 31 31" fill="none" xmlns="http://www.w3.org/2000/svg">
<path d="M28.2321 0H2.76786C1.24158 0 0 1.24158 0 2.76786V22.6964C0 24.2227 1.24158 25.4643 2.76786 25.4643H12.7321V27.6786H11.0714C10.1558 27.6786 9.41072 28.4236 9.41072 29.3393C9.41072 30.2549 10.1558 31 11.0714 31H19.9286C20.8442 31 21.5893 30.2549 21.5893 29.3393C21.5893 28.4236 20.8442 27.6786 19.9286 27.6786H18.2679V25.4643H28.2321C29.7584 25.4643 31 24.2227 31 22.6964V2.76786C31 1.24158 29.7584 0 28.2321 0ZM20.4821 29.3393C20.4821 29.6442 20.2335 29.8929 19.9286 29.8929H11.0714C10.7665 29.8929 10.5179 29.6442 10.5179 29.3393C10.5179 29.0343 10.7665 28.7857 11.0714 28.7857H19.9286C20.2335 28.7857 20.4821 29.0343 20.4821 29.3393ZM17.1607 27.6786H13.8393V25.4643H17.1607V27.6786ZM29.8929 22.6964C29.8929 23.6121 29.1478 24.3571 28.2321 24.3571H2.76786C1.85222 24.3571 1.10714 23.6121 1.10714 22.6964V2.76786C1.10714 1.85222 1.85222 1.10714 2.76786 1.10714H28.2321C29.1478 1.10714 29.8929 1.85222 29.8929 2.76786V22.6964ZM8.30357 13.8393C11.3559 13.8393 13.8393 11.3559 13.8393 8.30357C13.8393 5.25127 11.3566 2.76786 8.30357 2.76786C5.25051 2.76786 2.76786 5.25127 2.76786 8.30357C2.76786 11.3559 5.25127 13.8393 8.30357 13.8393ZM12.6939 7.75H8.85714V3.91328C10.8566 4.16461 12.4433 5.75094 12.6939 7.75ZM7.75 3.91328V8.30357C7.75 8.60902 7.99812 8.85714 8.30357 8.85714H12.6939C12.4198 11.0383 10.5577 12.7321 8.30357 12.7321C5.86166 12.7321 3.875 10.7455 3.875 8.30357C3.875 6.04949 5.56956 4.18715 7.75 3.91328ZM2.76786 16.0533C2.76786 15.7478 3.01598 15.4997 3.32143 15.4997H7.75C8.05545 15.4997 8.30357 15.7478 8.30357 16.0533C8.30357 16.3587 8.05545 16.6068 7.75 16.6068H3.32143C3.01598 16.6068 2.76786 16.3587 2.76786 16.0533ZM14.3929 18.8211C14.3929 19.1266 14.1447 19.3747 13.8393 19.3747H3.32143C3.01598 19.3747 2.76786 19.1266 2.76786 18.8211C2.76786 18.5157 3.01598 18.2675 3.32143 18.2675H13.8393C14.1455 18.2675 14.3929 18.5157 14.3929 18.8211ZM14.3929 21.589C14.3929 21.8944 14.1447 22.1425 13.8393 22.1425H3.32143C3.01598 22.1425 2.76786 21.8944 2.76786 21.589C2.76786 21.2835 3.01598 21.0354 3.32143 21.0354H13.8393C14.1455 21.0354 14.3929 21.2835 14.3929 21.589ZM28.2321 21.589C28.2321 21.8944 27.984 22.1425 27.6786 22.1425H17.1607C16.8553 22.1425 16.6071 21.8944 16.6071 21.589V15.4997C16.6071 15.1942 16.8553 14.9461 17.1607 14.9461C17.4662 14.9461 17.7143 15.1942 17.7143 15.4997V21.0354H19.375V19.3747C19.375 19.0692 19.6231 18.8211 19.9286 18.8211C20.234 18.8211 20.4821 19.0692 20.4821 19.3747V21.0354H22.1429V17.714C22.1429 17.4085 22.391 17.1604 22.6964 17.1604C23.0019 17.1604 23.25 17.4085 23.25 17.714V21.0354H24.9107V16.0533C24.9107 15.7478 25.1588 15.4997 25.4643 15.4997C25.7697 15.4997 26.0179 15.7478 26.0179 16.0533V21.0354H27.6786C27.9848 21.0354 28.2321 21.2835 28.2321 21.589ZM16.6071 13.2854C16.3017 13.2854 16.0536 13.0373 16.0536 12.7318V3.32111C16.0536 3.01566 16.3017 2.76754 16.6071 2.76754C16.9126 2.76754 17.1607 3.01566 17.1607 3.32111V12.1783H27.6786C27.984 12.1783 28.2321 12.4264 28.2321 12.7318C28.2321 13.0373 27.984 13.2854 27.6786 13.2854H16.6071ZM18.4893 10.9604C18.2446 10.7773 18.1954 10.4301 18.3786 10.1854L20.0393 7.97111C20.1727 7.79293 20.4001 7.71212 20.6161 7.76624L22.4982 8.23678L25.5972 4.62148C25.7964 4.39017 26.1463 4.36298 26.3777 4.56167C26.6097 4.76037 26.6367 5.11031 26.4375 5.34212L23.116 9.21712C22.9799 9.37651 22.7661 9.44522 22.5615 9.39382L20.7043 8.92946L19.2643 10.8497C19.1558 10.9948 18.9892 11.0711 18.8209 11.0711C18.7058 11.0711 18.5889 11.035 18.4893 10.9604Z" fill="#232323"/>
</svg>
