<svg width="24" height="24" viewBox="0 0 24 24" fill="none" xmlns="http://www.w3.org/2000/svg">
<path d="M11.9995 19.0009C10.1937 19.0009 8.48167 18.3158 7.17885 17.0726C5.794 15.7644 4.99902 13.9151 4.99902 12.0005C4.99902 8.14034 8.13936 5 11.9995 5C15.8596 5 18.9999 8.14034 18.9999 12.0005C18.9999 13.9146 18.205 15.7639 16.8182 17.074C15.5124 18.3163 13.8004 19.0009 11.9995 19.0009ZM11.9995 6.00007C8.69067 6.00007 5.99909 8.69165 5.99909 12.0005C5.99909 13.6412 6.68029 15.2253 7.86737 16.3474C8.98512 17.4144 10.452 18.0008 11.9995 18.0008C13.5425 18.0008 15.0099 17.4139 16.1301 16.3484C17.3187 15.2248 17.9999 13.6407 17.9999 12.0005C17.9999 8.69165 15.3083 6.00007 11.9995 6.00007Z" fill="#232323"/>
<path d="M11.9997 12.8099C10.6412 12.8099 9.53613 11.7048 9.53613 10.3464C9.53613 8.98786 10.6412 7.88281 11.9997 7.88281C13.3582 7.88281 14.4632 8.98786 14.4632 10.3464C14.4632 11.7048 13.3582 12.8099 11.9997 12.8099ZM11.9997 8.88288C11.1925 8.88288 10.5362 9.53917 10.5362 10.3464C10.5362 11.1535 11.1925 11.8098 11.9997 11.8098C12.8069 11.8098 13.4631 11.1535 13.4631 10.3464C13.4631 9.53917 12.8069 8.88288 11.9997 8.88288Z" fill="#232323"/>
<path d="M12.002 18.9995C10.1962 18.9995 8.48417 18.3144 7.18135 17.0711C7.07881 16.973 7.02265 16.8368 7.02656 16.6951C7.1042 13.9879 9.2894 11.8672 12.002 11.8672C14.7146 11.8672 16.8998 13.9879 16.9774 16.6951C16.9813 16.8368 16.9247 16.974 16.8221 17.0716C15.5149 18.3149 13.8029 18.9995 12.002 18.9995ZM8.03883 16.5013C9.13216 17.4691 10.5307 17.9994 12.002 17.9994C13.4694 17.9994 14.8679 17.4686 15.9651 16.5008C15.7942 14.446 14.0944 12.8673 12.002 12.8673C9.90956 12.8673 8.20925 14.446 8.03883 16.5013Z" fill="#232323"/>
<path d="M13.497 22.394C13.3842 22.394 13.2733 22.3559 13.184 22.2841C13.0756 22.1967 13.0077 22.0683 12.9984 21.9291C12.9613 21.4017 12.533 21.0043 12.0022 21.0043C11.4714 21.0043 11.0432 21.4017 11.0056 21.9291C10.9958 22.0683 10.9284 22.1972 10.8196 22.2841C10.7102 22.372 10.5705 22.4082 10.4328 22.3886C5.92031 21.7104 2.29507 18.0851 1.6168 13.5726C1.59629 13.4349 1.63389 13.2943 1.7213 13.1854C1.80871 13.077 1.93714 13.0091 2.07631 12.9998C2.60368 12.9627 3.00166 12.5345 3.00166 12.0037C3.00166 11.4729 2.60368 11.0446 2.07631 11.007C1.93714 10.9973 1.80822 10.9299 1.7213 10.821C1.63389 10.7121 1.59629 10.5719 1.6168 10.4342C2.29507 5.92173 5.92031 2.2965 10.4328 1.61823C10.57 1.59919 10.7102 1.63532 10.8196 1.72273C10.9284 1.80965 10.9958 1.93856 11.0056 2.07773C11.0432 2.60511 11.4714 3.00309 12.0022 3.00309C12.533 3.00309 12.9613 2.60511 12.9984 2.07773C13.0077 1.93856 13.0756 1.81014 13.184 1.72273C13.2929 1.63532 13.434 1.59968 13.5712 1.61823C18.0837 2.2965 21.7089 5.92173 22.3872 10.4342C22.4077 10.5719 22.3701 10.7121 22.2827 10.821C22.1958 10.9299 22.0669 10.9973 21.9277 11.007C21.4003 11.0446 21.0028 11.4729 21.0028 12.0037C21.0028 12.5345 21.4003 12.9627 21.9277 12.9998C22.0669 13.0091 22.1953 13.077 22.2827 13.1854C22.3701 13.2943 22.4077 13.4349 22.3872 13.5726C21.7089 18.0851 18.0837 21.7104 13.5712 22.3886C13.5463 22.392 13.5219 22.394 13.497 22.394ZM2.6867 13.8822C3.43723 17.5988 6.40715 20.5687 10.1237 21.3187C10.405 20.5501 11.1472 20.0042 12.0022 20.0042C12.8578 20.0042 13.5995 20.5501 13.8808 21.3187C17.5973 20.5682 20.5668 17.5988 21.3173 13.8822C20.5487 13.6009 20.0028 12.8592 20.0028 12.0037C20.0028 11.1486 20.5487 10.4064 21.3173 10.1251C20.5673 6.40858 17.5973 3.43866 13.8808 2.68813C13.5995 3.45722 12.8578 4.00315 12.0022 4.00315C11.1472 4.00315 10.405 3.45673 10.1237 2.68813C6.40715 3.43817 3.43675 6.40858 2.6867 10.1251C3.4553 10.4064 4.00172 11.1486 4.00172 12.0037C4.00172 12.8592 3.45579 13.6009 2.6867 13.8822Z" fill="#232323"/>
<path d="M12.0021 4.00026C10.9576 4.00026 10.0815 3.18527 10.0083 2.14516C10.0034 2.12172 10.002 2.05677 10.002 2.00013C10.002 0.897031 10.899 0 12.0021 0C13.1052 0 14.0022 0.897031 14.0022 2.00013C14.0022 2.05873 14.0003 2.12611 13.991 2.18569C13.9226 3.18527 13.0471 4.00026 12.0021 4.00026ZM12.0021 1.00007C11.4508 1.00007 11.002 1.44882 11.002 2.00013C11.0035 2.01136 11.0049 2.06361 11.0054 2.07484C11.043 2.60222 11.4713 3.0002 12.0021 3.0002C12.5329 3.0002 12.9611 2.60222 12.9982 2.07484L13.0021 2.00013C13.0021 1.44882 12.5534 1.00007 12.0021 1.00007Z" fill="#232323"/>
<path d="M12.0021 23.9964C10.899 23.9964 10.002 23.0993 10.002 21.9962C10.002 21.9391 10.0034 21.8741 10.0117 21.817C10.0815 20.8106 10.9576 19.9961 12.0021 19.9961C13.0471 19.9961 13.9226 20.8106 13.9954 21.8507C14.0003 21.8698 14.0022 21.9371 14.0022 21.9962C14.0022 23.0993 13.1052 23.9964 12.0021 23.9964ZM12.0021 20.9962C11.4713 20.9962 11.043 21.3936 11.0054 21.921L11.002 21.9962C11.002 22.5475 11.4508 22.9963 12.0021 22.9963C12.5534 22.9963 13.0021 22.5475 13.0021 21.9962L13.0017 21.9537C12.9611 21.3936 12.5329 20.9962 12.0021 20.9962Z" fill="#232323"/>
<path d="M2.00013 14.0042C0.897031 14.0042 0 13.1071 0 12.004C0 10.9009 0.897031 10.0039 2.00013 10.0039C2.05677 10.0039 2.12172 10.0054 2.17885 10.0137C3.18527 10.0835 4.00026 10.9595 4.00026 12.004C4.00026 13.049 3.18527 13.9246 2.14516 13.9973C2.12611 14.0022 2.05873 14.0042 2.00013 14.0042ZM2.00013 11.004C1.44882 11.004 1.00007 11.4527 1.00007 12.004C1.00007 12.5553 1.44882 13.0041 2.00013 13.0041C2.0138 13.0021 2.06166 13.0007 2.07484 13.0002C2.60222 12.9631 3.0002 12.5348 3.0002 12.004C3.0002 11.4732 2.60222 11.045 2.07484 11.0074L2.00013 11.004Z" fill="#232323"/>
<path d="M22.0001 14.0042C21.941 14.0042 21.8737 14.0022 21.8141 13.9929C20.8145 13.9246 20 13.049 20 12.004C20 10.9595 20.8145 10.0835 21.8546 10.0103C21.8781 10.0054 21.943 10.0039 22.0001 10.0039C23.1032 10.0039 24.0003 10.9009 24.0003 12.004C24.0003 13.1071 23.1032 14.0042 22.0001 14.0042ZM22.0001 11.004C21.9889 11.0054 21.9362 11.0069 21.9249 11.0074C21.3976 11.045 21.0001 11.4732 21.0001 12.004C21.0001 12.5348 21.3976 12.9631 21.9249 13.0002L22.0001 13.0041C22.5514 13.0041 23.0002 12.5553 23.0002 12.004C23.0002 11.4527 22.5514 11.004 22.0001 11.004Z" fill="#232323"/>
</svg>
