<svg viewBox="0 0 27 32" fill="none" xmlns="http://www.w3.org/2000/svg">
<path d="M26.1631 4.60205L21.3155 0.117622C21.2341 0.0422282 21.1268 0.000287416 21.0153 0.00028979H4.21356C3.85339 -0.00710092 3.50495 0.127132 3.24449 0.373605C2.98404 0.620077 2.83279 0.95871 2.82386 1.31537V2.26573H1.3897C1.02132 2.26637 0.668221 2.41158 0.407742 2.66955C0.147263 2.92753 0.000642966 3.27723 0 3.64206V30.6237C0.000642966 30.9885 0.147263 31.3382 0.407742 31.5962C0.668221 31.8542 1.02132 31.9994 1.3897 32H22.0885C22.4569 31.9994 22.81 31.8542 23.0705 31.5962C23.3309 31.3382 23.4776 30.9885 23.4782 30.6237V29.7346H24.9117C25.2719 29.7419 25.6204 29.6077 25.8809 29.3611C26.1413 29.1146 26.2925 28.7759 26.3014 28.4191V4.92068C26.3016 4.86102 26.2894 4.80196 26.2656 4.74715C26.2418 4.69234 26.2069 4.64296 26.1631 4.60205ZM21.4545 1.43959L24.7463 4.48472H21.4545V1.43959ZM22.5989 30.6237C22.5988 30.7577 22.545 30.8863 22.4493 30.9811C22.3536 31.0759 22.2239 31.1293 22.0885 31.1295H1.3897C1.25433 31.1293 1.12457 31.0759 1.02889 30.9811C0.93321 30.8863 0.879422 30.7577 0.87933 30.6237V3.6431C0.879513 3.50906 0.933332 3.38057 1.02899 3.28576C1.12466 3.19095 1.25436 3.13757 1.3897 3.13729H2.82317V28.4191C2.832 28.7759 2.98321 29.1146 3.24368 29.3611C3.50414 29.6077 3.85264 29.7419 4.21286 29.7346H22.5989V30.6237ZM24.9124 28.864H4.21356C4.08699 28.87 3.96303 28.827 3.86782 28.7442C3.77261 28.6614 3.71358 28.5452 3.70319 28.4202V1.31537C3.71367 1.19037 3.77273 1.07427 3.86793 0.991535C3.96313 0.908802 4.08704 0.865894 4.21356 0.871852H20.5772V4.92068C20.5772 4.97791 20.5886 5.03458 20.6107 5.08746C20.6329 5.14033 20.6653 5.18836 20.7062 5.22882C20.747 5.26927 20.7956 5.30135 20.849 5.32322C20.9024 5.3451 20.9596 5.35633 21.0174 5.35628H25.4227V28.4191C25.4123 28.5442 25.3533 28.6604 25.2581 28.7432C25.1629 28.826 25.0389 28.8689 24.9124 28.863V28.864ZM22.5204 22.7428C22.5201 22.8583 22.4735 22.969 22.3909 23.0505C22.3083 23.1321 22.1964 23.1778 22.0798 23.1777H11.4035C11.2889 23.1745 11.1801 23.1272 11.1003 23.0458C11.0204 22.9645 10.9757 22.8554 10.9757 22.7419C10.9757 22.6284 11.0204 22.5194 11.1003 22.438C11.1801 22.3567 11.2889 22.3093 11.4035 22.3062H22.0798C22.1376 22.3061 22.1949 22.3173 22.2484 22.3391C22.3018 22.361 22.3504 22.393 22.3913 22.4335C22.4322 22.474 22.4647 22.522 22.4868 22.5749C22.509 22.6278 22.5204 22.6845 22.5204 22.7418V22.7428ZM10.4939 22.7428C10.4939 22.8584 10.4476 22.9693 10.365 23.0511C10.2825 23.1328 10.1705 23.1787 10.0538 23.1787H7.04575C6.98693 23.1804 6.92837 23.1703 6.87354 23.1492C6.81871 23.128 6.76872 23.0962 6.72653 23.0555C6.68434 23.0149 6.6508 22.9663 6.6279 22.9126C6.605 22.8589 6.5932 22.8012 6.5932 22.743C6.5932 22.6847 6.605 22.627 6.6279 22.5733C6.6508 22.5196 6.68434 22.471 6.72653 22.4304C6.76872 22.3898 6.81871 22.3579 6.87354 22.3368C6.92837 22.3156 6.98693 22.3055 7.04575 22.3072H10.0538C10.1703 22.3071 10.2821 22.3528 10.3646 22.4343C10.4472 22.5158 10.4937 22.6264 10.4939 22.7418V22.7428ZM22.5204 19.3749C22.5201 19.4904 22.4735 19.6011 22.3909 19.6826C22.3083 19.7642 22.1964 19.8099 22.0798 19.8098H18.2391C18.1245 19.8066 18.0157 19.7593 17.9358 19.678C17.8559 19.5966 17.8112 19.4876 17.8112 19.3741C17.8112 19.2605 17.8559 19.1515 17.9358 19.0701C18.0157 18.9888 18.1245 18.9415 18.2391 18.9383H22.0798C22.1376 18.9382 22.1949 18.9494 22.2484 18.9712C22.3018 18.9931 22.3504 19.0252 22.3913 19.0656C22.4322 19.1061 22.4647 19.1541 22.4868 19.207C22.509 19.2599 22.5204 19.3166 22.5204 19.3739V19.3749ZM6.60557 19.3749C6.60557 19.3177 6.61696 19.261 6.63908 19.2081C6.66121 19.1553 6.69364 19.1072 6.73452 19.0668C6.7754 19.0263 6.82393 18.9942 6.87733 18.9724C6.93073 18.9505 6.98796 18.9393 7.04575 18.9393H16.8893C16.9481 18.9377 17.0067 18.9477 17.0615 18.9689C17.1164 18.9901 17.1663 19.0219 17.2085 19.0625C17.2507 19.1031 17.2843 19.1517 17.3072 19.2054C17.3301 19.2591 17.3419 19.3168 17.3419 19.3751C17.3419 19.4334 17.3301 19.4911 17.3072 19.5447C17.2843 19.5984 17.2507 19.647 17.2085 19.6876C17.1663 19.7283 17.1164 19.7601 17.0615 19.7813C17.0067 19.8024 16.9481 19.8125 16.8893 19.8109H7.04575C6.98786 19.8109 6.93053 19.7996 6.87706 19.7776C6.82359 19.7556 6.77502 19.7234 6.73413 19.6828C6.69324 19.6422 6.66084 19.594 6.63878 19.541C6.61672 19.488 6.60543 19.4312 6.60557 19.3739V19.3749ZM22.5204 16.007C22.5201 16.1225 22.4735 16.2332 22.3909 16.3147C22.3083 16.3963 22.1964 16.442 22.0798 16.4419H7.04575C6.98693 16.4436 6.92837 16.4335 6.87354 16.4124C6.81871 16.3912 6.76872 16.3594 6.72653 16.3187C6.68434 16.2781 6.6508 16.2295 6.6279 16.1758C6.605 16.1221 6.5932 16.0644 6.5932 16.0062C6.5932 15.9479 6.605 15.8902 6.6279 15.8365C6.6508 15.7828 6.68434 15.7342 6.72653 15.6936C6.76872 15.653 6.81871 15.6211 6.87354 15.6C6.92837 15.5788 6.98693 15.5687 7.04575 15.5704H22.0798C22.1376 15.5703 22.1949 15.5815 22.2484 15.6033C22.3018 15.6252 22.3504 15.6573 22.3913 15.6977C22.4322 15.7382 22.4647 15.7862 22.4868 15.8391C22.509 15.892 22.5204 15.9487 22.5204 16.006V16.007ZM6.60557 12.6381C6.60557 12.5809 6.61696 12.5242 6.63908 12.4713C6.66121 12.4185 6.69364 12.3704 6.73452 12.33C6.7754 12.2895 6.82393 12.2574 6.87733 12.2356C6.93073 12.2137 6.98796 12.2025 7.04575 12.2025H12.4909C12.5498 12.2009 12.6083 12.2109 12.6631 12.2321C12.718 12.2533 12.768 12.2851 12.8101 12.3257C12.8523 12.3663 12.8859 12.4149 12.9088 12.4686C12.9317 12.5223 12.9435 12.58 12.9435 12.6383C12.9435 12.6966 12.9317 12.7543 12.9088 12.8079C12.8859 12.8616 12.8523 12.9102 12.8101 12.9508C12.768 12.9915 12.718 13.0233 12.6631 13.0445C12.6083 13.0656 12.5498 13.0757 12.4909 13.0741H7.04575C6.92901 13.0741 6.81705 13.0281 6.7345 12.9464C6.65194 12.8646 6.60557 12.7537 6.60557 12.6381ZM22.5204 12.6381C22.5205 12.6955 22.5093 12.7524 22.4872 12.8054C22.4652 12.8585 22.4327 12.9068 22.3918 12.9474C22.3509 12.988 22.3022 13.0202 22.2487 13.0422C22.1952 13.0642 22.1378 13.0755 22.0798 13.0754H13.8389C13.7244 13.0723 13.6156 13.0249 13.5357 12.9436C13.4558 12.8622 13.4111 12.7532 13.4111 12.6397C13.4111 12.5262 13.4558 12.4171 13.5357 12.3358C13.6156 12.2544 13.7244 12.2071 13.8389 12.2039H22.0798C22.1964 12.2037 22.3082 12.2493 22.3908 12.3307C22.4734 12.4122 22.52 12.5227 22.5204 12.6381ZM6.60557 9.27023C6.60557 9.21299 6.61696 9.15632 6.63908 9.10345C6.66121 9.05058 6.69364 9.00254 6.73452 8.96208C6.7754 8.92163 6.82393 8.88955 6.87733 8.86768C6.93073 8.84581 6.98796 8.83457 7.04575 8.83462H15.287C15.4016 8.83781 15.5103 8.88512 15.5902 8.9665C15.6701 9.04787 15.7148 9.1569 15.7148 9.2704C15.7148 9.3839 15.6701 9.49293 15.5902 9.57431C15.5103 9.65568 15.4016 9.70299 15.287 9.70618H7.04575C6.92901 9.70618 6.81705 9.66025 6.7345 9.57849C6.65194 9.49674 6.60557 9.38585 6.60557 9.27023ZM22.5204 9.27023C22.5204 9.32752 22.509 9.38426 22.4869 9.43719C22.4648 9.49013 22.4323 9.53822 22.3914 9.57872C22.3505 9.61921 22.3019 9.65131 22.2484 9.67319C22.195 9.69506 22.1377 9.70627 22.0798 9.70618H16.6367C16.5779 9.70782 16.5194 9.69776 16.4645 9.67659C16.4097 9.65543 16.3597 9.62359 16.3175 9.58297C16.2753 9.54234 16.2418 9.49374 16.2189 9.44006C16.196 9.38637 16.1842 9.32868 16.1842 9.2704C16.1842 9.21212 16.196 9.15443 16.2189 9.10074C16.2418 9.04706 16.2753 8.99846 16.3175 8.95784C16.3597 8.91721 16.4097 8.88537 16.4645 8.86421C16.5194 8.84304 16.5779 8.83298 16.6367 8.83462H22.0798C22.1376 8.83453 22.1949 8.84573 22.2484 8.86758C22.3018 8.88943 22.3504 8.9215 22.3913 8.96196C22.4322 9.00242 22.4647 9.05047 22.4868 9.10337C22.509 9.15626 22.5204 9.21297 22.5204 9.27023Z" fill="#232323"/>
</svg>
