<svg width="17" height="17" viewBox="0 0 17 17" fill="none" xmlns="http://www.w3.org/2000/svg">
<path d="M4.1266 0.112695H1.57148C0.767314 0.112695 0.113464 0.76491 0.113464 1.56569V14.6252C0.113464 15.426 0.767262 16.0781 1.57143 16.0781H4.1266C4.93077 16.0781 5.58457 15.426 5.58457 14.6252V1.56569C5.58457 0.764906 4.93077 0.112695 4.1266 0.112695ZM1.57148 15.1338C1.2901 15.1338 1.06146 14.9064 1.06146 14.6252V1.56569C1.06146 1.28445 1.29009 1.057 1.57143 1.057H4.1266C4.40794 1.057 4.63658 1.28445 4.63658 1.56569V14.6252C4.63658 14.9064 4.40794 15.1338 4.1266 15.1338H1.57148Z" fill="#7C7C7C" stroke="white" stroke-width="0.2"/>
<mask id="path-2-inside-1_110_20637" fill="white">
<path d="M1.5717 16.1921H4.12688C4.99331 16.1921 5.69824 15.4894 5.69824 14.6258V1.56635C5.69822 0.702666 4.99331 0 4.12688 0H1.57176C0.705266 0 0.000337124 0.702666 0.000337124 1.56635V14.6258C0.000337124 15.4895 0.705266 16.1921 1.5717 16.1921ZM4.12688 0.0267112C4.97855 0.0267112 5.67144 0.717384 5.67144 1.56635V14.6258C5.67144 15.4748 4.97857 16.1654 4.12688 16.1654H1.5717C0.720031 16.1654 0.0271344 15.4748 0.0271344 14.6258V1.56635C0.0271344 0.717384 0.720031 0.0267112 1.57176 0.0267112H4.12688ZM1.57176 15.0478H4.12688C4.36033 15.0478 4.55025 14.8585 4.55025 14.6258V1.56635C4.55025 1.33364 4.36033 1.14431 4.12688 1.14431H1.5717C1.33824 1.14431 1.14833 1.33364 1.14833 1.56635V14.6258C1.14833 14.8585 1.33827 15.0478 1.57176 15.0478ZM4.12688 1.17102C4.34554 1.17102 4.52345 1.34836 4.52345 1.56635V14.6258C4.52345 14.8438 4.34554 15.0211 4.12688 15.0211H1.57176C1.35306 15.0211 1.17513 14.8438 1.17513 14.6258V1.56635C1.17513 1.34836 1.35304 1.17102 1.5717 1.17102H4.12688Z"/>
</mask>
<path d="M1.5717 16.1921H4.12688C4.99331 16.1921 5.69824 15.4894 5.69824 14.6258V1.56635C5.69822 0.702666 4.99331 0 4.12688 0H1.57176C0.705266 0 0.000337124 0.702666 0.000337124 1.56635V14.6258C0.000337124 15.4895 0.705266 16.1921 1.5717 16.1921ZM4.12688 0.0267112C4.97855 0.0267112 5.67144 0.717384 5.67144 1.56635V14.6258C5.67144 15.4748 4.97857 16.1654 4.12688 16.1654H1.5717C0.720031 16.1654 0.0271344 15.4748 0.0271344 14.6258V1.56635C0.0271344 0.717384 0.720031 0.0267112 1.57176 0.0267112H4.12688ZM1.57176 15.0478H4.12688C4.36033 15.0478 4.55025 14.8585 4.55025 14.6258V1.56635C4.55025 1.33364 4.36033 1.14431 4.12688 1.14431H1.5717C1.33824 1.14431 1.14833 1.33364 1.14833 1.56635V14.6258C1.14833 14.8585 1.33827 15.0478 1.57176 15.0478ZM4.12688 1.17102C4.34554 1.17102 4.52345 1.34836 4.52345 1.56635V14.6258C4.52345 14.8438 4.34554 15.0211 4.12688 15.0211H1.57176C1.35306 15.0211 1.17513 14.8438 1.17513 14.6258V1.56635C1.17513 1.34836 1.35304 1.17102 1.5717 1.17102H4.12688Z" fill="#7C7C7C"/>
<path d="M5.69824 1.56635L5.89824 1.56634V1.56635H5.69824ZM0.000337124 14.6258H0.200337H0.000337124ZM1.14833 14.6258H1.34833H1.14833ZM1.5717 15.9921H4.12688V16.3921H1.5717V15.9921ZM4.12688 15.9921C4.88346 15.9921 5.49824 15.3784 5.49824 14.6258H5.89824C5.89824 15.6005 5.10316 16.3921 4.12688 16.3921V15.9921ZM5.49824 14.6258V1.56635H5.89824V14.6258H5.49824ZM5.49824 1.56635C5.49822 0.813722 4.88345 0.2 4.12688 0.2V-0.2C5.10317 -0.2 5.89821 0.591609 5.89824 1.56634L5.49824 1.56635ZM4.12688 0.2H1.57176V-0.2H4.12688V0.2ZM1.57176 0.2C0.815114 0.2 0.200337 0.813731 0.200337 1.56635H-0.199663C-0.199663 0.591601 0.595418 -0.2 1.57176 -0.2V0.2ZM0.200337 1.56635V14.6258H-0.199663V1.56635H0.200337ZM0.200337 14.6258C0.200337 15.3784 0.815112 15.9921 1.5717 15.9921V16.3921C0.59542 16.3921 -0.199663 15.6005 -0.199663 14.6258H0.200337ZM4.12688 -0.173289C5.0884 -0.173289 5.87144 0.606323 5.87144 1.56635H5.47144C5.47144 0.828444 4.8687 0.226711 4.12688 0.226711V-0.173289ZM5.87144 1.56635V14.6258H5.47144V1.56635H5.87144ZM5.87144 14.6258C5.87144 15.5858 5.08843 16.3654 4.12688 16.3654V15.9654C4.86872 15.9654 5.47144 15.3637 5.47144 14.6258H5.87144ZM4.12688 16.3654H1.5717V15.9654H4.12688V16.3654ZM1.5717 16.3654C0.610183 16.3654 -0.172865 15.5858 -0.172865 14.6258H0.227135C0.227135 15.3637 0.829879 15.9654 1.5717 15.9654V16.3654ZM-0.172865 14.6258V1.56635H0.227135V14.6258H-0.172865ZM-0.172865 1.56635C-0.172865 0.606318 0.610184 -0.173289 1.57176 -0.173289V0.226711C0.829879 0.226711 0.227135 0.828449 0.227135 1.56635H-0.172865ZM1.57176 -0.173289H4.12688V0.226711H1.57176V-0.173289ZM1.57176 14.8478H4.12688V15.2478H1.57176V14.8478ZM4.12688 14.8478C4.25048 14.8478 4.35025 14.7475 4.35025 14.6258H4.75025C4.75025 14.9696 4.47018 15.2478 4.12688 15.2478V14.8478ZM4.35025 14.6258V1.56635H4.75025V14.6258H4.35025ZM4.35025 1.56635C4.35025 1.44469 4.25047 1.34431 4.12688 1.34431V0.944309C4.4702 0.944309 4.75025 1.22259 4.75025 1.56635H4.35025ZM4.12688 1.34431H1.5717V0.944309H4.12688V1.34431ZM1.5717 1.34431C1.44811 1.34431 1.34833 1.44468 1.34833 1.56635H0.948333C0.948333 1.22259 1.22838 0.944309 1.5717 0.944309V1.34431ZM1.34833 1.56635V14.6258H0.948333V1.56635H1.34833ZM1.34833 14.6258C1.34833 14.7474 1.4481 14.8478 1.57176 14.8478V15.2478C1.22845 15.2478 0.948333 14.9696 0.948333 14.6258H1.34833ZM4.12688 0.97102C4.4554 0.97102 4.72345 1.2373 4.72345 1.56635H4.32345C4.32345 1.45941 4.23568 1.37102 4.12688 1.37102V0.97102ZM4.72345 1.56635V14.6258H4.32345V1.56635H4.72345ZM4.72345 14.6258C4.72345 14.9548 4.45539 15.2211 4.12688 15.2211V14.8211C4.23569 14.8211 4.32345 14.7327 4.32345 14.6258H4.72345ZM4.12688 15.2211H1.57176V14.8211H4.12688V15.2211ZM1.57176 15.2211C1.24324 15.2211 0.975131 14.9549 0.975131 14.6258H1.37513C1.37513 14.7327 1.46289 14.8211 1.57176 14.8211V15.2211ZM0.975131 14.6258V1.56635H1.37513V14.6258H0.975131ZM0.975131 1.56635C0.975131 1.2373 1.24318 0.97102 1.5717 0.97102V1.37102C1.4629 1.37102 1.37513 1.45941 1.37513 1.56635H0.975131ZM1.5717 0.97102H4.12688V1.37102H1.5717V0.97102Z" fill="white" mask="url(#path-2-inside-1_110_20637)"/>
<path d="M14.6207 4.9117C15.4249 4.9117 16.0787 4.25951 16.0787 3.45871V1.56569C16.0787 0.764909 15.4249 0.112695 14.6207 0.112695H7.76134C6.95717 0.112695 6.30337 0.76488 6.30337 1.56569V3.45871C6.30337 4.25949 6.95717 4.9117 7.76134 4.9117H14.6207ZM14.6207 1.057C14.9021 1.057 15.1307 1.28444 15.1307 1.56569V3.45871C15.1307 3.73995 14.9021 3.96739 14.6207 3.96739H7.76134C7.48 3.96739 7.25137 3.73995 7.25137 3.45871V1.56569C7.25137 1.28445 7.48 1.057 7.76134 1.057H14.6207Z" fill="#7C7C7C" stroke="white" stroke-width="0.2"/>
<mask id="path-5-inside-2_110_20637" fill="white">
<path d="M7.76161 5.02572H14.621C15.4875 5.02572 16.1924 4.32305 16.1924 3.45937V1.56635C16.1924 0.702666 15.4875 0 14.621 0H7.76161C6.89517 0 6.19024 0.702666 6.19024 1.56635V3.45937C6.19024 4.32308 6.89517 5.02572 7.76161 5.02572ZM14.621 0.0267112C15.4727 0.0267112 16.1656 0.717384 16.1656 1.56635V3.45937C16.1656 4.30833 15.4727 4.99901 14.621 4.99901H7.76161C6.90994 4.99901 6.21704 4.30833 6.21704 3.45937V1.56635C6.21704 0.717384 6.90994 0.0267112 7.76161 0.0267112H14.621ZM7.76161 3.88144H14.621C14.8544 3.88144 15.0444 3.69211 15.0444 3.4594V1.56635C15.0444 1.33364 14.8544 1.14431 14.621 1.14431H7.76161C7.52815 1.14431 7.33824 1.33364 7.33824 1.56635V3.45937C7.33824 3.69211 7.52815 3.88144 7.76161 3.88144ZM14.621 1.17102C14.8397 1.17102 15.0176 1.34836 15.0176 1.56635V3.45937C15.0176 3.67736 14.8397 3.8547 14.621 3.8547H7.76161C7.54294 3.8547 7.36504 3.67736 7.36504 3.45937V1.56635C7.36504 1.34836 7.54294 1.17102 7.76161 1.17102H14.621Z"/>
</mask>
<path d="M7.76161 5.02572H14.621C15.4875 5.02572 16.1924 4.32305 16.1924 3.45937V1.56635C16.1924 0.702666 15.4875 0 14.621 0H7.76161C6.89517 0 6.19024 0.702666 6.19024 1.56635V3.45937C6.19024 4.32308 6.89517 5.02572 7.76161 5.02572ZM14.621 0.0267112C15.4727 0.0267112 16.1656 0.717384 16.1656 1.56635V3.45937C16.1656 4.30833 15.4727 4.99901 14.621 4.99901H7.76161C6.90994 4.99901 6.21704 4.30833 6.21704 3.45937V1.56635C6.21704 0.717384 6.90994 0.0267112 7.76161 0.0267112H14.621ZM7.76161 3.88144H14.621C14.8544 3.88144 15.0444 3.69211 15.0444 3.4594V1.56635C15.0444 1.33364 14.8544 1.14431 14.621 1.14431H7.76161C7.52815 1.14431 7.33824 1.33364 7.33824 1.56635V3.45937C7.33824 3.69211 7.52815 3.88144 7.76161 3.88144ZM14.621 1.17102C14.8397 1.17102 15.0176 1.34836 15.0176 1.56635V3.45937C15.0176 3.67736 14.8397 3.8547 14.621 3.8547H7.76161C7.54294 3.8547 7.36504 3.67736 7.36504 3.45937V1.56635C7.36504 1.34836 7.54294 1.17102 7.76161 1.17102H14.621Z" fill="#7C7C7C"/>
<path d="M7.76161 4.82572H14.621V5.22572H7.76161V4.82572ZM14.621 4.82572C15.3776 4.82572 15.9924 4.21199 15.9924 3.45937H16.3924C16.3924 4.43412 15.5973 5.22572 14.621 5.22572V4.82572ZM15.9924 3.45937V1.56635H16.3924V3.45937H15.9924ZM15.9924 1.56635C15.9924 0.813726 15.3776 0.2 14.621 0.2V-0.2C15.5973 -0.2 16.3924 0.591605 16.3924 1.56635H15.9924ZM14.621 0.2H7.76161V-0.2H14.621V0.2ZM7.76161 0.2C7.00503 0.2 6.39024 0.813726 6.39024 1.56635H5.99024C5.99024 0.591605 6.78532 -0.2 7.76161 -0.2V0.2ZM6.39024 1.56635V3.45937H5.99024V1.56635H6.39024ZM6.39024 3.45937C6.39024 4.21202 7.00502 4.82572 7.76161 4.82572V5.22572C6.78532 5.22572 5.99024 4.43414 5.99024 3.45937H6.39024ZM14.621 -0.173289C15.5825 -0.173289 16.3656 0.606321 16.3656 1.56635H15.9656C15.9656 0.828446 15.3628 0.226711 14.621 0.226711V-0.173289ZM16.3656 1.56635V3.45937H15.9656V1.56635H16.3656ZM16.3656 3.45937C16.3656 4.4194 15.5825 5.19901 14.621 5.19901V4.79901C15.3628 4.79901 15.9656 4.19727 15.9656 3.45937H16.3656ZM14.621 5.19901H7.76161V4.79901H14.621V5.19901ZM7.76161 5.19901C6.80009 5.19901 6.01704 4.4194 6.01704 3.45937H6.41704C6.41704 4.19727 7.01979 4.79901 7.76161 4.79901V5.19901ZM6.01704 3.45937V1.56635H6.41704V3.45937H6.01704ZM6.01704 1.56635C6.01704 0.606323 6.80009 -0.173289 7.76161 -0.173289V0.226711C7.01979 0.226711 6.41704 0.828444 6.41704 1.56635H6.01704ZM7.76161 -0.173289H14.621V0.226711H7.76161V-0.173289ZM7.76161 3.68144H14.621V4.08144H7.76161V3.68144ZM14.621 3.68144C14.7446 3.68144 14.8444 3.58104 14.8444 3.4594H15.2444C15.2444 3.80317 14.9643 4.08144 14.621 4.08144V3.68144ZM14.8444 3.4594V1.56635H15.2444V3.4594H14.8444ZM14.8444 1.56635C14.8444 1.4447 14.7446 1.34431 14.621 1.34431V0.944309C14.9643 0.944309 15.2444 1.22258 15.2444 1.56635H14.8444ZM14.621 1.34431H7.76161V0.944309H14.621V1.34431ZM7.76161 1.34431C7.63802 1.34431 7.53824 1.44469 7.53824 1.56635H7.13824C7.13824 1.22259 7.41829 0.944309 7.76161 0.944309V1.34431ZM7.53824 1.56635V3.45937H7.13824V1.56635H7.53824ZM7.53824 3.45937C7.53824 3.58107 7.63803 3.68144 7.76161 3.68144V4.08144C7.41828 4.08144 7.13824 3.80314 7.13824 3.45937H7.53824ZM14.621 0.97102C14.9495 0.97102 15.2176 1.23729 15.2176 1.56635H14.8176C14.8176 1.45942 14.7298 1.37102 14.621 1.37102V0.97102ZM15.2176 1.56635V3.45937H14.8176V1.56635H15.2176ZM15.2176 3.45937C15.2176 3.78842 14.9495 4.0547 14.621 4.0547V3.6547C14.7298 3.6547 14.8176 3.5663 14.8176 3.45937H15.2176ZM14.621 4.0547H7.76161V3.6547H14.621V4.0547ZM7.76161 4.0547C7.43309 4.0547 7.16504 3.78842 7.16504 3.45937H7.56504C7.56504 3.56631 7.6528 3.6547 7.76161 3.6547V4.0547ZM7.16504 3.45937V1.56635H7.56504V3.45937H7.16504ZM7.16504 1.56635C7.16504 1.2373 7.43309 0.97102 7.76161 0.97102V1.37102C7.6528 1.37102 7.56504 1.45941 7.56504 1.56635H7.16504ZM7.76161 0.97102H14.621V1.37102H7.76161V0.97102Z" fill="white" mask="url(#path-5-inside-2_110_20637)"/>
<path d="M14.6207 10.4967C15.4249 10.4967 16.0787 9.8445 16.0787 9.0437V7.15065C16.0787 6.34987 15.4249 5.69766 14.6207 5.69766H7.76134C6.95717 5.69766 6.30337 6.34987 6.30337 7.15065V9.0437C6.30337 9.84451 6.95717 10.4967 7.76134 10.4967H14.6207ZM14.6207 6.64199C14.9021 6.64199 15.1307 6.86943 15.1307 7.15067V9.04373C15.1307 9.32494 14.9021 9.55238 14.6207 9.55238H7.76134C7.48 9.55238 7.25137 9.32494 7.25137 9.04373V7.15067C7.25137 6.86944 7.48 6.64199 7.76134 6.64199H14.6207Z" fill="#7C7C7C" stroke="white" stroke-width="0.2"/>
<mask id="path-8-inside-3_110_20637" fill="white">
<path d="M7.76161 10.6098H14.621C15.4875 10.6098 16.1924 9.90709 16.1924 9.04338V7.15033C16.1924 6.28665 15.4875 5.58398 14.621 5.58398H7.76161C6.89517 5.58398 6.19024 6.28665 6.19024 7.15033V9.04338C6.19024 9.90709 6.89517 10.6098 7.76161 10.6098ZM14.621 5.61072C15.4727 5.61072 16.1656 6.30139 16.1656 7.15036V9.04341C16.1656 9.89237 15.4727 10.5831 14.621 10.5831H7.76161C6.90994 10.5831 6.21704 9.8924 6.21704 9.04341V7.15036C6.21704 6.30139 6.90991 5.61072 7.76161 5.61072H14.621ZM7.76161 9.46539H14.621C14.8544 9.46539 15.0444 9.27609 15.0444 9.04338V7.15033C15.0444 6.91762 14.8544 6.72829 14.621 6.72829H7.76161C7.52815 6.72829 7.33824 6.91762 7.33824 7.15033V9.04338C7.33824 9.27609 7.52815 9.46539 7.76161 9.46539ZM14.621 6.75503C14.8397 6.75503 15.0176 6.93237 15.0176 7.15036V9.04341C15.0176 9.26137 14.8397 9.43871 14.621 9.43871H7.76161C7.54294 9.43871 7.36504 9.26137 7.36504 9.04341V7.15036C7.36504 6.93237 7.54294 6.75503 7.76161 6.75503H14.621Z"/>
</mask>
<path d="M7.76161 10.6098H14.621C15.4875 10.6098 16.1924 9.90709 16.1924 9.04338V7.15033C16.1924 6.28665 15.4875 5.58398 14.621 5.58398H7.76161C6.89517 5.58398 6.19024 6.28665 6.19024 7.15033V9.04338C6.19024 9.90709 6.89517 10.6098 7.76161 10.6098ZM14.621 5.61072C15.4727 5.61072 16.1656 6.30139 16.1656 7.15036V9.04341C16.1656 9.89237 15.4727 10.5831 14.621 10.5831H7.76161C6.90994 10.5831 6.21704 9.8924 6.21704 9.04341V7.15036C6.21704 6.30139 6.90991 5.61072 7.76161 5.61072H14.621ZM7.76161 9.46539H14.621C14.8544 9.46539 15.0444 9.27609 15.0444 9.04338V7.15033C15.0444 6.91762 14.8544 6.72829 14.621 6.72829H7.76161C7.52815 6.72829 7.33824 6.91762 7.33824 7.15033V9.04338C7.33824 9.27609 7.52815 9.46539 7.76161 9.46539ZM14.621 6.75503C14.8397 6.75503 15.0176 6.93237 15.0176 7.15036V9.04341C15.0176 9.26137 14.8397 9.43871 14.621 9.43871H7.76161C7.54294 9.43871 7.36504 9.26137 7.36504 9.04341V7.15036C7.36504 6.93237 7.54294 6.75503 7.76161 6.75503H14.621Z" fill="#7C7C7C"/>
<path d="M7.76161 10.4098H14.621V10.8098H7.76161V10.4098ZM14.621 10.4098C15.3776 10.4098 15.9924 9.79603 15.9924 9.04338H16.3924C16.3924 10.0182 15.5973 10.8098 14.621 10.8098V10.4098ZM15.9924 9.04338V7.15033H16.3924V9.04338H15.9924ZM15.9924 7.15033C15.9924 6.39771 15.3776 5.78398 14.621 5.78398V5.38398C15.5973 5.38398 16.3924 6.17559 16.3924 7.15033H15.9924ZM14.621 5.78398H7.76161V5.38398H14.621V5.78398ZM7.76161 5.78398C7.00503 5.78398 6.39024 6.39771 6.39024 7.15033H5.99024C5.99024 6.17559 6.78532 5.38398 7.76161 5.38398V5.78398ZM6.39024 7.15033V9.04338H5.99024V7.15033H6.39024ZM6.39024 9.04338C6.39024 9.79603 7.00503 10.4098 7.76161 10.4098V10.8098C6.78532 10.8098 5.99024 10.0181 5.99024 9.04338H6.39024ZM14.621 5.41072C15.5825 5.41072 16.3656 6.19033 16.3656 7.15036H15.9656C15.9656 6.41246 15.3628 5.81072 14.621 5.81072V5.41072ZM16.3656 7.15036V9.04341H15.9656V7.15036H16.3656ZM16.3656 9.04341C16.3656 10.0034 15.5825 10.7831 14.621 10.7831V10.3831C15.3628 10.3831 15.9656 9.78131 15.9656 9.04341H16.3656ZM14.621 10.7831H7.76161V10.3831H14.621V10.7831ZM7.76161 10.7831C6.80009 10.7831 6.01704 10.0035 6.01704 9.04341H6.41704C6.41704 9.78134 7.01979 10.3831 7.76161 10.3831V10.7831ZM6.01704 9.04341V7.15036H6.41704V9.04341H6.01704ZM6.01704 7.15036C6.01704 6.19034 6.80006 5.41072 7.76161 5.41072V5.81072C7.01977 5.81072 6.41704 6.41245 6.41704 7.15036H6.01704ZM7.76161 5.41072H14.621V5.81072H7.76161V5.41072ZM7.76161 9.26539H14.621V9.66539H7.76161V9.26539ZM14.621 9.26539C14.7446 9.26539 14.8444 9.16501 14.8444 9.04338H15.2444C15.2444 9.38717 14.9643 9.66539 14.621 9.66539V9.26539ZM14.8444 9.04338V7.15033H15.2444V9.04338H14.8444ZM14.8444 7.15033C14.8444 7.02869 14.7446 6.92829 14.621 6.92829V6.52829C14.9643 6.52829 15.2444 6.80656 15.2444 7.15033H14.8444ZM14.621 6.92829H7.76161V6.52829H14.621V6.92829ZM7.76161 6.92829C7.63802 6.92829 7.53824 7.02867 7.53824 7.15033H7.13824C7.13824 6.80658 7.41829 6.52829 7.76161 6.52829V6.92829ZM7.53824 7.15033V9.04338H7.13824V7.15033H7.53824ZM7.53824 9.04338C7.53824 9.16503 7.638 9.26539 7.76161 9.26539V9.66539C7.4183 9.66539 7.13824 9.38715 7.13824 9.04338H7.53824ZM14.621 6.55503C14.9495 6.55503 15.2176 6.8213 15.2176 7.15036H14.8176C14.8176 7.04343 14.7298 6.95503 14.621 6.95503V6.55503ZM15.2176 7.15036V9.04341H14.8176V7.15036H15.2176ZM15.2176 9.04341C15.2176 9.37245 14.9495 9.63871 14.621 9.63871V9.23871C14.7298 9.23871 14.8176 9.1503 14.8176 9.04341H15.2176ZM14.621 9.63871H7.76161V9.23871H14.621V9.63871ZM7.76161 9.63871C7.43309 9.63871 7.16504 9.37244 7.16504 9.04341H7.56504C7.56504 9.15031 7.65279 9.23871 7.76161 9.23871V9.63871ZM7.16504 9.04341V7.15036H7.56504V9.04341H7.16504ZM7.16504 7.15036C7.16504 6.82131 7.43309 6.55503 7.76161 6.55503V6.95503C7.6528 6.95503 7.56504 7.04342 7.56504 7.15036H7.16504ZM7.76161 6.55503H14.621V6.95503H7.76161V6.55503Z" fill="white" mask="url(#path-8-inside-3_110_20637)"/>
<path d="M14.6207 16.0787C15.4249 16.0787 16.0787 15.4265 16.0787 14.6257V12.7327C16.0787 11.9319 15.4249 11.2797 14.6207 11.2797H7.76134C6.95717 11.2797 6.30337 11.9319 6.30337 12.7327V14.6257C6.30337 15.4265 6.95717 16.0787 7.76134 16.0787H14.6207ZM14.6207 12.224C14.9021 12.224 15.1307 12.4514 15.1307 12.7327V14.6257C15.1307 14.9069 14.9021 15.1344 14.6207 15.1344H7.76134C7.47999 15.1344 7.25137 14.9069 7.25137 14.6257V12.7327C7.25137 12.4514 7.47999 12.224 7.76134 12.224H14.6207Z" fill="#7C7C7C" stroke="white" stroke-width="0.2"/>
<mask id="path-11-inside-4_110_20637" fill="white">
<path d="M7.76161 16.1917H14.621C15.4875 16.1917 16.1924 15.489 16.1924 14.6254V12.7324C16.1924 11.8687 15.4875 11.166 14.621 11.166H7.76161C6.89517 11.166 6.19024 11.8687 6.19024 12.7324V14.6254C6.19024 15.4891 6.89517 16.1917 7.76161 16.1917ZM14.621 11.1928C15.4727 11.1928 16.1656 11.8834 16.1656 12.7324V14.6254C16.1656 15.4743 15.4727 16.165 14.621 16.165H7.76161C6.90994 16.165 6.21704 15.4744 6.21704 14.6254V12.7324C6.21704 11.8835 6.90991 11.1928 7.76161 11.1928H14.621ZM7.76161 15.0475H14.621C14.8544 15.0475 15.0444 14.8581 15.0444 14.6254V12.7324C15.0444 12.4997 14.8544 12.3104 14.621 12.3104H7.76161C7.52815 12.3104 7.33824 12.4997 7.33824 12.7324V14.6254C7.33824 14.8581 7.52815 15.0475 7.76161 15.0475ZM14.621 12.3371C14.8397 12.3371 15.0176 12.5144 15.0176 12.7324V14.6254C15.0176 14.8434 14.8397 15.0208 14.621 15.0208H7.76161C7.54294 15.0208 7.36504 14.8434 7.36504 14.6254V12.7324C7.36504 12.5144 7.54294 12.3371 7.76161 12.3371H14.621Z"/>
</mask>
<path d="M7.76161 16.1917H14.621C15.4875 16.1917 16.1924 15.489 16.1924 14.6254V12.7324C16.1924 11.8687 15.4875 11.166 14.621 11.166H7.76161C6.89517 11.166 6.19024 11.8687 6.19024 12.7324V14.6254C6.19024 15.4891 6.89517 16.1917 7.76161 16.1917ZM14.621 11.1928C15.4727 11.1928 16.1656 11.8834 16.1656 12.7324V14.6254C16.1656 15.4743 15.4727 16.165 14.621 16.165H7.76161C6.90994 16.165 6.21704 15.4744 6.21704 14.6254V12.7324C6.21704 11.8835 6.90991 11.1928 7.76161 11.1928H14.621ZM7.76161 15.0475H14.621C14.8544 15.0475 15.0444 14.8581 15.0444 14.6254V12.7324C15.0444 12.4997 14.8544 12.3104 14.621 12.3104H7.76161C7.52815 12.3104 7.33824 12.4997 7.33824 12.7324V14.6254C7.33824 14.8581 7.52815 15.0475 7.76161 15.0475ZM14.621 12.3371C14.8397 12.3371 15.0176 12.5144 15.0176 12.7324V14.6254C15.0176 14.8434 14.8397 15.0208 14.621 15.0208H7.76161C7.54294 15.0208 7.36504 14.8434 7.36504 14.6254V12.7324C7.36504 12.5144 7.54294 12.3371 7.76161 12.3371H14.621Z" fill="#7C7C7C"/>
<path d="M7.76161 15.9917H14.621V16.3917H7.76161V15.9917ZM14.621 15.9917C15.3776 15.9917 15.9924 15.378 15.9924 14.6254H16.3924C16.3924 15.6001 15.5973 16.3917 14.621 16.3917V15.9917ZM15.9924 14.6254V12.7324H16.3924V14.6254H15.9924ZM15.9924 12.7324C15.9924 11.9797 15.3776 11.366 14.621 11.366V10.966C15.5973 10.966 16.3924 11.7576 16.3924 12.7324H15.9924ZM14.621 11.366H7.76161V10.966H14.621V11.366ZM7.76161 11.366C7.00503 11.366 6.39024 11.9797 6.39024 12.7324H5.99024C5.99024 11.7576 6.78532 10.966 7.76161 10.966V11.366ZM6.39024 12.7324V14.6254H5.99024V12.7324H6.39024ZM6.39024 14.6254C6.39024 15.378 7.00502 15.9917 7.76161 15.9917V16.3917C6.78533 16.3917 5.99024 15.6001 5.99024 14.6254H6.39024ZM14.621 10.9928C15.5825 10.9928 16.3656 11.7724 16.3656 12.7324H15.9656C15.9656 11.9945 15.3628 11.3928 14.621 11.3928V10.9928ZM16.3656 12.7324V14.6254H15.9656V12.7324H16.3656ZM16.3656 14.6254C16.3656 15.5854 15.5825 16.365 14.621 16.365V15.965C15.3628 15.965 15.9656 15.3633 15.9656 14.6254H16.3656ZM14.621 16.365H7.76161V15.965H14.621V16.365ZM7.76161 16.365C6.80009 16.365 6.01704 15.5854 6.01704 14.6254H6.41704C6.41704 15.3633 7.01979 15.965 7.76161 15.965V16.365ZM6.01704 14.6254V12.7324H6.41704V14.6254H6.01704ZM6.01704 12.7324C6.01704 11.7724 6.80005 10.9928 7.76161 10.9928V11.3928C7.01977 11.3928 6.41704 11.9945 6.41704 12.7324H6.01704ZM7.76161 10.9928H14.621V11.3928H7.76161V10.9928ZM7.76161 14.8475H14.621V15.2475H7.76161V14.8475ZM14.621 14.8475C14.7446 14.8475 14.8444 14.7471 14.8444 14.6254H15.2444C15.2444 14.9692 14.9643 15.2475 14.621 15.2475V14.8475ZM14.8444 14.6254V12.7324H15.2444V14.6254H14.8444ZM14.8444 12.7324C14.8444 12.6107 14.7446 12.5104 14.621 12.5104V12.1104C14.9643 12.1104 15.2444 12.3886 15.2444 12.7324H14.8444ZM14.621 12.5104H7.76161V12.1104H14.621V12.5104ZM7.76161 12.5104C7.63803 12.5104 7.53824 12.6107 7.53824 12.7324H7.13824C7.13824 12.3886 7.41828 12.1104 7.76161 12.1104V12.5104ZM7.53824 12.7324V14.6254H7.13824V12.7324H7.53824ZM7.53824 14.6254C7.53824 14.7471 7.63803 14.8475 7.76161 14.8475V15.2475C7.41828 15.2475 7.13824 14.9692 7.13824 14.6254H7.53824ZM14.621 12.1371C14.9496 12.1371 15.2176 12.4034 15.2176 12.7324H14.8176C14.8176 12.6255 14.7298 12.5371 14.621 12.5371V12.1371ZM15.2176 12.7324V14.6254H14.8176V12.7324H15.2176ZM15.2176 14.6254C15.2176 14.9544 14.9496 15.2208 14.621 15.2208V14.8208C14.7298 14.8208 14.8176 14.7324 14.8176 14.6254H15.2176ZM14.621 15.2208H7.76161V14.8208H14.621V15.2208ZM7.76161 15.2208C7.43307 15.2208 7.16504 14.9544 7.16504 14.6254H7.56504C7.56504 14.7324 7.65282 14.8208 7.76161 14.8208V15.2208ZM7.16504 14.6254V12.7324H7.56504V14.6254H7.16504ZM7.16504 12.7324C7.16504 12.4034 7.43307 12.1371 7.76161 12.1371V12.5371C7.65282 12.5371 7.56504 12.6255 7.56504 12.7324H7.16504ZM7.76161 12.1371H14.621V12.5371H7.76161V12.1371Z" fill="white" mask="url(#path-11-inside-4_110_20637)"/>
</svg>
