<svg width="28" height="24" viewBox="0 0 28 24" fill="none" xmlns="http://www.w3.org/2000/svg">
<path d="M26.1272 3.97104H19.0792V2.06615C19.0786 1.51836 18.8605 0.993182 18.4727 0.605837C18.0849 0.218493 17.5591 0.000613219 17.0107 0H10.9893C10.4409 0.000613219 9.9151 0.218493 9.52731 0.605837C9.13952 0.993182 8.92139 1.51836 8.92077 2.06615V3.97104H1.87276C1.37626 3.97165 0.900274 4.16893 0.549196 4.5196C0.198119 4.87028 0.000613853 5.34572 5.78237e-08 5.84164V22.1266C-0.000123277 22.623 0.197056 23.0992 0.548214 23.4505C0.899371 23.8017 1.37578 23.9994 1.87276 24H26.1272C26.6242 23.9994 27.1006 23.8017 27.4518 23.4505C27.8029 23.0992 28.0001 22.623 28 22.1266V5.84164C27.9994 5.34572 27.8019 4.87028 27.4508 4.5196C27.0997 4.16893 26.6237 3.97165 26.1272 3.97104ZM9.84857 2.06615C9.84894 1.76407 9.96924 1.47447 10.1831 1.26086C10.3969 1.04726 10.6869 0.927098 10.9893 0.92673H17.0107C17.3131 0.927098 17.6031 1.04726 17.8169 1.26086C18.0308 1.47447 18.1511 1.76407 18.1514 2.06615V3.97104H9.84764L9.84857 2.06615ZM27.0722 22.1266C27.0724 22.2507 27.0481 22.3737 27.0007 22.4885C26.9533 22.6032 26.8838 22.7075 26.796 22.7954C26.7083 22.8833 26.604 22.9531 26.4893 23.0008C26.3745 23.0485 26.2515 23.0731 26.1272 23.0733H1.87276C1.62217 23.0729 1.38196 22.9733 1.20481 22.7962C1.02767 22.6192 0.928043 22.3792 0.927798 22.1289V9.44199L6.43196 12.0016C8.11198 12.7609 9.90229 13.2483 11.7357 13.4455V14.1164C11.7357 14.7383 11.983 15.3346 12.4232 15.7743C12.8634 16.214 13.4605 16.461 14.083 16.461C14.7056 16.461 15.3026 16.214 15.7428 15.7743C16.1831 15.3346 16.4304 14.7383 16.4304 14.1164V13.4455C18.2636 13.2483 20.0537 12.7611 21.7337 12.0021L27.0722 9.51937V22.1266ZM12.6635 14.1164V13.534C12.7155 13.5377 12.7679 13.534 12.8198 13.5395C13.2374 13.565 13.6549 13.5822 14.0724 13.5822H14.0928C14.5103 13.5822 14.9278 13.565 15.3453 13.5395C15.3973 13.5363 15.4497 13.5395 15.5016 13.534V14.1164C15.5016 14.4925 15.3521 14.8531 15.0859 15.119C14.8197 15.3849 14.4586 15.5343 14.0821 15.5343C13.7056 15.5343 13.3446 15.3849 13.0784 15.119C12.8121 14.8531 12.6626 14.4925 12.6626 14.1164H12.6635ZM27.0722 8.49719L21.3417 11.162C19.6282 11.9341 17.7962 12.4104 15.9233 12.5706C14.6991 12.6842 13.467 12.6842 12.2428 12.5706C10.3697 12.4104 8.53744 11.9339 6.82395 11.1615L0.927798 8.41981V5.84164C0.928166 5.59143 1.02784 5.35156 1.20498 5.17463C1.38211 4.9977 1.62225 4.89814 1.87276 4.89777H26.1272C26.3777 4.89814 26.6179 4.9977 26.795 5.17463C26.9722 5.35156 27.0718 5.59143 27.0722 5.84164V8.49719Z" fill="#232323"/>
</svg>
