<svg width="29" height="29" viewBox="0 0 29 29" fill="none" xmlns="http://www.w3.org/2000/svg">
<path fill-rule="evenodd" clip-rule="evenodd" d="M3.54689 1.41424H9.23152C10.4076 1.41424 11.3584 2.36302 11.3584 3.54141V9.89682C11.3584 11.0723 10.4057 12.024 9.23152 12.024H3.54689C2.37076 12.024 1.41996 11.0752 1.41996 9.89682L1.41972 3.54141C1.41972 2.36598 2.37246 1.41424 3.54689 1.41424ZM0 9.89714C0 11.8562 1.58615 13.4389 3.54689 13.4389H9.23152C11.1911 13.4389 12.7784 11.8527 12.7784 9.89714V3.54173C12.7784 1.58269 11.1923 0 9.23152 0H3.54689C1.58734 0 0 1.58615 0 3.54173V9.89714Z" fill="#232323"/>
<path fill-rule="evenodd" clip-rule="evenodd" d="M3.54689 16.9754H9.23152C10.4076 16.9754 11.3584 17.9242 11.3584 19.1025V25.458C11.3584 26.6334 10.4057 27.5851 9.23152 27.5851L3.54689 27.5854C2.37076 27.5854 1.41996 26.6363 1.41996 25.4582V19.1028C1.41972 17.9274 2.37246 16.9754 3.54689 16.9754ZM0 25.4583C0 27.4173 1.58615 29 3.54689 29H9.23152C11.1911 29 12.7784 27.4139 12.7784 25.4583V19.1029C12.7784 17.1438 11.1923 15.5609 9.23152 15.5609H3.54689C1.58734 15.5609 0 17.147 0 19.1029V25.4583Z" fill="#232323"/>
<path fill-rule="evenodd" clip-rule="evenodd" d="M27.6867 4.24377C28.0788 4.24377 28.3966 3.92694 28.3966 3.53637C28.3966 3.14581 28.0788 2.82897 27.6867 2.82897H15.6178C15.2257 2.82897 14.9079 3.14556 14.9079 3.53637C14.9079 3.92695 15.2257 4.24377 15.6178 4.24377H27.6867Z" fill="#232323"/>
<path fill-rule="evenodd" clip-rule="evenodd" d="M27.6867 7.78016C28.0788 7.78016 28.3966 7.46357 28.3966 7.07276C28.3966 6.68218 28.0788 6.36536 27.6867 6.36536L15.6178 6.3656C15.2257 6.3656 14.9079 6.68244 14.9079 7.073C14.9079 7.46358 15.2257 7.78041 15.6178 7.78041L27.6867 7.78016Z" fill="#232323"/>
<path fill-rule="evenodd" clip-rule="evenodd" d="M27.6867 11.3172C28.0788 11.3172 28.3966 11.0003 28.3966 10.6098C28.3966 10.2192 28.0788 9.90237 27.6867 9.90237H15.6178C15.2257 9.90237 14.9079 10.2192 14.9079 10.6098C14.9079 11.0003 15.2257 11.3172 15.6178 11.3172H27.6867Z" fill="#232323"/>
<path fill-rule="evenodd" clip-rule="evenodd" d="M27.6867 19.0978C28.0788 19.0978 28.3966 18.781 28.3966 18.3904C28.3966 17.9996 28.0788 17.683 27.6867 17.683L15.6178 17.6833C15.2257 17.6833 14.9079 17.9999 14.9079 18.3907C14.9079 18.7812 15.2257 19.0981 15.6178 19.0981L27.6867 19.0978Z" fill="#232323"/>
<path fill-rule="evenodd" clip-rule="evenodd" d="M27.6867 22.6342C28.0788 22.6342 28.3966 22.3174 28.3966 21.9268C28.3966 21.5362 28.0788 21.2197 27.6867 21.2197L15.6178 21.2194C15.2257 21.2194 14.9079 21.536 14.9079 21.9266C14.9079 22.3171 15.2257 22.634 15.6178 22.634L27.6867 22.6342Z" fill="#232323"/>
<path fill-rule="evenodd" clip-rule="evenodd" d="M27.6867 26.1706C28.0788 26.1706 28.3966 25.854 28.3966 25.4634C28.3966 25.0729 28.0788 24.756 27.6867 24.756L15.6178 24.7563C15.2257 24.7563 14.9079 25.0729 14.9079 25.4637C14.9079 25.8542 15.2257 26.1708 15.6178 26.1708L27.6867 26.1706Z" fill="#232323"/>
</svg>
