<svg width="25" height="25" viewBox="0 0 25 25" fill="none" xmlns="http://www.w3.org/2000/svg">
<path d="M21.25 25H3.75C1.66667 25 0 23.3333 0 21.25V0.583333C0 0.25 0.25 0 0.583333 0H18.1667C18.5 0 18.75 0.25 18.75 0.583333V21.25C18.75 22.6667 19.9167 23.75 21.25 23.75C21.5833 23.75 21.8333 24 21.8333 24.3333C21.8333 24.6667 21.5833 25 21.25 25ZM1.16667 1.16667V21.25C1.16667 22.6667 2.33333 23.75 3.66667 23.75H18.5C17.9167 23.0833 17.5 22.1667 17.5 21.25V1.16667H1.16667Z" fill="#232323"/>
<path d="M21.25 25C19.1667 25 17.5 23.3333 17.5 21.25V5.66667C17.5 5.33334 17.75 5.08334 18.0833 5.08334H24.3333C24.6667 5.08334 24.9167 5.33334 24.9167 5.66667V21.25C25 23.3333 23.3333 25 21.25 25ZM18.75 6.25V21.25C18.75 22.6667 19.9167 23.75 21.25 23.75C22.6667 23.75 23.75 22.5833 23.75 21.25V6.25H18.75Z" fill="#232323"/>
<path d="M9.08335 17.75H4.50002C4.16669 17.75 3.91669 17.5 3.91669 17.1667C3.91669 16.8333 4.16669 16.5833 4.50002 16.5833H9.08335C9.41669 16.5833 9.66669 16.8333 9.66669 17.1667C9.66669 17.5 9.41669 17.75 9.08335 17.75Z" fill="#232323"/>
<path d="M14.25 20.75H4.50002C4.16669 20.75 3.91669 20.5 3.91669 20.1667C3.91669 19.8333 4.16669 19.5833 4.50002 19.5833H14.25C14.5834 19.5833 14.8334 19.8333 14.8334 20.1667C14.8334 20.5 14.5834 20.75 14.25 20.75Z" fill="#232323"/>
<path d="M8.33335 10.5833C8.33335 9 7.08335 8.41666 6.16669 7.91666C5.41669 7.5 5.08335 7.33333 5.08335 7C5.08335 6.16666 5.58335 6 5.75002 6C6.58335 5.75 7.25002 6.58333 7.25002 6.66666C7.41669 6.91666 7.83335 7 8.08335 6.83333C8.33335 6.66666 8.41669 6.25 8.25002 6C8.25002 5.91666 7.66669 5.16666 6.75002 4.91666V3.83333C6.75002 3.5 6.50002 3.25 6.16669 3.25C5.83335 3.25 5.50002 3.5 5.50002 3.83333V4.75H5.41669C4.50002 5.08333 3.91669 5.83333 3.91669 7C3.91669 8.08333 4.91669 8.58333 5.66669 9C6.58335 9.5 7.16669 9.83333 7.16669 10.5833C7.16669 11.5 6.41669 11.8333 5.91669 11.8333C5.66669 11.8333 5.08335 11.75 5.08335 10.8333C5.08335 10.5 4.83335 10.25 4.50002 10.25C4.16669 10.25 3.91669 10.5 3.91669 10.8333C3.91669 11.6667 4.25002 12.1667 4.58335 12.4167C4.83335 12.6667 5.16669 12.8333 5.58335 12.9167V13.8333C5.58335 14.1667 5.83335 14.4167 6.16669 14.4167C6.50002 14.4167 6.75002 14.1667 6.75002 13.8333V12.8333C7.58335 12.5833 8.33335 11.75 8.33335 10.5833Z" fill="#232323"/>
</svg>
