<svg width="11" height="11" viewBox="0 0 11 11" fill="none" xmlns="http://www.w3.org/2000/svg">
<path d="M5.5 11C6.5878 11 7.65116 10.6774 8.55563 10.0731C9.4601 9.46874 10.1651 8.60975 10.5813 7.60476C10.9976 6.59977 11.1065 5.4939 10.8943 4.427C10.6821 3.36011 10.1583 2.3801 9.38909 1.61091C8.6199 0.841726 7.63989 0.317902 6.573 0.105683C5.5061 -0.106535 4.40023 0.00238307 3.39524 0.418665C2.39025 0.834947 1.53126 1.5399 0.926917 2.44437C0.322569 3.34884 0 4.4122 0 5.5C0.00163237 6.95819 0.581619 8.35619 1.61272 9.38729C2.64381 10.4184 4.04181 10.9984 5.5 11ZM5.5 0.611113C6.46693 0.611113 7.41215 0.897842 8.21612 1.43504C9.02009 1.97224 9.64671 2.73578 10.0167 3.6291C10.3868 4.52243 10.4836 5.50542 10.2949 6.45378C10.1063 7.40213 9.64069 8.27324 8.95696 8.95697C8.27324 9.64069 7.40212 10.1063 6.45377 10.295C5.50542 10.4836 4.52243 10.3868 3.6291 10.0167C2.73577 9.64672 1.97223 9.02009 1.43504 8.21612C0.897839 7.41215 0.611111 6.46693 0.611111 5.5C0.612594 4.20384 1.12815 2.9612 2.04467 2.04467C2.96119 1.12815 4.20384 0.612596 5.5 0.611113Z" fill="black"/>
<path d="M5.49865 8.79947C5.62831 8.79947 5.75266 8.74796 5.84434 8.65627C5.93603 8.56459 5.98754 8.44024 5.98754 8.31058V4.64392C5.98754 4.51426 5.93604 4.38991 5.84435 4.29822C5.75267 4.20654 5.62832 4.15503 5.49865 4.15503C5.36899 4.15503 5.24464 4.20654 5.15296 4.29822C5.06127 4.38991 5.00977 4.51426 5.00977 4.64392V8.31058C5.00977 8.44024 5.06128 8.56459 5.15296 8.65627C5.24465 8.74796 5.369 8.79947 5.49865 8.79947Z" fill="black"/>
<path d="M5.49865 3.17773C5.76866 3.17773 5.98754 2.95885 5.98754 2.68884C5.98754 2.41883 5.76866 2.19995 5.49865 2.19995C5.22865 2.19995 5.00977 2.41883 5.00977 2.68884C5.00977 2.95885 5.22865 3.17773 5.49865 3.17773Z" fill="black"/>
</svg>
