<svg width="34" height="32" viewBox="0 0 34 32" fill="none" xmlns="http://www.w3.org/2000/svg">
<path d="M4.41402 9.93079H8.82772C9.13264 9.93079 9.37943 9.68375 9.37943 9.37907C9.37943 9.0744 9.13264 8.82736 8.82772 8.82736H4.41402C4.1091 8.82736 3.8623 9.0744 3.8623 9.37907C3.8623 9.68375 4.10885 9.93079 4.41402 9.93079Z" fill="#232323"/>
<path d="M15.4482 9.93079H19.8619C20.1668 9.93079 20.4136 9.68375 20.4136 9.37907C20.4136 9.0744 20.1668 8.82736 19.8619 8.82736H15.4482C15.1433 8.82736 14.8965 9.0744 14.8965 9.37907C14.8965 9.68375 15.143 9.93079 15.4482 9.93079Z" fill="#232323"/>
<path d="M32.8281 2.87428L27.9989 0.0746026C27.8713 0.000956811 27.7198 -0.0194849 27.5792 0.0191848C27.4376 0.0571148 27.3169 0.149723 27.2435 0.277058L23.8852 6.11809C23.5812 5.7543 23.1303 5.51761 22.6202 5.51761H17.1031V2.75905C17.1031 2.45437 16.8563 2.20733 16.5514 2.20733H7.72398C7.41906 2.20733 7.17226 2.45437 7.17226 2.75905V5.51761H1.65514C0.742321 5.51761 0 6.25993 0 7.17275V14.8967C0 16.0251 0.682737 16.9945 1.65514 17.4215V31.4483C1.65514 31.753 1.90193 32 2.20685 32H22.0685C22.3734 32 22.6202 31.753 22.6202 31.4483L22.6205 21.7306L33.0299 3.62684C33.1813 3.3633 33.0909 3.02676 32.8281 2.87428ZM18.5889 25.6395L15.601 27.2343L15.4825 23.8363L18.5889 25.6395ZM8.27597 3.3106H15.9999V5.51745H8.27597V3.3106ZM1.1037 14.8966V7.17259C1.1037 6.86841 1.35099 6.62088 1.65542 6.62088H22.6205C22.9249 6.62088 23.1722 6.86841 23.1722 7.17259V7.3583L17.8861 16.5514H2.75909C1.84628 16.5514 1.1037 15.8094 1.1037 14.8966ZM10.4828 17.6551H13.7931V18.7586H10.4828V17.6551ZM21.5171 30.8962H2.75884V17.6551H9.37939V19.3103C9.37939 19.6149 9.62619 19.862 9.9311 19.862H14.3448C14.6497 19.862 14.8965 19.6149 14.8965 19.3103V17.6551H17.2517L14.9212 21.7085L14.4182 22.5828L14.4172 22.586C14.3857 22.6417 14.368 22.7028 14.3571 22.7653C14.3557 22.7737 14.3502 22.7814 14.349 22.7895C14.3475 22.8008 14.3517 22.8117 14.351 22.8227C14.3498 22.8412 14.3446 22.8589 14.3453 22.8774L14.5296 28.1566C14.536 28.347 14.6406 28.5207 14.8054 28.6155C14.8906 28.6648 14.9855 28.6894 15.0808 28.6894C15.1702 28.6894 15.2591 28.6677 15.3404 28.6244L19.9851 26.1449C19.9871 26.1439 19.9885 26.1422 19.9903 26.1409C20.0055 26.1326 20.0188 26.1207 20.0334 26.1106C20.0486 26.1 20.0629 26.0897 20.0772 26.0779C20.0802 26.0754 20.0836 26.0735 20.0866 26.071C20.094 26.0643 20.1033 26.0601 20.1105 26.0533C20.1457 26.019 20.177 25.9794 20.2028 25.9348L20.2041 25.9331L21.5171 23.6493L21.5171 30.8962ZM21.5907 21.3078L19.523 24.9028L18.0635 24.0567L28.384 6.10623C28.5359 5.84195 28.4448 5.50476 28.1803 5.35306C27.9163 5.20035 27.5791 5.29198 27.4271 5.55626L17.1085 23.503L15.9007 22.8028L15.649 22.6567L16.5516 21.0866L18.6851 17.3785L24.2022 7.7844C24.2044 7.78021 24.2054 7.77553 24.2076 7.77159L27.9243 1.30741L31.7991 3.55367L21.5907 21.3078Z" fill="#232323"/>
<path d="M5.51741 22.6202H9.93111C10.236 22.6202 10.4828 22.3731 10.4828 22.0685C10.4828 21.7638 10.236 21.5167 9.93111 21.5167H5.51741C5.21249 21.5167 4.9657 21.7638 4.9657 22.0685C4.9657 22.3731 5.21225 22.6202 5.51741 22.6202Z" fill="#232323"/>
<path d="M5.51741 25.9304H12.138C12.4429 25.9304 12.6897 25.6834 12.6897 25.3787C12.6897 25.0741 12.4429 24.827 12.138 24.827H5.51741C5.21249 24.827 4.9657 25.0741 4.9657 25.3787C4.9657 25.6834 5.21225 25.9304 5.51741 25.9304Z" fill="#232323"/>
<path d="M13.2414 28.1373H5.51741C5.21249 28.1373 4.9657 28.3843 4.9657 28.689C4.9657 28.9937 5.21249 29.2407 5.51741 29.2407H13.2414C13.5463 29.2407 13.7931 28.9937 13.7931 28.689C13.7931 28.3843 13.5463 28.1373 13.2414 28.1373Z" fill="#232323"/>
</svg>
