<svg width="14" height="14" viewBox="0 0 14 14" fill="none" xmlns="http://www.w3.org/2000/svg">
<path d="M14 6.998C14.0003 8.38279 13.5899 9.73655 12.8207 10.8881C12.0516 12.0396 10.9582 12.9371 9.67898 13.467C8.39973 13.997 6.99205 14.1356 5.634 13.8654C4.27595 13.5952 3.02855 12.9282 2.04958 11.9489C1.39758 11.3002 0.880712 10.5286 0.528906 9.67876C0.1771 8.82894 -0.00266111 7.91777 2.9769e-05 6.998H0.943451C0.943451 10.3378 3.66052 13.0551 7.00001 13.0551C10.3395 13.0551 13.0566 10.3378 13.0566 6.998C13.0566 3.65821 10.3395 0.940906 7.00001 0.940906C6.17691 0.940893 5.36246 1.10892 4.60655 1.43469C3.85063 1.76046 3.16917 2.23712 2.6039 2.83548H4.44597V3.77898H1.13516V0.470416H2.0789V2.02505C3.0603 1.05335 4.30725 0.393785 5.66273 0.129412C7.0182 -0.13496 8.42159 0.0076826 9.69616 0.539377C10.9707 1.07107 12.0595 1.96804 12.8254 3.11734C13.5912 4.26664 13.9999 5.61687 14 6.998ZM6.81083 3.30849V7.75482H10.6892V6.80879H7.75677V3.30849H6.81083Z" fill="#232323"/>
</svg>
