<svg width="71" height="83" viewBox="0 0 71 83" fill="none" xmlns="http://www.w3.org/2000/svg">
<circle cx="35.1751" cy="35.1751" r="35.1751" fill="#FFF8D6"/>
<rect x="46.4785" y="30.3418" width="1.47588" height="4.9196" rx="0.73794" transform="rotate(82.5 46.4785 30.3418)" fill="#999999"/>
<rect x="33" y="22.1934" width="1.47588" height="4.9196" rx="0.73794" transform="rotate(-7.5 33 22.1934)" fill="#999999"/>
<rect x="41.6465" y="23.5371" width="1.47588" height="4.9196" rx="0.73794" transform="rotate(37.5 41.6465 23.5371)" fill="#999999"/>
<path d="M24.01 36.0062L4.24665 68.9995C3.83918 69.7052 3.62358 70.5052 3.6213 71.32C3.61901 72.1349 3.83013 72.9361 4.23365 73.6441C4.63717 74.352 5.21901 74.9419 5.92131 75.3552C6.6236 75.7684 7.42185 75.9905 8.23665 75.9995H47.7633C48.5781 75.9905 49.3764 75.7684 50.0787 75.3552C50.781 74.9419 51.3628 74.352 51.7663 73.6441C52.1698 72.9361 52.381 72.1349 52.3787 71.32C52.3764 70.5052 52.1608 69.7052 51.7533 68.9995L31.99 36.0062C31.574 35.3204 30.9883 34.7534 30.2894 34.36C29.5905 33.9665 28.802 33.7598 28 33.7598C27.1979 33.7598 26.4094 33.9665 25.7105 34.36C25.0116 34.7534 24.426 35.3204 24.01 36.0062V36.0062Z" stroke="#999999" stroke-width="2" stroke-linecap="round" stroke-linejoin="round"/>
<path d="M28 48V57.3333" stroke="#999999" stroke-width="2" stroke-linecap="round" stroke-linejoin="round"/>
<path d="M28 66.666H28.0246" stroke="#999999" stroke-width="2" stroke-linecap="round" stroke-linejoin="round"/>
</svg>
