<svg width="16" height="16" viewBox="0 0 16 16" fill="none" xmlns="http://www.w3.org/2000/svg">
<g clip-path="url(#clip0_8554_48576)">
<path d="M0 1.17279C0 0.542696 0.529625 0.03125 1.1825 0.03125H14.8175C15.4706 0.03125 16 0.542696 16 1.17279V14.8259C16 15.4562 15.4706 15.9673 14.8175 15.9673H1.1825C0.529688 15.9673 0 15.4562 0 14.8261V1.1726V1.17279Z" fill="#006699"/>
<path d="M4.8635 13.3673V6.19286H2.46925V13.3673H4.86375H4.8635ZM3.66688 5.21348C4.50163 5.21348 5.02131 4.66257 5.02131 3.97408C5.00569 3.26991 4.50163 2.73438 3.68275 2.73438C2.86331 2.73438 2.32812 3.26991 2.32812 3.97402C2.32812 4.66251 2.84762 5.21342 3.65119 5.21342H3.66669L3.66688 5.21348ZM6.18875 13.3673H8.58281V9.3612C8.58281 9.14706 8.59844 8.93236 8.66169 8.77941C8.83469 8.35082 9.22863 7.90716 9.89019 7.90716C10.7563 7.90716 11.103 8.56502 11.103 9.52958V13.3673H13.497V9.25369C13.497 7.05011 12.316 6.02466 10.7408 6.02466C9.44937 6.02466 8.88219 6.74359 8.56706 7.23324H8.583V6.19311H6.18887C6.22012 6.86616 6.18869 13.3675 6.18869 13.3675L6.18875 13.3673Z" fill="white"/>
</g>
<defs>
<clipPath id="clip0_8554_48576">
<rect width="16" height="16" fill="white"/>
</clipPath>
</defs>
</svg>
