<svg width="16" height="16" viewBox="0 0 16 16" fill="none" xmlns="http://www.w3.org/2000/svg">
<g clip-path="url(#clip0_15506_82206)">
<path d="M0 1.17377C0 0.543673 0.529625 0.0322266 1.1825 0.0322266H14.8175C15.4706 0.0322266 16 0.543673 16 1.17377V14.8269C16 15.4572 15.4706 15.9682 14.8175 15.9682H1.1825C0.529688 15.9682 0 15.4572 0 14.8271V1.17358V1.17377Z" fill="#006699"/>
<path d="M4.8635 13.3683V6.19384H2.46925V13.3683H4.86375H4.8635ZM3.66688 5.21446C4.50163 5.21446 5.02131 4.66355 5.02131 3.97506C5.00569 3.27089 4.50163 2.73535 3.68275 2.73535C2.86331 2.73535 2.32812 3.27089 2.32812 3.975C2.32812 4.66348 2.84762 5.2144 3.65119 5.2144H3.66669L3.66688 5.21446ZM6.18875 13.3683H8.58281V9.36217C8.58281 9.14804 8.59844 8.93334 8.66169 8.78039C8.83469 8.3518 9.22863 7.90814 9.89019 7.90814C10.7563 7.90814 11.103 8.566 11.103 9.53056V13.3683H13.497V9.25467C13.497 7.05108 12.316 6.02564 10.7408 6.02564C9.44937 6.02564 8.88219 6.74456 8.56706 7.23422H8.583V6.19409H6.18887C6.22012 6.86713 6.18869 13.3685 6.18869 13.3685L6.18875 13.3683Z" fill="white"/>
</g>
<defs>
<clipPath id="clip0_15506_82206">
<rect width="16" height="16" fill="white"/>
</clipPath>
</defs>
</svg>
