<svg width="13" height="10" viewBox="0 0 13 10" fill="none" xmlns="http://www.w3.org/2000/svg">
<path d="M11.2651 0.815013V0.815687C11.4031 0.815687 11.534 0.846723 11.6499 0.900696L6.49958 4.59181L1.34999 0.901387C1.46593 0.846738 1.59681 0.815704 1.73479 0.815029L11.2651 0.815013ZM12.1371 1.57469L12.1407 8.34844V8.34979C12.1407 8.80925 11.7488 9.18165 11.2651 9.18435H1.73469C1.25103 9.18165 0.859108 8.80923 0.859108 8.34979V1.64961C0.859108 1.62398 0.860531 1.59901 0.862665 1.57473L6.23349 5.4237C6.30177 5.4743 6.38144 5.50399 6.46536 5.51006H6.46607C6.47745 5.51073 6.48883 5.51073 6.50021 5.51073C6.59766 5.51073 6.69368 5.4797 6.77192 5.41965L12.1371 1.57469ZM1.73907 0C0.782408 0 0.00569931 0.732696 0 1.63878V8.36054C0.00569021 9.26663 0.782408 9.99933 1.73907 9.99933L11.2609 10C12.2176 9.99933 12.9943 9.26663 13 8.36055V1.63878C12.9943 0.732697 12.2176 1.31772e-06 11.2609 1.31772e-06L1.73907 0Z" fill="#676767"/>
</svg>
