<svg width="274" height="43" viewBox="0 0 274 43" fill="none" xmlns="http://www.w3.org/2000/svg">
<g clip-path="url(#clip0_23200_3366)">
<path d="M0 8C0 3.58172 3.78916 0 8.46332 0H265.537C270.211 0 274 3.58172 274 8V35C274 39.4183 270.211 43 265.537 43H8.46332C3.78916 43 0 39.4183 0 35V8Z" fill="#2CB741"/>
<mask id="mask0_23200_3366" style="mask-type:luminance" maskUnits="userSpaceOnUse" x="24" y="9" width="24" height="25">
<path d="M48 9.5H24V33.5H48V9.5Z" fill="white"/>
</mask>
<g mask="url(#mask0_23200_3366)">
<path d="M24 33.5L25.6963 27.3403C24.6476 25.5323 24.0974 23.4848 24.1032 21.3916C24.1032 14.8327 29.467 9.5 36.0516 9.5C39.2493 9.5 42.2521 10.7376 44.5043 12.9848C46.7622 15.2319 48.0057 18.2205 48 21.3973C48 27.9563 42.6361 33.289 36.0458 33.289H36.0401C34.0401 33.289 32.0745 32.7871 30.3266 31.8403L24 33.5ZM30.6304 29.6901L30.9914 29.9068C32.5158 30.808 34.2636 31.2814 36.0458 31.2871H36.0516C41.5243 31.2871 45.9828 26.8555 45.9828 21.403C45.9828 18.7624 44.9513 16.2814 43.0773 14.4106C41.2034 12.5399 38.7049 11.5133 36.0516 11.5133C30.5788 11.5076 26.1203 15.9392 26.1203 21.3916C26.1203 23.2567 26.6418 25.076 27.639 26.6502L27.8739 27.0266L26.8711 30.6711L30.6304 29.6901Z" fill="white"/>
<path d="M24.4185 33.0833L26.0574 27.1347C25.0431 25.3951 24.5101 23.416 24.5101 21.397C24.5159 15.0662 29.6907 9.91602 36.0517 9.91602C39.1405 9.91602 42.0345 11.1137 44.2121 13.281C46.3898 15.4483 47.5875 18.3343 47.5875 21.4027C47.5875 27.7335 42.407 32.8837 36.0517 32.8837H36.046C34.1147 32.8837 32.2179 32.3989 30.5331 31.4864L24.4185 33.0833Z" fill="url(#paint0_linear_23200_3366)"/>
<path d="M24 33.5L25.6963 27.3403C24.6476 25.5323 24.0974 23.4848 24.1032 21.3916C24.1032 14.8327 29.467 9.5 36.0516 9.5C39.2493 9.5 42.2521 10.7376 44.5043 12.9848C46.7622 15.2319 48.0057 18.2205 48 21.3973C48 27.9563 42.6361 33.289 36.0458 33.289H36.0401C34.0401 33.289 32.0745 32.7871 30.3266 31.8403L24 33.5ZM30.6304 29.6901L30.9914 29.9068C32.5158 30.808 34.2636 31.2814 36.0458 31.2871H36.0516C41.5243 31.2871 45.9828 26.8555 45.9828 21.403C45.9828 18.7624 44.9513 16.2814 43.0773 14.4106C41.2034 12.5399 38.7049 11.5133 36.0516 11.5133C30.5788 11.5076 26.1203 15.9392 26.1203 21.3916C26.1203 23.2567 26.6418 25.076 27.639 26.6502L27.8739 27.0266L26.8711 30.6711L30.6304 29.6901Z" fill="url(#paint1_linear_23200_3366)"/>
<path fill-rule="evenodd" clip-rule="evenodd" d="M33.066 16.4174C32.8425 15.9213 32.6075 15.9098 32.3955 15.9041C32.2236 15.8984 32.023 15.8984 31.8225 15.8984C31.6219 15.8984 31.301 15.9726 31.0259 16.2692C30.7508 16.5657 29.9829 17.2844 29.9829 18.7501C29.9829 20.2102 31.0545 21.6247 31.2035 21.8243C31.3525 22.0239 33.2723 25.1209 36.3038 26.3129C38.8253 27.3053 39.3411 27.1057 39.8855 27.0543C40.4299 27.003 41.6505 26.3357 41.9027 25.6399C42.1491 24.9441 42.1491 24.3509 42.0746 24.2254C42.0001 24.1 41.7995 24.0258 41.5015 23.8775C41.2035 23.7292 39.7365 23.0106 39.4614 22.9079C39.1863 22.811 38.9858 22.7597 38.7909 23.0562C38.5904 23.3528 38.0173 24.0201 37.8454 24.2197C37.6734 24.4194 37.4958 24.4422 37.1978 24.2939C36.8998 24.1456 35.9371 23.8319 34.7967 22.8167C33.9084 22.0296 33.3067 21.0543 33.1348 20.7578C32.9629 20.4612 33.1176 20.3015 33.2666 20.1532C33.3984 20.022 33.5646 19.8053 33.7136 19.6342C33.8626 19.4631 33.9141 19.3376 34.0116 19.138C34.109 18.9384 34.0631 18.7673 33.9886 18.619C33.9141 18.4764 33.3296 17.0049 33.066 16.4174Z" fill="white"/>
</g>
<path d="M65.316 27V17.2H66.814L71.098 24.354H70.314L74.528 17.2H76.026L76.04 27H74.318L74.304 19.902H74.668L71.084 25.88H70.272L66.632 19.902H67.052V27H65.316ZM83.1251 27V25.488L83.0271 25.166V22.52C83.0271 22.0067 82.8731 21.61 82.5651 21.33C82.2571 21.0407 81.7904 20.896 81.1651 20.896C80.7451 20.896 80.3298 20.9613 79.9191 21.092C79.5178 21.2227 79.1771 21.4047 78.8971 21.638L78.2111 20.364C78.6124 20.056 79.0884 19.8273 79.6391 19.678C80.1991 19.5193 80.7778 19.44 81.3751 19.44C82.4578 19.44 83.2931 19.7013 83.8811 20.224C84.4784 20.7373 84.7771 21.5353 84.7771 22.618V27H83.1251ZM80.7731 27.098C80.2131 27.098 79.7231 27.0047 79.3031 26.818C78.8831 26.622 78.5564 26.356 78.3231 26.02C78.0991 25.6747 77.9871 25.2873 77.9871 24.858C77.9871 24.438 78.0851 24.06 78.2811 23.724C78.4864 23.388 78.8178 23.122 79.2751 22.926C79.7324 22.73 80.3391 22.632 81.0951 22.632H83.2651V23.794H81.2211C80.6238 23.794 80.2224 23.892 80.0171 24.088C79.8118 24.2747 79.7091 24.508 79.7091 24.788C79.7091 25.1053 79.8351 25.3573 80.0871 25.544C80.3391 25.7307 80.6891 25.824 81.1371 25.824C81.5664 25.824 81.9491 25.726 82.2851 25.53C82.6304 25.334 82.8778 25.0447 83.0271 24.662L83.3211 25.712C83.1531 26.1507 82.8498 26.4913 82.4111 26.734C81.9818 26.9767 81.4358 27.098 80.7731 27.098ZM91.265 19.44C91.8623 19.44 92.3943 19.5567 92.861 19.79C93.337 20.0233 93.7103 20.3827 93.981 20.868C94.2517 21.344 94.387 21.96 94.387 22.716V27H92.637V22.94C92.637 22.2773 92.4783 21.7827 92.161 21.456C91.853 21.1293 91.419 20.966 90.859 20.966C90.4483 20.966 90.0843 21.05 89.767 21.218C89.4497 21.386 89.2023 21.638 89.025 21.974C88.857 22.3007 88.773 22.716 88.773 23.22V27H87.023V19.524H88.689V21.54L88.395 20.924C88.6563 20.448 89.0343 20.084 89.529 19.832C90.033 19.5707 90.6117 19.44 91.265 19.44ZM101.213 27V25.488L101.115 25.166V22.52C101.115 22.0067 100.961 21.61 100.653 21.33C100.345 21.0407 99.8783 20.896 99.253 20.896C98.833 20.896 98.4177 20.9613 98.007 21.092C97.6057 21.2227 97.265 21.4047 96.985 21.638L96.299 20.364C96.7003 20.056 97.1763 19.8273 97.727 19.678C98.287 19.5193 98.8657 19.44 99.463 19.44C100.546 19.44 101.381 19.7013 101.969 20.224C102.566 20.7373 102.865 21.5353 102.865 22.618V27H101.213ZM98.861 27.098C98.301 27.098 97.811 27.0047 97.391 26.818C96.971 26.622 96.6443 26.356 96.411 26.02C96.187 25.6747 96.075 25.2873 96.075 24.858C96.075 24.438 96.173 24.06 96.369 23.724C96.5743 23.388 96.9057 23.122 97.363 22.926C97.8203 22.73 98.427 22.632 99.183 22.632H101.353V23.794H99.309C98.7117 23.794 98.3103 23.892 98.105 24.088C97.8997 24.2747 97.797 24.508 97.797 24.788C97.797 25.1053 97.923 25.3573 98.175 25.544C98.427 25.7307 98.777 25.824 99.225 25.824C99.6543 25.824 100.037 25.726 100.373 25.53C100.718 25.334 100.966 25.0447 101.115 24.662L101.409 25.712C101.241 26.1507 100.938 26.4913 100.499 26.734C100.07 26.9767 99.5237 27.098 98.861 27.098ZM108.513 29.814C107.822 29.814 107.145 29.7207 106.483 29.534C105.829 29.3567 105.293 29.0953 104.873 28.75L105.657 27.434C105.983 27.7047 106.394 27.9193 106.889 28.078C107.393 28.246 107.901 28.33 108.415 28.33C109.236 28.33 109.838 28.1387 110.221 27.756C110.603 27.3827 110.795 26.818 110.795 26.062V24.732L110.935 23.038L110.879 21.344V19.524H112.545V25.866C112.545 27.2193 112.199 28.2133 111.509 28.848C110.818 29.492 109.819 29.814 108.513 29.814ZM108.289 26.664C107.579 26.664 106.935 26.5147 106.357 26.216C105.787 25.908 105.335 25.4833 104.999 24.942C104.672 24.4007 104.509 23.766 104.509 23.038C104.509 22.3193 104.672 21.6893 104.999 21.148C105.335 20.6067 105.787 20.1867 106.357 19.888C106.935 19.5893 107.579 19.44 108.289 19.44C108.923 19.44 109.493 19.566 109.997 19.818C110.501 20.07 110.902 20.462 111.201 20.994C111.509 21.526 111.663 22.2073 111.663 23.038C111.663 23.8687 111.509 24.5547 111.201 25.096C110.902 25.628 110.501 26.0247 109.997 26.286C109.493 26.538 108.923 26.664 108.289 26.664ZM108.555 25.18C108.993 25.18 109.385 25.0913 109.731 24.914C110.076 24.7273 110.342 24.4753 110.529 24.158C110.725 23.8313 110.823 23.458 110.823 23.038C110.823 22.618 110.725 22.2493 110.529 21.932C110.342 21.6053 110.076 21.358 109.731 21.19C109.385 21.0127 108.993 20.924 108.555 20.924C108.116 20.924 107.719 21.0127 107.365 21.19C107.019 21.358 106.749 21.6053 106.553 21.932C106.366 22.2493 106.273 22.618 106.273 23.038C106.273 23.458 106.366 23.8313 106.553 24.158C106.749 24.4753 107.019 24.7273 107.365 24.914C107.719 25.0913 108.116 25.18 108.555 25.18ZM118.359 27.098C117.529 27.098 116.801 26.9347 116.175 26.608C115.559 26.272 115.079 25.8147 114.733 25.236C114.397 24.6573 114.229 23.9993 114.229 23.262C114.229 22.5153 114.393 21.8573 114.719 21.288C115.055 20.7093 115.513 20.2567 116.091 19.93C116.679 19.6033 117.347 19.44 118.093 19.44C118.821 19.44 119.47 19.5987 120.039 19.916C120.609 20.2333 121.057 20.6813 121.383 21.26C121.71 21.8387 121.873 22.52 121.873 23.304C121.873 23.3787 121.869 23.4627 121.859 23.556C121.859 23.6493 121.855 23.738 121.845 23.822H115.615V22.66H120.921L120.235 23.024C120.245 22.5947 120.156 22.2167 119.969 21.89C119.783 21.5633 119.526 21.3067 119.199 21.12C118.882 20.9333 118.513 20.84 118.093 20.84C117.664 20.84 117.286 20.9333 116.959 21.12C116.642 21.3067 116.39 21.568 116.203 21.904C116.026 22.2307 115.937 22.618 115.937 23.066V23.346C115.937 23.794 116.04 24.1907 116.245 24.536C116.451 24.8813 116.74 25.1473 117.113 25.334C117.487 25.5207 117.916 25.614 118.401 25.614C118.821 25.614 119.199 25.5487 119.535 25.418C119.871 25.2873 120.17 25.082 120.431 24.802L121.369 25.88C121.033 26.272 120.609 26.5753 120.095 26.79C119.591 26.9953 119.013 27.098 118.359 27.098ZM129.901 27L126.653 17.2H128.543L131.441 26.062H130.503L133.513 17.2H135.193L138.119 26.062H137.209L140.177 17.2H141.913L138.665 27H136.733L134.059 19.006H134.563L131.847 27H129.901ZM147.675 19.44C148.272 19.44 148.804 19.5567 149.271 19.79C149.747 20.0233 150.12 20.3827 150.391 20.868C150.662 21.344 150.797 21.96 150.797 22.716V27H149.047V22.94C149.047 22.2773 148.888 21.7827 148.571 21.456C148.263 21.1293 147.829 20.966 147.269 20.966C146.858 20.966 146.494 21.05 146.177 21.218C145.86 21.386 145.612 21.638 145.435 21.974C145.267 22.3007 145.183 22.716 145.183 23.22V27H143.433V16.612H145.183V21.54L144.805 20.924C145.066 20.448 145.444 20.084 145.939 19.832C146.443 19.5707 147.022 19.44 147.675 19.44ZM157.623 27V25.488L157.525 25.166V22.52C157.525 22.0067 157.371 21.61 157.063 21.33C156.755 21.0407 156.288 20.896 155.663 20.896C155.243 20.896 154.828 20.9613 154.417 21.092C154.016 21.2227 153.675 21.4047 153.395 21.638L152.709 20.364C153.11 20.056 153.586 19.8273 154.137 19.678C154.697 19.5193 155.276 19.44 155.873 19.44C156.956 19.44 157.791 19.7013 158.379 20.224C158.976 20.7373 159.275 21.5353 159.275 22.618V27H157.623ZM155.271 27.098C154.711 27.098 154.221 27.0047 153.801 26.818C153.381 26.622 153.054 26.356 152.821 26.02C152.597 25.6747 152.485 25.2873 152.485 24.858C152.485 24.438 152.583 24.06 152.779 23.724C152.984 23.388 153.316 23.122 153.773 22.926C154.23 22.73 154.837 22.632 155.593 22.632H157.763V23.794H155.719C155.122 23.794 154.72 23.892 154.515 24.088C154.31 24.2747 154.207 24.508 154.207 24.788C154.207 25.1053 154.333 25.3573 154.585 25.544C154.837 25.7307 155.187 25.824 155.635 25.824C156.064 25.824 156.447 25.726 156.783 25.53C157.128 25.334 157.376 25.0447 157.525 24.662L157.819 25.712C157.651 26.1507 157.348 26.4913 156.909 26.734C156.48 26.9767 155.934 27.098 155.271 27.098ZM164.335 27.098C163.514 27.098 162.879 26.888 162.431 26.468C161.983 26.0387 161.759 25.4087 161.759 24.578V17.872H163.509V24.536C163.509 24.8907 163.598 25.166 163.775 25.362C163.962 25.558 164.218 25.656 164.545 25.656C164.937 25.656 165.264 25.5533 165.525 25.348L166.015 26.594C165.81 26.762 165.558 26.888 165.259 26.972C164.96 27.056 164.652 27.098 164.335 27.098ZM160.527 20.98V19.58H165.511V20.98H160.527ZM169.765 27.098C169.139 27.098 168.537 27.0187 167.959 26.86C167.389 26.692 166.937 26.4913 166.601 26.258L167.273 24.928C167.609 25.1427 168.01 25.32 168.477 25.46C168.943 25.6 169.41 25.67 169.877 25.67C170.427 25.67 170.824 25.5953 171.067 25.446C171.319 25.2967 171.445 25.096 171.445 24.844C171.445 24.6387 171.361 24.4847 171.193 24.382C171.025 24.27 170.805 24.186 170.535 24.13C170.264 24.074 169.961 24.0227 169.625 23.976C169.298 23.9293 168.967 23.8687 168.631 23.794C168.304 23.71 168.005 23.5933 167.735 23.444C167.464 23.2853 167.245 23.0753 167.077 22.814C166.909 22.5527 166.825 22.2073 166.825 21.778C166.825 21.302 166.96 20.8913 167.231 20.546C167.501 20.1913 167.879 19.9207 168.365 19.734C168.859 19.538 169.443 19.44 170.115 19.44C170.619 19.44 171.127 19.496 171.641 19.608C172.154 19.72 172.579 19.8787 172.915 20.084L172.243 21.414C171.888 21.1993 171.529 21.0547 171.165 20.98C170.81 20.896 170.455 20.854 170.101 20.854C169.569 20.854 169.172 20.9333 168.911 21.092C168.659 21.2507 168.533 21.4513 168.533 21.694C168.533 21.918 168.617 22.086 168.785 22.198C168.953 22.31 169.172 22.3987 169.443 22.464C169.713 22.5293 170.012 22.5853 170.339 22.632C170.675 22.6693 171.006 22.73 171.333 22.814C171.659 22.898 171.958 23.0147 172.229 23.164C172.509 23.304 172.733 23.5047 172.901 23.766C173.069 24.0273 173.153 24.368 173.153 24.788C173.153 25.2547 173.013 25.6607 172.733 26.006C172.462 26.3513 172.075 26.622 171.571 26.818C171.067 27.0047 170.465 27.098 169.765 27.098ZM179.266 27V25.488L179.168 25.166V22.52C179.168 22.0067 179.014 21.61 178.706 21.33C178.398 21.0407 177.931 20.896 177.306 20.896C176.886 20.896 176.47 20.9613 176.06 21.092C175.658 21.2227 175.318 21.4047 175.038 21.638L174.352 20.364C174.753 20.056 175.229 19.8273 175.78 19.678C176.34 19.5193 176.918 19.44 177.516 19.44C178.598 19.44 179.434 19.7013 180.022 20.224C180.619 20.7373 180.918 21.5353 180.918 22.618V27H179.266ZM176.914 27.098C176.354 27.098 175.864 27.0047 175.444 26.818C175.024 26.622 174.697 26.356 174.464 26.02C174.24 25.6747 174.128 25.2873 174.128 24.858C174.128 24.438 174.226 24.06 174.422 23.724C174.627 23.388 174.958 23.122 175.416 22.926C175.873 22.73 176.48 22.632 177.236 22.632H179.406V23.794H177.362C176.764 23.794 176.363 23.892 176.158 24.088C175.952 24.2747 175.85 24.508 175.85 24.788C175.85 25.1053 175.976 25.3573 176.228 25.544C176.48 25.7307 176.83 25.824 177.278 25.824C177.707 25.824 178.09 25.726 178.426 25.53C178.771 25.334 179.018 25.0447 179.168 24.662L179.462 25.712C179.294 26.1507 178.99 26.4913 178.552 26.734C178.122 26.9767 177.576 27.098 176.914 27.098ZM187.308 27.098C186.701 27.098 186.146 26.958 185.642 26.678C185.147 26.398 184.75 25.978 184.452 25.418C184.162 24.8487 184.018 24.13 184.018 23.262C184.018 22.3847 184.158 21.666 184.438 21.106C184.727 20.546 185.119 20.1307 185.614 19.86C186.108 19.58 186.673 19.44 187.308 19.44C188.045 19.44 188.694 19.5987 189.254 19.916C189.823 20.2333 190.271 20.6767 190.598 21.246C190.934 21.8153 191.102 22.4873 191.102 23.262C191.102 24.0367 190.934 24.7133 190.598 25.292C190.271 25.8613 189.823 26.3047 189.254 26.622C188.694 26.9393 188.045 27.098 187.308 27.098ZM183.164 29.716V19.524H184.83V21.288L184.774 23.276L184.914 25.264V29.716H183.164ZM187.112 25.6C187.532 25.6 187.905 25.5067 188.232 25.32C188.568 25.1333 188.834 24.8627 189.03 24.508C189.226 24.1533 189.324 23.738 189.324 23.262C189.324 22.7767 189.226 22.3613 189.03 22.016C188.834 21.6613 188.568 21.3907 188.232 21.204C187.905 21.0173 187.532 20.924 187.112 20.924C186.692 20.924 186.314 21.0173 185.978 21.204C185.642 21.3907 185.376 21.6613 185.18 22.016C184.984 22.3613 184.886 22.7767 184.886 23.262C184.886 23.738 184.984 24.1533 185.18 24.508C185.376 24.8627 185.642 25.1333 185.978 25.32C186.314 25.5067 186.692 25.6 187.112 25.6ZM196.905 27.098C196.299 27.098 195.743 26.958 195.239 26.678C194.745 26.398 194.348 25.978 194.049 25.418C193.76 24.8487 193.615 24.13 193.615 23.262C193.615 22.3847 193.755 21.666 194.035 21.106C194.325 20.546 194.717 20.1307 195.211 19.86C195.706 19.58 196.271 19.44 196.905 19.44C197.643 19.44 198.291 19.5987 198.851 19.916C199.421 20.2333 199.869 20.6767 200.195 21.246C200.531 21.8153 200.699 22.4873 200.699 23.262C200.699 24.0367 200.531 24.7133 200.195 25.292C199.869 25.8613 199.421 26.3047 198.851 26.622C198.291 26.9393 197.643 27.098 196.905 27.098ZM192.761 29.716V19.524H194.427V21.288L194.371 23.276L194.511 25.264V29.716H192.761ZM196.709 25.6C197.129 25.6 197.503 25.5067 197.829 25.32C198.165 25.1333 198.431 24.8627 198.627 24.508C198.823 24.1533 198.921 23.738 198.921 23.262C198.921 22.7767 198.823 22.3613 198.627 22.016C198.431 21.6613 198.165 21.3907 197.829 21.204C197.503 21.0173 197.129 20.924 196.709 20.924C196.289 20.924 195.911 21.0173 195.575 21.204C195.239 21.3907 194.973 21.6613 194.777 22.016C194.581 22.3613 194.483 22.7767 194.483 23.262C194.483 23.738 194.581 24.1533 194.777 24.508C194.973 24.8627 195.239 25.1333 195.575 25.32C195.911 25.5067 196.289 25.6 196.709 25.6ZM210.974 27.14C210.209 27.14 209.504 27.0187 208.86 26.776C208.225 26.524 207.67 26.174 207.194 25.726C206.718 25.2687 206.349 24.732 206.088 24.116C205.827 23.5 205.696 22.828 205.696 22.1C205.696 21.372 205.827 20.7 206.088 20.084C206.349 19.468 206.718 18.936 207.194 18.488C207.679 18.0307 208.244 17.6807 208.888 17.438C209.532 17.186 210.237 17.06 211.002 17.06C211.833 17.06 212.579 17.1953 213.242 17.466C213.914 17.7367 214.479 18.1333 214.936 18.656L213.788 19.776C213.405 19.3933 212.99 19.1133 212.542 18.936C212.103 18.7493 211.618 18.656 211.086 18.656C210.573 18.656 210.097 18.74 209.658 18.908C209.219 19.076 208.841 19.314 208.524 19.622C208.207 19.93 207.959 20.294 207.782 20.714C207.614 21.134 207.53 21.596 207.53 22.1C207.53 22.5947 207.614 23.052 207.782 23.472C207.959 23.892 208.207 24.2607 208.524 24.578C208.841 24.886 209.215 25.124 209.644 25.292C210.073 25.46 210.549 25.544 211.072 25.544C211.557 25.544 212.024 25.4693 212.472 25.32C212.929 25.1613 213.363 24.9 213.774 24.536L214.81 25.894C214.297 26.3047 213.699 26.6173 213.018 26.832C212.346 27.0373 211.665 27.14 210.974 27.14ZM213.088 25.656V21.988H214.81V25.894L213.088 25.656ZM217.043 27V19.524H218.709V21.582L218.513 20.98C218.737 20.476 219.087 20.0933 219.563 19.832C220.048 19.5707 220.65 19.44 221.369 19.44V21.106C221.294 21.0873 221.224 21.078 221.159 21.078C221.093 21.0687 221.028 21.064 220.963 21.064C220.3 21.064 219.773 21.26 219.381 21.652C218.989 22.0347 218.793 22.6087 218.793 23.374V27H217.043ZM226.145 27.098C225.379 27.098 224.698 26.9347 224.101 26.608C223.503 26.272 223.032 25.8147 222.687 25.236C222.341 24.6573 222.169 23.9993 222.169 23.262C222.169 22.5153 222.341 21.8573 222.687 21.288C223.032 20.7093 223.503 20.2567 224.101 19.93C224.698 19.6033 225.379 19.44 226.145 19.44C226.919 19.44 227.605 19.6033 228.203 19.93C228.809 20.2567 229.281 20.7047 229.617 21.274C229.962 21.8433 230.135 22.506 230.135 23.262C230.135 23.9993 229.962 24.6573 229.617 25.236C229.281 25.8147 228.809 26.272 228.203 26.608C227.605 26.9347 226.919 27.098 226.145 27.098ZM226.145 25.6C226.574 25.6 226.957 25.5067 227.293 25.32C227.629 25.1333 227.89 24.8627 228.077 24.508C228.273 24.1533 228.371 23.738 228.371 23.262C228.371 22.7767 228.273 22.3613 228.077 22.016C227.89 21.6613 227.629 21.3907 227.293 21.204C226.957 21.0173 226.579 20.924 226.159 20.924C225.729 20.924 225.347 21.0173 225.011 21.204C224.684 21.3907 224.423 21.6613 224.227 22.016C224.031 22.3613 223.933 22.7767 223.933 23.262C223.933 23.738 224.031 24.1533 224.227 24.508C224.423 24.8627 224.684 25.1333 225.011 25.32C225.347 25.5067 225.725 25.6 226.145 25.6ZM234.972 27.098C234.337 27.098 233.777 26.9813 233.292 26.748C232.807 26.5053 232.429 26.1413 232.158 25.656C231.887 25.1613 231.752 24.5407 231.752 23.794V19.524H233.502V23.556C233.502 24.228 233.651 24.732 233.95 25.068C234.258 25.3947 234.692 25.558 235.252 25.558C235.663 25.558 236.017 25.474 236.316 25.306C236.624 25.138 236.862 24.886 237.03 24.55C237.207 24.214 237.296 23.7987 237.296 23.304V19.524H239.046V27H237.38V24.984L237.674 25.6C237.422 26.0853 237.053 26.4587 236.568 26.72C236.083 26.972 235.551 27.098 234.972 27.098ZM245.481 27.098C244.875 27.098 244.319 26.958 243.815 26.678C243.321 26.398 242.924 25.978 242.625 25.418C242.336 24.8487 242.191 24.13 242.191 23.262C242.191 22.3847 242.331 21.666 242.611 21.106C242.901 20.546 243.293 20.1307 243.787 19.86C244.282 19.58 244.847 19.44 245.481 19.44C246.219 19.44 246.867 19.5987 247.427 19.916C247.997 20.2333 248.445 20.6767 248.771 21.246C249.107 21.8153 249.275 22.4873 249.275 23.262C249.275 24.0367 249.107 24.7133 248.771 25.292C248.445 25.8613 247.997 26.3047 247.427 26.622C246.867 26.9393 246.219 27.098 245.481 27.098ZM241.337 29.716V19.524H243.003V21.288L242.947 23.276L243.087 25.264V29.716H241.337ZM245.285 25.6C245.705 25.6 246.079 25.5067 246.405 25.32C246.741 25.1333 247.007 24.8627 247.203 24.508C247.399 24.1533 247.497 23.738 247.497 23.262C247.497 22.7767 247.399 22.3613 247.203 22.016C247.007 21.6613 246.741 21.3907 246.405 21.204C246.079 21.0173 245.705 20.924 245.285 20.924C244.865 20.924 244.487 21.0173 244.151 21.204C243.815 21.3907 243.549 21.6613 243.353 22.016C243.157 22.3613 243.059 22.7767 243.059 23.262C243.059 23.738 243.157 24.1533 243.353 24.508C243.549 24.8627 243.815 25.1333 244.151 25.32C244.487 25.5067 244.865 25.6 245.285 25.6Z" fill="#F3F4F5"/>
</g>
<defs>
<linearGradient id="paint0_linear_23200_3366" x1="36.0024" y1="33.0822" x2="36.0024" y2="9.91521" gradientUnits="userSpaceOnUse">
<stop stop-color="#20B038"/>
<stop offset="1" stop-color="#60D66A"/>
</linearGradient>
<linearGradient id="paint1_linear_23200_3366" x1="36.0023" y1="33.4977" x2="36.0023" y2="9.5" gradientUnits="userSpaceOnUse">
<stop stop-color="#F9F9F9"/>
<stop offset="1" stop-color="white"/>
</linearGradient>
<clipPath id="clip0_23200_3366">
<rect width="274" height="43" fill="white"/>
</clipPath>
</defs>
</svg>
