<svg width="13" height="13" viewBox="0 0 13 13" fill="none" xmlns="http://www.w3.org/2000/svg">
<path fill-rule="evenodd" clip-rule="evenodd" d="M2.39446 0.145379L0.733316 1.80283C-0.135347 2.67149 -0.168563 4.0568 0.301418 5.4795C0.771398 6.9022 1.75603 8.4439 3.15489 9.84277C4.55376 11.2416 6.09915 12.23 7.52186 12.6999C8.94456 13.1699 10.3262 13.133 11.1948 12.2643L12.856 10.6069C12.9026 10.5604 12.9397 10.5052 12.9649 10.4444C12.9902 10.3836 13.0032 10.3184 13.0032 10.2525C13.0032 10.1867 12.9902 10.1215 12.9649 10.0606C12.9397 9.99983 12.9026 9.94461 12.856 9.89814L10.2055 7.24769C10.1591 7.20103 10.1038 7.164 10.043 7.13874C9.98221 7.11347 9.917 7.10047 9.85115 7.10047C9.7853 7.10047 9.72009 7.11347 9.65928 7.13874C9.59846 7.164 9.54324 7.20103 9.49677 7.24769L7.90207 8.84608C7.87505 8.87311 7.82831 8.90214 7.69166 8.90515C7.55501 8.90817 7.3446 8.87054 7.10103 8.77594C6.61391 8.58678 5.99867 8.17924 5.42882 7.60945C4.85897 7.03961 4.45147 6.42065 4.26232 5.93354C4.16775 5.68999 4.13012 5.48326 4.13312 5.34661C4.13615 5.20996 4.16514 5.16324 4.19218 5.13619L5.78688 3.5415C5.83355 3.49503 5.87057 3.4398 5.89584 3.37899C5.9211 3.31818 5.93411 3.25297 5.93411 3.18712C5.93411 3.12127 5.9211 3.05606 5.89584 2.99525C5.87057 2.93443 5.83355 2.87921 5.78688 2.83274L3.09952 0.145379C3.00582 0.0522634 2.87909 0 2.74699 0C2.61489 0 2.48816 0.0522634 2.39446 0.145379ZM2.74884 1.20851L4.72744 3.18712L3.48712 4.42744C3.2447 4.66986 3.13979 5.00529 3.13275 5.32446C3.12575 5.64362 3.19969 5.96389 3.32839 6.2953C3.58577 6.95813 4.0666 7.66474 4.72006 8.31821C5.37352 8.97158 6.07646 9.44879 6.73927 9.70619C7.07068 9.83488 7.39464 9.91255 7.71381 9.90552C8.03298 9.89853 8.36471 9.79358 8.60714 9.55115L9.85115 8.31082L11.7928 10.2525L10.4898 11.5593C9.99798 12.0511 9.06346 12.1568 7.83563 11.7512C6.6078 11.3456 5.16702 10.4411 3.86365 9.1377C2.56028 7.83433 1.65572 6.39356 1.25012 5.16573C0.844509 3.93789 0.950284 3.00337 1.44207 2.51159L2.74884 1.20851Z" fill="#676767"/>
</svg>
