<svg width="22" height="25" viewBox="0 0 22 25" fill="none" xmlns="http://www.w3.org/2000/svg">
<path d="M21.0625 13.4035C21.0653 11.3186 20.4523 9.27924 19.3006 7.54128C18.1489 5.80332 16.5096 4.44412 14.5884 3.63415C14.5036 3.59593 14.4119 3.57505 14.3188 3.57275C14.2258 3.57045 14.1332 3.58677 14.0465 3.62074C13.9599 3.65472 13.8809 3.70567 13.8142 3.7706C13.7475 3.83553 13.6944 3.91314 13.6581 3.99886C13.6218 4.08458 13.603 4.17669 13.6028 4.26978C13.6026 4.36286 13.621 4.45505 13.657 4.54093C13.6929 4.62681 13.7456 4.70464 13.812 4.76986C13.8784 4.83507 13.9572 4.88636 14.0437 4.92071C15.712 5.62389 17.1354 6.80407 18.1355 8.31318C19.1355 9.82229 19.6676 11.5931 19.6651 13.4035C19.6651 18.4561 15.5743 22.5684 10.531 22.606C5.48823 22.5666 1.39687 18.4561 1.39687 13.4035C1.39439 11.593 1.92669 9.82205 2.92696 8.31293C3.92724 6.8038 5.35094 5.6237 7.01941 4.92071C7.10654 4.88683 7.18598 4.83582 7.25303 4.77068C7.32008 4.70555 7.37338 4.62763 7.40978 4.54153C7.44617 4.45543 7.46492 4.3629 7.46491 4.26942C7.46491 4.17594 7.44614 4.08342 7.40973 3.99732C7.37332 3.91123 7.32001 3.83331 7.25295 3.76819C7.18588 3.70307 7.10644 3.65207 7.01931 3.6182C6.93218 3.58434 6.83914 3.5683 6.74571 3.57104C6.65227 3.57378 6.56033 3.59524 6.47534 3.63415C4.55383 4.4438 2.91423 5.80289 1.76224 7.54089C0.610262 9.27889 -0.00278907 11.3184 9.53921e-06 13.4035C9.53921e-06 19.1869 4.65517 23.9024 10.4133 24.0016C10.4287 24.0016 10.4441 24.0016 10.4595 24.0016H10.5987C10.6148 24.0016 10.6302 24.0016 10.6456 24.0016C16.4074 23.9006 21.0625 19.185 21.0625 13.4035Z" fill="#232323"/>
<path d="M10.4868 15.241C10.6721 15.241 10.8499 15.1673 10.9809 15.0363C11.1119 14.9053 11.1856 14.7275 11.1856 14.5422V0.698736C11.1856 0.51342 11.1119 0.335694 10.9809 0.204655C10.8499 0.0736168 10.6721 0 10.4868 0C10.3015 0 10.1238 0.0736168 9.99274 0.204655C9.8617 0.335694 9.78809 0.51342 9.78809 0.698736V14.5422C9.78809 14.7275 9.8617 14.9053 9.99274 15.0363C10.1238 15.1673 10.3015 15.241 10.4868 15.241Z" fill="#232323"/>
</svg>
