<svg width="17" height="24" viewBox="0 0 25 24" fill="none" xmlns="http://www.w3.org/2000/svg">
<path d="M16.7564 24H7.26545C7.12158 23.998 6.98434 23.9391 6.88364 23.8364L0.174545 17.1382C0.121673 17.0892 0.0790261 17.0303 0.0490671 16.9647C0.0191081 16.8992 0.00243123 16.8284 0 16.7564V7.26545C0.0020493 7.12158 0.0608649 6.98434 0.163636 6.88364L6.88364 0.174545C6.9326 0.121673 6.99154 0.0790261 7.05708 0.0490671C7.12262 0.0191081 7.19344 0.00243123 7.26545 0H16.7564C16.9002 0.0020493 17.0375 0.0608649 17.1382 0.163636L23.8473 6.87273C23.95 6.97344 24.0089 7.11067 24.0109 7.25455V16.7455C24.0089 16.8893 23.95 17.0266 23.8473 17.1273L17.1382 23.8364C17.0375 23.9391 16.9002 23.998 16.7564 24ZM7.49455 22.9091H16.5273L22.9091 16.5273V7.49455L16.5273 1.09091H7.49455L1.09091 7.49455V16.5273L7.49455 22.9091Z" fill="red"/>
<path d="M7.75642 16.7898C7.64966 16.7883 7.54569 16.7555 7.45739 16.6955C7.3691 16.6354 7.30037 16.5508 7.25971 16.4521C7.21906 16.3534 7.20828 16.2449 7.2287 16.1401C7.24912 16.0353 7.29985 15.9388 7.3746 15.8625L15.8619 7.37526C15.9646 7.27255 16.1039 7.21484 16.2491 7.21484C16.3944 7.21484 16.5337 7.27255 16.6364 7.37526C16.7391 7.47797 16.7968 7.61727 16.7968 7.76253C16.7968 7.90779 16.7391 8.04709 16.6364 8.1498L8.13824 16.6262C8.03753 16.7289 7.9003 16.7878 7.75642 16.7898Z" fill="red"/>
<path d="M16.2436 16.789C16.0997 16.7869 15.9625 16.7281 15.8618 16.6254L7.37453 8.13808C7.27181 8.03537 7.21411 7.89607 7.21411 7.75081C7.21411 7.60556 7.27181 7.46625 7.37453 7.36354C7.47724 7.26083 7.61654 7.20313 7.7618 7.20312C7.90705 7.20312 8.04636 7.26083 8.14907 7.36354L16.6363 15.8508C16.7111 15.927 16.7618 16.0236 16.7822 16.1283C16.8027 16.2331 16.7919 16.3416 16.7512 16.4404C16.7106 16.5391 16.6418 16.6237 16.5536 16.6838C16.4653 16.7438 16.3613 16.7766 16.2545 16.7781L16.2436 16.789Z" fill="red"/>
</svg>
