<svg width="27" height="24" viewBox="0 0 27 24" fill="none" xmlns="http://www.w3.org/2000/svg">
<mask id="path-1-inside-1_15743_82194" fill="white">
<path d="M1.42371 20.9493L1.25083 20.9351C1.13088 20.9106 1.02261 20.8466 0.94333 20.7533C0.864054 20.66 0.818356 20.5428 0.813547 20.4205V1.2208C0.813547 1.11291 0.856403 1.00945 0.932688 0.933164C1.00897 0.856879 1.11244 0.814022 1.22032 0.814022H9.18901C9.4968 0.802451 9.79665 0.913191 10.023 1.12204C10.2494 1.33089 10.3839 1.62086 10.3971 1.92858V3.05128C10.3971 3.15916 10.44 3.26262 10.5163 3.33891C10.5926 3.41519 10.696 3.45805 10.8039 3.45805H13.6269C13.7348 3.45805 13.8383 3.41519 13.9145 3.33891C13.9908 3.26262 14.0337 3.15916 14.0337 3.05128C14.0337 2.94339 13.9908 2.83993 13.9145 2.76364C13.8383 2.68736 13.7348 2.6445 13.6269 2.6445H11.2107V1.92858C11.1973 1.40512 10.9771 0.908272 10.5982 0.546878C10.2192 0.185485 9.71252 -0.0109956 9.18901 0.000475489H1.22032C0.896671 0.000475489 0.586278 0.129045 0.357424 0.357899C0.128569 0.586754 0 0.897147 0 1.2208V20.4205C0.00475221 20.7448 0.125534 21.0567 0.340452 21.2996C0.555371 21.5425 0.850203 21.7003 1.17151 21.7446L1.36269 21.7608H1.3993C1.50262 21.7573 1.60072 21.7146 1.67368 21.6414C1.74664 21.5681 1.78897 21.4698 1.79208 21.3665C1.79519 21.2632 1.75884 21.1625 1.69041 21.0851C1.62199 21.0076 1.52663 20.959 1.42371 20.9493Z"/>
<path d="M24.8132 1.22065H16.8181C16.5579 1.21361 16.2989 1.25791 16.0558 1.35101C15.8128 1.44412 15.5905 1.5842 15.4016 1.76326C15.2127 1.94232 15.061 2.15684 14.955 2.39457C14.8491 2.6323 14.791 2.88858 14.7842 3.14875V4.27145H3.66097C3.33732 4.27145 3.02692 4.40002 2.79807 4.62887C2.56921 4.85773 2.44064 5.16812 2.44064 5.49177V12.4069C2.44064 12.5148 2.4835 12.6183 2.55979 12.6946C2.63607 12.7708 2.73954 12.8137 2.84742 12.8137C2.9553 12.8137 3.05877 12.7708 3.13505 12.6946C3.21134 12.6183 3.25419 12.5148 3.25419 12.4069V5.49177C3.25419 5.38389 3.29705 5.28042 3.37333 5.20414C3.44962 5.12785 3.55308 5.085 3.66097 5.085H15.1991C15.307 5.085 15.4104 5.04214 15.4867 4.96585C15.563 4.88957 15.6059 4.78611 15.6059 4.67822V3.14875C15.6201 2.83921 15.7566 2.54797 15.9854 2.33899C16.2142 2.13002 16.5166 2.02039 16.8262 2.03419H24.8132C24.9211 2.03419 25.0245 2.07705 25.1008 2.15334C25.1771 2.22962 25.22 2.33309 25.22 2.44097V19.8407C25.2142 19.9646 25.1666 20.083 25.085 20.1764C25.0034 20.2698 24.8925 20.3329 24.7705 20.3553L3.59588 23.1864C3.55306 23.1939 3.50913 23.1922 3.46703 23.1813C3.42494 23.1704 3.38566 23.1507 3.35182 23.1234C3.31877 23.0927 3.29289 23.0551 3.27602 23.0132C3.25914 22.9714 3.25169 22.9264 3.25419 22.8813V15.6611C3.25419 15.5532 3.21134 15.4498 3.13505 15.3735C3.05877 15.2972 2.9553 15.2543 2.84742 15.2543C2.73954 15.2543 2.63607 15.2972 2.55979 15.3735C2.4835 15.4498 2.44064 15.5532 2.44064 15.6611V22.8813C2.43875 23.0415 2.47117 23.2003 2.53571 23.3469C2.60026 23.4936 2.69545 23.6247 2.81488 23.7315C3.01836 23.9067 3.27854 24.0021 3.54707 24C3.59944 24.0001 3.65176 23.9967 3.70368 23.9898L24.8783 21.1525C25.1964 21.1052 25.4874 20.9463 25.6991 20.704C25.9107 20.4618 26.0293 20.1522 26.0335 19.8305V2.44097C26.0335 2.11732 25.9049 1.80693 25.6761 1.57807C25.4472 1.34922 25.1368 1.22065 24.8132 1.22065Z"/>
<path d="M8.17819 13.8042C8.22429 13.7771 8.2646 13.7412 8.29681 13.6985C8.32903 13.6558 8.35251 13.6072 8.36592 13.5555C8.37934 13.5037 8.38241 13.4498 8.37498 13.3969C8.36754 13.3439 8.34974 13.293 8.32259 13.2469L7.5904 12.0001C7.55451 11.939 7.50325 11.8882 7.44171 11.853C7.38016 11.8178 7.31048 11.7992 7.23956 11.7992C7.16864 11.7992 7.09895 11.8178 7.0374 11.853C6.97586 11.8882 6.9246 11.939 6.88871 12.0001L6.82973 12.0998C6.78555 12.1458 6.75281 12.2015 6.73414 12.2625L6.15652 13.2489C6.10268 13.3423 6.08807 13.4532 6.11591 13.5573C6.14374 13.6614 6.21175 13.7502 6.30499 13.8042C6.35106 13.8313 6.40202 13.8491 6.45497 13.8566C6.50792 13.864 6.56181 13.8609 6.61357 13.8475C6.66533 13.8341 6.71394 13.8106 6.75661 13.7784C6.79929 13.7462 6.83519 13.7059 6.86227 13.6598V13.6496C7.18782 14.9723 7.98438 16.131 9.10277 16.9086C10.2212 17.6862 11.5847 18.0295 12.9379 17.8741C14.2912 17.7187 15.5415 17.0754 16.4545 16.0645C17.3675 15.0536 17.8807 13.7446 17.898 12.3825C17.898 12.2746 17.8552 12.1712 17.7789 12.0949C17.7026 12.0186 17.5991 11.9757 17.4913 11.9757C17.3834 11.9757 17.2799 12.0186 17.2036 12.0949C17.1273 12.1712 17.0845 12.2746 17.0845 12.3825C17.0639 13.5135 16.6436 14.6006 15.8981 15.4513C15.1525 16.3019 14.1298 16.8611 13.0113 17.0297C11.8928 17.1984 10.7507 16.9655 9.78749 16.3725C8.82426 15.7795 8.10211 14.8646 7.74904 13.7899C7.81212 13.8321 7.88575 13.8558 7.96158 13.8583C8.03742 13.8608 8.11244 13.8421 8.17819 13.8042Z"/>
<path d="M20.7027 12.2301C20.6566 12.2572 20.6163 12.2931 20.5841 12.3357C20.5519 12.3784 20.5284 12.427 20.515 12.4788C20.5016 12.5305 20.4985 12.5844 20.5059 12.6374C20.5134 12.6903 20.5312 12.7413 20.5583 12.7874L21.2905 14.0362C21.3264 14.0973 21.3777 14.148 21.4392 14.1833C21.5008 14.2185 21.5704 14.2371 21.6414 14.2371C21.7123 14.2371 21.782 14.2185 21.8435 14.1833C21.9051 14.148 21.9563 14.0973 21.9922 14.0362L22.0512 13.9365C22.0954 13.8905 22.1281 13.8348 22.1468 13.7738L22.7244 12.7874C22.7687 12.695 22.7765 12.5894 22.7463 12.4916C22.7162 12.3937 22.6502 12.3109 22.5616 12.2595C22.4731 12.2082 22.3684 12.1921 22.2685 12.2146C22.1686 12.237 22.0808 12.2963 22.0227 12.3806V12.3908C21.7005 11.0647 20.9051 9.902 19.786 9.12108C18.6669 8.34016 17.3012 7.99481 15.9454 8.14992C14.5896 8.30503 13.3371 8.94993 12.4233 9.96342C11.5095 10.9769 10.9973 12.2892 10.9829 13.6538C10.9829 13.7617 11.0257 13.8651 11.102 13.9414C11.1783 14.0177 11.2818 14.0606 11.3897 14.0606C11.4975 14.0606 11.601 14.0177 11.6773 13.9414C11.7536 13.8651 11.7964 13.7617 11.7964 13.6538C11.8165 12.5227 12.2365 11.4352 12.9819 10.5842C13.7273 9.73321 14.75 9.17366 15.8686 9.00477C16.9873 8.83588 18.1296 9.06856 19.093 9.66156C20.0564 10.2546 20.7787 11.1695 21.1319 12.2443C21.0688 12.2022 20.9952 12.1785 20.9193 12.176C20.8435 12.1734 20.7685 12.1922 20.7027 12.2301Z"/>
<path d="M2.84741 14.4409C3.07207 14.4409 3.25419 14.2587 3.25419 14.0341C3.25419 13.8094 3.07207 13.6273 2.84741 13.6273C2.62276 13.6273 2.44064 13.8094 2.44064 14.0341C2.44064 14.2587 2.62276 14.4409 2.84741 14.4409Z"/>
</mask>
<path d="M1.42371 20.9493L1.25083 20.9351C1.13088 20.9106 1.02261 20.8466 0.94333 20.7533C0.864054 20.66 0.818356 20.5428 0.813547 20.4205V1.2208C0.813547 1.11291 0.856403 1.00945 0.932688 0.933164C1.00897 0.856879 1.11244 0.814022 1.22032 0.814022H9.18901C9.4968 0.802451 9.79665 0.913191 10.023 1.12204C10.2494 1.33089 10.3839 1.62086 10.3971 1.92858V3.05128C10.3971 3.15916 10.44 3.26262 10.5163 3.33891C10.5926 3.41519 10.696 3.45805 10.8039 3.45805H13.6269C13.7348 3.45805 13.8383 3.41519 13.9145 3.33891C13.9908 3.26262 14.0337 3.15916 14.0337 3.05128C14.0337 2.94339 13.9908 2.83993 13.9145 2.76364C13.8383 2.68736 13.7348 2.6445 13.6269 2.6445H11.2107V1.92858C11.1973 1.40512 10.9771 0.908272 10.5982 0.546878C10.2192 0.185485 9.71252 -0.0109956 9.18901 0.000475489H1.22032C0.896671 0.000475489 0.586278 0.129045 0.357424 0.357899C0.128569 0.586754 0 0.897147 0 1.2208V20.4205C0.00475221 20.7448 0.125534 21.0567 0.340452 21.2996C0.555371 21.5425 0.850203 21.7003 1.17151 21.7446L1.36269 21.7608H1.3993C1.50262 21.7573 1.60072 21.7146 1.67368 21.6414C1.74664 21.5681 1.78897 21.4698 1.79208 21.3665C1.79519 21.2632 1.75884 21.1625 1.69041 21.0851C1.62199 21.0076 1.52663 20.959 1.42371 20.9493Z" fill="#232323"/>
<path d="M24.8132 1.22065H16.8181C16.5579 1.21361 16.2989 1.25791 16.0558 1.35101C15.8128 1.44412 15.5905 1.5842 15.4016 1.76326C15.2127 1.94232 15.061 2.15684 14.955 2.39457C14.8491 2.6323 14.791 2.88858 14.7842 3.14875V4.27145H3.66097C3.33732 4.27145 3.02692 4.40002 2.79807 4.62887C2.56921 4.85773 2.44064 5.16812 2.44064 5.49177V12.4069C2.44064 12.5148 2.4835 12.6183 2.55979 12.6946C2.63607 12.7708 2.73954 12.8137 2.84742 12.8137C2.9553 12.8137 3.05877 12.7708 3.13505 12.6946C3.21134 12.6183 3.25419 12.5148 3.25419 12.4069V5.49177C3.25419 5.38389 3.29705 5.28042 3.37333 5.20414C3.44962 5.12785 3.55308 5.085 3.66097 5.085H15.1991C15.307 5.085 15.4104 5.04214 15.4867 4.96585C15.563 4.88957 15.6059 4.78611 15.6059 4.67822V3.14875C15.6201 2.83921 15.7566 2.54797 15.9854 2.33899C16.2142 2.13002 16.5166 2.02039 16.8262 2.03419H24.8132C24.9211 2.03419 25.0245 2.07705 25.1008 2.15334C25.1771 2.22962 25.22 2.33309 25.22 2.44097V19.8407C25.2142 19.9646 25.1666 20.083 25.085 20.1764C25.0034 20.2698 24.8925 20.3329 24.7705 20.3553L3.59588 23.1864C3.55306 23.1939 3.50913 23.1922 3.46703 23.1813C3.42494 23.1704 3.38566 23.1507 3.35182 23.1234C3.31877 23.0927 3.29289 23.0551 3.27602 23.0132C3.25914 22.9714 3.25169 22.9264 3.25419 22.8813V15.6611C3.25419 15.5532 3.21134 15.4498 3.13505 15.3735C3.05877 15.2972 2.9553 15.2543 2.84742 15.2543C2.73954 15.2543 2.63607 15.2972 2.55979 15.3735C2.4835 15.4498 2.44064 15.5532 2.44064 15.6611V22.8813C2.43875 23.0415 2.47117 23.2003 2.53571 23.3469C2.60026 23.4936 2.69545 23.6247 2.81488 23.7315C3.01836 23.9067 3.27854 24.0021 3.54707 24C3.59944 24.0001 3.65176 23.9967 3.70368 23.9898L24.8783 21.1525C25.1964 21.1052 25.4874 20.9463 25.6991 20.704C25.9107 20.4618 26.0293 20.1522 26.0335 19.8305V2.44097C26.0335 2.11732 25.9049 1.80693 25.6761 1.57807C25.4472 1.34922 25.1368 1.22065 24.8132 1.22065Z" fill="#232323"/>
<path d="M8.17819 13.8042C8.22429 13.7771 8.2646 13.7412 8.29681 13.6985C8.32903 13.6558 8.35251 13.6072 8.36592 13.5555C8.37934 13.5037 8.38241 13.4498 8.37498 13.3969C8.36754 13.3439 8.34974 13.293 8.32259 13.2469L7.5904 12.0001C7.55451 11.939 7.50325 11.8882 7.44171 11.853C7.38016 11.8178 7.31048 11.7992 7.23956 11.7992C7.16864 11.7992 7.09895 11.8178 7.0374 11.853C6.97586 11.8882 6.9246 11.939 6.88871 12.0001L6.82973 12.0998C6.78555 12.1458 6.75281 12.2015 6.73414 12.2625L6.15652 13.2489C6.10268 13.3423 6.08807 13.4532 6.11591 13.5573C6.14374 13.6614 6.21175 13.7502 6.30499 13.8042C6.35106 13.8313 6.40202 13.8491 6.45497 13.8566C6.50792 13.864 6.56181 13.8609 6.61357 13.8475C6.66533 13.8341 6.71394 13.8106 6.75661 13.7784C6.79929 13.7462 6.83519 13.7059 6.86227 13.6598V13.6496C7.18782 14.9723 7.98438 16.131 9.10277 16.9086C10.2212 17.6862 11.5847 18.0295 12.9379 17.8741C14.2912 17.7187 15.5415 17.0754 16.4545 16.0645C17.3675 15.0536 17.8807 13.7446 17.898 12.3825C17.898 12.2746 17.8552 12.1712 17.7789 12.0949C17.7026 12.0186 17.5991 11.9757 17.4913 11.9757C17.3834 11.9757 17.2799 12.0186 17.2036 12.0949C17.1273 12.1712 17.0845 12.2746 17.0845 12.3825C17.0639 13.5135 16.6436 14.6006 15.8981 15.4513C15.1525 16.3019 14.1298 16.8611 13.0113 17.0297C11.8928 17.1984 10.7507 16.9655 9.78749 16.3725C8.82426 15.7795 8.10211 14.8646 7.74904 13.7899C7.81212 13.8321 7.88575 13.8558 7.96158 13.8583C8.03742 13.8608 8.11244 13.8421 8.17819 13.8042Z" fill="#232323"/>
<path d="M20.7027 12.2301C20.6566 12.2572 20.6163 12.2931 20.5841 12.3357C20.5519 12.3784 20.5284 12.427 20.515 12.4788C20.5016 12.5305 20.4985 12.5844 20.5059 12.6374C20.5134 12.6903 20.5312 12.7413 20.5583 12.7874L21.2905 14.0362C21.3264 14.0973 21.3777 14.148 21.4392 14.1833C21.5008 14.2185 21.5704 14.2371 21.6414 14.2371C21.7123 14.2371 21.782 14.2185 21.8435 14.1833C21.9051 14.148 21.9563 14.0973 21.9922 14.0362L22.0512 13.9365C22.0954 13.8905 22.1281 13.8348 22.1468 13.7738L22.7244 12.7874C22.7687 12.695 22.7765 12.5894 22.7463 12.4916C22.7162 12.3937 22.6502 12.3109 22.5616 12.2595C22.4731 12.2082 22.3684 12.1921 22.2685 12.2146C22.1686 12.237 22.0808 12.2963 22.0227 12.3806V12.3908C21.7005 11.0647 20.9051 9.902 19.786 9.12108C18.6669 8.34016 17.3012 7.99481 15.9454 8.14992C14.5896 8.30503 13.3371 8.94993 12.4233 9.96342C11.5095 10.9769 10.9973 12.2892 10.9829 13.6538C10.9829 13.7617 11.0257 13.8651 11.102 13.9414C11.1783 14.0177 11.2818 14.0606 11.3897 14.0606C11.4975 14.0606 11.601 14.0177 11.6773 13.9414C11.7536 13.8651 11.7964 13.7617 11.7964 13.6538C11.8165 12.5227 12.2365 11.4352 12.9819 10.5842C13.7273 9.73321 14.75 9.17366 15.8686 9.00477C16.9873 8.83588 18.1296 9.06856 19.093 9.66156C20.0564 10.2546 20.7787 11.1695 21.1319 12.2443C21.0688 12.2022 20.9952 12.1785 20.9193 12.176C20.8435 12.1734 20.7685 12.1922 20.7027 12.2301Z" fill="#232323"/>
<path d="M2.84741 14.4409C3.07207 14.4409 3.25419 14.2587 3.25419 14.0341C3.25419 13.8094 3.07207 13.6273 2.84741 13.6273C2.62276 13.6273 2.44064 13.8094 2.44064 14.0341C2.44064 14.2587 2.62276 14.4409 2.84741 14.4409Z" fill="#232323"/>
<path d="M1.42371 20.9493L1.25083 20.9351C1.13088 20.9106 1.02261 20.8466 0.94333 20.7533C0.864054 20.66 0.818356 20.5428 0.813547 20.4205V1.2208C0.813547 1.11291 0.856403 1.00945 0.932688 0.933164C1.00897 0.856879 1.11244 0.814022 1.22032 0.814022H9.18901C9.4968 0.802451 9.79665 0.913191 10.023 1.12204C10.2494 1.33089 10.3839 1.62086 10.3971 1.92858V3.05128C10.3971 3.15916 10.44 3.26262 10.5163 3.33891C10.5926 3.41519 10.696 3.45805 10.8039 3.45805H13.6269C13.7348 3.45805 13.8383 3.41519 13.9145 3.33891C13.9908 3.26262 14.0337 3.15916 14.0337 3.05128C14.0337 2.94339 13.9908 2.83993 13.9145 2.76364C13.8383 2.68736 13.7348 2.6445 13.6269 2.6445H11.2107V1.92858C11.1973 1.40512 10.9771 0.908272 10.5982 0.546878C10.2192 0.185485 9.71252 -0.0109956 9.18901 0.000475489H1.22032C0.896671 0.000475489 0.586278 0.129045 0.357424 0.357899C0.128569 0.586754 0 0.897147 0 1.2208V20.4205C0.00475221 20.7448 0.125534 21.0567 0.340452 21.2996C0.555371 21.5425 0.850203 21.7003 1.17151 21.7446L1.36269 21.7608H1.3993C1.50262 21.7573 1.60072 21.7146 1.67368 21.6414C1.74664 21.5681 1.78897 21.4698 1.79208 21.3665C1.79519 21.2632 1.75884 21.1625 1.69041 21.0851C1.62199 21.0076 1.52663 20.959 1.42371 20.9493Z" stroke="#232323" stroke-width="2" mask="url(#path-1-inside-1_15743_82194)"/>
<path d="M24.8132 1.22065H16.8181C16.5579 1.21361 16.2989 1.25791 16.0558 1.35101C15.8128 1.44412 15.5905 1.5842 15.4016 1.76326C15.2127 1.94232 15.061 2.15684 14.955 2.39457C14.8491 2.6323 14.791 2.88858 14.7842 3.14875V4.27145H3.66097C3.33732 4.27145 3.02692 4.40002 2.79807 4.62887C2.56921 4.85773 2.44064 5.16812 2.44064 5.49177V12.4069C2.44064 12.5148 2.4835 12.6183 2.55979 12.6946C2.63607 12.7708 2.73954 12.8137 2.84742 12.8137C2.9553 12.8137 3.05877 12.7708 3.13505 12.6946C3.21134 12.6183 3.25419 12.5148 3.25419 12.4069V5.49177C3.25419 5.38389 3.29705 5.28042 3.37333 5.20414C3.44962 5.12785 3.55308 5.085 3.66097 5.085H15.1991C15.307 5.085 15.4104 5.04214 15.4867 4.96585C15.563 4.88957 15.6059 4.78611 15.6059 4.67822V3.14875C15.6201 2.83921 15.7566 2.54797 15.9854 2.33899C16.2142 2.13002 16.5166 2.02039 16.8262 2.03419H24.8132C24.9211 2.03419 25.0245 2.07705 25.1008 2.15334C25.1771 2.22962 25.22 2.33309 25.22 2.44097V19.8407C25.2142 19.9646 25.1666 20.083 25.085 20.1764C25.0034 20.2698 24.8925 20.3329 24.7705 20.3553L3.59588 23.1864C3.55306 23.1939 3.50913 23.1922 3.46703 23.1813C3.42494 23.1704 3.38566 23.1507 3.35182 23.1234C3.31877 23.0927 3.29289 23.0551 3.27602 23.0132C3.25914 22.9714 3.25169 22.9264 3.25419 22.8813V15.6611C3.25419 15.5532 3.21134 15.4498 3.13505 15.3735C3.05877 15.2972 2.9553 15.2543 2.84742 15.2543C2.73954 15.2543 2.63607 15.2972 2.55979 15.3735C2.4835 15.4498 2.44064 15.5532 2.44064 15.6611V22.8813C2.43875 23.0415 2.47117 23.2003 2.53571 23.3469C2.60026 23.4936 2.69545 23.6247 2.81488 23.7315C3.01836 23.9067 3.27854 24.0021 3.54707 24C3.59944 24.0001 3.65176 23.9967 3.70368 23.9898L24.8783 21.1525C25.1964 21.1052 25.4874 20.9463 25.6991 20.704C25.9107 20.4618 26.0293 20.1522 26.0335 19.8305V2.44097C26.0335 2.11732 25.9049 1.80693 25.6761 1.57807C25.4472 1.34922 25.1368 1.22065 24.8132 1.22065Z" stroke="#232323" stroke-width="2" mask="url(#path-1-inside-1_15743_82194)"/>
<path d="M8.17819 13.8042C8.22429 13.7771 8.2646 13.7412 8.29681 13.6985C8.32903 13.6558 8.35251 13.6072 8.36592 13.5555C8.37934 13.5037 8.38241 13.4498 8.37498 13.3969C8.36754 13.3439 8.34974 13.293 8.32259 13.2469L7.5904 12.0001C7.55451 11.939 7.50325 11.8882 7.44171 11.853C7.38016 11.8178 7.31048 11.7992 7.23956 11.7992C7.16864 11.7992 7.09895 11.8178 7.0374 11.853C6.97586 11.8882 6.9246 11.939 6.88871 12.0001L6.82973 12.0998C6.78555 12.1458 6.75281 12.2015 6.73414 12.2625L6.15652 13.2489C6.10268 13.3423 6.08807 13.4532 6.11591 13.5573C6.14374 13.6614 6.21175 13.7502 6.30499 13.8042C6.35106 13.8313 6.40202 13.8491 6.45497 13.8566C6.50792 13.864 6.56181 13.8609 6.61357 13.8475C6.66533 13.8341 6.71394 13.8106 6.75661 13.7784C6.79929 13.7462 6.83519 13.7059 6.86227 13.6598V13.6496C7.18782 14.9723 7.98438 16.131 9.10277 16.9086C10.2212 17.6862 11.5847 18.0295 12.9379 17.8741C14.2912 17.7187 15.5415 17.0754 16.4545 16.0645C17.3675 15.0536 17.8807 13.7446 17.898 12.3825C17.898 12.2746 17.8552 12.1712 17.7789 12.0949C17.7026 12.0186 17.5991 11.9757 17.4913 11.9757C17.3834 11.9757 17.2799 12.0186 17.2036 12.0949C17.1273 12.1712 17.0845 12.2746 17.0845 12.3825C17.0639 13.5135 16.6436 14.6006 15.8981 15.4513C15.1525 16.3019 14.1298 16.8611 13.0113 17.0297C11.8928 17.1984 10.7507 16.9655 9.78749 16.3725C8.82426 15.7795 8.10211 14.8646 7.74904 13.7899C7.81212 13.8321 7.88575 13.8558 7.96158 13.8583C8.03742 13.8608 8.11244 13.8421 8.17819 13.8042Z" stroke="#232323" stroke-width="2" mask="url(#path-1-inside-1_15743_82194)"/>
<path d="M20.7027 12.2301C20.6566 12.2572 20.6163 12.2931 20.5841 12.3357C20.5519 12.3784 20.5284 12.427 20.515 12.4788C20.5016 12.5305 20.4985 12.5844 20.5059 12.6374C20.5134 12.6903 20.5312 12.7413 20.5583 12.7874L21.2905 14.0362C21.3264 14.0973 21.3777 14.148 21.4392 14.1833C21.5008 14.2185 21.5704 14.2371 21.6414 14.2371C21.7123 14.2371 21.782 14.2185 21.8435 14.1833C21.9051 14.148 21.9563 14.0973 21.9922 14.0362L22.0512 13.9365C22.0954 13.8905 22.1281 13.8348 22.1468 13.7738L22.7244 12.7874C22.7687 12.695 22.7765 12.5894 22.7463 12.4916C22.7162 12.3937 22.6502 12.3109 22.5616 12.2595C22.4731 12.2082 22.3684 12.1921 22.2685 12.2146C22.1686 12.237 22.0808 12.2963 22.0227 12.3806V12.3908C21.7005 11.0647 20.9051 9.902 19.786 9.12108C18.6669 8.34016 17.3012 7.99481 15.9454 8.14992C14.5896 8.30503 13.3371 8.94993 12.4233 9.96342C11.5095 10.9769 10.9973 12.2892 10.9829 13.6538C10.9829 13.7617 11.0257 13.8651 11.102 13.9414C11.1783 14.0177 11.2818 14.0606 11.3897 14.0606C11.4975 14.0606 11.601 14.0177 11.6773 13.9414C11.7536 13.8651 11.7964 13.7617 11.7964 13.6538C11.8165 12.5227 12.2365 11.4352 12.9819 10.5842C13.7273 9.73321 14.75 9.17366 15.8686 9.00477C16.9873 8.83588 18.1296 9.06856 19.093 9.66156C20.0564 10.2546 20.7787 11.1695 21.1319 12.2443C21.0688 12.2022 20.9952 12.1785 20.9193 12.176C20.8435 12.1734 20.7685 12.1922 20.7027 12.2301Z" stroke="#232323" stroke-width="2" mask="url(#path-1-inside-1_15743_82194)"/>
<path d="M2.84741 14.4409C3.07207 14.4409 3.25419 14.2587 3.25419 14.0341C3.25419 13.8094 3.07207 13.6273 2.84741 13.6273C2.62276 13.6273 2.44064 13.8094 2.44064 14.0341C2.44064 14.2587 2.62276 14.4409 2.84741 14.4409Z" stroke="#232323" stroke-width="2" mask="url(#path-1-inside-1_15743_82194)"/>
</svg>
