<svg width="24" height="24" viewBox="0 0 24 24" fill="none" xmlns="http://www.w3.org/2000/svg">
<path d="M21.744 11.5203L2.64962 2.88028C2.56227 2.84423 2.46661 2.83321 2.37335 2.84848C2.28009 2.86374 2.19293 2.90467 2.12162 2.96668C2.0519 3.03107 2.00283 3.11468 1.98062 3.20696C1.9584 3.29923 1.96404 3.39601 1.99682 3.48508L5.12642 12.0003L1.99682 20.4771C1.96404 20.5661 1.9584 20.6629 1.98062 20.7552C2.00283 20.8475 2.0519 20.9311 2.12162 20.9955C2.2131 21.0729 2.32821 21.1169 2.44802 21.1203C2.51452 21.134 2.58312 21.134 2.64962 21.1203L21.744 12.4803C21.8306 12.4434 21.9044 12.3819 21.9563 12.3034C22.0082 12.2248 22.0359 12.1328 22.0359 12.0387C22.0359 11.9446 22.0082 11.8525 21.9563 11.774C21.9044 11.6955 21.8306 11.634 21.744 11.5971V11.5203ZM3.29282 4.27228L19.3248 11.5203H5.97122L3.29282 4.27228ZM5.97122 12.4803H19.3248L3.29282 19.7283L5.97122 12.4803Z" fill="#232323"/>
</svg>
