<svg width="10" height="12" viewBox="0 0 10 12" fill="none" xmlns="http://www.w3.org/2000/svg">
<path d="M0 10.0831C0 11.1386 0.859325 11.9993 1.91619 11.9993L7.3751 12C8.43259 12 9.2913 11.1407 9.2913 10.0838V6.25415C9.2913 5.19866 8.43197 4.33795 7.3751 4.33795H7.33574V2.67266C7.33574 1.19886 6.13682 0 4.66308 0C3.18934 0 1.99041 1.19892 1.99041 2.67266V4.33795H1.91702C0.859536 4.33795 0.000826813 5.19728 0.000826813 6.25415L0 10.0831ZM2.67266 2.67268C2.67266 1.57582 3.56603 0.683212 4.66213 0.683212C5.75899 0.683212 6.6516 1.57658 6.6516 2.67268V4.33797H2.67181L2.67266 2.67268ZM0.683196 6.25417C0.683196 5.5743 1.23629 5.0212 1.91616 5.0212H7.37507C8.05494 5.0212 8.60803 5.5743 8.60803 6.25417V10.0838C8.60803 10.7637 8.05494 11.3168 7.37507 11.3168H1.91616C1.23629 11.3168 0.683196 10.7637 0.683196 10.0838V6.25417Z" fill="#676767"/>
<path d="M4.32162 8.60911V9.72931C4.32162 9.91746 4.47507 10.0709 4.66322 10.0709C4.85137 10.0709 5.00481 9.91746 5.00481 9.72931V8.60911C5.44182 8.46567 5.75807 8.05401 5.75807 7.56898C5.75807 6.9645 5.26636 6.47412 4.66322 6.47412C4.06007 6.47412 3.56836 6.96583 3.56836 7.56898C3.56836 8.05268 3.88394 8.46434 4.32162 8.60911ZM4.66322 7.15598C4.89005 7.15598 5.07488 7.34012 5.07488 7.56764C5.07488 7.79448 4.89074 7.9793 4.66322 7.9793C4.43638 7.9793 4.25156 7.79517 4.25156 7.56764C4.25156 7.34012 4.43569 7.15598 4.66322 7.15598Z" fill="#676767"/>
</svg>
