<svg width="23" height="35" viewBox="0 0 23 35" fill="none" xmlns="http://www.w3.org/2000/svg">
<path d="M10.2124 34C10.1503 34 10.0885 34 10.0574 33.9691C9.96437 33.907 9.90231 33.8452 9.90231 33.721L8.97225 26.219L3.26825 17.973C3.17526 17.818 3.20619 17.632 3.36123 17.539C3.51628 17.4461 3.70224 17.477 3.79522 17.632L9.53023 25.94C9.56115 25.971 9.59229 26.033 9.59229 26.0951L10.4603 33.2561L13.1883 32.1401L13.8703 26.0951C13.8703 26.033 13.9013 26.0021 13.9324 25.94L21.6824 14.749C21.8684 14.4701 21.8684 14.1291 21.7133 13.8501C21.5583 13.5712 21.2484 13.3852 20.9383 13.3852H2.52432C2.18331 13.3852 1.90437 13.5712 1.74932 13.8501C1.59427 14.1291 1.59427 14.4701 1.78024 14.749L2.33813 15.555C2.58616 15.9269 3.02013 16.144 3.48508 16.144L11.7311 16.1442C11.9171 16.1442 12.0412 16.2993 12.0412 16.4543C12.0412 16.6403 11.8861 16.7644 11.7311 16.7644L3.48508 16.7642C2.83396 16.7642 2.18307 16.4232 1.81118 15.8962L1.25329 15.0591C0.943205 14.5631 0.912283 13.974 1.19123 13.4782C1.47018 12.9821 1.96623 12.6722 2.55529 12.6722H20.9693C21.5272 12.6722 22.0544 12.9823 22.3334 13.4782C22.6123 13.9742 22.5814 14.5633 22.2713 15.0591L14.4903 26.2192L13.8083 32.3882C13.8083 32.5121 13.7153 32.6053 13.6223 32.6362L10.3364 33.9691C10.2743 34 10.2434 34 10.2123 34L10.2124 34Z" fill="#232323" stroke="#232323" stroke-width="0.5"/>
<path d="M11.7314 26.436H9.2825C9.09653 26.436 8.97241 26.2809 8.97241 26.1259C8.97241 25.9399 9.12746 25.8158 9.2825 25.8158L11.7314 25.816C11.9174 25.816 12.0415 25.9711 12.0415 26.1261C12.0415 26.2809 11.9174 26.436 11.7314 26.436Z" fill="#232323" stroke="#232323" stroke-width="0.5"/>
<path d="M13.5294 13.145C13.3434 13.145 13.2193 12.9899 13.2193 12.8349V6.82788C13.2193 6.64191 13.3744 6.51779 13.5294 6.51779H15.6685L11.7314 1.80595L7.79434 6.45596H9.93339C10.1194 6.45596 10.2435 6.611 10.2435 6.76604V12.773C10.2435 12.959 10.0884 13.0831 9.93339 13.0831C9.74743 13.0831 9.62331 12.9281 9.62331 12.773V7.0761H7.08141C6.95751 7.0761 6.83339 7.01404 6.80246 6.89013C6.7404 6.76623 6.77154 6.64211 6.86452 6.54912L11.5145 1.06206C11.5454 1.03092 11.6384 1 11.7314 1C11.8244 1 11.9174 1.03092 11.9794 1.12391L16.6294 6.61097C16.7224 6.70395 16.7224 6.82807 16.6604 6.95198C16.5983 7.07588 16.5053 7.13794 16.3814 7.13794H13.8705V12.8349C13.8705 12.9899 13.7154 13.145 13.5294 13.145Z" fill="#232323" stroke="#232323" stroke-width="0.5"/>
</svg>
