<svg width="27" height="31" viewBox="0 0 27 31" fill="none" xmlns="http://www.w3.org/2000/svg">
<path d="M13.1083 14.1416C13.0089 14.1416 12.9095 14.1086 12.8432 14.0092L7.60782 7.84605C7.50843 7.74666 7.50843 7.58094 7.54149 7.4485C7.57454 7.31606 7.74026 7.24972 7.87293 7.24972H10.7226V1.3645C10.7226 1.16572 10.8883 1 11.087 1C11.2858 1 11.4515 1.16572 11.4515 1.3645V7.61397C11.4515 7.81275 11.2858 7.97847 11.087 7.97847H8.66825L13.1083 13.2138L17.5483 7.97847H15.1295C14.9308 7.97847 14.765 7.81275 14.765 7.61397V1.3645C14.765 1.16572 14.9308 1 15.1295 1C15.3283 1 15.494 1.16572 15.494 1.3645V7.24948H18.3437C18.4761 7.24948 18.6088 7.31582 18.6751 7.44826C18.7414 7.5807 18.7081 7.71337 18.6088 7.84581L13.3734 14.0089C13.3071 14.075 13.2077 14.1416 13.1083 14.1416Z" fill="#232323" stroke="#232323" stroke-width="0.4"/>
<path fill-rule="evenodd" clip-rule="evenodd" d="M10.3519 19.7338C10.3519 18.2244 11.6782 16.9713 13.3528 16.9713C15.0274 16.9713 16.3536 18.2244 16.3536 19.7338C16.3536 21.2431 15.0274 22.4962 13.3528 22.4962C11.6782 22.4962 10.3519 21.2431 10.3519 19.7338ZM13.3528 16.2174C11.2837 16.2174 9.57523 17.7754 9.57523 19.7338C9.57523 21.6922 11.2838 23.2501 13.3528 23.2501C15.4219 23.2501 17.1304 21.6922 17.1304 19.7338C17.1304 17.7754 15.4218 16.2174 13.3528 16.2174ZM7.73284 30.3478C7.73284 27.1575 10.2969 24.5953 13.4297 24.5953C16.5625 24.5953 19.1265 27.1574 19.1265 30.3478H19.9034C19.9034 29.256 19.635 28.225 19.1602 27.3192C19.803 26.7766 20.6283 26.4522 21.5274 26.4522C23.5551 26.4522 25.2231 28.1118 25.2231 30.1889H26C26 27.7222 24.011 25.6983 21.5274 25.6983C20.4825 25.6983 19.5222 26.0584 18.7626 26.659C17.5972 24.9596 15.6479 23.8416 13.4297 23.8416C11.2422 23.8416 9.31641 24.9287 8.1458 26.5883C7.40119 26.0303 6.47601 25.6983 5.47256 25.6983C2.98892 25.6983 1 27.7222 1 30.1889H1.77691C1.77691 28.1118 3.44499 26.4522 5.47256 26.4522C6.32665 26.4522 7.11414 26.7449 7.74165 27.2393C7.24034 28.1641 6.95582 29.2237 6.95582 30.3478H7.73284ZM21.4761 21.3353C20.4171 21.3353 19.5898 22.1261 19.5898 23.0654C19.5898 24.0045 20.4171 24.7954 21.4761 24.7954C22.5351 24.7954 23.3624 24.0045 23.3624 23.0654C23.3624 22.1261 22.5351 21.3353 21.4761 21.3353ZM18.813 23.0654C18.813 21.6772 20.0225 20.5814 21.4761 20.5814C22.9298 20.5814 24.1393 21.6772 24.1393 23.0654C24.1393 24.4534 22.9298 25.5492 21.4761 25.5492C20.0225 25.5492 18.813 24.4534 18.813 23.0654ZM5.5244 21.3353C6.58339 21.3353 7.41069 22.1261 7.41069 23.0654C7.41069 24.0045 6.58339 24.7954 5.5244 24.7954C4.46541 24.7954 3.63811 24.0045 3.63811 23.0654C3.63811 22.1261 4.46541 21.3353 5.5244 21.3353ZM8.18745 23.0654C8.18745 21.6772 6.97794 20.5814 5.5244 20.5814C4.07072 20.5814 2.8612 21.6772 2.8612 23.0654C2.8612 24.4534 4.07072 25.5492 5.5244 25.5492C6.97794 25.5492 8.18745 24.4534 8.18745 23.0654Z" fill="#232323" stroke="#232323" stroke-width="0.4"/>
</svg>
