<svg width="29" height="30" viewBox="0 0 29 30" fill="none" xmlns="http://www.w3.org/2000/svg">
<path d="M14.8177 16.3855C10.5885 16.3855 7.12497 12.9219 7.12497 8.69273C7.12497 4.46355 10.5885 1 14.8177 1C19.0469 1 22.5104 4.46355 22.5104 8.69273C22.5104 12.9219 19.0469 16.3855 14.8177 16.3855ZM14.8177 1.72917C10.9896 1.72917 7.85414 4.86459 7.85414 8.69273C7.85414 12.5209 10.9896 15.6563 14.8177 15.6563C18.6458 15.6563 21.7813 12.5209 21.7813 8.69273C21.7813 4.86459 18.6458 1.72917 14.8177 1.72917Z" fill="#232323" stroke="#232323" stroke-width="0.4"/>
<path d="M28.6355 29H1V28.6355C1 22.7656 4.75522 17.5521 10.2604 15.6198L10.4063 15.5469L10.5521 15.6198C11.8282 16.3854 13.2865 16.8229 14.7813 16.8229C16.2761 16.8229 17.7344 16.4219 19.0105 15.6198L19.1563 15.5469L19.3021 15.6198C24.8803 17.5521 28.599 22.7656 28.6355 28.6355V29ZM1.76563 28.2709H27.9063C27.724 22.9479 24.2969 18.2083 19.2657 16.3854C17.9167 17.1875 16.3855 17.5885 14.8177 17.5885C13.25 17.5885 11.7188 17.1875 10.3698 16.3854C5.33855 18.2083 1.91146 22.9479 1.76563 28.2709Z" fill="#232323" stroke="#232323" stroke-width="0.4"/>
</svg>
