<svg width="30" height="26" viewBox="0 0 30 26" fill="none" xmlns="http://www.w3.org/2000/svg">
<path d="M27.6345 2.94498C26.0776 1.38578 23.813 0.791234 21.69 1.37396L13.9212 3.42533C9.71438 4.53567 -0.920531 6.65004 1.02167 11.4103C3.06215 16.395 9.5925 21.9664 14.4952 23.8997C21.7804 26.77 25.6648 21.675 27.2807 16.3832C27.32 16.269 27.3514 16.1627 27.3829 16.0485L27.3947 16.0013L27.4143 15.9186C27.5165 15.5564 27.607 15.1902 27.6895 14.828L29.1914 8.87072C29.7772 6.75635 29.1796 4.4963 27.6306 2.94104L27.6345 2.94498ZM24.4067 7.5832L22.4881 15.139C22.3465 15.6391 21.8865 16.0249 21.3558 16.0013C20.8289 15.9855 20.3807 15.58 20.2824 15.0642L19.6455 11.8867C19.6023 11.6781 19.5001 11.4694 19.3389 11.3079C19.1777 11.1465 18.9732 11.0363 18.7609 11.0008L15.5881 10.363C15.3562 10.3197 15.1517 10.2055 14.9905 10.0519C14.79 9.859 14.6564 9.58732 14.6446 9.29202C14.6249 8.76441 14.9906 8.28799 15.5056 8.15805L23.0306 6.21693C23.4198 6.1185 23.8287 6.22874 24.1079 6.51223C24.3831 6.79179 24.4971 7.19734 24.3988 7.58714L24.4067 7.5832Z" stroke="#232323" fill="#ffda31" stroke-miterlimit="10"/>
</svg>
