<svg width="17" height="17" viewBox="0 0 17 17" fill="none" xmlns="http://www.w3.org/2000/svg">
<path d="M5.09284 11.9063H4.99284V11.8063V11.1604C4.99284 10.3487 4.32685 9.68691 3.50675 9.68691H2.40734C1.5873 9.68691 0.921286 10.3487 0.92131 11.1603V12.6038V14.6054C0.92131 15.4171 1.5873 16.0789 2.40737 16.0789H4.60868H13.1869H15.3896C15.786 16.0789 16.1584 15.9262 16.4389 15.6488C16.7195 15.3714 16.8744 15.0029 16.8757 14.6104L16.8824 12.6073L16.886 11.5444H16.8743V11.4444V11.1604C16.8743 10.3487 16.2083 9.68691 15.3882 9.68691H14.2721C13.452 9.68691 12.786 10.3487 12.786 11.1604V11.8063V11.9063H12.686H5.09284ZM15.9056 12.5038H15.9141L15.9138 12.6041L15.907 14.6072C15.906 14.8912 15.6739 15.1195 15.3896 15.1195H13.1869H4.60865H2.40734C2.12237 15.1195 1.88996 14.8901 1.88996 14.6054V12.6038V11.1604C1.88996 10.8757 2.12238 10.6463 2.40734 10.6463H3.50678C3.79178 10.6463 4.02417 10.8757 4.02417 11.1604V12.5517C4.02417 12.7244 4.16553 12.8657 4.34155 12.8657H13.4374C13.6134 12.8657 13.7547 12.7244 13.7547 12.5517V11.1604C13.7547 10.8757 13.9871 10.6463 14.2721 10.6463H15.3882C15.6732 10.6463 15.9056 10.8757 15.9056 11.1604V12.5038Z" fill="#7C7C7C" stroke="white" stroke-width="0.2"/>
<mask id="path-2-inside-1_110_20659" fill="white">
<path d="M2.40734 16.1923H15.3896C15.8159 16.1923 16.2169 16.0279 16.5189 15.7294C16.8208 15.4308 16.9879 15.0335 16.9893 14.6106L17 11.4307H16.9879V11.1602C16.9879 10.2852 16.2703 9.57324 15.3882 9.57324H14.2721C13.39 9.57324 12.6724 10.2852 12.6724 11.1602V11.7927H5.10649V11.1602C5.10649 10.2852 4.38886 9.57324 3.50676 9.57324H2.40734C1.52527 9.57324 0.807644 10.2852 0.807644 11.1602V14.6053C0.807644 15.4804 1.52527 16.1923 2.40734 16.1923ZM16.9726 11.4578L16.962 14.6105C16.9606 15.0262 16.7964 15.4167 16.4996 15.7102C16.2028 16.0036 15.8086 16.1652 15.3896 16.1652H2.40734C1.54033 16.1652 0.834925 15.4655 0.834925 14.6053V11.1602C0.834925 10.3001 1.5403 9.60031 2.40734 9.60031H3.50676C4.3738 9.60031 5.0792 10.3001 5.0792 11.1602V11.8197H12.6997V11.1602C12.6997 10.3001 13.4051 9.60031 14.2721 9.60031H15.3882C16.2553 9.60031 16.9606 10.3001 16.9606 11.1602V11.4578H16.9726ZM2.40734 15.0329H15.3896C15.6265 15.0329 15.8198 14.8418 15.8206 14.6068L15.8274 12.5901H15.8192V11.1602C15.8192 10.9245 15.6259 10.7326 15.3882 10.7326H14.2721C14.0344 10.7326 13.8411 10.9245 13.8411 11.1602V12.5515C13.8411 12.7724 13.66 12.9521 13.4373 12.9521H4.34153C4.11892 12.9521 3.93778 12.7724 3.93778 12.5515V11.1602C3.93778 10.9245 3.74442 10.7326 3.50676 10.7326H2.40732C2.16965 10.7326 1.97629 10.9245 1.97629 11.1602V14.6053C1.97632 14.8411 2.16968 15.0329 2.40734 15.0329ZM15.8001 12.6172L15.7934 14.6067C15.7926 14.8268 15.6115 15.0059 15.3896 15.0059H2.40734C2.18471 15.0059 2.0036 14.8262 2.0036 14.6053V11.1602C2.0036 10.9394 2.18471 10.7597 2.40734 10.7597H3.50679C3.72942 10.7597 3.91053 10.9394 3.91053 11.1602V12.5515C3.91053 12.7873 4.10389 12.9791 4.34155 12.9791H13.4374C13.675 12.9791 13.8684 12.7873 13.8684 12.5515V11.1602C13.8684 10.9394 14.0495 10.7597 14.2721 10.7597H15.3882C15.6109 10.7597 15.792 10.9394 15.792 11.1602V12.6172H15.8001Z"/>
</mask>
<path d="M2.40734 16.1923H15.3896C15.8159 16.1923 16.2169 16.0279 16.5189 15.7294C16.8208 15.4308 16.9879 15.0335 16.9893 14.6106L17 11.4307H16.9879V11.1602C16.9879 10.2852 16.2703 9.57324 15.3882 9.57324H14.2721C13.39 9.57324 12.6724 10.2852 12.6724 11.1602V11.7927H5.10649V11.1602C5.10649 10.2852 4.38886 9.57324 3.50676 9.57324H2.40734C1.52527 9.57324 0.807644 10.2852 0.807644 11.1602V14.6053C0.807644 15.4804 1.52527 16.1923 2.40734 16.1923ZM16.9726 11.4578L16.962 14.6105C16.9606 15.0262 16.7964 15.4167 16.4996 15.7102C16.2028 16.0036 15.8086 16.1652 15.3896 16.1652H2.40734C1.54033 16.1652 0.834925 15.4655 0.834925 14.6053V11.1602C0.834925 10.3001 1.5403 9.60031 2.40734 9.60031H3.50676C4.3738 9.60031 5.0792 10.3001 5.0792 11.1602V11.8197H12.6997V11.1602C12.6997 10.3001 13.4051 9.60031 14.2721 9.60031H15.3882C16.2553 9.60031 16.9606 10.3001 16.9606 11.1602V11.4578H16.9726ZM2.40734 15.0329H15.3896C15.6265 15.0329 15.8198 14.8418 15.8206 14.6068L15.8274 12.5901H15.8192V11.1602C15.8192 10.9245 15.6259 10.7326 15.3882 10.7326H14.2721C14.0344 10.7326 13.8411 10.9245 13.8411 11.1602V12.5515C13.8411 12.7724 13.66 12.9521 13.4373 12.9521H4.34153C4.11892 12.9521 3.93778 12.7724 3.93778 12.5515V11.1602C3.93778 10.9245 3.74442 10.7326 3.50676 10.7326H2.40732C2.16965 10.7326 1.97629 10.9245 1.97629 11.1602V14.6053C1.97632 14.8411 2.16968 15.0329 2.40734 15.0329ZM15.8001 12.6172L15.7934 14.6067C15.7926 14.8268 15.6115 15.0059 15.3896 15.0059H2.40734C2.18471 15.0059 2.0036 14.8262 2.0036 14.6053V11.1602C2.0036 10.9394 2.18471 10.7597 2.40734 10.7597H3.50679C3.72942 10.7597 3.91053 10.9394 3.91053 11.1602V12.5515C3.91053 12.7873 4.10389 12.9791 4.34155 12.9791H13.4374C13.675 12.9791 13.8684 12.7873 13.8684 12.5515V11.1602C13.8684 10.9394 14.0495 10.7597 14.2721 10.7597H15.3882C15.6109 10.7597 15.792 10.9394 15.792 11.1602V12.6172H15.8001Z" fill="#7C7C7C"/>
<path d="M16.5189 15.7294L16.6595 15.8716L16.6595 15.8716L16.5189 15.7294ZM16.9893 14.6106L16.7893 14.6099V14.6099L16.9893 14.6106ZM17 11.4307V11.2307H17.2007L17.2 11.4314L17 11.4307ZM16.9879 11.4307V11.6307H16.7879V11.4307H16.9879ZM12.6724 11.7927H12.8724V11.9927H12.6724V11.7927ZM5.10649 11.7927V11.9927H4.90648V11.7927H5.10649ZM16.9726 11.4578V11.2578H17.1733L17.1726 11.4585L16.9726 11.4578ZM16.962 14.6105L17.162 14.6112L17.162 14.6112L16.962 14.6105ZM5.0792 11.8197V12.0197H4.8792V11.8197H5.0792ZM12.6997 11.8197H12.8997V12.0197H12.6997V11.8197ZM16.9606 11.4578V11.6578H16.7606V11.4578H16.9606ZM15.8206 14.6068L15.6206 14.6061V14.6061L15.8206 14.6068ZM15.8274 12.5901V12.3901H16.0281L16.0274 12.5908L15.8274 12.5901ZM15.8192 12.5901V12.7901H15.6192V12.5901H15.8192ZM1.97629 14.6053L1.77629 14.6053V14.6053H1.97629ZM15.7934 14.6067L15.5934 14.606V14.606L15.7934 14.6067ZM15.792 12.6172V12.8172H15.592V12.6172H15.792ZM2.40734 15.9923H15.3896V16.3923H2.40734V15.9923ZM15.3896 15.9923C15.7635 15.9923 16.1139 15.8485 16.3783 15.5871L16.6595 15.8716C16.3199 16.2073 15.8683 16.3923 15.3896 16.3923V15.9923ZM16.3783 15.5872C16.6425 15.3259 16.7881 14.9794 16.7893 14.6099L17.1893 14.6113C17.1877 15.0876 16.9991 15.5358 16.6595 15.8716L16.3783 15.5872ZM16.7893 14.6099L16.8 11.4301L17.2 11.4314L17.1893 14.6113L16.7893 14.6099ZM17 11.6307H16.9879V11.2307H17V11.6307ZM16.7879 11.4307V11.1602H17.1879V11.4307H16.7879ZM16.7879 11.1602C16.7879 10.3971 16.1613 9.77324 15.3882 9.77324V9.37324C16.3792 9.37324 17.1879 10.1732 17.1879 11.1602H16.7879ZM15.3882 9.77324H14.2721V9.37324H15.3882V9.77324ZM14.2721 9.77324C13.499 9.77324 12.8724 10.3971 12.8724 11.1602H12.4724C12.4724 10.1732 13.2811 9.37324 14.2721 9.37324V9.77324ZM12.8724 11.1602V11.7927H12.4724V11.1602H12.8724ZM12.6724 11.9927H5.10649V11.5927H12.6724V11.9927ZM4.90648 11.7927V11.1602H5.30649V11.7927H4.90648ZM4.90648 11.1602C4.90648 10.3971 4.27991 9.77324 3.50676 9.77324V9.37324C4.49781 9.37324 5.30649 10.1732 5.30649 11.1602H4.90648ZM3.50676 9.77324H2.40734V9.37324H3.50676V9.77324ZM2.40734 9.77324C1.63422 9.77324 1.00764 10.3971 1.00764 11.1602H0.607645C0.607645 10.1732 1.41632 9.37324 2.40734 9.37324V9.77324ZM1.00764 11.1602V14.6053H0.607645V11.1602H1.00764ZM1.00764 14.6053C1.00764 15.3684 1.63422 15.9923 2.40734 15.9923V16.3923C1.41632 16.3923 0.607645 15.5924 0.607645 14.6053H1.00764ZM17.1726 11.4585L17.162 14.6112L16.762 14.6098L16.7726 11.4571L17.1726 11.4585ZM17.162 14.6112C17.1604 15.0803 16.9747 15.5217 16.6402 15.8524L16.359 15.568C16.6181 15.3118 16.7608 14.9721 16.762 14.6098L17.162 14.6112ZM16.6402 15.8524C16.3058 16.183 15.861 16.3652 15.3896 16.3652V15.9652C15.7562 15.9652 16.0998 15.8242 16.359 15.568L16.6402 15.8524ZM15.3896 16.3652H2.40734V15.9652H15.3896V16.3652ZM2.40734 16.3652C1.43138 16.3652 0.634924 15.5774 0.634924 14.6053H1.03492C1.03492 15.3535 1.64928 15.9652 2.40734 15.9652V16.3652ZM0.634924 14.6053V11.1602H1.03492V14.6053H0.634924ZM0.634924 11.1602C0.634924 10.1882 1.43135 9.40031 2.40734 9.40031V9.80031C1.64926 9.80031 1.03492 10.4121 1.03492 11.1602H0.634924ZM2.40734 9.40031H3.50676V9.80031H2.40734V9.40031ZM3.50676 9.40031C4.48275 9.40031 5.27921 10.1881 5.27921 11.1602H4.8792C4.8792 10.412 4.26485 9.80031 3.50676 9.80031V9.40031ZM5.27921 11.1602V11.8197H4.8792V11.1602H5.27921ZM5.0792 11.6197H12.6997V12.0197H5.0792V11.6197ZM12.4997 11.8197V11.1602H12.8997V11.8197H12.4997ZM12.4997 11.1602C12.4997 10.1882 13.2961 9.40031 14.2721 9.40031V9.80031C13.514 9.80031 12.8997 10.4121 12.8997 11.1602H12.4997ZM14.2721 9.40031H15.3882V9.80031H14.2721V9.40031ZM15.3882 9.40031C16.3642 9.40031 17.1606 10.1881 17.1606 11.1602H16.7606C16.7606 10.412 16.1463 9.80031 15.3882 9.80031V9.40031ZM17.1606 11.1602V11.4578H16.7606V11.1602H17.1606ZM16.9606 11.2578H16.9726V11.6578H16.9606V11.2578ZM2.40734 14.8329H15.3896V15.2329H2.40734V14.8329ZM15.3896 14.8329C15.5178 14.8329 15.6202 14.7294 15.6206 14.6061L16.0206 14.6074C16.0195 14.9541 15.7352 15.2329 15.3896 15.2329V14.8329ZM15.6206 14.6061L15.6274 12.5895L16.0274 12.5908L16.0206 14.6074L15.6206 14.6061ZM15.8274 12.7901H15.8192V12.3901H15.8274V12.7901ZM15.6192 12.5901V11.1602H16.0192V12.5901H15.6192ZM15.6192 11.1602C15.6192 11.0364 15.5169 10.9326 15.3882 10.9326V10.5326C15.7348 10.5326 16.0192 10.8125 16.0192 11.1602H15.6192ZM15.3882 10.9326H14.2721V10.5326H15.3882V10.9326ZM14.2721 10.9326C14.1434 10.9326 14.0411 11.0364 14.0411 11.1602H13.6411C13.6411 10.8125 13.9255 10.5326 14.2721 10.5326V10.9326ZM14.0411 11.1602V12.5515H13.6411V11.1602H14.0411ZM14.0411 12.5515C14.0411 12.8843 13.7689 13.1521 13.4373 13.1521V12.7521C13.551 12.7521 13.6411 12.6604 13.6411 12.5515H14.0411ZM13.4373 13.1521H4.34153V12.7521H13.4373V13.1521ZM4.34153 13.1521C4.00997 13.1521 3.73778 12.8843 3.73778 12.5515H4.13778C4.13778 12.6604 4.22787 12.7521 4.34153 12.7521V13.1521ZM3.73778 12.5515V11.1602H4.13778V12.5515H3.73778ZM3.73778 11.1602C3.73778 11.0364 3.63547 10.9326 3.50676 10.9326V10.5326C3.85337 10.5326 4.13778 10.8125 4.13778 11.1602H3.73778ZM3.50676 10.9326H2.40732V10.5326H3.50676V10.9326ZM2.40732 10.9326C2.27861 10.9326 2.17629 11.0364 2.17629 11.1602H1.77629C1.77629 10.8125 2.06071 10.5326 2.40732 10.5326V10.9326ZM2.17629 11.1602V14.6053H1.77629V11.1602H2.17629ZM2.17629 14.6053C2.17631 14.7292 2.27865 14.8329 2.40734 14.8329V15.2329C2.06072 15.2329 1.77633 14.9531 1.77629 14.6053L2.17629 14.6053ZM16.0001 12.6179L15.9933 14.6073L15.5934 14.606L15.6001 12.6165L16.0001 12.6179ZM15.9933 14.6073C15.9922 14.9391 15.7202 15.2059 15.3896 15.2059V14.8059C15.5028 14.8059 15.593 14.7144 15.5934 14.606L15.9933 14.6073ZM15.3896 15.2059H2.40734V14.8059H15.3896V15.2059ZM2.40734 15.2059C2.07574 15.2059 1.8036 14.9381 1.8036 14.6053H2.2036C2.2036 14.7142 2.29368 14.8059 2.40734 14.8059V15.2059ZM1.8036 14.6053V11.1602H2.2036V14.6053H1.8036ZM1.8036 11.1602C1.8036 10.8275 2.07575 10.5597 2.40734 10.5597V10.9597C2.29367 10.9597 2.2036 11.0514 2.2036 11.1602H1.8036ZM2.40734 10.5597H3.50679V10.9597H2.40734V10.5597ZM3.50679 10.5597C3.83838 10.5597 4.11053 10.8275 4.11053 11.1602H3.71053C3.71053 11.0514 3.62046 10.9597 3.50679 10.9597V10.5597ZM4.11053 11.1602V12.5515H3.71053V11.1602H4.11053ZM4.11053 12.5515C4.11053 12.6753 4.21284 12.7791 4.34155 12.7791V13.1791C3.99494 13.1791 3.71053 12.8992 3.71053 12.5515H4.11053ZM4.34155 12.7791H13.4374V13.1791H4.34155V12.7791ZM13.4374 12.7791C13.5661 12.7791 13.6684 12.6753 13.6684 12.5515H14.0684C14.0684 12.8992 13.784 13.1791 13.4374 13.1791V12.7791ZM13.6684 12.5515V11.1602H14.0684V12.5515H13.6684ZM13.6684 11.1602C13.6684 10.8275 13.9405 10.5597 14.2721 10.5597V10.9597C14.1585 10.9597 14.0684 11.0514 14.0684 11.1602H13.6684ZM14.2721 10.5597H15.3882V10.9597H14.2721V10.5597ZM15.3882 10.5597C15.7198 10.5597 15.992 10.8275 15.992 11.1602H15.592C15.592 11.0514 15.5019 10.9597 15.3882 10.9597V10.5597ZM15.992 11.1602V12.6172H15.592V11.1602H15.992ZM15.792 12.4172H15.8001V12.8172H15.792V12.4172Z" fill="white" mask="url(#path-2-inside-1_110_20659)"/>
<path d="M11.9877 6.94264H12.0877H12.4717C12.7747 6.94264 13.065 6.85374 13.3118 6.6859L11.9877 6.94264ZM11.9877 6.94264V7.04264M11.9877 6.94264V7.04264M11.9877 7.04264V9.36013C11.9877 10.1717 11.3217 10.8336 10.5016 10.8336H7.30322C6.48316 10.8336 5.81719 10.1717 5.81716 9.36013V7.04264V6.94264H5.71716H5.33317C5.03015 6.94264 4.73984 6.85377 4.49301 6.6859C4.26531 6.531 4.08569 6.31594 3.97354 6.06386L3.97353 6.06385C3.86136 5.81178 3.82233 5.53536 3.8604 5.26442C3.90168 4.97074 4.03094 4.69835 4.23499 4.47649L4.235 4.47648L7.80426 0.594672L7.73064 0.526987L7.80426 0.594669C8.08504 0.289278 8.48539 0.113866 8.90243 0.113866C9.3195 0.113866 9.71985 0.289279 10.0006 0.594669L10.0727 0.528424L10.0006 0.594672L13.5699 4.47648C13.7739 4.69836 13.9032 4.97074 13.9444 5.26441L13.9444 5.26441C13.9825 5.53536 13.9435 5.81178 13.8313 6.06386L13.8313 6.06386M11.9877 7.04264L13.8313 6.06386M13.8313 6.06386C13.7192 6.31597 13.5395 6.53103 13.3118 6.6859L13.8313 6.06386ZM9.28442 1.2406L9.2844 1.24058C9.18176 1.12898 9.04178 1.07329 8.90243 1.07329C8.7631 1.07329 8.62311 1.12895 8.52045 1.24059L8.59406 1.30828L8.52044 1.2406L4.95121 5.12243C4.64673 5.45356 4.88507 5.98324 5.3332 5.98324H6.46845C6.6445 5.98324 6.78587 6.12461 6.78587 6.29731V9.36013C6.78587 9.64479 7.01826 9.8742 7.30325 9.8742H10.5016C10.7866 9.8742 11.019 9.64479 11.019 9.36013V6.29728C11.019 6.12458 11.1603 5.98321 11.3364 5.98321H12.4716C12.9198 5.98321 13.1581 5.45354 12.8536 5.12241C12.8536 5.12241 12.8536 5.12241 12.8536 5.1224L9.28442 1.2406Z" fill="#7C7C7C" stroke="white" stroke-width="0.2"/>
<mask id="path-5-inside-2_110_20659" fill="white">
<path d="M8.90244 0.000473976C9.35114 0.000473976 9.78192 0.189105 10.0843 0.518006L13.6536 4.39982C13.873 4.63846 14.0125 4.93202 14.057 5.24877C14.0981 5.54086 14.0559 5.83873 13.9352 6.11012C13.8145 6.38148 13.621 6.61309 13.3758 6.77991C13.1099 6.96075 12.7973 7.05633 12.4717 7.05633H12.1013V9.36027C12.1013 10.2353 11.3837 10.9473 10.5016 10.9473H7.30326C6.42118 10.9473 5.70356 10.2353 5.70356 9.36027V7.05631H5.3332C5.00764 7.05631 4.69501 6.96072 4.42909 6.77988C4.18387 6.61306 3.99043 6.38148 3.86971 6.11009C3.74894 5.83873 3.70682 5.54087 3.74788 5.24874C3.7924 4.93191 3.93191 4.63836 4.15132 4.39979L7.72059 0.518006C8.02298 0.189078 8.45376 0.000473976 8.90244 0.000473976ZM12.4717 7.02924C12.7917 7.02924 13.099 6.93531 13.3603 6.75755C13.6014 6.5936 13.7915 6.36595 13.9102 6.09918C14.0289 5.83242 14.0703 5.53962 14.03 5.25248C13.9862 4.94117 13.8491 4.65262 13.6334 4.41803L10.0642 0.536248C9.76691 0.212976 9.3435 0.0275373 8.90244 0.0275373C8.4614 0.0275373 8.03799 0.212976 7.74072 0.536248L4.17151 4.41806C3.95586 4.65259 3.8187 4.94114 3.77494 5.2525C3.73459 5.53965 3.776 5.83242 3.8947 6.09918C4.0134 6.36595 4.20351 6.59363 4.44456 6.75755C4.7059 6.93531 5.01321 7.02924 5.33323 7.02924H5.73086V9.36027C5.73086 10.2204 6.43624 10.9202 7.30328 10.9202H10.5016C11.3687 10.9202 12.0741 10.2204 12.0741 9.36027V7.02924H12.4717ZM8.90244 1.1599C9.02334 1.1599 9.13942 1.21072 9.22088 1.2993L12.7901 5.18111C12.9069 5.30809 12.936 5.48468 12.866 5.64195C12.7961 5.79921 12.645 5.89688 12.4717 5.89688H11.3364C11.1138 5.89688 10.9326 6.07656 10.9326 6.29742V9.36027C10.9326 9.59604 10.7393 9.78787 10.5016 9.78787H7.30328C7.06562 9.78787 6.87226 9.59604 6.87226 9.36027V6.29745C6.87226 6.07659 6.69112 5.89691 6.46849 5.89691H5.3332C5.15992 5.89691 5.00882 5.79921 4.93887 5.64195C4.86892 5.48468 4.898 5.30812 5.01476 5.18114L8.58403 1.2993C8.66548 1.2107 8.78156 1.1599 8.90244 1.1599ZM12.4717 5.86985C12.634 5.86985 12.7755 5.77835 12.841 5.63104C12.9066 5.48373 12.8793 5.31832 12.77 5.19938L9.20072 1.31754C9.12442 1.23456 9.01568 1.18696 8.90244 1.18696C8.7892 1.18696 8.68046 1.23456 8.60413 1.31754L5.03492 5.19938C4.92556 5.31832 4.8983 5.48371 4.96386 5.63101C5.02938 5.77832 5.17094 5.86985 5.33323 5.86985H6.46851C6.70621 5.86985 6.89957 6.06167 6.89957 6.29745V9.36027C6.89957 9.58113 7.08071 9.76081 7.30331 9.76081H10.5016C10.7243 9.76081 10.9054 9.58113 10.9054 9.36027V6.29745C10.9054 6.06167 11.0988 5.86985 11.3364 5.86985H12.4717Z"/>
</mask>
<path d="M8.90244 0.000473976C9.35114 0.000473976 9.78192 0.189105 10.0843 0.518006L13.6536 4.39982C13.873 4.63846 14.0125 4.93202 14.057 5.24877C14.0981 5.54086 14.0559 5.83873 13.9352 6.11012C13.8145 6.38148 13.621 6.61309 13.3758 6.77991C13.1099 6.96075 12.7973 7.05633 12.4717 7.05633H12.1013V9.36027C12.1013 10.2353 11.3837 10.9473 10.5016 10.9473H7.30326C6.42118 10.9473 5.70356 10.2353 5.70356 9.36027V7.05631H5.3332C5.00764 7.05631 4.69501 6.96072 4.42909 6.77988C4.18387 6.61306 3.99043 6.38148 3.86971 6.11009C3.74894 5.83873 3.70682 5.54087 3.74788 5.24874C3.7924 4.93191 3.93191 4.63836 4.15132 4.39979L7.72059 0.518006C8.02298 0.189078 8.45376 0.000473976 8.90244 0.000473976ZM12.4717 7.02924C12.7917 7.02924 13.099 6.93531 13.3603 6.75755C13.6014 6.5936 13.7915 6.36595 13.9102 6.09918C14.0289 5.83242 14.0703 5.53962 14.03 5.25248C13.9862 4.94117 13.8491 4.65262 13.6334 4.41803L10.0642 0.536248C9.76691 0.212976 9.3435 0.0275373 8.90244 0.0275373C8.4614 0.0275373 8.03799 0.212976 7.74072 0.536248L4.17151 4.41806C3.95586 4.65259 3.8187 4.94114 3.77494 5.2525C3.73459 5.53965 3.776 5.83242 3.8947 6.09918C4.0134 6.36595 4.20351 6.59363 4.44456 6.75755C4.7059 6.93531 5.01321 7.02924 5.33323 7.02924H5.73086V9.36027C5.73086 10.2204 6.43624 10.9202 7.30328 10.9202H10.5016C11.3687 10.9202 12.0741 10.2204 12.0741 9.36027V7.02924H12.4717ZM8.90244 1.1599C9.02334 1.1599 9.13942 1.21072 9.22088 1.2993L12.7901 5.18111C12.9069 5.30809 12.936 5.48468 12.866 5.64195C12.7961 5.79921 12.645 5.89688 12.4717 5.89688H11.3364C11.1138 5.89688 10.9326 6.07656 10.9326 6.29742V9.36027C10.9326 9.59604 10.7393 9.78787 10.5016 9.78787H7.30328C7.06562 9.78787 6.87226 9.59604 6.87226 9.36027V6.29745C6.87226 6.07659 6.69112 5.89691 6.46849 5.89691H5.3332C5.15992 5.89691 5.00882 5.79921 4.93887 5.64195C4.86892 5.48468 4.898 5.30812 5.01476 5.18114L8.58403 1.2993C8.66548 1.2107 8.78156 1.1599 8.90244 1.1599ZM12.4717 5.86985C12.634 5.86985 12.7755 5.77835 12.841 5.63104C12.9066 5.48373 12.8793 5.31832 12.77 5.19938L9.20072 1.31754C9.12442 1.23456 9.01568 1.18696 8.90244 1.18696C8.7892 1.18696 8.68046 1.23456 8.60413 1.31754L5.03492 5.19938C4.92556 5.31832 4.8983 5.48371 4.96386 5.63101C5.02938 5.77832 5.17094 5.86985 5.33323 5.86985H6.46851C6.70621 5.86985 6.89957 6.06167 6.89957 6.29745V9.36027C6.89957 9.58113 7.08071 9.76081 7.30331 9.76081H10.5016C10.7243 9.76081 10.9054 9.58113 10.9054 9.36027V6.29745C10.9054 6.06167 11.0988 5.86985 11.3364 5.86985H12.4717Z" fill="#7C7C7C"/>
<path d="M10.0843 0.518006L9.93709 0.653372L9.93709 0.653377L10.0843 0.518006ZM13.6536 4.39982L13.8008 4.26445L13.8008 4.26445L13.6536 4.39982ZM14.057 5.24877L13.8589 5.27659L13.8589 5.27661L14.057 5.24877ZM13.9352 6.11012L13.7525 6.02882L13.7525 6.02883L13.9352 6.11012ZM13.3758 6.77991L13.4883 6.94529L13.4883 6.94527L13.3758 6.77991ZM12.1013 7.05633V6.85633H11.9013V7.05633H12.1013ZM5.70356 7.05631H5.90356V6.85631H5.70356V7.05631ZM4.42909 6.77988L4.31659 6.94525L4.31662 6.94526L4.42909 6.77988ZM3.86971 6.11009L4.05245 6.02881L4.05243 6.02877L3.86971 6.11009ZM3.74788 5.24874L3.94593 5.27658V5.27657L3.74788 5.24874ZM4.15132 4.39979L4.29853 4.53518L4.29855 4.53516L4.15132 4.39979ZM7.72059 0.518006L7.86781 0.653378L7.86782 0.653366L7.72059 0.518006ZM13.3603 6.75755L13.4728 6.92293L13.4728 6.92293L13.3603 6.75755ZM13.9102 6.09918L13.7275 6.01788L13.7275 6.01789L13.9102 6.09918ZM14.03 5.25248L13.8319 5.2803L13.8319 5.28031L14.03 5.25248ZM13.6334 4.41803L13.4862 4.5534L13.4862 4.5534L13.6334 4.41803ZM10.0642 0.536248L9.91693 0.671618L10.0642 0.536248ZM7.74072 0.536248L7.5935 0.400871L7.59349 0.400879L7.74072 0.536248ZM4.17151 4.41806L4.31873 4.55343L4.31874 4.55343L4.17151 4.41806ZM3.77494 5.2525L3.57689 5.22467V5.22468L3.77494 5.2525ZM4.44456 6.75755L4.55704 6.59218L4.55702 6.59217L4.44456 6.75755ZM5.73086 7.02924H5.93086V6.82924H5.73086V7.02924ZM12.0741 7.02924V6.82924H11.8741V7.02924H12.0741ZM9.22088 1.2993L9.3681 1.16393L9.36809 1.16392L9.22088 1.2993ZM12.7901 5.18111L12.6429 5.31648L12.6429 5.3165L12.7901 5.18111ZM12.866 5.64195L12.6833 5.56064L12.6833 5.56067L12.866 5.64195ZM5.01476 5.18114L5.16199 5.31651L5.16199 5.31651L5.01476 5.18114ZM8.58403 1.2993L8.73125 1.43467L8.73126 1.43466L8.58403 1.2993ZM12.77 5.19938L12.6227 5.33475L12.6227 5.33477L12.77 5.19938ZM9.20072 1.31754L9.34794 1.18217L9.34794 1.18216L9.20072 1.31754ZM8.60413 1.31754L8.45694 1.18214L8.45691 1.18217L8.60413 1.31754ZM5.03492 5.19938L5.18215 5.33475V5.33475L5.03492 5.19938ZM4.96386 5.63101L5.14659 5.54973L5.14658 5.5497L4.96386 5.63101ZM8.90244 0.200474C9.29546 0.200474 9.67275 0.365865 9.93709 0.653372L10.2315 0.382642C9.89109 0.0123463 9.40682 -0.199526 8.90244 -0.199526V0.200474ZM9.93709 0.653377L13.5064 4.53519L13.8008 4.26445L10.2315 0.382637L9.93709 0.653377ZM13.5064 4.53518C13.6987 4.7444 13.8202 5.0006 13.8589 5.27659L14.2551 5.22095C14.2048 4.86344 14.0473 4.53253 13.8008 4.26445L13.5064 4.53518ZM13.8589 5.27661C13.8947 5.53133 13.8581 5.7914 13.7525 6.02882L14.1179 6.19141C14.2538 5.88605 14.3014 5.5504 14.2551 5.22093L13.8589 5.27661ZM13.7525 6.02883C13.6469 6.26622 13.4777 6.46869 13.2633 6.61454L13.4883 6.94527C13.7644 6.75749 13.9821 6.49674 14.1179 6.1914L13.7525 6.02883ZM13.2633 6.61453C13.031 6.77251 12.7577 6.85633 12.4717 6.85633V7.25633C12.8368 7.25633 13.1888 7.14898 13.4883 6.94529L13.2633 6.61453ZM12.4717 6.85633H12.1013V7.25633H12.4717V6.85633ZM11.9013 7.05633V9.36027H12.3013V7.05633H11.9013ZM11.9013 9.36027C11.9013 10.1234 11.2748 10.7473 10.5016 10.7473V11.1473C11.4927 11.1473 12.3013 10.3473 12.3013 9.36027H11.9013ZM10.5016 10.7473H7.30326V11.1473H10.5016V10.7473ZM7.30326 10.7473C6.53014 10.7473 5.90356 10.1234 5.90356 9.36027H5.50356C5.50356 10.3473 6.31223 11.1473 7.30326 11.1473V10.7473ZM5.90356 9.36027V7.05631H5.50356V9.36027H5.90356ZM5.70356 6.85631H5.3332V7.25631H5.70356V6.85631ZM5.3332 6.85631C5.04723 6.85631 4.77388 6.77249 4.54155 6.6145L4.31662 6.94526C4.61615 7.14895 4.96806 7.25631 5.3332 7.25631V6.85631ZM4.54158 6.61452C4.32718 6.46866 4.15805 6.26622 4.05245 6.02881L3.68697 6.19137C3.8228 6.49675 4.04056 6.75746 4.31659 6.94525L4.54158 6.61452ZM4.05243 6.02877C3.94679 5.79139 3.91013 5.53134 3.94593 5.27658L3.54983 5.22091C3.50352 5.55039 3.5511 5.88606 3.68699 6.19141L4.05243 6.02877ZM3.94593 5.27657C3.98473 5.00048 4.1062 4.7443 4.29853 4.53518L4.00412 4.2644C3.75762 4.53241 3.60007 4.86334 3.54982 5.22091L3.94593 5.27657ZM4.29855 4.53516L7.86781 0.653378L7.57336 0.382636L4.0041 4.26442L4.29855 4.53516ZM7.86782 0.653366C8.13215 0.365841 8.50944 0.200474 8.90244 0.200474V-0.199526C8.39809 -0.199526 7.91382 0.0123158 7.57335 0.382648L7.86782 0.653366ZM12.4717 7.22924C12.8313 7.22924 13.1779 7.12355 13.4728 6.92293L13.2479 6.59218C13.0201 6.74707 12.7521 6.82924 12.4717 6.82924V7.22924ZM13.4728 6.92293C13.7447 6.738 13.9592 6.48121 14.0929 6.18047L13.7275 6.01789C13.6239 6.25069 13.4581 6.4492 13.2479 6.59218L13.4728 6.92293ZM14.0929 6.18049C14.2267 5.87975 14.2736 5.54916 14.228 5.22465L13.8319 5.28031C13.867 5.53008 13.8311 5.78509 13.7275 6.01788L14.0929 6.18049ZM14.228 5.22466C14.1786 4.87258 14.0234 4.54667 13.7806 4.28266L13.4862 4.5534C13.6748 4.75856 13.7939 5.00975 13.8319 5.2803L14.228 5.22466ZM13.7806 4.28266L10.2114 0.400878L9.91693 0.671618L13.4862 4.5534L13.7806 4.28266ZM10.2114 0.400878C9.87609 0.0362225 9.39919 -0.172462 8.90244 -0.172462V0.227537C9.28781 0.227537 9.65774 0.389729 9.91693 0.671618L10.2114 0.400878ZM8.90244 -0.172462C8.40571 -0.172462 7.92882 0.0362244 7.5935 0.400871L7.88794 0.671624C8.14716 0.389727 8.5171 0.227537 8.90244 0.227537V-0.172462ZM7.59349 0.400879L4.02429 4.28269L4.31874 4.55343L7.88794 0.671617L7.59349 0.400879ZM4.02429 4.28269C3.78158 4.54664 3.62637 4.87255 3.57689 5.22467L3.97299 5.28034C4.01102 5.00973 4.13014 4.75854 4.31873 4.55343L4.02429 4.28269ZM3.57689 5.22468C3.53129 5.54919 3.57816 5.87975 3.71197 6.18049L4.07743 6.01788C3.97385 5.78509 3.9379 5.53011 3.97299 5.28033L3.57689 5.22468ZM3.71197 6.18049C3.84577 6.48119 4.06018 6.73802 4.33209 6.92294L4.55702 6.59217C4.34684 6.44924 4.18102 6.2507 4.07743 6.01788L3.71197 6.18049ZM4.33208 6.92293C4.62704 7.12355 4.97364 7.22924 5.33323 7.22924V6.82924C5.05278 6.82924 4.78476 6.74707 4.55704 6.59218L4.33208 6.92293ZM5.33323 7.22924H5.73086V6.82924H5.33323V7.22924ZM5.53086 7.02924V9.36027H5.93086V7.02924H5.53086ZM5.53086 9.36027C5.53086 10.3324 6.32729 11.1202 7.30328 11.1202V10.7202C6.54519 10.7202 5.93086 10.1085 5.93086 9.36027H5.53086ZM7.30328 11.1202H10.5016V10.7202H7.30328V11.1202ZM10.5016 11.1202C11.4776 11.1202 12.2741 10.3324 12.2741 9.36027H11.8741C11.8741 10.1085 11.2597 10.7202 10.5016 10.7202V11.1202ZM12.2741 9.36027V7.02924H11.8741V9.36027H12.2741ZM12.0741 7.22924H12.4717V6.82924H12.0741V7.22924ZM8.90244 1.3599C8.96768 1.3599 9.03027 1.38749 9.07366 1.43468L9.36809 1.16392C9.24857 1.03395 9.07901 0.959897 8.90244 0.959897V1.3599ZM9.07365 1.43467L12.6429 5.31648L12.9373 5.04574L9.3681 1.16393L9.07365 1.43467ZM12.6429 5.3165C12.7059 5.38496 12.7207 5.47645 12.6833 5.56064L13.0487 5.72325C13.1512 5.49292 13.1079 5.23122 12.9373 5.04572L12.6429 5.3165ZM12.6833 5.56067C12.6457 5.64508 12.5667 5.69688 12.4717 5.69688V6.09688C12.7233 6.09688 12.9464 5.95334 13.0487 5.72322L12.6833 5.56067ZM12.4717 5.69688H11.3364V6.09688H12.4717V5.69688ZM11.3364 5.69688C11.0048 5.69688 10.7326 5.9646 10.7326 6.29742H11.1326C11.1326 6.18852 11.2227 6.09688 11.3364 6.09688V5.69688ZM10.7326 6.29742V9.36027H11.1326V6.29742H10.7326ZM10.7326 9.36027C10.7326 9.48409 10.6303 9.58787 10.5016 9.58787V9.98787C10.8482 9.98787 11.1326 9.708 11.1326 9.36027H10.7326ZM10.5016 9.58787H7.30328V9.98787H10.5016V9.58787ZM7.30328 9.58787C7.17457 9.58787 7.07226 9.48409 7.07226 9.36027H6.67226C6.67226 9.708 6.95667 9.98787 7.30328 9.98787V9.58787ZM7.07226 9.36027V6.29745H6.67226V9.36027H7.07226ZM7.07226 6.29745C7.07226 5.96461 6.80005 5.69691 6.46849 5.69691V6.09691C6.58219 6.09691 6.67226 6.18856 6.67226 6.29745H7.07226ZM6.46849 5.69691H5.3332V6.09691H6.46849V5.69691ZM5.3332 5.69691C5.23824 5.69691 5.15916 5.6451 5.12161 5.56067L4.75613 5.72322C4.85847 5.95332 5.0816 6.09691 5.3332 6.09691V5.69691ZM5.12161 5.56067C5.08416 5.47646 5.09903 5.38498 5.16199 5.31651L4.86754 5.04577C4.69698 5.23126 4.65369 5.4929 4.75613 5.72322L5.12161 5.56067ZM5.16199 5.31651L8.73125 1.43467L8.4368 1.16393L4.86754 5.04577L5.16199 5.31651ZM8.73126 1.43466C8.77463 1.38748 8.83721 1.3599 8.90244 1.3599V0.959897C8.72591 0.959897 8.55633 1.03391 8.43679 1.16394L8.73126 1.43466ZM12.4717 6.06985C12.7123 6.06985 12.9259 5.93247 13.0238 5.71233L12.6583 5.54975C12.6252 5.62422 12.5557 5.66985 12.4717 5.66985V6.06985ZM13.0238 5.71233C13.1218 5.49197 13.0804 5.24146 12.9172 5.06399L12.6227 5.33477C12.6783 5.39518 12.6913 5.47549 12.6583 5.54975L13.0238 5.71233ZM12.9172 5.06401L9.34794 1.18217L9.05349 1.45291L12.6227 5.33475L12.9172 5.06401ZM9.34794 1.18216C9.23357 1.05779 9.07134 0.98696 8.90244 0.98696V1.38696C8.96001 1.38696 9.01527 1.41134 9.0535 1.45292L9.34794 1.18216ZM8.90244 0.98696C8.73353 0.98696 8.57132 1.05779 8.45694 1.18214L8.75133 1.45294C8.7896 1.41134 8.84487 1.38696 8.90244 1.38696V0.98696ZM8.45691 1.18217L4.8877 5.06401L5.18215 5.33475L8.75136 1.45291L8.45691 1.18217ZM4.8877 5.06401C4.72454 5.24145 4.68305 5.49193 4.78113 5.71233L5.14658 5.5497C5.11355 5.47548 5.12657 5.39519 5.18215 5.33475L4.8877 5.06401ZM4.78112 5.7123C4.87904 5.93242 5.09261 6.06985 5.33323 6.06985V5.66985C5.24927 5.66985 5.17973 5.62422 5.14659 5.54973L4.78112 5.7123ZM5.33323 6.06985H6.46851V5.66985H5.33323V6.06985ZM6.46851 6.06985C6.59726 6.06985 6.69957 6.17364 6.69957 6.29745H7.09957C7.09957 5.94971 6.81515 5.66985 6.46851 5.66985V6.06985ZM6.69957 6.29745V9.36027H7.09957V6.29745H6.69957ZM6.69957 9.36027C6.69957 9.6931 6.97177 9.96081 7.30331 9.96081V9.56081C7.18965 9.56081 7.09957 9.46917 7.09957 9.36027H6.69957ZM7.30331 9.96081H10.5016V9.56081H7.30331V9.96081ZM10.5016 9.96081C10.8332 9.96081 11.1054 9.69309 11.1054 9.36027H10.7054C10.7054 9.46918 10.6153 9.56081 10.5016 9.56081V9.96081ZM11.1054 9.36027V6.29745H10.7054V9.36027H11.1054ZM11.1054 6.29745C11.1054 6.17363 11.2077 6.06985 11.3364 6.06985V5.66985C10.9898 5.66985 10.7054 5.94972 10.7054 6.29745H11.1054ZM11.3364 6.06985H12.4717V5.66985H11.3364V6.06985Z" fill="white" mask="url(#path-5-inside-2_110_20659)"/>
</svg>
