<svg width="30" height="24" viewBox="0 0 30 24" fill="none" xmlns="http://www.w3.org/2000/svg">
<path d="M27.1136 2.72948C25.5668 1.2213 23.2465 0.641224 21.1583 1.22129L13.8107 3.11619C13.424 3.19354 12.9986 3.30955 12.5345 3.42557C8.59006 4.35368 2.63467 5.78451 1.28117 8.49151C0.933129 9.22627 0.894458 9.9997 1.2425 10.7731C2.596 13.9828 5.88307 17.2699 9.28615 19.6675C9.94356 20.1316 10.601 20.5183 11.2197 20.905C11.8771 21.2917 12.5345 21.6011 13.1533 21.9105C13.54 22.1038 13.9267 22.2585 14.3134 22.3745C15.0868 22.6839 15.8603 22.8773 16.595 22.9933C17.1364 23.1093 17.6778 23.148 18.2192 23.148C18.6059 23.148 18.9927 23.1093 19.3794 23.0706C20.1528 22.9546 20.8489 22.7612 21.545 22.4132C22.0864 22.1425 22.6278 21.8331 23.0532 21.4464C23.0532 21.4464 23.0918 21.4464 23.0918 21.4078C23.3625 21.1757 23.6332 20.9437 23.9039 20.673C24.6774 19.8609 25.3348 18.9328 25.8375 17.966C25.9535 17.7726 26.0309 17.5793 26.1469 17.3859C26.4949 16.6898 26.7269 15.9938 26.959 15.3363C26.9976 15.259 26.9976 15.1817 27.0363 15.143C27.0363 15.1043 27.0363 15.0656 27.075 15.0656L27.1523 14.911C27.2297 14.6403 27.3457 14.2535 27.423 13.9442L28.8539 8.49151C29.3179 6.36459 28.6605 4.19899 27.1136 2.72948ZM28.1964 8.33683L26.7656 13.7895C26.7269 14.0989 26.6109 14.4082 26.5336 14.6403L26.4562 14.7176V14.8336C26.4562 14.8723 26.4176 14.9496 26.4176 14.9883C26.4176 15.027 26.4176 15.0656 26.3789 15.0656V15.1043C26.1855 15.6457 25.9922 16.2645 25.6828 16.8445C25.6055 17.0379 25.5281 17.2312 25.4121 17.3859C24.7934 18.6234 23.9813 19.8609 22.8598 20.789C22.7051 20.905 22.5504 21.0597 22.3957 21.1757C22.0477 21.4464 21.661 21.6398 21.2743 21.8718C19.3407 22.7999 17.0591 22.7613 14.5068 21.7945C14.2748 21.7171 14.0427 21.6011 13.772 21.4851C13.0759 21.1757 12.3412 20.8277 11.6064 20.4023C11.0264 20.0929 10.4463 19.7062 9.86622 19.3195C9.71153 19.2035 9.55684 19.0875 9.36349 18.9715C6.11509 16.6512 2.98271 13.4801 1.74523 10.5024C1.47453 9.84501 1.47453 9.26494 1.74523 8.68487C2.98271 6.2099 9.01545 4.77906 12.6119 3.92829C13.0759 3.81228 13.5013 3.73494 13.888 3.61892L21.2743 1.72402C21.777 1.56934 22.2797 1.53067 22.7825 1.53067C24.2133 1.53067 25.6441 2.07207 26.6883 3.07752C28.1191 4.46969 28.6992 6.44193 28.1964 8.33683Z" fill="#232323" stroke="black" stroke-width="0.3"/>
<path d="M25.6828 16.8832C25.1028 16.2258 24.3293 15.7231 23.4399 15.4524C24.5614 14.911 25.2961 13.7895 25.2961 12.4747C25.2961 10.6184 23.7879 9.14893 21.9704 9.14893C20.5009 9.14893 19.2247 10.077 18.7993 11.4692C18.5673 11.4305 18.3353 11.3919 18.1032 11.3919C17.8712 11.3919 17.6392 11.4305 17.4072 11.4692C16.9818 10.1157 15.7056 9.14893 14.2361 9.14893C12.3799 9.14893 10.9104 10.6571 10.9104 12.4747C10.9104 13.7895 11.6838 14.911 12.7666 15.4524C11.1037 15.9551 9.7889 17.3086 9.36351 19.0101C9.32484 19.2035 9.28617 19.3582 9.2475 19.5515V19.6675C9.90491 20.1316 10.5623 20.5183 11.1811 20.905C11.8385 21.1757 12.4959 21.3304 13.192 21.4464C13.1533 21.5624 13.1533 21.6785 13.1146 21.7945V21.9105C13.5013 22.1038 13.8881 22.2585 14.2748 22.3745C15.0482 22.6839 15.8216 22.8773 16.5564 22.9933C15.5123 22.7613 14.5455 22.3359 13.6947 21.7171C13.6947 21.6398 13.7334 21.6011 13.7334 21.5238C14.1974 19.5129 16.015 18.0433 18.1032 18.0433C20.0755 18.0433 21.8157 19.3582 22.3571 21.2144C22.3958 21.3691 22.4344 21.5238 22.4731 21.7171C21.545 22.4132 20.4622 22.8773 19.3021 23.0706C20.0755 22.9546 20.7716 22.7613 21.4676 22.4132C22.009 22.1425 22.5504 21.8331 22.9758 21.4464C22.9758 21.4464 22.9758 21.4464 22.9758 21.4078H23.0145C23.2852 21.1757 23.5559 20.9437 23.8266 20.673C23.4786 20.7503 23.1692 20.8277 22.8211 20.8664V20.8277C22.2797 19.3195 21.0423 18.1594 19.5341 17.6953C20.3075 17.3086 20.8876 16.6898 21.1969 15.8777C21.429 15.8391 21.6997 15.8004 21.9704 15.8004C23.3239 15.8004 24.5614 16.4191 25.4121 17.4246C25.5668 17.5793 25.6828 17.7726 25.7988 17.966C25.9149 17.7726 25.9922 17.5793 26.1082 17.3859C25.9922 17.2312 25.8375 17.0379 25.6828 16.8832ZM11.4904 12.4747C11.4904 10.9278 12.7279 9.69033 14.2361 9.69033C15.4736 9.69033 16.5177 10.4638 16.8658 11.5852C15.6283 12.088 14.7775 13.2868 14.7775 14.6789C14.7775 14.8336 14.7775 14.9883 14.8162 15.143C14.6228 15.1817 14.4295 15.2203 14.2361 15.2203C12.7279 15.259 11.4904 14.0215 11.4904 12.4747ZM13.3853 20.8664C12.7666 20.789 12.1865 20.6343 11.6065 20.441C10.9877 20.2089 10.4076 19.8609 9.86624 19.4742C9.86624 19.4355 9.86624 19.3968 9.90491 19.3582C10.3303 17.3086 12.1479 15.8004 14.2748 15.8004C14.5455 15.8004 14.7775 15.8391 15.0482 15.8777C15.3576 16.6898 15.9376 17.3473 16.7111 17.6953C15.1255 18.1594 13.8881 19.3582 13.3853 20.8664ZM18.1419 17.4633C16.5951 17.4633 15.3576 16.2258 15.3576 14.7176C15.3576 13.1708 16.5951 11.9333 18.1419 11.9333C19.6888 11.9333 20.9263 13.1708 20.9263 14.7176C20.8876 16.2258 19.6501 17.4633 18.1419 17.4633ZM22.0091 15.259C21.8157 15.259 21.6223 15.2203 21.429 15.1817C21.4677 15.027 21.4676 14.8723 21.4676 14.7176C21.4676 13.3254 20.6169 12.1266 19.3794 11.6239C19.7274 10.5024 20.8102 9.729 22.0091 9.729C23.5559 9.729 24.7934 10.9665 24.7934 12.5133C24.7547 14.0215 23.5172 15.259 22.0091 15.259Z" fill="#232323" stroke="black" stroke-width="0.3"/>
</svg>
