<svg version="1.1" id="Layer_1" xmlns="http://www.w3.org/2000/svg" xmlns:xlink="http://www.w3.org/1999/xlink" x="0px" y="0px" viewBox="0 0 190 82" style="enable-background:new 0 0 190 82;" xml:space="preserve" class="brandLogo brandLogo--lockup--animated"> <g class="brandLogo__freddie"> <path d="M66.96,23.53L66.96,23.53c-2.72-2.72-6.68-3.76-10.39-2.74c0,0-13.59,3.58-13.59,3.59c-7.36,1.95-25.97,5.63-22.57,13.95 c3.57,8.71,15,18.44,23.58,21.82c12.75,5.02,19.54-3.89,22.37-13.13c0.06-0.19,0.13-0.39,0.18-0.59l0.02-0.09l0.04-0.14 c0.18-0.64,0.34-1.27,0.48-1.9l2.63-10.41C70.72,30.2,69.68,26.25,66.96,23.53z M61.31,31.64l-3.36,13.19 c-0.24,0.88-1.05,1.54-1.98,1.51c-0.93-0.03-1.71-0.73-1.87-1.64l-1.11-5.56c-0.07-0.37-0.25-0.72-0.54-1.01 c-0.29-0.29-0.64-0.47-1.01-0.54l-5.56-1.11c-0.41-0.08-0.77-0.27-1.04-0.55c-0.34-0.34-0.58-0.81-0.6-1.32 c-0.03-0.93,0.61-1.75,1.5-1.98l13.16-3.39c0.68-0.17,1.4,0.02,1.89,0.52c0.38,0.38,0.58,0.88,0.58,1.4 C61.37,31.32,61.35,31.48,61.31,31.64z"></path> </g> <g class="brandLogo__wordMark"> <path d="M90.09,33.51v8.17c0,2.35-1.91,4.26-4.26,4.26c-2.35,0-4.26-1.91-4.26-4.26v-8.17h-4.85v8.17c0,5.03,4.09,9.12,9.12,9.12 c5.03,0,9.12-4.09,9.12-9.12v-8.17H90.09z M112.13,35.68L112.13,35.68c-1.65-1.68-3.68-2.53-6.04-2.53c-1.49,0-2.85,0.38-4.04,1.14 v-0.78h-4.74V57.8h4.74v-8.67c1.27,0.81,2.67,1.22,4.17,1.22c2.31,0,4.31-0.86,5.94-2.55c1.62-1.68,2.44-3.72,2.44-6.07 C114.6,39.39,113.77,37.35,112.13,35.68z M105.68,45.84c-2.25,0-4.08-1.83-4.08-4.08s1.83-4.08,4.08-4.08s4.08,1.83,4.08,4.08 S107.93,45.84,105.68,45.84z M155.59,33.94c-1.02-0.6-2.1-0.88-3.39-0.88c-1.12,0-1.92,0.19-2.69,0.64 c-0.31,0.18-0.65,0.43-0.98,0.71v-0.9h-4.95v16.88h4.95v-8.1c0-1.1,0-2.6,0.98-3.65c0.63-0.66,1.32-0.8,2.16-0.8 c0.26,0,0.95,0,1.8,0.54l0.46,0.29l2.03-4.52L155.59,33.94z M169.48,42.96c-0.32-0.57-0.76-1.07-1.33-1.48 c-0.49-0.37-1.12-0.68-1.85-0.93c-0.55-0.19-1.24-0.39-2.08-0.59l-0.01,0c-1.37-0.3-2.32-0.55-2.82-0.73 c-0.56-0.21-0.56-0.45-0.56-0.54c0-0.21,0.07-0.48,0.6-0.72c0.5-0.23,1.09-0.35,1.75-0.35c0.78,0,1.49,0.13,2.09,0.39 c0.6,0.26,1.16,0.56,1.66,0.91l0.39,0.27l2.53-3.73l-0.37-0.27c-0.63-0.46-1.48-0.91-2.52-1.35c-1.07-0.45-2.35-0.68-3.82-0.68 c-1.14,0-2.15,0.15-3.02,0.43c-0.86,0.29-1.62,0.7-2.26,1.23c-0.64,0.53-1.12,1.14-1.43,1.8c-0.34,0.7-0.5,1.42-0.5,2.13 c0,0.81,0.19,1.53,0.58,2.15c0.35,0.57,0.84,1.08,1.48,1.52c0.56,0.39,1.23,0.73,1.98,1.02c0.65,0.25,1.4,0.46,2.22,0.64 c0.26,0.07,0.68,0.16,1.24,0.28c0.38,0.08,0.69,0.17,0.95,0.27c0.22,0.08,0.38,0.18,0.48,0.29l0.01,0.01 c0.09,0.09,0.13,0.19,0.13,0.32c0,0.25-0.07,0.54-0.57,0.75c-0.53,0.22-1.12,0.34-1.75,0.34c-0.54,0-1.06-0.07-1.54-0.21 c-0.46-0.13-0.89-0.3-1.26-0.51c-0.4-0.23-0.76-0.46-1.05-0.69c-0.27-0.22-0.56-0.47-0.86-0.75l-0.38-0.35l-2.81,3.63l0.26,0.29 c0.33,0.36,0.76,0.74,1.3,1.13c0.51,0.37,1.09,0.69,1.73,0.97c0.69,0.29,1.38,0.52,2.06,0.68c0.79,0.18,1.63,0.27,2.48,0.27 c0.96,0,1.88-0.12,2.75-0.36c0.9-0.25,1.68-0.6,2.34-1.05c0.7-0.49,1.26-1.09,1.66-1.79c0.42-0.73,0.64-1.57,0.64-2.48 C170,44.3,169.83,43.57,169.48,42.96z M140.54,38.35c-0.46-1.09-1.07-2.02-1.82-2.77c-0.74-0.74-1.65-1.34-2.7-1.79 c-1-0.43-2.11-0.64-3.28-0.64c-1.22,0-2.36,0.23-3.39,0.7c-1.06,0.47-1.96,1.1-2.68,1.88c-0.73,0.79-1.33,1.72-1.76,2.78 c-0.43,1.03-0.64,2.18-0.64,3.41c0,1.25,0.23,2.42,0.69,3.49c0.47,1.09,1.12,2.04,1.92,2.84c0.82,0.8,1.79,1.44,2.87,1.88 c1.08,0.45,2.28,0.67,3.56,0.67c1.47,0,2.8-0.26,3.94-0.78c1.1-0.49,2.02-1.03,2.73-1.61l0.33-0.27l-2.55-3.83l-0.4,0.37 c-0.59,0.54-1.24,0.93-1.94,1.15c-0.71,0.23-1.4,0.34-2.04,0.34c-0.61,0-1.14-0.09-1.59-0.26c-0.45-0.17-0.86-0.4-1.24-0.69 c-0.32-0.25-0.6-0.56-0.82-0.91c-0.09-0.15-0.17-0.29-0.23-0.43h11.66l0.02-0.44c0.02-0.43,0.03-0.72,0.03-0.91v-0.62 C141.21,40.62,140.99,39.42,140.54,38.35z M129.88,40.03c0.04-0.15,0.1-0.3,0.17-0.47c0.15-0.34,0.36-0.65,0.63-0.91 c0.31-0.29,0.66-0.52,1.04-0.68c0.42-0.17,0.93-0.26,1.51-0.26c0.6,0,1.13,0.09,1.56,0.26c0.43,0.17,0.79,0.41,1.07,0.69 c0.28,0.29,0.5,0.6,0.64,0.92c0.06,0.16,0.12,0.3,0.16,0.45H129.88z M116.96,24.2v26.19h4.95V24.2H116.96z"></path> </g> </svg>