<svg width="259" height="43" viewBox="0 0 259 43" fill="none" xmlns="http://www.w3.org/2000/svg">
<path d="M0 8C0 3.58172 3.58172 0 8 0H251C255.418 0 259 3.58172 259 8V35C259 39.4183 255.418 43 251 43H8C3.58172 43 0 39.4183 0 35V8Z" fill="#2CB741"/>
<g clip-path="url(#clip0_24258_5992)">
<path d="M24 33.5L25.6963 27.3403C24.6476 25.5323 24.0974 23.4848 24.1032 21.3916C24.1032 14.8327 29.467 9.5 36.0516 9.5C39.2493 9.5 42.2521 10.7376 44.5043 12.9848C46.7622 15.2319 48.0057 18.2205 48 21.3973C48 27.9563 42.6361 33.289 36.0458 33.289H36.0401C34.0401 33.289 32.0745 32.7871 30.3266 31.8403L24 33.5ZM30.6304 29.6901L30.9914 29.9068C32.5158 30.808 34.2636 31.2814 36.0458 31.2871H36.0516C41.5243 31.2871 45.9828 26.8555 45.9828 21.403C45.9828 18.7624 44.9513 16.2814 43.0773 14.4106C41.2034 12.5399 38.7049 11.5133 36.0516 11.5133C30.5788 11.5076 26.1203 15.9392 26.1203 21.3916C26.1203 23.2567 26.6418 25.076 27.639 26.6502L27.8739 27.0266L26.8711 30.6711L30.6304 29.6901Z" fill="white"/>
<path d="M24.4185 33.0833L26.0574 27.1347C25.0431 25.3951 24.5101 23.416 24.5101 21.397C24.5159 15.0662 29.6907 9.91602 36.0517 9.91602C39.1405 9.91602 42.0345 11.1137 44.2121 13.281C46.3898 15.4483 47.5875 18.3343 47.5875 21.4027C47.5875 27.7335 42.407 32.8837 36.0517 32.8837H36.046C34.1147 32.8837 32.2179 32.3989 30.5331 31.4864L24.4185 33.0833Z" fill="url(#paint0_linear_24258_5992)"/>
<path d="M24 33.5L25.6963 27.3403C24.6476 25.5323 24.0974 23.4848 24.1032 21.3916C24.1032 14.8327 29.467 9.5 36.0516 9.5C39.2493 9.5 42.2521 10.7376 44.5043 12.9848C46.7622 15.2319 48.0057 18.2205 48 21.3973C48 27.9563 42.6361 33.289 36.0458 33.289H36.0401C34.0401 33.289 32.0745 32.7871 30.3266 31.8403L24 33.5ZM30.6304 29.6901L30.9914 29.9068C32.5158 30.808 34.2636 31.2814 36.0458 31.2871H36.0516C41.5243 31.2871 45.9828 26.8555 45.9828 21.403C45.9828 18.7624 44.9513 16.2814 43.0773 14.4106C41.2034 12.5399 38.7049 11.5133 36.0516 11.5133C30.5788 11.5076 26.1203 15.9392 26.1203 21.3916C26.1203 23.2567 26.6418 25.076 27.639 26.6502L27.8739 27.0266L26.8711 30.6711L30.6304 29.6901Z" fill="url(#paint1_linear_24258_5992)"/>
<path fill-rule="evenodd" clip-rule="evenodd" d="M33.066 16.4174C32.8425 15.9213 32.6075 15.9098 32.3955 15.9041C32.2236 15.8984 32.023 15.8984 31.8225 15.8984C31.6219 15.8984 31.301 15.9726 31.0259 16.2692C30.7508 16.5657 29.9829 17.2844 29.9829 18.7501C29.9829 20.2102 31.0545 21.6247 31.2035 21.8243C31.3525 22.0239 33.2723 25.1209 36.3038 26.3129C38.8253 27.3053 39.3411 27.1057 39.8855 27.0543C40.4299 27.003 41.6505 26.3357 41.9027 25.6399C42.1491 24.9441 42.1491 24.3509 42.0746 24.2254C42.0001 24.1 41.7995 24.0258 41.5015 23.8775C41.2035 23.7292 39.7365 23.0106 39.4614 22.9079C39.1863 22.811 38.9858 22.7597 38.7909 23.0562C38.5904 23.3528 38.0173 24.0201 37.8454 24.2197C37.6734 24.4194 37.4958 24.4422 37.1978 24.2939C36.8998 24.1456 35.9371 23.8319 34.7967 22.8167C33.9084 22.0296 33.3067 21.0543 33.1348 20.7578C32.9629 20.4612 33.1176 20.3015 33.2666 20.1532C33.3984 20.022 33.5646 19.8053 33.7136 19.6342C33.8626 19.4631 33.9141 19.3376 34.0116 19.138C34.109 18.9384 34.0631 18.7673 33.9886 18.619C33.9141 18.4764 33.3296 17.0049 33.066 16.4174Z" fill="white"/>
</g>
<path d="M65.852 27.14C65.1053 27.14 64.41 27.0187 63.766 26.776C63.1313 26.524 62.576 26.174 62.1 25.726C61.6333 25.2687 61.2693 24.732 61.008 24.116C60.7467 23.5 60.616 22.828 60.616 22.1C60.616 21.372 60.7467 20.7 61.008 20.084C61.2693 19.468 61.638 18.936 62.114 18.488C62.59 18.0307 63.1453 17.6807 63.78 17.438C64.4147 17.186 65.11 17.06 65.866 17.06C66.6687 17.06 67.4013 17.2 68.064 17.48C68.7267 17.7507 69.2867 18.1567 69.744 18.698L68.568 19.804C68.2133 19.4213 67.8167 19.1367 67.378 18.95C66.9393 18.754 66.4633 18.656 65.95 18.656C65.4367 18.656 64.9653 18.74 64.536 18.908C64.116 19.076 63.7473 19.314 63.43 19.622C63.122 19.93 62.8793 20.294 62.702 20.714C62.534 21.134 62.45 21.596 62.45 22.1C62.45 22.604 62.534 23.066 62.702 23.486C62.8793 23.906 63.122 24.27 63.43 24.578C63.7473 24.886 64.116 25.124 64.536 25.292C64.9653 25.46 65.4367 25.544 65.95 25.544C66.4633 25.544 66.9393 25.4507 67.378 25.264C67.8167 25.068 68.2133 24.774 68.568 24.382L69.744 25.502C69.2867 26.034 68.7267 26.44 68.064 26.72C67.4013 27 66.664 27.14 65.852 27.14ZM71.3199 27V19.524H72.9859V21.582L72.7899 20.98C73.0139 20.476 73.3639 20.0933 73.8399 19.832C74.3252 19.5707 74.9272 19.44 75.6459 19.44V21.106C75.5712 21.0873 75.5012 21.078 75.4359 21.078C75.3705 21.0687 75.3052 21.064 75.2399 21.064C74.5772 21.064 74.0499 21.26 73.6579 21.652C73.2659 22.0347 73.0699 22.6087 73.0699 23.374V27H71.3199ZM80.5761 27.098C79.7454 27.098 79.0174 26.9347 78.3921 26.608C77.7761 26.272 77.2954 25.8147 76.9501 25.236C76.6141 24.6573 76.4461 23.9993 76.4461 23.262C76.4461 22.5153 76.6094 21.8573 76.9361 21.288C77.2721 20.7093 77.7294 20.2567 78.3081 19.93C78.8961 19.6033 79.5634 19.44 80.3101 19.44C81.0381 19.44 81.6867 19.5987 82.2561 19.916C82.8254 20.2333 83.2734 20.6813 83.6001 21.26C83.9267 21.8387 84.0901 22.52 84.0901 23.304C84.0901 23.3787 84.0854 23.4627 84.0761 23.556C84.0761 23.6493 84.0714 23.738 84.0621 23.822H77.8321V22.66H83.1381L82.4521 23.024C82.4614 22.5947 82.3727 22.2167 82.1861 21.89C81.9994 21.5633 81.7427 21.3067 81.4161 21.12C81.0987 20.9333 80.7301 20.84 80.3101 20.84C79.8807 20.84 79.5027 20.9333 79.1761 21.12C78.8587 21.3067 78.6067 21.568 78.4201 21.904C78.2427 22.2307 78.1541 22.618 78.1541 23.066V23.346C78.1541 23.794 78.2567 24.1907 78.4621 24.536C78.6674 24.8813 78.9567 25.1473 79.3301 25.334C79.7034 25.5207 80.1327 25.614 80.6181 25.614C81.0381 25.614 81.4161 25.5487 81.7521 25.418C82.0881 25.2873 82.3867 25.082 82.6481 24.802L83.5861 25.88C83.2501 26.272 82.8254 26.5753 82.3121 26.79C81.8081 26.9953 81.2294 27.098 80.5761 27.098ZM90.172 27V25.488L90.074 25.166V22.52C90.074 22.0067 89.92 21.61 89.612 21.33C89.304 21.0407 88.8373 20.896 88.212 20.896C87.792 20.896 87.3766 20.9613 86.966 21.092C86.5646 21.2227 86.224 21.4047 85.944 21.638L85.258 20.364C85.6593 20.056 86.1353 19.8273 86.686 19.678C87.246 19.5193 87.8246 19.44 88.422 19.44C89.5046 19.44 90.34 19.7013 90.928 20.224C91.5253 20.7373 91.824 21.5353 91.824 22.618V27H90.172ZM87.82 27.098C87.26 27.098 86.77 27.0047 86.35 26.818C85.93 26.622 85.6033 26.356 85.37 26.02C85.146 25.6747 85.034 25.2873 85.034 24.858C85.034 24.438 85.132 24.06 85.328 23.724C85.5333 23.388 85.8646 23.122 86.322 22.926C86.7793 22.73 87.386 22.632 88.142 22.632H90.312V23.794H88.268C87.6706 23.794 87.2693 23.892 87.064 24.088C86.8586 24.2747 86.756 24.508 86.756 24.788C86.756 25.1053 86.882 25.3573 87.134 25.544C87.386 25.7307 87.736 25.824 88.184 25.824C88.6133 25.824 88.996 25.726 89.332 25.53C89.6773 25.334 89.9246 25.0447 90.074 24.662L90.368 25.712C90.2 26.1507 89.8966 26.4913 89.458 26.734C89.0286 26.9767 88.4826 27.098 87.82 27.098ZM96.8839 27.098C96.0625 27.098 95.4279 26.888 94.9799 26.468C94.5319 26.0387 94.3079 25.4087 94.3079 24.578V17.872H96.0579V24.536C96.0579 24.8907 96.1465 25.166 96.3239 25.362C96.5105 25.558 96.7672 25.656 97.0939 25.656C97.4859 25.656 97.8125 25.5533 98.0739 25.348L98.5639 26.594C98.3585 26.762 98.1065 26.888 97.8079 26.972C97.5092 27.056 97.2012 27.098 96.8839 27.098ZM93.0759 20.98V19.58H98.0599V20.98H93.0759ZM103.271 27.098C102.441 27.098 101.713 26.9347 101.087 26.608C100.471 26.272 99.9907 25.8147 99.6454 25.236C99.3094 24.6573 99.1414 23.9993 99.1414 23.262C99.1414 22.5153 99.3047 21.8573 99.6314 21.288C99.9674 20.7093 100.425 20.2567 101.003 19.93C101.591 19.6033 102.259 19.44 103.005 19.44C103.733 19.44 104.382 19.5987 104.951 19.916C105.521 20.2333 105.969 20.6813 106.295 21.26C106.622 21.8387 106.785 22.52 106.785 23.304C106.785 23.3787 106.781 23.4627 106.771 23.556C106.771 23.6493 106.767 23.738 106.757 23.822H100.527V22.66H105.833L105.147 23.024C105.157 22.5947 105.068 22.2167 104.881 21.89C104.695 21.5633 104.438 21.3067 104.111 21.12C103.794 20.9333 103.425 20.84 103.005 20.84C102.576 20.84 102.198 20.9333 101.871 21.12C101.554 21.3067 101.302 21.568 101.115 21.904C100.938 22.2307 100.849 22.618 100.849 23.066V23.346C100.849 23.794 100.952 24.1907 101.157 24.536C101.363 24.8813 101.652 25.1473 102.025 25.334C102.399 25.5207 102.828 25.614 103.313 25.614C103.733 25.614 104.111 25.5487 104.447 25.418C104.783 25.2873 105.082 25.082 105.343 24.802L106.281 25.88C105.945 26.272 105.521 26.5753 105.007 26.79C104.503 26.9953 103.925 27.098 103.271 27.098ZM114.814 27L111.566 17.2H113.456L116.354 26.062H115.416L118.426 17.2H120.106L123.032 26.062H122.122L125.09 17.2H126.826L123.578 27H121.646L118.972 19.006H119.476L116.76 27H114.814ZM132.587 19.44C133.185 19.44 133.717 19.5567 134.183 19.79C134.659 20.0233 135.033 20.3827 135.303 20.868C135.574 21.344 135.709 21.96 135.709 22.716V27H133.959V22.94C133.959 22.2773 133.801 21.7827 133.483 21.456C133.175 21.1293 132.741 20.966 132.181 20.966C131.771 20.966 131.407 21.05 131.089 21.218C130.772 21.386 130.525 21.638 130.347 21.974C130.179 22.3007 130.095 22.716 130.095 23.22V27H128.345V16.612H130.095V21.54L129.717 20.924C129.979 20.448 130.357 20.084 130.851 19.832C131.355 19.5707 131.934 19.44 132.587 19.44ZM142.535 27V25.488L142.437 25.166V22.52C142.437 22.0067 142.283 21.61 141.975 21.33C141.667 21.0407 141.201 20.896 140.575 20.896C140.155 20.896 139.74 20.9613 139.329 21.092C138.928 21.2227 138.587 21.4047 138.307 21.638L137.621 20.364C138.023 20.056 138.499 19.8273 139.049 19.678C139.609 19.5193 140.188 19.44 140.785 19.44C141.868 19.44 142.703 19.7013 143.291 20.224C143.889 20.7373 144.187 21.5353 144.187 22.618V27H142.535ZM140.183 27.098C139.623 27.098 139.133 27.0047 138.713 26.818C138.293 26.622 137.967 26.356 137.733 26.02C137.509 25.6747 137.397 25.2873 137.397 24.858C137.397 24.438 137.495 24.06 137.691 23.724C137.897 23.388 138.228 23.122 138.685 22.926C139.143 22.73 139.749 22.632 140.505 22.632H142.675V23.794H140.631C140.034 23.794 139.633 23.892 139.427 24.088C139.222 24.2747 139.119 24.508 139.119 24.788C139.119 25.1053 139.245 25.3573 139.497 25.544C139.749 25.7307 140.099 25.824 140.547 25.824C140.977 25.824 141.359 25.726 141.695 25.53C142.041 25.334 142.288 25.0447 142.437 24.662L142.731 25.712C142.563 26.1507 142.26 26.4913 141.821 26.734C141.392 26.9767 140.846 27.098 140.183 27.098ZM149.247 27.098C148.426 27.098 147.791 26.888 147.343 26.468C146.895 26.0387 146.671 25.4087 146.671 24.578V17.872H148.421V24.536C148.421 24.8907 148.51 25.166 148.687 25.362C148.874 25.558 149.13 25.656 149.457 25.656C149.849 25.656 150.176 25.5533 150.437 25.348L150.927 26.594C150.722 26.762 150.47 26.888 150.171 26.972C149.872 27.056 149.564 27.098 149.247 27.098ZM145.439 20.98V19.58H150.423V20.98H145.439ZM154.677 27.098C154.051 27.098 153.449 27.0187 152.871 26.86C152.301 26.692 151.849 26.4913 151.513 26.258L152.185 24.928C152.521 25.1427 152.922 25.32 153.389 25.46C153.855 25.6 154.322 25.67 154.789 25.67C155.339 25.67 155.736 25.5953 155.979 25.446C156.231 25.2967 156.357 25.096 156.357 24.844C156.357 24.6387 156.273 24.4847 156.105 24.382C155.937 24.27 155.717 24.186 155.447 24.13C155.176 24.074 154.873 24.0227 154.537 23.976C154.21 23.9293 153.879 23.8687 153.543 23.794C153.216 23.71 152.917 23.5933 152.647 23.444C152.376 23.2853 152.157 23.0753 151.989 22.814C151.821 22.5527 151.737 22.2073 151.737 21.778C151.737 21.302 151.872 20.8913 152.143 20.546C152.413 20.1913 152.791 19.9207 153.277 19.734C153.771 19.538 154.355 19.44 155.027 19.44C155.531 19.44 156.039 19.496 156.553 19.608C157.066 19.72 157.491 19.8787 157.827 20.084L157.155 21.414C156.8 21.1993 156.441 21.0547 156.077 20.98C155.722 20.896 155.367 20.854 155.013 20.854C154.481 20.854 154.084 20.9333 153.823 21.092C153.571 21.2507 153.445 21.4513 153.445 21.694C153.445 21.918 153.529 22.086 153.697 22.198C153.865 22.31 154.084 22.3987 154.355 22.464C154.625 22.5293 154.924 22.5853 155.251 22.632C155.587 22.6693 155.918 22.73 156.245 22.814C156.571 22.898 156.87 23.0147 157.141 23.164C157.421 23.304 157.645 23.5047 157.813 23.766C157.981 24.0273 158.065 24.368 158.065 24.788C158.065 25.2547 157.925 25.6607 157.645 26.006C157.374 26.3513 156.987 26.622 156.483 26.818C155.979 27.0047 155.377 27.098 154.677 27.098ZM164.178 27V25.488L164.08 25.166V22.52C164.08 22.0067 163.926 21.61 163.618 21.33C163.31 21.0407 162.843 20.896 162.218 20.896C161.798 20.896 161.382 20.9613 160.972 21.092C160.57 21.2227 160.23 21.4047 159.95 21.638L159.264 20.364C159.665 20.056 160.141 19.8273 160.692 19.678C161.252 19.5193 161.83 19.44 162.428 19.44C163.51 19.44 164.346 19.7013 164.934 20.224C165.531 20.7373 165.83 21.5353 165.83 22.618V27H164.178ZM161.826 27.098C161.266 27.098 160.776 27.0047 160.356 26.818C159.936 26.622 159.609 26.356 159.376 26.02C159.152 25.6747 159.04 25.2873 159.04 24.858C159.04 24.438 159.138 24.06 159.334 23.724C159.539 23.388 159.87 23.122 160.328 22.926C160.785 22.73 161.392 22.632 162.148 22.632H164.318V23.794H162.274C161.676 23.794 161.275 23.892 161.07 24.088C160.864 24.2747 160.762 24.508 160.762 24.788C160.762 25.1053 160.888 25.3573 161.14 25.544C161.392 25.7307 161.742 25.824 162.19 25.824C162.619 25.824 163.002 25.726 163.338 25.53C163.683 25.334 163.93 25.0447 164.08 24.662L164.374 25.712C164.206 26.1507 163.902 26.4913 163.464 26.734C163.034 26.9767 162.488 27.098 161.826 27.098ZM172.22 27.098C171.613 27.098 171.058 26.958 170.554 26.678C170.059 26.398 169.662 25.978 169.364 25.418C169.074 24.8487 168.93 24.13 168.93 23.262C168.93 22.3847 169.07 21.666 169.35 21.106C169.639 20.546 170.031 20.1307 170.526 19.86C171.02 19.58 171.585 19.44 172.22 19.44C172.957 19.44 173.606 19.5987 174.166 19.916C174.735 20.2333 175.183 20.6767 175.51 21.246C175.846 21.8153 176.014 22.4873 176.014 23.262C176.014 24.0367 175.846 24.7133 175.51 25.292C175.183 25.8613 174.735 26.3047 174.166 26.622C173.606 26.9393 172.957 27.098 172.22 27.098ZM168.076 29.716V19.524H169.742V21.288L169.686 23.276L169.826 25.264V29.716H168.076ZM172.024 25.6C172.444 25.6 172.817 25.5067 173.144 25.32C173.48 25.1333 173.746 24.8627 173.942 24.508C174.138 24.1533 174.236 23.738 174.236 23.262C174.236 22.7767 174.138 22.3613 173.942 22.016C173.746 21.6613 173.48 21.3907 173.144 21.204C172.817 21.0173 172.444 20.924 172.024 20.924C171.604 20.924 171.226 21.0173 170.89 21.204C170.554 21.3907 170.288 21.6613 170.092 22.016C169.896 22.3613 169.798 22.7767 169.798 23.262C169.798 23.738 169.896 24.1533 170.092 24.508C170.288 24.8627 170.554 25.1333 170.89 25.32C171.226 25.5067 171.604 25.6 172.024 25.6ZM181.817 27.098C181.211 27.098 180.655 26.958 180.151 26.678C179.657 26.398 179.26 25.978 178.961 25.418C178.672 24.8487 178.527 24.13 178.527 23.262C178.527 22.3847 178.667 21.666 178.947 21.106C179.237 20.546 179.629 20.1307 180.123 19.86C180.618 19.58 181.183 19.44 181.817 19.44C182.555 19.44 183.203 19.5987 183.763 19.916C184.333 20.2333 184.781 20.6767 185.107 21.246C185.443 21.8153 185.611 22.4873 185.611 23.262C185.611 24.0367 185.443 24.7133 185.107 25.292C184.781 25.8613 184.333 26.3047 183.763 26.622C183.203 26.9393 182.555 27.098 181.817 27.098ZM177.673 29.716V19.524H179.339V21.288L179.283 23.276L179.423 25.264V29.716H177.673ZM181.621 25.6C182.041 25.6 182.415 25.5067 182.741 25.32C183.077 25.1333 183.343 24.8627 183.539 24.508C183.735 24.1533 183.833 23.738 183.833 23.262C183.833 22.7767 183.735 22.3613 183.539 22.016C183.343 21.6613 183.077 21.3907 182.741 21.204C182.415 21.0173 182.041 20.924 181.621 20.924C181.201 20.924 180.823 21.0173 180.487 21.204C180.151 21.3907 179.885 21.6613 179.689 22.016C179.493 22.3613 179.395 22.7767 179.395 23.262C179.395 23.738 179.493 24.1533 179.689 24.508C179.885 24.8627 180.151 25.1333 180.487 25.32C180.823 25.5067 181.201 25.6 181.621 25.6ZM195.886 27.14C195.121 27.14 194.416 27.0187 193.772 26.776C193.138 26.524 192.582 26.174 192.106 25.726C191.63 25.2687 191.262 24.732 191 24.116C190.739 23.5 190.608 22.828 190.608 22.1C190.608 21.372 190.739 20.7 191 20.084C191.262 19.468 191.63 18.936 192.106 18.488C192.592 18.0307 193.156 17.6807 193.8 17.438C194.444 17.186 195.149 17.06 195.914 17.06C196.745 17.06 197.492 17.1953 198.154 17.466C198.826 17.7367 199.391 18.1333 199.848 18.656L198.7 19.776C198.318 19.3933 197.902 19.1133 197.454 18.936C197.016 18.7493 196.53 18.656 195.998 18.656C195.485 18.656 195.009 18.74 194.57 18.908C194.132 19.076 193.754 19.314 193.436 19.622C193.119 19.93 192.872 20.294 192.694 20.714C192.526 21.134 192.442 21.596 192.442 22.1C192.442 22.5947 192.526 23.052 192.694 23.472C192.872 23.892 193.119 24.2607 193.436 24.578C193.754 24.886 194.127 25.124 194.556 25.292C194.986 25.46 195.462 25.544 195.984 25.544C196.47 25.544 196.936 25.4693 197.384 25.32C197.842 25.1613 198.276 24.9 198.686 24.536L199.722 25.894C199.209 26.3047 198.612 26.6173 197.93 26.832C197.258 27.0373 196.577 27.14 195.886 27.14ZM198 25.656V21.988H199.722V25.894L198 25.656ZM201.955 27V19.524H203.621V21.582L203.425 20.98C203.649 20.476 203.999 20.0933 204.475 19.832C204.96 19.5707 205.562 19.44 206.281 19.44V21.106C206.206 21.0873 206.136 21.078 206.071 21.078C206.005 21.0687 205.94 21.064 205.875 21.064C205.212 21.064 204.685 21.26 204.293 21.652C203.901 22.0347 203.705 22.6087 203.705 23.374V27H201.955ZM211.057 27.098C210.291 27.098 209.61 26.9347 209.013 26.608C208.415 26.272 207.944 25.8147 207.599 25.236C207.253 24.6573 207.081 23.9993 207.081 23.262C207.081 22.5153 207.253 21.8573 207.599 21.288C207.944 20.7093 208.415 20.2567 209.013 19.93C209.61 19.6033 210.291 19.44 211.057 19.44C211.831 19.44 212.517 19.6033 213.115 19.93C213.721 20.2567 214.193 20.7047 214.529 21.274C214.874 21.8433 215.047 22.506 215.047 23.262C215.047 23.9993 214.874 24.6573 214.529 25.236C214.193 25.8147 213.721 26.272 213.115 26.608C212.517 26.9347 211.831 27.098 211.057 27.098ZM211.057 25.6C211.486 25.6 211.869 25.5067 212.205 25.32C212.541 25.1333 212.802 24.8627 212.989 24.508C213.185 24.1533 213.283 23.738 213.283 23.262C213.283 22.7767 213.185 22.3613 212.989 22.016C212.802 21.6613 212.541 21.3907 212.205 21.204C211.869 21.0173 211.491 20.924 211.071 20.924C210.641 20.924 210.259 21.0173 209.923 21.204C209.596 21.3907 209.335 21.6613 209.139 22.016C208.943 22.3613 208.845 22.7767 208.845 23.262C208.845 23.738 208.943 24.1533 209.139 24.508C209.335 24.8627 209.596 25.1333 209.923 25.32C210.259 25.5067 210.637 25.6 211.057 25.6ZM219.884 27.098C219.25 27.098 218.69 26.9813 218.204 26.748C217.719 26.5053 217.341 26.1413 217.07 25.656C216.8 25.1613 216.664 24.5407 216.664 23.794V19.524H218.414V23.556C218.414 24.228 218.564 24.732 218.862 25.068C219.17 25.3947 219.604 25.558 220.164 25.558C220.575 25.558 220.93 25.474 221.228 25.306C221.536 25.138 221.774 24.886 221.942 24.55C222.12 24.214 222.208 23.7987 222.208 23.304V19.524H223.958V27H222.292V24.984L222.586 25.6C222.334 26.0853 221.966 26.4587 221.48 26.72C220.995 26.972 220.463 27.098 219.884 27.098ZM230.394 27.098C229.787 27.098 229.232 26.958 228.728 26.678C228.233 26.398 227.836 25.978 227.538 25.418C227.248 24.8487 227.104 24.13 227.104 23.262C227.104 22.3847 227.244 21.666 227.524 21.106C227.813 20.546 228.205 20.1307 228.7 19.86C229.194 19.58 229.759 19.44 230.394 19.44C231.131 19.44 231.78 19.5987 232.34 19.916C232.909 20.2333 233.357 20.6767 233.684 21.246C234.02 21.8153 234.188 22.4873 234.188 23.262C234.188 24.0367 234.02 24.7133 233.684 25.292C233.357 25.8613 232.909 26.3047 232.34 26.622C231.78 26.9393 231.131 27.098 230.394 27.098ZM226.25 29.716V19.524H227.916V21.288L227.86 23.276L228 25.264V29.716H226.25ZM230.198 25.6C230.618 25.6 230.991 25.5067 231.318 25.32C231.654 25.1333 231.92 24.8627 232.116 24.508C232.312 24.1533 232.41 23.738 232.41 23.262C232.41 22.7767 232.312 22.3613 232.116 22.016C231.92 21.6613 231.654 21.3907 231.318 21.204C230.991 21.0173 230.618 20.924 230.198 20.924C229.778 20.924 229.4 21.0173 229.064 21.204C228.728 21.3907 228.462 21.6613 228.266 22.016C228.07 22.3613 227.972 22.7767 227.972 23.262C227.972 23.738 228.07 24.1533 228.266 24.508C228.462 24.8627 228.728 25.1333 229.064 25.32C229.4 25.5067 229.778 25.6 230.198 25.6Z" fill="white"/>
<defs>
<linearGradient id="paint0_linear_24258_5992" x1="36.0024" y1="33.0822" x2="36.0024" y2="9.91521" gradientUnits="userSpaceOnUse">
<stop stop-color="#20B038"/>
<stop offset="1" stop-color="#60D66A"/>
</linearGradient>
<linearGradient id="paint1_linear_24258_5992" x1="36.0023" y1="33.4977" x2="36.0023" y2="9.5" gradientUnits="userSpaceOnUse">
<stop stop-color="#F9F9F9"/>
<stop offset="1" stop-color="white"/>
</linearGradient>
<clipPath id="clip0_24258_5992">
<rect width="24" height="24" fill="white" transform="translate(24 9.5)"/>
</clipPath>
</defs>
</svg>
