<svg width="17" height="17" viewBox="0 0 17 17" fill="none" xmlns="http://www.w3.org/2000/svg">
<path d="M15.4837 5.10474C15.9891 4.59934 16.1853 3.86311 15.79 3.26773C15.5759 2.94542 15.2755 2.56297 14.8563 2.14383C14.4372 1.72469 14.0547 1.42424 13.7324 1.21021C13.137 0.814843 12.4008 1.01109 11.8954 1.51647L5.56311 7.8488C5.37404 8.03787 5.24462 8.27762 5.21889 8.54376C5.17534 8.99525 5.13522 9.83879 5.22682 11.1481C5.25025 11.4829 5.51719 11.7499 5.85202 11.7733C7.16137 11.8649 8.0049 11.8248 8.45636 11.7812C8.72253 11.7555 8.96225 11.6261 9.15136 11.4371L15.4837 5.10474Z" stroke="#676767" stroke-width="1.3" stroke-linejoin="round"/>
<path d="M14.5737 6.01433C14.3748 5.57452 13.9451 4.82891 13.0582 3.94199C12.1709 3.0547 11.425 2.62495 10.9853 2.42623L11.895 1.51647C12.4004 1.01109 13.1366 0.814843 13.732 1.21021C14.0543 1.42424 14.4368 1.72469 14.8559 2.14383C15.2751 2.56297 15.5755 2.94542 15.7896 3.26773C16.1849 3.86311 15.9887 4.59934 15.4833 5.10474L14.5737 6.01433Z" stroke="#676767" stroke-width="1.3" stroke-linejoin="round"/>
<path d="M14.9009 8.17853C14.9035 8.45718 14.9049 8.74682 14.9049 9.04758C14.9049 11.433 14.8172 13.1169 14.7321 14.1896C14.6615 15.0779 13.9828 15.7567 13.0944 15.8272C12.0218 15.9123 10.3379 16 7.95243 16C5.56698 16 3.88307 15.9123 2.81046 15.8272C1.92205 15.7567 1.24332 15.0779 1.17282 14.1896C1.08769 13.1169 1 11.433 1 9.04758C1 6.66213 1.08769 4.97822 1.17282 3.9056C1.24332 3.0172 1.92206 2.33847 2.81046 2.26797C3.8831 2.18284 5.56698 2.09515 7.95243 2.09515C8.25319 2.09515 8.54283 2.09655 8.82148 2.09915" stroke="#676767" stroke-width="1.3" stroke-linecap="round"/>
</svg>
